<svg width="24" height="21" viewBox="0 0 124 125" fill="#f6f6f6" xmlns="http://www.w3.org/2000/svg">
<path d="M69.44 69.8116H68.94V70.3116V117.432C68.94 119.272 68.2088 121.037 66.9073 122.339C65.6058 123.64 63.8406 124.372 62 124.372C60.1594 124.372 58.3942 123.64 57.0927 122.339C55.7912 121.037 55.06 119.272 55.06 117.432V70.3116V69.8116H54.56H7.44C5.5994 69.8116 3.83418 69.0804 2.53268 67.7789C1.23118 66.4774 0.5 64.7122 0.5 62.8716C0.5 61.031 1.23118 59.2658 2.53268 57.9643C3.83418 56.6628 5.5994 55.9316 7.44 55.9316H54.56H55.06V55.4316V8.31158C55.06 6.47098 55.7912 4.70576 57.0927 3.40426C58.3942 2.10276 60.1594 1.37158 62 1.37158C63.8406 1.37158 65.6058 2.10276 66.9073 3.40426C68.2088 4.70576 68.94 6.47098 68.94 8.31158V55.4316V55.9316H69.44H116.56C118.401 55.9316 120.166 56.6628 121.467 57.9643C122.769 59.2658 123.5 61.031 123.5 62.8716C123.5 64.7122 122.769 66.4774 121.467 67.7789C120.166 69.0804 118.401 69.8116 116.56 69.8116H69.44Z" stroke="#292728"/>
</svg>
