<svg width="89" height="90" viewBox="0 0 89 90" fill="none" xmlns="http://www.w3.org/2000/svg">
<rect y="0.610413" width="89" height="88.6292" rx="44.3146" fill="#ECF2FF"/>
<path d="M56.75 46.675C56.2542 46.675 55.8388 46.507 55.504 46.171C55.168 45.8362 55 45.4208 55 44.925C55 44.4292 55.168 44.0132 55.504 43.6772C55.8388 43.3424 56.2542 43.175 56.75 43.175H60.25C60.7458 43.175 61.1612 43.3424 61.496 43.6772C61.832 44.0132 62 44.4292 62 44.925C62 45.4208 61.832 45.8362 61.496 46.171C61.1612 46.507 60.7458 46.675 60.25 46.675H56.75ZM55.7 57.875L52.9 55.775C52.4917 55.4833 52.2583 55.1042 52.2 54.6375C52.1417 54.1708 52.2583 53.7333 52.55 53.325C52.8417 52.9167 53.2208 52.6833 53.6875 52.625C54.1542 52.5667 54.5917 52.6833 55 52.975L57.8 55.075C58.2083 55.3667 58.4417 55.7458 58.5 56.2125C58.5583 56.6792 58.4417 57.1167 58.15 57.525C57.8583 57.9333 57.4792 58.1667 57.0125 58.225C56.5458 58.2833 56.1083 58.1667 55.7 57.875ZM55 36.875C54.5917 37.1667 54.1542 37.2833 53.6875 37.225C53.2208 37.1667 52.8417 36.9333 52.55 36.525C52.2583 36.1167 52.1417 35.6792 52.2 35.2125C52.2583 34.7458 52.4917 34.3667 52.9 34.075L55.7 31.975C56.1083 31.6833 56.5458 31.5667 57.0125 31.625C57.4792 31.6833 57.8583 31.9167 58.15 32.325C58.4417 32.7333 58.5583 33.1708 58.5 33.6375C58.4417 34.1042 58.2083 34.4833 57.8 34.775L55 36.875ZM32.25 57.175V50.175H30.5C29.5375 50.175 28.7138 49.832 28.029 49.146C27.343 48.4612 27 47.6375 27 46.675V43.175C27 42.2125 27.343 41.3882 28.029 40.7022C28.7138 40.0174 29.5375 39.675 30.5 39.675H37.5L43.5813 36C44.1646 35.65 44.7555 35.65 45.354 36C45.9513 36.35 46.25 36.8604 46.25 37.5312V52.3187C46.25 52.9896 45.9513 53.5 45.354 53.85C44.7555 54.2 44.1646 54.2 43.5813 53.85L37.5 50.175H35.75V57.175H32.25ZM48 50.7875V39.0625C48.7875 39.7625 49.4222 40.6159 49.904 41.6227C50.3847 42.6284 50.625 43.7292 50.625 44.925C50.625 46.1208 50.3847 47.2216 49.904 48.2272C49.4222 49.2341 48.7875 50.0875 48 50.7875Z" fill="#2462FF"/>
</svg>
