<svg width="90" height="90" viewBox="0 0 90 90" fill="none" xmlns="http://www.w3.org/2000/svg">
<rect width="89.9505" height="89.85" rx="44.925" fill="#DAF9EC"/>
<path d="M53.5 31.01C49.77 31.01 46 32.33 46 34.84V36.41C51.3 36.67 55 39.01 55 42.17V48.87L55.05 48.93C58.18 48.61 60.95 47.33 60.95 45.18V34.84C61 32.33 57.23 31.01 53.5 31.01Z" fill="#1EAE71"/>
<path d="M44 36.41V34.84C44 32.32 40.23 31 36.5 31C32.77 31 29 32.33 29 34.84V45.17C29 47.33 31.77 48.6 34.9 48.93L35 48.86V42.16C35 39.01 38.7 36.67 44 36.41Z" fill="#1EAE71"/>
<path d="M45.0001 37.78C40.0701 37.78 36.3501 39.66 36.3501 42.16V54.47C36.3501 56.97 40.0701 58.85 45.0001 58.85C49.9301 58.85 53.6501 56.97 53.6501 54.47V52.31C51.1505 54.1453 48.098 55.0699 45.0001 54.93C42.9559 54.9652 40.9224 54.6263 39.0001 53.93V52.2C40.8942 53.0119 42.9397 53.4108 45.0001 53.37C49.2101 53.37 52.6501 52.14 53.6301 50.14V47.4C51.8001 48.93 48.7201 49.93 45.0001 49.93C42.9559 49.9652 40.9224 49.6263 39.0001 48.93V47.16C40.8942 47.9719 42.9397 48.3708 45.0001 48.33C49.2101 48.33 52.6501 47.22 53.6301 45.22V42.16C53.6501 39.66 49.9301 37.78 45.0001 37.78Z" fill="#1EAE71"/>
</svg>
