<svg width="74" height="74" viewBox="0 0 74 74" fill="none" xmlns="http://www.w3.org/2000/svg">
<path d="M74 37C74 16.5655 57.4345 0 37 0C16.5655 0 0 16.5655 0 37C0 57.4345 16.5655 74 37 74C57.4345 74 74 57.4345 74 37Z" fill="#D3FFF3"/>
<path d="M50.9391 25.7168H37.4932L46.6618 36.9742L37.4932 48.2316H50.9391L60.1077 36.9742L50.9391 25.7168Z" fill="#00CC93"/>
<path d="M33.8524 25.7168H29.4648L38.6336 36.9742L29.4648 48.2316H33.8524L43.0211 36.9742L33.8524 25.7168Z" fill="#00CC93"/>
<path d="M25.9158 25.7168H21.5283L30.6969 36.9742L21.5283 48.2316H25.9158L35.0844 36.9742L25.9158 25.7168Z" fill="#00CC93"/>
<path d="M18.0331 25.7168H13.6455L22.8141 36.9742L13.6455 48.2316H18.0331L27.2017 36.9742L18.0331 25.7168Z" fill="#00CC93"/>
</svg>
