<svg width="31" height="31" viewBox="0 0 31 31" fill="none" xmlns="http://www.w3.org/2000/svg">
<path fill-rule="evenodd" clip-rule="evenodd" d="M6.61004 0.476067C12.3366 -0.158689 18.1158 -0.158689 23.8423 0.476067C27.013 0.831448 29.571 3.32837 29.943 6.51014C30.6221 12.3177 30.6221 18.1847 29.943 23.9923C29.7548 25.5383 29.0498 26.9755 27.9425 28.0707C26.8351 29.166 25.3903 29.8551 23.8423 30.0264C18.1159 30.6631 12.3365 30.6631 6.61004 30.0264C5.06201 29.8551 3.61721 29.166 2.50988 28.0707C1.40254 26.9755 0.6976 25.5383 0.509337 23.9923C-0.169779 18.1853 -0.169779 12.319 0.509337 6.51199C0.697518 4.96621 1.40219 3.52928 2.50916 2.43408C3.61612 1.33887 5.06049 0.649582 6.60819 0.477918L6.61004 0.476067ZM8.69235 8.71831C8.95264 8.45835 9.30547 8.31232 9.67335 8.31232C10.0412 8.31232 10.3941 8.45835 10.6543 8.71831L15.2262 13.2901L19.798 8.71831C19.9251 8.58192 20.0783 8.47253 20.2486 8.39665C20.4189 8.32078 20.6027 8.27998 20.7891 8.27669C20.9755 8.2734 21.1607 8.30769 21.3335 8.37751C21.5064 8.44733 21.6634 8.55125 21.7952 8.68307C21.9271 8.81489 22.031 8.97192 22.1008 9.14477C22.1706 9.31763 22.2049 9.50278 22.2016 9.68917C22.1983 9.87557 22.1575 10.0594 22.0817 10.2297C22.0058 10.4 21.8964 10.5532 21.76 10.6803L17.1882 15.2521L21.76 19.824C22.0052 20.0871 22.1387 20.4352 22.1324 20.7948C22.126 21.1545 21.9803 21.4976 21.726 21.7519C21.4716 22.0063 21.1285 22.152 20.7689 22.1583C20.4092 22.1647 20.0612 22.0312 19.798 21.786L15.2262 17.2141L10.6543 21.786C10.5273 21.9224 10.374 22.0317 10.2037 22.1076C10.0334 22.1835 9.84961 22.2243 9.66321 22.2276C9.47682 22.2309 9.29167 22.1966 9.11881 22.1268C8.94596 22.0569 8.78893 21.953 8.65711 21.8212C8.52529 21.6894 8.42137 21.5324 8.35155 21.3595C8.28173 21.1866 8.24744 21.0015 8.25073 20.8151C8.25402 20.6287 8.29482 20.4449 8.37069 20.2746C8.44657 20.1043 8.55596 19.9511 8.69235 19.824L13.2642 15.2521L8.69235 10.6803C8.43239 10.42 8.28637 10.0672 8.28637 9.69931C8.28637 9.33143 8.43239 8.9786 8.69235 8.71831Z" fill="#D4B601"/>
</svg>
