<svg width="89" height="90" viewBox="0 0 89 90" fill="none" xmlns="http://www.w3.org/2000/svg">
<rect y="0.343475" width="89" height="89.163" rx="44.5" fill="#E8F6E5"/>
<path d="M36.2065 58.5065V49.1098H34V46.2946H36.2065V43.5554H34V40.7402H36.2065V31.3435H42.1793L45.1467 40.7402H48.6087V31.3435H52.8315V40.7402H55V43.5554H52.8315V46.2946H55V49.1098H52.8315V58.5065H46.8207L43.7772 49.1098H40.4293V58.5065H36.2065ZM40.4293 46.2946H42.9402L42.1033 43.5554H40.3533L40.4293 46.2946ZM48.7228 52.5717H48.913L48.7609 49.1098H47.7337L48.7228 52.5717ZM40.2772 40.7402H41.3424L40.2391 37.088H40.087L40.2772 40.7402ZM46.9348 46.2946H48.6848L48.6087 43.5554H46.0598L46.9348 46.2946Z" fill="#64C551"/>
</svg>
