<svg width="23" height="21" viewBox="0 0 33 30" fill="none" xmlns="http://www.w3.org/2000/svg">
<path d="M28.32 12.48L29.38 13.28L20.56 24.94L13.46 14.36L7.12 23.64L2.62 19.64L4 18.05L6.7 20.44L13.46 10.56L20.65 21.27L27.31 12.46C26.3009 12.3748 25.3199 12.0845 24.427 11.6069C23.534 11.1293 22.748 10.4744 22.117 9.68236C21.486 8.89034 21.0233 7.97785 20.7573 7.00076C20.4913 6.02368 20.4276 5.00258 20.57 4H2C1.46957 4 0.960859 4.21071 0.585786 4.58579C0.210714 4.96086 0 5.46957 0 6V28C0 28.5304 0.210714 29.0391 0.585786 29.4142C0.960859 29.7893 1.46957 30 2 30H30C30.5304 30 31.0391 29.7893 31.4142 29.4142C31.7893 29.0391 32 28.5304 32 28V11.34C30.8945 12.0361 29.6254 12.4292 28.32 12.48Z" fill="#F6D935"/>
<path d="M28 10C30.7614 10 33 7.76142 33 5C33 2.23858 30.7614 0 28 0C25.2386 0 23 2.23858 23 5C23 7.76142 25.2386 10 28 10Z" fill="#F6D935"/>
</svg>
