<svg width="118" height="56" viewBox="0 0 118 56" fill="none" xmlns="http://www.w3.org/2000/svg">
<rect width="118" height="56" fill="#322F31"/>
<line x1="1" y1="1" x2="0.999998" y2="55" stroke="#F6D935" stroke-width="2" stroke-linecap="round"/>
<path d="M67.5 14.01C63.77 14.01 60 15.33 60 17.84V19.41C65.3 19.67 69 22.01 69 25.17V31.87L69.05 31.93C72.18 31.61 74.95 30.33 74.95 28.18V17.84C75 15.33 71.23 14.01 67.5 14.01Z" fill="#F6D935"/>
<path d="M58 19.41V17.84C58 15.32 54.23 14 50.5 14C46.77 14 43 15.33 43 17.84V28.17C43 30.33 45.77 31.6 48.9 31.93L49 31.86V25.16C49 22.01 52.7 19.67 58 19.41Z" fill="#F6D935"/>
<path d="M59.0001 20.78C54.0701 20.78 50.3501 22.66 50.3501 25.16V37.47C50.3501 39.97 54.0701 41.85 59.0001 41.85C63.9301 41.85 67.6501 39.97 67.6501 37.47V35.31C65.1505 37.1454 62.098 38.0699 59.0001 37.93C56.9559 37.9652 54.9224 37.6263 53.0001 36.93V35.2C54.8942 36.012 56.9397 36.4108 59.0001 36.37C63.2101 36.37 66.6501 35.14 67.6301 33.14V30.4C65.8001 31.93 62.7201 32.93 59.0001 32.93C56.9559 32.9652 54.9224 32.6263 53.0001 31.93V30.16C54.8942 30.972 56.9397 31.3708 59.0001 31.33C63.2101 31.33 66.6501 30.22 67.6301 28.22V25.16C67.6501 22.66 63.9301 20.78 59.0001 20.78Z" fill="#F6D935"/>
</svg>
