<svg width="25" height="21" viewBox="0 0 30 25" fill="none" xmlns="http://www.w3.org/2000/svg">
<path d="M21.9229 12.5C21.9229 12.1986 21.8014 11.9096 21.585 11.6965C21.3686 11.4834 21.0751 11.3636 20.7691 11.3636H10.3843V3.97727C10.3843 1.70455 12.8211 0 14.9997 0H25.9615C27.0322 0.001128 28.0588 0.420523 28.8159 1.16616C29.573 1.9118 29.9989 2.92278 30 3.97727V21.0227C29.9989 22.0772 29.573 23.0882 28.8159 23.8338C28.0588 24.5795 27.0322 24.9989 25.9615 25H14.4228C13.3521 24.9989 12.3255 24.5795 11.5684 23.8338C10.8113 23.0882 10.3854 22.0772 10.3843 21.0227V13.6364H20.7691C21.0751 13.6364 21.3686 13.5166 21.585 13.3035C21.8014 13.0904 21.9229 12.8014 21.9229 12.5ZM0.337691 11.6967L6.10703 6.01491C6.32518 5.8108 6.61566 5.69869 6.91655 5.70248C7.21743 5.70628 7.50491 5.82568 7.71768 6.03522C7.93046 6.24477 8.0517 6.52789 8.05555 6.82421C8.0594 7.12053 7.94556 7.40661 7.7383 7.62145L3.9392 11.3636H10.3843V13.6364H3.9392L7.7383 17.3786C7.84996 17.483 7.93925 17.6085 8.00091 17.7474C8.06257 17.8864 8.09535 18.0362 8.09732 18.1878C8.0993 18.3395 8.07042 18.49 8.01239 18.6305C7.95437 18.771 7.86837 18.8987 7.75946 19.0059C7.65056 19.1132 7.52095 19.1979 7.37829 19.255C7.23562 19.3122 7.08278 19.3406 6.92878 19.3387C6.77478 19.3367 6.62273 19.3044 6.4816 19.2437C6.34047 19.183 6.21311 19.095 6.10703 18.9851L0.337691 13.3033C0.121463 13.0902 -1.1642e-06 12.8013 -1.1642e-06 12.5C-1.1642e-06 12.1987 0.121463 11.9098 0.337691 11.6967Z" fill="#F6D935"/>
</svg>
