<svg width="23" height="27" viewBox="0 0 35 27" fill="none" xmlns="http://www.w3.org/2000/svg">
<path d="M29.75 15.0646C29.2542 15.0646 28.8388 14.8966 28.504 14.5606C28.168 14.2257 28 13.8104 28 13.3146C28 12.8187 28.168 12.4028 28.504 12.0668C28.8388 11.732 29.2542 11.5646 29.75 11.5646H33.25C33.7458 11.5646 34.1612 11.732 34.496 12.0668C34.832 12.4028 35 12.8187 35 13.3146C35 13.8104 34.832 14.2257 34.496 14.5606C34.1612 14.8966 33.7458 15.0646 33.25 15.0646H29.75ZM28.7 26.2646L25.9 24.1646C25.4917 23.8729 25.2583 23.4937 25.2 23.0271C25.1417 22.5604 25.2583 22.1229 25.55 21.7146C25.8417 21.3062 26.2208 21.0729 26.6875 21.0146C27.1542 20.9562 27.5917 21.0729 28 21.3646L30.8 23.4646C31.2083 23.7562 31.4417 24.1354 31.5 24.6021C31.5583 25.0688 31.4417 25.5063 31.15 25.9146C30.8583 26.3229 30.4792 26.5563 30.0125 26.6146C29.5458 26.6729 29.1083 26.5562 28.7 26.2646ZM28 5.26458C27.5917 5.55625 27.1542 5.67292 26.6875 5.61458C26.2208 5.55625 25.8417 5.32292 25.55 4.91458C25.2583 4.50625 25.1417 4.06875 25.2 3.60208C25.2583 3.13542 25.4917 2.75625 25.9 2.46458L28.7 0.364583C29.1083 0.0729164 29.5458 -0.04375 30.0125 0.0145834C30.4792 0.0729167 30.8583 0.30625 31.15 0.714584C31.4417 1.12292 31.5583 1.56042 31.5 2.02708C31.4417 2.49375 31.2083 2.87292 30.8 3.16458L28 5.26458ZM5.25 25.5646V18.5646H3.5C2.5375 18.5646 1.71383 18.2216 1.029 17.5356C0.343 16.8507 0 16.0271 0 15.0646V11.5646C0 10.6021 0.343 9.77783 1.029 9.09183C1.71383 8.407 2.5375 8.06458 3.5 8.06458H10.5L16.5813 4.38958C17.1646 4.03958 17.7555 4.03958 18.354 4.38958C18.9513 4.73958 19.25 5.25 19.25 5.92083V20.7083C19.25 21.3792 18.9513 21.8896 18.354 22.2396C17.7555 22.5896 17.1646 22.5896 16.5813 22.2396L10.5 18.5646H8.75V25.5646H5.25ZM21 19.1771V7.45208C21.7875 8.15208 22.4222 9.0055 22.904 10.0123C23.3847 11.018 23.625 12.1187 23.625 13.3146C23.625 14.5104 23.3847 15.6112 22.904 16.6168C22.4222 17.6237 21.7875 18.4771 21 19.1771Z" fill="#F6F6F6"/>
</svg>
