<svg width="25" height="21" viewBox="0 0 34 33" fill="none" xmlns="http://www.w3.org/2000/svg">
<mask id="mask0_855_2343" style="mask-type:luminance" maskUnits="userSpaceOnUse" x="0" y="-1" width="34" height="34">
<path d="M12.713 30.836C10.232 30.0953 7.98514 28.7248 6.191 26.858C6.76826 26.1733 7.1281 25.332 7.22449 24.4417C7.32088 23.5513 7.14943 22.6525 6.73208 21.8602C6.31473 21.0678 5.67046 20.418 4.88172 19.9939C4.09297 19.5698 3.19562 19.3907 2.3045 19.4795C2.10149 18.4851 1.99947 17.4727 2 16.4577C2 14.8902 2.24 13.3782 2.687 11.9577H2.75C3.51482 11.958 4.26708 11.7633 4.93575 11.3921C5.60442 11.0208 6.16744 10.4853 6.57165 9.83599C6.97585 9.18671 7.2079 8.44512 7.24589 7.68125C7.28388 6.91738 7.12654 6.15643 6.78875 5.47025C8.54719 3.83287 10.6738 2.64262 12.989 2C13.3658 2.7398 13.9399 3.36095 14.6478 3.79471C15.3557 4.22848 16.1698 4.45795 17 4.45775C17.8302 4.45795 18.6443 4.22848 19.3522 3.79471C20.0601 3.36095 20.6342 2.7398 21.011 2C23.3262 2.64262 25.4528 3.83287 27.2112 5.47025C26.871 6.16123 26.7138 6.92798 26.7547 7.69711C26.7956 8.46624 27.0332 9.21201 27.4448 9.86302C27.8564 10.514 28.4282 11.0485 29.1055 11.4153C29.7828 11.782 30.5429 11.9688 31.313 11.9577C31.7697 13.414 32.0014 14.9315 32 16.4577C32 17.4927 31.895 18.5037 31.6955 19.4802C30.8044 19.3915 29.907 19.5706 29.1183 19.9947C28.3295 20.4188 27.6853 21.0686 27.2679 21.8609C26.8506 22.6533 26.6791 23.5521 26.7755 24.4424C26.8719 25.3328 27.2317 26.1741 27.809 26.8587C26.0148 28.7253 23.7679 30.0955 21.287 30.836C20.9957 29.928 20.4235 29.1359 19.6531 28.5739C18.8826 28.012 17.9536 27.7092 17 27.7092C16.0464 27.7092 15.1174 28.012 14.3469 28.5739C13.5765 29.1359 13.0043 29.928 12.713 30.836Z" fill="white" stroke="white" stroke-width="4" stroke-linejoin="round"/>
<path d="M17 21.7078C17.6894 21.7078 18.3721 21.572 19.0091 21.3081C19.646 21.0443 20.2248 20.6576 20.7123 20.1701C21.1998 19.6826 21.5865 19.1038 21.8504 18.4668C22.1142 17.8299 22.25 17.1472 22.25 16.4578C22.25 15.7683 22.1142 15.0856 21.8504 14.4487C21.5865 13.8117 21.1998 13.233 20.7123 12.7455C20.2248 12.2579 19.646 11.8712 19.0091 11.6074C18.3721 11.3436 17.6894 11.2078 17 11.2078C15.6076 11.2078 14.2723 11.7609 13.2877 12.7455C12.3031 13.73 11.75 15.0654 11.75 16.4578C11.75 17.8501 12.3031 19.1855 13.2877 20.1701C14.2723 21.1546 15.6076 21.7078 17 21.7078Z" fill="black" stroke="black" stroke-width="4" stroke-linejoin="round"/>
</mask>
<g mask="url(#mask0_855_2343)">
<path d="M-1 -1.54224H35V34.4578H-1V-1.54224Z" fill="#F6F6F6"/>
</g>
</svg>
