<svg width="25" height="23" viewBox="0 0 32 28" fill="none" xmlns="http://www.w3.org/2000/svg">
<path d="M24.5 0.0100098C20.77 0.0100098 17 1.33001 17 3.84001V5.41001C22.3 5.67001 26 8.01001 26 11.17V17.87L26.05 17.93C29.18 17.61 31.95 16.33 31.95 14.18V3.84001C32 1.33001 28.23 0.0100098 24.5 0.0100098Z" fill="#F6F6F6"/>
<path d="M15 5.41V3.84C15 1.32 11.23 0 7.5 0C3.77 0 0 1.33 0 3.84V14.17C0 16.33 2.77 17.6 5.9 17.93L6 17.86V11.16C6 8.01 9.7 5.67 15 5.41Z" fill="#F6F6F6"/>
<path d="M16.0001 6.77997C11.0701 6.77997 7.3501 8.65997 7.3501 11.16V23.47C7.3501 25.97 11.0701 27.85 16.0001 27.85C20.9301 27.85 24.6501 25.97 24.6501 23.47V21.31C22.1505 23.1453 19.098 24.0699 16.0001 23.93C13.9559 23.9652 11.9224 23.6263 10.0001 22.93V21.2C11.8942 22.0119 13.9397 22.4108 16.0001 22.37C20.2101 22.37 23.6501 21.14 24.6301 19.14V16.4C22.8001 17.93 19.7201 18.93 16.0001 18.93C13.9559 18.9652 11.9224 18.6263 10.0001 17.93V16.16C11.8942 16.9719 13.9397 17.3708 16.0001 17.33C20.2101 17.33 23.6501 16.22 24.6301 14.22V11.16C24.6501 8.65997 20.9301 6.77997 16.0001 6.77997Z" fill="#F6F6F6"/>
</svg>
