<svg width="26" height="17" viewBox="0 0 26 17" fill="none" xmlns="http://www.w3.org/2000/svg">
<path d="M1.21875 0.78125H24.7812C25.1045 0.78125 25.4145 0.909653 25.643 1.13821C25.8716 1.36677 26 1.67677 26 2C26 2.32323 25.8716 2.63323 25.643 2.86179C25.4145 3.09035 25.1045 3.21875 24.7812 3.21875H1.21875C0.895517 3.21875 0.585524 3.09035 0.356964 2.86179C0.128404 2.63323 0 2.32323 0 2C0 1.67677 0.128404 1.36677 0.356964 1.13821C0.585524 0.909653 0.895517 0.78125 1.21875 0.78125ZM4.875 8.5C4.875 8.17677 5.0034 7.86677 5.23196 7.63821C5.46052 7.40965 5.77052 7.28125 6.09375 7.28125H19.9062C20.2295 7.28125 20.5395 7.40965 20.768 7.63821C20.9966 7.86677 21.125 8.17677 21.125 8.5C21.125 8.82323 20.9966 9.13323 20.768 9.36179C20.5395 9.59035 20.2295 9.71875 19.9062 9.71875H6.09375C5.77052 9.71875 5.46052 9.59035 5.23196 9.36179C5.0034 9.13323 4.875 8.82323 4.875 8.5ZM9.75 15C9.75 14.6768 9.8784 14.3668 10.107 14.1382C10.3355 13.9097 10.6455 13.7812 10.9688 13.7812H15.0312C15.3545 13.7812 15.6645 13.9097 15.893 14.1382C16.1216 14.3668 16.25 14.6768 16.25 15C16.25 15.3232 16.1216 15.6332 15.893 15.8618C15.6645 16.0903 15.3545 16.2188 15.0312 16.2188H10.9688C10.6455 16.2188 10.3355 16.0903 10.107 15.8618C9.8784 15.6332 9.75 15.3232 9.75 15Z" fill="#292728"/>
</svg>
