<svg width="90" height="90" viewBox="0 0 90 90" fill="none" xmlns="http://www.w3.org/2000/svg">
<rect width="90" height="90" rx="45" fill="#FFDED2"/>
<g clip-path="url(#clip0_899_2750)">
<path d="M41.25 45C45.3921 45 48.75 41.6421 48.75 37.5C48.75 33.3578 45.3921 30 41.25 30C37.1079 30 33.75 33.3578 33.75 37.5C33.75 41.6421 37.1079 45 41.25 45Z" fill="#EC5E2C"/>
<path d="M46.3038 47.4996H36.1962C34.5535 47.5016 32.9786 48.155 31.817 49.3166C30.6554 50.4782 30.002 52.0531 30 53.6958V59.9996H52.5V53.6958C52.498 52.0531 51.8446 50.4782 50.683 49.3166C49.5214 48.155 47.9465 47.5016 46.3038 47.4996Z" fill="#EC5E2C"/>
<path d="M57.4998 39.8438C56.8041 39.8784 56.1505 40.1872 55.682 40.7026C55.2135 41.218 54.9682 41.898 54.9998 42.5937C55.0314 41.898 54.7861 41.218 54.3176 40.7026C53.849 40.1872 53.1954 39.8784 52.4998 39.8438C51.8041 39.8784 51.1505 40.1872 50.682 40.7026C50.2135 41.218 49.9682 41.898 49.9998 42.5937C49.9998 45.4687 54.9998 49.01 54.9998 49.01C54.9998 49.01 59.9998 45.4737 59.9998 42.5937C60.0314 41.898 59.7861 41.218 59.3175 40.7026C58.849 40.1872 58.1954 39.8784 57.4998 39.8438Z" fill="#E06B42"/>
</g>
<defs>
<clipPath id="clip0_899_2750">
<rect width="30" height="30" fill="white" transform="translate(30 30)"/>
</clipPath>
</defs>
</svg>
