<svg width="25" height="25" viewBox="0 0 25 25" fill="none" xmlns="http://www.w3.org/2000/svg">
<rect x="0.414795" y="0.836304" width="24.0351" height="24.0351" rx="12.0175" fill="#E8F6E5"/>
<path d="M9.3965 17.3376V14.2354H8.58887V13.306H9.3965V12.4017H8.58887V11.4723H9.3965V8.37012H11.5827L12.6688 11.4723H13.9359V8.37012H15.4816V11.4723H16.2753V12.4017H15.4816V13.306H16.2753V14.2354H15.4816V17.3376H13.2815L12.1675 14.2354H10.9421V17.3376H9.3965ZM10.9421 13.306H11.8612L11.5548 12.4017H10.9143L10.9421 13.306ZM13.9777 15.3783H14.0473L13.9916 14.2354H13.6157L13.9777 15.3783ZM10.8864 11.4723H11.2763L10.8725 10.2666H10.8168L10.8864 11.4723ZM13.3232 13.306H13.9638L13.9359 12.4017H13.003L13.3232 13.306Z" fill="#64C551"/>
</svg>
