<svg width="20" height="20" viewBox="0 0 25 26" fill="none" xmlns="http://www.w3.org/2000/svg">
<path d="M23.625 17.6944C21.9167 17.6944 20.2639 17.4167 18.7222 16.9167C18.4807 16.8348 18.221 16.8226 17.9729 16.8816C17.7248 16.9406 17.4983 17.0682 17.3194 17.25L15.1389 19.9861C11.2083 18.1111 7.52778 14.5694 5.56944 10.5L8.27778 8.19444C8.65278 7.80556 8.76389 7.26389 8.61111 6.77778C8.09722 5.23611 7.83333 3.58333 7.83333 1.875C7.83333 1.125 7.20833 0.5 6.45833 0.5H1.65278C0.902778 0.5 0 0.833333 0 1.875C0 14.7778 10.7361 25.5 23.625 25.5C24.6111 25.5 25 24.625 25 23.8611V19.0694C25 18.3194 24.375 17.6944 23.625 17.6944Z" fill="#F9F9F9"/>
</svg>
