<svg width="90" height="90" viewBox="0 0 90 90" fill="none" xmlns="http://www.w3.org/2000/svg">
<rect width="90" height="90" rx="45" fill="#CCE7E4"/>
<path d="M58 59H32L26 65V31C26 27.7 28.7 25 32 25H58C61.3 25 64 27.7 64 31V53C64 56.3 61.3 59 58 59Z" fill="#067A6F"/>
<path d="M45 45C46.6569 45 48 43.6569 48 42C48 40.3431 46.6569 39 45 39C43.3431 39 42 40.3431 42 42C42 43.6569 43.3431 45 45 45Z" fill="white"/>
<path d="M55 45C56.6569 45 58 43.6569 58 42C58 40.3431 56.6569 39 55 39C53.3431 39 52 40.3431 52 42C52 43.6569 53.3431 45 55 45Z" fill="white"/>
<path d="M35 45C36.6569 45 38 43.6569 38 42C38 40.3431 36.6569 39 35 39C33.3431 39 32 40.3431 32 42C32 43.6569 33.3431 45 35 45Z" fill="white"/>
</svg>
