<svg width="132" height="122" viewBox="0 0 132 122" fill="none" xmlns="http://www.w3.org/2000/svg">
<path d="M15.8381 40.891C15.8381 40.891 23.4488 46.5457 16.6205 55.8279C12.5425 61.3759 14.2496 68.0382 16.2175 72.4956H23.7096C23.1314 66.4635 23.1314 60.39 23.7096 54.3579C24.1535 51.5496 23.6121 48.6742 22.1774 46.2196C20.7426 43.765 18.5029 41.8823 15.8381 40.891Z" fill="#2A685B"/>
<path d="M15.9211 40.6182C15.8579 40.5999 15.7902 40.604 15.7297 40.6299C15.6692 40.6559 15.6195 40.702 15.5892 40.7605C15.5599 40.8183 15.5522 40.8847 15.5674 40.9477C15.5826 41.0107 15.6198 41.0662 15.6722 41.1043C15.9686 41.3295 22.9865 46.7115 16.4072 55.6618C12.2699 61.2809 13.8821 67.9788 15.9686 72.6021C15.9894 72.6511 16.024 72.6928 16.0682 72.7223C16.1125 72.7518 16.1644 72.7677 16.2175 72.7681H23.7097C23.7866 72.7639 23.8589 72.7299 23.9112 72.6733C23.9373 72.6471 23.9572 72.6154 23.9695 72.5805C23.9818 72.5457 23.9862 72.5085 23.9823 72.4717C23.405 66.4555 23.405 60.3978 23.9823 54.3815C24.4163 51.5113 23.8528 48.5791 22.3857 46.0743C20.9186 43.5695 18.6368 41.6436 15.9211 40.6182ZM23.437 54.3222C22.8672 60.2715 22.8672 66.2617 23.437 72.2109H16.3953C14.4156 67.7299 12.9219 61.3283 16.8458 55.9937C21.9789 49.0113 19.0508 43.9612 17.1896 41.7681C19.4185 42.9383 21.2219 44.7812 22.3434 47.0349C23.465 49.2887 23.8476 51.8386 23.437 54.3222Z" fill="#000502"/>
<path d="M16.5968 41.4955C18.3157 43.2263 22.1329 48.3475 16.5968 55.7922C12.5188 61.3402 14.2258 68.0025 16.1937 72.4599H18.4461C16.1819 68.1448 14.1666 61.7077 17.8178 55.97C23.0457 47.8259 18.2209 42.8943 16.5968 41.4955Z" fill="#2A685B"/>
<path d="M16.7272 41.3177C16.6763 41.2685 16.6083 41.241 16.5375 41.241C16.4667 41.241 16.3987 41.2685 16.3479 41.3177C16.2986 41.3686 16.2711 41.4366 16.2711 41.5074C16.2711 41.5782 16.2986 41.6462 16.3479 41.6971C18.1261 43.4872 21.6943 48.4187 16.3479 55.6263C12.2106 61.2455 13.8228 67.9434 15.9092 72.5667C15.93 72.6156 15.9647 72.6574 16.0089 72.6869C16.0531 72.7163 16.105 72.7323 16.1582 72.7326H18.4106C18.4582 72.7347 18.5055 72.7236 18.5474 72.7006C18.5892 72.6776 18.6239 72.6436 18.6477 72.6022C18.6742 72.5617 18.6883 72.5143 18.6883 72.4659C18.6883 72.4175 18.6742 72.3701 18.6477 72.3296C16.3834 68.0263 14.4393 61.7197 18.0075 56.1124C23.4014 47.7786 18.3987 42.681 16.7272 41.3177ZM18.0194 72.211H16.3953C14.4155 67.73 12.9219 61.3284 16.8458 55.9938C19.5249 52.3426 20.0347 49.2367 19.6316 46.7946C20.2125 49.1655 19.9754 52.1411 17.6045 55.8516C14.0125 61.5063 15.7907 67.7892 18.0194 72.211Z" fill="#000502"/>
<path d="M25.808 65.9517C25.9764 68.1369 25.8769 70.3345 25.5116 72.4955H26.4126C29.317 68.6901 33.5254 62.6679 33.9877 59.3842C34.6516 54.3578 34.5804 51.24 38.0538 44.4117C38.0538 44.4117 32.9445 49.4263 29.3288 52.4848C25.7131 55.5433 25.3219 56.705 25.808 65.9517Z" fill="#2A685B"/>
<path d="M37.8641 44.2102C37.8641 44.2102 32.7192 49.2603 29.151 52.2714C25.3812 55.4484 25.0492 56.7287 25.5353 65.9635C25.6921 68.1252 25.5926 70.2979 25.2389 72.4362C25.2321 72.4763 25.234 72.5175 25.2445 72.5568C25.2549 72.5962 25.2737 72.6328 25.2996 72.6643C25.3254 72.6958 25.3577 72.7213 25.3943 72.7392C25.4309 72.7572 25.4709 72.767 25.5116 72.7681H26.4125C26.4558 72.7695 26.4989 72.7606 26.538 72.742C26.5772 72.7235 26.6114 72.6958 26.6378 72.6614C29.8859 68.4056 33.8454 62.6561 34.2722 59.4198C34.3552 58.7203 34.4381 58.0565 34.5093 57.4163C34.8448 52.9004 36.138 48.5077 38.3028 44.5303C38.332 44.4725 38.3398 44.4061 38.3246 44.3431C38.3094 44.2801 38.2722 44.2246 38.2198 44.1865C38.1675 44.1471 38.1028 44.1278 38.0376 44.1322C37.9723 44.1365 37.9107 44.1642 37.8641 44.2102ZM33.964 57.357C33.881 57.9972 33.8098 58.6492 33.715 59.3486C33.3001 62.5968 28.9139 68.7612 26.2821 72.211H25.8435C26.1595 70.1363 26.239 68.0324 26.0806 65.9398C25.5946 56.5746 26.0095 55.65 29.4947 52.6982C32.0554 50.5406 35.4221 47.3873 37.1054 45.7158C35.3156 49.3566 34.2487 53.31 33.964 57.357Z" fill="#000502"/>
<path d="M27.4202 65.4182H27.7877C27.7877 65.3353 28.7361 56.8829 32.8615 52.058L32.577 51.8209C28.3804 56.7643 27.432 65.3234 27.4202 65.4182Z" fill="white"/>
<path d="M21.8603 65.6079C21.2083 65.8568 20.6037 66.1176 20.0702 66.3666C20.1587 66.4869 20.238 66.6137 20.3073 66.7459C21.1611 68.5463 21.6333 70.5038 21.6943 72.4955H26.6377C28.134 69.0811 28.4632 65.2687 27.5742 61.6484C25.7604 53.9666 28.8664 62.9406 21.8603 65.6079Z" fill="#2A685B"/>
<path d="M27.3372 59.2775C27.1593 58.424 27.1356 58.3173 26.8748 58.3173C26.614 58.3173 26.5785 58.5425 26.531 58.8981C26.4291 60.3094 25.9297 61.6629 25.0905 62.8021C24.2513 63.9412 23.1067 64.8195 21.7892 65.3352C21.149 65.5842 20.5326 65.845 19.9754 66.0939C19.9405 66.1135 19.9099 66.14 19.8855 66.1717C19.8611 66.2035 19.8434 66.2398 19.8334 66.2786C19.8234 66.3174 19.8214 66.3578 19.8275 66.3973C19.8335 66.4369 19.8476 66.4748 19.8687 66.5088C19.9509 66.6162 20.0223 66.7314 20.0821 66.8526C20.9196 68.6199 21.3836 70.5408 21.4454 72.4955C21.4484 72.5657 21.4785 72.632 21.5293 72.6806C21.5801 72.7292 21.6477 72.7563 21.718 72.7563H26.6614C26.7166 72.7582 26.7711 72.7434 26.8176 72.7138C26.8642 72.6842 26.9007 72.6411 26.9222 72.5903C28.4431 69.1241 28.7765 65.2525 27.8706 61.5773C27.5861 60.463 27.432 59.7635 27.3372 59.2775ZM26.4599 72.1991H21.9551C21.8651 70.2596 21.3896 68.3574 20.5563 66.6037C20.5358 66.5561 20.5077 66.512 20.4733 66.4733C20.9475 66.2599 21.4454 66.0584 21.967 65.8568C23.2365 65.388 24.3605 64.5936 25.2261 63.5532C26.0916 62.5128 26.6684 61.2631 26.8985 59.9295C27.0052 60.38 27.1238 60.9727 27.3016 61.7077C28.1694 65.2073 27.8739 68.8942 26.4599 72.2109V72.1991Z" fill="#000502"/>
<path d="M17.7823 63.5807C13.8821 61.6484 10.9659 66.5563 10.9659 66.5563C10.9659 66.5563 12.59 65.3708 15.0439 68.37C16.01 69.5523 16.626 70.9813 16.8221 72.4954H20.5919C20.7223 70.0771 20.6275 65.0389 17.7823 63.5807Z" fill="#2A685B"/>
<path d="M17.8653 63.3319C17.2634 63.0236 16.5974 62.8612 15.9211 62.8577C12.8863 62.8577 10.8118 66.2718 10.7288 66.4141C10.6893 66.4627 10.6678 66.5234 10.6678 66.586C10.6678 66.6486 10.6893 66.7093 10.7288 66.7579C10.7783 66.7954 10.8386 66.8156 10.9007 66.8156C10.9628 66.8156 11.0231 66.7954 11.0726 66.7579C11.0726 66.7579 12.5426 65.8332 14.7831 68.5242C15.7572 69.6596 16.3866 71.0499 16.5969 72.5311C16.6055 72.5971 16.6381 72.6576 16.6883 72.7013C16.7385 72.7449 16.803 72.7687 16.8695 72.7682H20.6393C20.7088 72.7655 20.7749 72.7375 20.8251 72.6895C20.8753 72.6414 20.9062 72.5766 20.912 72.5074C21.0187 69.7215 20.829 64.8255 17.8653 63.3319ZM20.3192 72.211H17.0592C16.8315 70.7336 16.2089 69.3451 15.2573 68.1923C13.6688 66.2955 12.4003 66.011 11.7009 66.0703C12.424 65.1219 14.0007 63.4148 15.9804 63.4148C16.5706 63.4155 17.1519 63.5578 17.6756 63.8297C20.2955 65.2049 20.4259 69.9468 20.3192 72.211Z" fill="#000502"/>
<path d="M36.2045 59.6687C33.1934 59.6687 33.7506 61.6484 33.1934 62.4308C30.6921 65.762 27.5506 70.2075 25.9384 72.4955H28.3093C29.4495 71.7625 30.5068 70.9079 31.4626 69.9467C35.0902 66.3903 34.7582 62.6087 39.263 62.4427C41.6561 62.2617 44.0586 62.6391 46.281 63.5452C43.5498 60.9986 39.9382 59.6093 36.2045 59.6687Z" fill="#2A685B"/>
<path d="M36.2045 59.3961C33.7506 59.3961 33.4305 60.5815 33.1934 61.5181C33.1488 61.7815 33.0564 62.0346 32.9208 62.2649C30.4194 65.5961 27.2661 70.006 25.6538 72.3177C25.6267 72.3596 25.6111 72.408 25.6086 72.458C25.6061 72.5079 25.6169 72.5576 25.6397 72.6021C25.6625 72.6465 25.6967 72.6842 25.7387 72.7113C25.7807 72.7384 25.8291 72.7539 25.8791 72.7563H28.25C28.3007 72.7684 28.3535 72.7684 28.4041 72.7563C29.5769 72.0048 30.6693 71.1349 31.6642 70.1601C32.7971 69.0013 33.7663 67.6931 34.5448 66.2718C35.7303 64.2683 36.5838 62.8339 39.2867 62.7154C41.6347 62.5475 43.9901 62.9164 46.1743 63.7942C46.2321 63.8234 46.2985 63.8312 46.3615 63.816C46.4244 63.8008 46.48 63.7636 46.5181 63.7112C46.5606 63.6617 46.584 63.5986 46.584 63.5333C46.584 63.4681 46.5606 63.405 46.5181 63.3555C43.7299 60.7384 40.0277 59.3171 36.2045 59.3961ZM39.2512 62.1582C36.2638 62.2649 35.2917 63.889 34.0707 65.9636C33.3112 67.3434 32.3703 68.6153 31.273 69.7452C30.3304 70.6727 29.2934 71.4992 28.1789 72.211H26.4125C28.1196 69.84 31.0121 65.7265 33.3594 62.5968C33.5449 62.3119 33.6737 61.994 33.7387 61.6603C33.9521 60.8186 34.1773 59.9414 36.2045 59.9414C39.3398 59.9241 42.398 60.913 44.9295 62.7628C43.0801 62.2652 41.1639 62.0612 39.2512 62.1582Z" fill="#000502"/>
<path d="M38.6109 59.159C30.9172 58.2462 32.162 62.2056 30.9528 63.8179C29.8977 65.2286 25.9501 69.5792 24.6817 72.4955H26.2228C27.8475 69.9427 29.8869 67.679 32.2568 65.7976C35.8132 63.2607 31.6522 59.2538 39.4526 61.0557C46.2335 62.5257 47.419 64.3987 47.5375 64.8611C47.3004 64.1498 45.6408 60.0006 38.6109 59.159Z" fill="#2A685B"/>
<path d="M38.6465 58.8864C37.9427 58.7961 37.234 58.7485 36.5245 58.7441C32.3279 58.7441 31.7826 60.7357 31.2729 62.3005C31.1712 62.7701 30.9909 63.219 30.7394 63.6283C30.4904 63.9602 30.0755 64.4462 29.5539 65.0508C27.5556 67.2752 25.8249 69.726 24.3971 72.3533C24.3763 72.3936 24.3655 72.4383 24.3655 72.4837C24.3655 72.5291 24.3763 72.5738 24.3971 72.6141C24.4208 72.6529 24.4539 72.6851 24.4932 72.7079C24.5325 72.7307 24.5769 72.7433 24.6224 72.7445H26.1635C26.2107 72.7442 26.2571 72.7321 26.2985 72.7093C26.3399 72.6865 26.375 72.6538 26.4006 72.6141C28.0015 70.1 30.0039 67.8654 32.3279 65.9992C32.8508 65.6107 33.288 65.1186 33.6123 64.5536C33.9366 63.9887 34.141 63.3629 34.2128 62.7155C34.4499 61.53 34.5922 60.8306 36.3111 60.8306C37.3152 60.8673 38.3126 61.0104 39.2866 61.2573C46.0319 62.7629 47.0514 64.5885 47.1818 64.9323C47.2085 65.0003 47.2602 65.0555 47.3265 65.0864C47.3927 65.1173 47.4682 65.1215 47.5375 65.0982C47.6037 65.0694 47.6572 65.0173 47.6878 64.9518C47.7183 64.8863 47.7239 64.8119 47.7034 64.7426C47.5256 63.9365 45.7948 59.7399 38.6465 58.8864ZM39.5119 60.7357C38.4952 60.4788 37.4539 60.3318 36.4059 60.2971C34.2365 60.2971 34.035 61.4826 33.7623 62.668C33.7008 63.2467 33.5206 63.8064 33.233 64.3122C32.9454 64.8181 32.5566 65.2592 32.0908 65.608C29.7382 67.4638 27.7075 69.6947 26.0805 72.2111H25.1203C26.5196 69.7945 28.1557 67.5231 30.0044 65.4302C30.5142 64.8137 30.9291 64.3158 31.1899 63.9839C31.4847 63.5221 31.6973 63.0127 31.8182 62.4784C32.2568 60.9847 32.7547 59.3013 36.56 59.3013C37.246 59.3059 37.9309 59.3534 38.6109 59.4436C43.0564 59.9652 45.2851 61.8145 46.3757 63.2489C44.2543 62.012 41.9304 61.1611 39.5119 60.7357Z" fill="#000502"/>
<path d="M17.6875 62.1582C14.8542 60.5934 10.5747 60.1311 7.01826 67.2676C3.46186 74.4041 1.45842 74.6886 1.45842 74.6886C6.10969 73.706 10.2894 71.1731 13.3131 67.5047C18.2328 61.4232 19.7502 65.8095 20.0584 68.8917C20.2125 70.4091 20.3192 71.6182 20.3785 72.4481H21.0779C21.1253 69.9467 20.8408 63.889 17.6875 62.1582Z" fill="#2A685B"/>
<path d="M17.7824 61.9092C16.6984 61.2875 15.4753 60.9491 14.226 60.9253C11.3097 60.9253 8.79652 63.0117 6.75751 67.149C3.41449 73.9062 1.3992 74.4396 1.35178 74.4515C1.28136 74.4632 1.21833 74.502 1.17622 74.5596C1.13411 74.6172 1.11627 74.6891 1.12654 74.7597C1.13258 74.8268 1.16434 74.8889 1.21516 74.9331C1.26598 74.9773 1.33193 75.0001 1.3992 74.9968C6.13218 74.0209 10.3875 71.4518 13.4554 67.718C15.0084 65.7857 16.3717 64.7662 17.3793 64.7662C19.1456 64.7662 19.608 67.967 19.7502 68.9509C19.9043 70.4683 19.9992 71.6775 20.0585 72.5073C20.0644 72.5786 20.097 72.645 20.1497 72.6933C20.2025 72.7417 20.2714 72.7684 20.343 72.7681H21.0424C21.1158 72.7682 21.1865 72.7398 21.2395 72.689C21.2925 72.6382 21.3238 72.5688 21.3269 72.4955C21.398 69.9467 21.1135 63.723 17.7824 61.9092ZM20.5919 72.2109C20.5326 71.393 20.4378 70.2786 20.3074 68.8916C20.177 67.5046 19.5961 64.2209 17.4267 64.2209C16.2413 64.2209 14.7831 65.2523 13.0642 67.3742C10.4078 70.5658 6.86368 72.8969 2.88103 74.0721C4.7111 72.1079 6.19427 69.847 7.26726 67.3861C9.21143 63.4622 11.5468 61.4588 14.2378 61.4588C15.3885 61.4892 16.5133 61.8071 17.5097 62.3834C20.426 63.9957 20.7697 69.5911 20.7697 72.1991L20.5919 72.2109Z" fill="#000502"/>
<path d="M13.9532 62.2412C12.3793 62.5631 10.9977 63.497 10.1123 64.8374C9.11753 66.0403 8.26985 67.3576 7.58726 68.7613C6.85559 70.5173 5.57998 71.9924 3.94787 72.9697L4.13755 73.278C5.8249 72.2676 7.14879 70.7487 7.91919 68.9391C8.58346 67.5569 9.41131 66.2594 10.385 65.0745C11.9735 63.1541 13.2064 62.7036 13.9414 62.6087C14.3917 62.5475 14.8486 62.6575 15.2217 62.917L15.4706 62.6325C15.0288 62.3227 14.4897 62.1837 13.9532 62.2412Z" fill="white"/>
<path d="M22.8325 57.772C22.3377 58.0806 21.7772 58.2683 21.1964 58.3198C20.6155 58.3713 20.0308 58.2851 19.4894 58.0684C18.9931 57.8363 18.4431 57.7435 17.8981 57.7999C17.3531 57.8563 16.8337 58.0597 16.3954 58.3885C14.1193 60.0363 16.1583 65.193 15.3759 68.3701C15.3759 68.3701 21.2084 65.8688 21.8722 65.608C23.1608 65.1161 24.2921 64.2843 25.1458 63.2009C25.9995 62.1176 26.5438 60.8233 26.7208 59.4554L26.8156 58.6256C26.8156 58.6256 26.543 55.5433 22.8325 57.772Z" fill="#2A685B"/>
<path d="M25.1322 56.6814C24.2573 56.7463 23.4149 57.0407 22.6901 57.5349C22.2295 57.8134 21.7117 57.9837 21.1758 58.033C20.6398 58.0822 20.0997 58.0092 19.596 57.8194C19.0556 57.5695 18.4579 57.4696 17.8656 57.53C17.2732 57.5905 16.7081 57.8092 16.2293 58.1632C14.7356 59.242 14.9371 61.5537 15.1387 63.9957C15.3596 65.4256 15.3596 66.8809 15.1387 68.3108C15.1285 68.3596 15.1307 68.4101 15.1452 68.4578C15.1597 68.5054 15.186 68.5487 15.2216 68.5835C15.283 68.6052 15.35 68.6052 15.4113 68.5835H15.518C15.518 68.5835 21.3505 66.0703 22.0025 65.8214C23.3343 65.3208 24.5047 64.4671 25.3881 63.3519C26.2715 62.2367 26.8346 60.902 27.0171 59.491C27.0222 59.4675 27.0222 59.4433 27.0171 59.4198L27.1119 58.5307C27.076 58.0296 26.852 57.5605 26.4849 57.2176C26.1178 56.8746 25.6346 56.6831 25.1322 56.6814ZM26.448 59.3961C26.282 60.7171 25.758 61.9676 24.9327 63.0123C24.1073 64.057 23.0121 64.8562 21.7654 65.3235C21.2083 65.5368 17.1658 67.2795 15.7433 67.8841C15.8965 66.5687 15.8965 65.24 15.7433 63.9246C15.5417 61.6485 15.3639 59.491 16.5968 58.5781C17.0522 58.2605 17.5945 58.0907 18.1498 58.0921C18.5579 58.1026 18.9603 58.1912 19.3352 58.3529C19.9133 58.5737 20.5341 58.6596 21.1504 58.6041C21.7667 58.5487 22.3623 58.3533 22.8916 58.0328C23.5321 57.5939 24.2755 57.3284 25.0492 57.2623C25.4061 57.2725 25.7469 57.4133 26.0069 57.658C26.2669 57.9027 26.4281 58.2343 26.4599 58.59L26.448 59.3961Z" fill="#000502"/>
<path d="M18.1498 90.1945H27.9536L32.0316 74.4989H14.0718L18.1498 90.1945Z" fill="white"/>
<path d="M32.0079 74.2263H14.0718C14.0288 74.2266 13.9863 74.2364 13.9474 74.2548C13.9085 74.2732 13.8741 74.2999 13.8466 74.333C13.8287 74.3699 13.8194 74.4105 13.8194 74.4515C13.8194 74.4926 13.8287 74.5331 13.8466 74.5701L17.9246 90.2538C17.9383 90.3154 17.973 90.3704 18.0227 90.4093C18.0724 90.4482 18.1341 90.4687 18.1972 90.4672H28.001C28.0642 90.4687 28.1259 90.4482 28.1756 90.4093C28.2253 90.3704 28.26 90.3154 28.2737 90.2538L32.2924 74.5701C32.3132 74.534 32.3242 74.4931 32.3242 74.4515C32.3242 74.4099 32.3132 74.369 32.2924 74.333C32.2634 74.2863 32.2198 74.2505 32.1683 74.2312C32.1169 74.2119 32.0605 74.2102 32.0079 74.2263ZM27.7402 89.91H18.3632L14.4274 74.7716H31.6641L27.7402 89.91Z" fill="#000502"/>
<path d="M30.1349 72.0569H15.9093C15.5704 72.063 15.2361 72.1361 14.9256 72.2718C14.6151 72.4076 14.3344 72.6034 14.0998 72.8479C13.8651 73.0925 13.6811 73.381 13.5584 73.6969C13.4356 74.0128 13.3764 74.3498 13.3843 74.6886H32.7074C32.7153 74.3458 32.6546 74.005 32.5288 73.686C32.4031 73.367 32.2149 73.0764 31.9752 72.8312C31.7355 72.586 31.4493 72.3912 31.1332 72.2582C30.8172 72.1252 30.4778 72.0568 30.1349 72.0569Z" fill="white"/>
<path d="M30.1349 71.7842H15.9093C15.1537 71.7998 14.4349 72.1141 13.9106 72.6585C13.3862 73.2029 13.0989 73.9328 13.1116 74.6886C13.1116 74.7609 13.1404 74.8302 13.1915 74.8814C13.2426 74.9325 13.312 74.9612 13.3843 74.9612H32.7074C32.7809 74.9613 32.8515 74.933 32.9045 74.8821C32.9575 74.8313 32.9889 74.762 32.9919 74.6886C32.9982 74.3094 32.929 73.9328 32.7882 73.5807C32.6475 73.2286 32.438 72.908 32.1721 72.6377C31.9062 72.3673 31.5891 72.1526 31.2393 72.0061C30.8896 71.8596 30.5141 71.7841 30.1349 71.7842ZM13.6807 74.3566C13.7448 73.795 14.0135 73.2766 14.4355 72.9005C14.8575 72.5244 15.4033 72.3169 15.9686 72.3176H30.1942C30.7534 72.3313 31.2898 72.5423 31.7085 72.9133C32.1272 73.2842 32.4012 73.7913 32.4822 74.3448L13.6807 74.3566Z" fill="#000502"/>
<path d="M16.5019 65.5487L16.8576 65.6672C17.6514 63.3021 18.8553 61.0951 20.414 59.1471L20.1413 58.91C18.5422 60.8883 17.3097 63.1365 16.5019 65.5487Z" fill="white"/>
<path d="M41.7169 6.28718V75.317C41.7169 77.3952 42.5424 79.3883 44.0119 80.8578C45.4815 82.3273 47.4746 83.1529 49.5528 83.1529H131.22V0.276855H47.7272C46.1331 0.276855 44.6044 0.910084 43.4772 2.03724C42.3501 3.16439 41.7169 4.69314 41.7169 6.28718Z" fill="white"/>
<path d="M131.22 0.00416064H47.7272C46.0701 0.0197626 44.4859 0.688224 43.3186 1.86449C42.1512 3.04075 41.4947 4.62992 41.4917 6.28714V75.3169C41.4948 77.4665 42.3501 79.5271 43.8701 81.0471C45.3901 82.5671 47.4507 83.4224 49.6003 83.4255H131.267C131.339 83.4255 131.409 83.3968 131.46 83.3457C131.511 83.2945 131.54 83.2252 131.54 83.1529V0.276818C131.54 0.236649 131.532 0.19684 131.516 0.160239C131.499 0.123639 131.475 0.0911505 131.444 0.0650989C131.413 0.0390472 131.377 0.0200755 131.339 0.00954096C131.3 -0.000993632 131.259 -0.00283087 131.22 0.00416064ZM130.947 82.8802H49.5529C47.5489 82.874 45.6288 82.0751 44.2117 80.6581C42.7947 79.241 41.9958 77.3209 41.9896 75.3169V6.28714C41.9927 4.76747 42.5986 3.31112 43.6743 2.23766C44.75 1.1642 46.2076 0.561327 47.7272 0.56133H130.947V82.8802Z" fill="#000502"/>
<path d="M44.7755 8.52766V77.0595H131.22V3.34717H49.9559C48.582 3.34717 47.2643 3.89297 46.2928 4.8645C45.3212 5.83603 44.7755 7.15371 44.7755 8.52766Z" fill="#D4D9D7"/>
<path d="M131.22 3.06262H49.956C48.5075 3.06575 47.1193 3.64254 46.0951 4.66674C45.0709 5.69095 44.4941 7.07918 44.491 8.52763V77.0595C44.491 77.135 44.5209 77.2073 44.5743 77.2607C44.6276 77.314 44.7 77.344 44.7755 77.344H131.22C131.257 77.3441 131.293 77.3366 131.327 77.3222C131.361 77.3078 131.391 77.2866 131.417 77.26C131.442 77.2334 131.462 77.202 131.475 77.1675C131.488 77.133 131.494 77.0963 131.492 77.0595V3.34713C131.494 3.31034 131.488 3.27361 131.475 3.23915C131.462 3.20469 131.442 3.17321 131.417 3.14663C131.391 3.12004 131.361 3.09889 131.327 3.08445C131.293 3.07001 131.257 3.06259 131.22 3.06262ZM130.947 76.7631H45.0481V8.52763C45.0513 7.22695 45.5693 5.98044 46.4891 5.06072C47.4088 4.141 48.6553 3.62292 49.956 3.61979H130.947V76.7631Z" fill="#000502"/>
<path d="M44.7755 7.117V77.0596H60.7081V3.34721H48.6045C48.1053 3.34252 47.6102 3.4364 47.1474 3.62346C46.6845 3.81052 46.2632 4.08708 45.9075 4.43729C45.5518 4.78751 45.2686 5.20449 45.0744 5.66433C44.8801 6.12417 44.7785 6.61782 44.7755 7.117Z" fill="#EF490F"/>
<path d="M60.7082 3.06264H48.6045C47.5228 3.05944 46.4836 3.48369 45.7132 4.24302C44.9427 5.00235 44.5035 6.03528 44.491 7.11694V77.0595C44.491 77.135 44.5209 77.2074 44.5743 77.2607C44.6276 77.3141 44.7 77.344 44.7755 77.344H60.7082C60.7836 77.344 60.856 77.3141 60.9093 77.2607C60.9627 77.2074 60.9927 77.135 60.9927 77.0595V3.34715C60.9927 3.27169 60.9627 3.19933 60.9093 3.14597C60.856 3.09262 60.7836 3.06264 60.7082 3.06264ZM60.4592 76.7632H45.0481V7.11694C45.0481 6.17372 45.4228 5.26914 46.0898 4.60218C46.7567 3.93523 47.6613 3.56054 48.6045 3.56054H60.4592V76.7632Z" fill="#000502"/>
<path d="M18.1972 83.1409C18.1972 84.9373 18.91 86.6602 20.1791 87.9316C21.4482 89.2029 23.1699 89.9187 24.9662 89.9218H131.22V83.0698H18.1972V83.1409Z" fill="#002D3A"/>
<path d="M131.22 82.7972H18.1972C18.1614 82.7972 18.126 82.8043 18.0929 82.818C18.0598 82.8317 18.0298 82.8518 18.0044 82.8771C17.9791 82.9024 17.959 82.9325 17.9453 82.9656C17.9316 82.9986 17.9246 83.0341 17.9246 83.0699V83.141C17.9245 85.0152 18.6641 86.8137 19.9827 88.1456C21.3012 89.4774 23.0922 90.2351 24.9663 90.2538H131.22C131.292 90.2538 131.361 90.2251 131.413 90.174C131.464 90.1228 131.492 90.0535 131.492 89.9812V83.0699C131.492 82.9976 131.464 82.9282 131.413 82.8771C131.361 82.826 131.292 82.7972 131.22 82.7972ZM130.947 89.6374H24.9663C23.2817 89.6352 21.6639 88.9788 20.4541 87.8066C19.2442 86.6344 18.5371 85.0381 18.4817 83.3544H130.947V89.6374Z" fill="#000502"/>
<path d="M47.1583 15.1544V17.0393H57.1992V15.1544H47.1583ZM47.7154 16.4821V15.6997H56.6539V16.4703L47.7154 16.4821Z" fill="white"/>
<path d="M47.17 19.2443V21.1292H54.7451V19.2443H47.17ZM47.7271 20.572V19.8014H54.1998V20.5838L47.7271 20.572Z" fill="white"/>
<path d="M47.1818 23.3341V25.219H52.2556V23.3223L47.1818 23.3341ZM47.7509 24.6737V23.8913H51.7222V24.6737H47.7509Z" fill="white"/>
<path d="M47.2056 27.4241V29.3208H55.2549V27.4359L47.2056 27.4241ZM47.7627 28.7637V27.9812H54.6977V28.7637H47.7627Z" fill="white"/>
<path d="M47.2174 31.5258V33.4107H52.2794V31.5258H47.2174ZM47.7746 32.8535V32.0711H51.7341V32.8416L47.7746 32.8535Z" fill="white"/>
<path d="M47.2293 35.5682V37.4531H54.0576V35.5682H47.2293ZM47.7983 36.896V36.1254H53.5241V36.9078L47.7983 36.896Z" fill="white"/>
<path d="M47.2412 39.7055V41.5904H50.2878V39.6936L47.2412 39.7055ZM47.8102 41.045V40.31H49.7899V41.0925L47.8102 41.045Z" fill="white"/>
<path d="M47.2649 43.7953V45.692H54.5318V43.8664L47.2649 43.7953ZM47.8221 45.1349V44.3525H53.9984V45.1349H47.8221Z" fill="white"/>
<path d="M47.2768 47.8971V49.7938H54.1051V47.8971H47.2768ZM47.8339 49.2248V48.4424H53.5597V49.213L47.8339 49.2248Z" fill="white"/>
<path d="M44.7755 6.32269V12.6887H131.22V3.34717H47.751C46.9618 3.34717 46.205 3.66066 45.647 4.21868C45.0889 4.7767 44.7755 5.53353 44.7755 6.32269Z" fill="#2A685B"/>
<path d="M131.22 3.06262H47.751C46.8864 3.06262 46.0572 3.40609 45.4458 4.01746C44.8344 4.62884 44.491 5.45804 44.491 6.32266V12.6886C44.4909 12.7254 44.4983 12.7619 44.5128 12.7958C44.5272 12.8297 44.5484 12.8603 44.575 12.8857C44.6015 12.9112 44.633 12.931 44.6675 12.944C44.7019 12.957 44.7387 12.9629 44.7755 12.9613H131.22C131.256 12.9613 131.291 12.9542 131.324 12.9405C131.357 12.9268 131.387 12.9067 131.413 12.8814C131.438 12.8561 131.458 12.826 131.472 12.793C131.485 12.7599 131.492 12.7244 131.492 12.6886V3.34713C131.494 3.31034 131.488 3.27361 131.475 3.23915C131.462 3.20469 131.442 3.17321 131.417 3.14663C131.391 3.12004 131.361 3.09889 131.327 3.08445C131.293 3.07001 131.257 3.06259 131.22 3.06262ZM130.947 12.416H45.0481V6.32266C45.0481 5.60581 45.3329 4.91833 45.8398 4.41144C46.3467 3.90456 47.0341 3.61979 47.751 3.61979H130.947V12.416Z" fill="#000502"/>
<path d="M57.237 7.24039L54.6577 9.80798L55.0508 10.2029L57.6301 7.63527L57.237 7.24039Z" fill="#101C2F"/>
<path d="M55.0494 7.24042L54.6554 7.6344L57.2288 10.2078L57.6228 9.81385L55.0494 7.24042Z" fill="#101C2F"/>
<path d="M53.3819 9.66577H50.3827V10.2229H53.3819V9.66577Z" fill="#101C2F"/>
<path d="M48.6044 9.28639C48.4984 9.28403 48.3941 9.3133 48.3049 9.37047C48.2156 9.42764 48.1454 9.51011 48.1032 9.60735C48.061 9.7046 48.0487 9.81221 48.0679 9.91646C48.0871 10.0207 48.137 10.1169 48.2111 10.1927C48.2852 10.2685 48.3802 10.3205 48.484 10.342C48.5878 10.3636 48.6957 10.3537 48.7938 10.3137C48.892 10.2737 48.976 10.2054 49.0352 10.1174C49.0944 10.0295 49.126 9.92585 49.126 9.81985C49.126 9.68039 49.0715 9.54647 48.974 9.44676C48.8765 9.34705 48.7438 9.28949 48.6044 9.28639Z" fill="#101C2F"/>
<path d="M48.6044 8.30238C48.4979 8.30003 48.3932 8.32962 48.3037 8.38732C48.2141 8.44503 48.1439 8.52821 48.1021 8.62616C48.0603 8.7241 48.0487 8.83233 48.0689 8.9369C48.0891 9.04148 48.1402 9.13761 48.2155 9.21292C48.2908 9.28823 48.3869 9.33928 48.4915 9.35948C48.5961 9.37968 48.7043 9.36812 48.8022 9.32629C48.9002 9.28445 48.9834 9.21425 49.0411 9.12473C49.0988 9.03521 49.1284 8.93046 49.126 8.82398C49.123 8.68659 49.0671 8.55567 48.9699 8.45849C48.8727 8.36132 48.7418 8.3054 48.6044 8.30238Z" fill="#101C2F"/>
<path d="M48.6044 7.11695C48.4984 7.1146 48.3941 7.14387 48.3049 7.20104C48.2156 7.2582 48.1454 7.34067 48.1032 7.43792C48.061 7.53517 48.0487 7.64278 48.0679 7.74703C48.0871 7.85128 48.137 7.94744 48.2111 8.02323C48.2852 8.09903 48.3802 8.15103 48.484 8.17259C48.5878 8.19415 48.6957 8.1843 48.7938 8.1443C48.892 8.10429 48.976 8.03595 49.0352 7.94798C49.0944 7.86002 49.126 7.75642 49.126 7.65041C49.126 7.51096 49.0715 7.37704 48.974 7.27733C48.8765 7.17762 48.7438 7.12005 48.6044 7.11695Z" fill="#101C2F"/>
<path d="M103.764 78.6007H103.468V78.3043H102.567H102.271H101.962H101.37V78.6007H101.061V78.9089H100.765V79.798V80.1062V80.4026V80.699V81.3036H101.061V81.5999H101.37V81.9081H102.271H102.567H103.468V81.5999H103.764V81.3036H104.061V80.699H103.468V81.0072H103.172V81.3036H102.863H102.567H102.271H101.962H101.666V81.0072H101.37V80.699V80.4026V79.798V79.5016V79.2053H101.666V78.9089H101.962H102.271H102.567H102.863H103.172V79.2053H103.468V79.5016H104.061V78.9089H103.764V78.6007Z" fill="#101C2F"/>
<path d="M107.665 78.6007H107.368V78.3043H105.27V78.6007H104.962V78.9089H104.665V81.2798H104.962V81.5762H105.27V81.8844H107.368V81.5762H107.665V81.2798H107.961V78.9089H107.665V78.6007ZM107.368 79.5016V81.0072H107.06V81.3036H105.566V81.0072H105.27V79.2053H105.566V78.9089H107.06V79.2053H107.368V79.5016Z" fill="#101C2F"/>
<path d="M111.268 78.6007H110.96V78.9089H110.664V79.2053H110.367V79.5016H110.059V79.2053H109.763V78.9089H109.466V78.6007H109.17V78.3043H108.862H108.565V78.6007V78.9089V79.2053V79.5016V79.798V80.1062V80.4026V81.0072V81.3036V81.5999V81.9081H108.862H109.17V80.4026V79.5016H109.466V79.798H109.763V80.1062H110.059V80.4026H110.367V80.1062H110.664V79.798H110.96V79.5016H111.268V80.4026V81.9081H111.861V81.3036V78.9089V78.6007V78.3043H111.268V78.6007Z" fill="#101C2F"/>
<path d="M115.465 78.6007H115.168V78.3043H112.466V81.8607H113.07V80.6753H115.168V80.3789H115.465V80.0825H115.761V78.8971H115.465V78.6007ZM115.168 79.5016V79.798H114.86V80.1062H113.07V78.9208H114.86V79.2171H115.168V79.5016Z" fill="#101C2F"/>
<path d="M119.069 80.699V81.0072H118.761V81.3036H118.464H118.168H117.86H117.563H117.267V81.0072H116.959V80.699V80.4026V79.798V79.5016V78.3043H116.366V79.798V80.1062V80.4026V80.699V81.3036H116.662V81.5999H116.959V81.9081H117.86H118.168H119.069V81.5999H119.365V81.3036H119.661V80.699V78.3043H119.069V80.699Z" fill="#101C2F"/>
<path d="M120.859 78.3043H120.562H120.266V78.6007V78.9089H121.167H121.463V80.4026V81.9081H122.068V80.4026V78.9089H122.661H122.957H123.265V78.3043H121.76H120.859Z" fill="#101C2F"/>
<path d="M124.759 78.3043H124.463H124.166V78.6007V78.9089V79.2053V79.5016V79.798V80.1062V80.4026V81.0072V81.3036V81.5999V81.9081H124.463H124.759H125.66H127.462V81.3036H127.165H126.857H126.264H125.956H125.66H125.067H124.759V80.4026H126.857V79.798H124.759V78.9089H125.067H125.66H125.956H126.264H126.857H127.165H127.462V78.3043H125.66H124.759Z" fill="#101C2F"/>
<path d="M131.066 78.6007H130.757V78.3043H128.031V81.8607H128.624V80.6753H129.809V80.9835H130.117V81.2798H130.414V81.5762H130.71V81.8844H131.315V81.2798H131.018V80.9835H130.71V80.3789H131.018V80.0825H131.315V78.8971H131.018L131.066 78.6007ZM130.757 79.5016V79.798H130.461V80.1062H128.659V78.9208H130.461V79.2171H130.757V79.5016Z" fill="#101C2F"/>
<mask id="mask0_556_2427" style="mask-type:luminance" maskUnits="userSpaceOnUse" x="70" y="15" width="53" height="60">
<path d="M122.91 15.024H70.1444V56.6221C70.1389 59.1834 71.0131 61.6689 72.6207 63.6628C74.2284 65.6567 76.4719 67.0381 78.9761 67.5758L109.336 74.1315C111.009 74.4934 112.743 74.4672 114.404 74.0548C116.065 73.6424 117.61 72.8548 118.919 71.7525C120.229 70.6502 121.268 69.2625 121.958 67.6959C122.647 66.1294 122.969 64.4256 122.898 62.7154L122.91 15.024Z" fill="white"/>
</mask>
<g mask="url(#mask0_556_2427)">
<path d="M77.9211 31.3005H72.2901V78.0672H77.9211V31.3005Z" fill="#EF490F"/>
<path d="M77.9211 31.0279H72.3139C72.2416 31.0279 72.1722 31.0566 72.1211 31.1077C72.0699 31.1589 72.0412 31.2282 72.0412 31.3005V78.0672C72.0412 78.1396 72.0699 78.2089 72.1211 78.26C72.1722 78.3112 72.2416 78.3399 72.3139 78.3399H77.9448C78.0171 78.3399 78.0865 78.3112 78.1376 78.26C78.1888 78.2089 78.2175 78.1396 78.2175 78.0672V31.3005C78.2176 31.2627 78.2099 31.2251 78.1947 31.1904C78.1796 31.1557 78.1573 31.1245 78.1294 31.0989C78.1016 31.0732 78.0686 31.0536 78.0328 31.0414C77.9969 31.0292 77.9589 31.0246 77.9211 31.0279ZM77.6485 77.7827H72.5747V31.5495H77.6485V77.7827Z" fill="#000502"/>
<path d="M86.4445 26.2742H80.8136V78.0672H86.4445V26.2742Z" fill="#2A685B"/>
<path d="M86.4445 26.0015H80.8136C80.7768 25.9999 80.74 26.0057 80.7056 26.0187C80.6711 26.0317 80.6396 26.0515 80.6131 26.077C80.5865 26.1025 80.5653 26.1331 80.5509 26.167C80.5364 26.2009 80.529 26.2373 80.5291 26.2741V78.0672C80.529 78.104 80.5364 78.1405 80.5509 78.1744C80.5653 78.2083 80.5865 78.2389 80.6131 78.2643C80.6396 78.2898 80.6711 78.3096 80.7056 78.3226C80.74 78.3356 80.7768 78.3415 80.8136 78.3399H86.4445C86.5168 78.3399 86.5862 78.3111 86.6373 78.26C86.6885 78.2089 86.7172 78.1395 86.7172 78.0672V26.2741C86.7172 26.2018 86.6885 26.1325 86.6373 26.0813C86.5862 26.0302 86.5168 26.0015 86.4445 26.0015ZM86.16 77.7827H81.0862V26.5468H86.16V77.7827Z" fill="#000502"/>
<path d="M94.9681 21.8405H89.3371V78.0553H94.9681V21.8405Z" fill="#F7BC48"/>
<path d="M94.9563 21.5679H89.3372C89.3004 21.5663 89.2636 21.5722 89.2292 21.5851C89.1947 21.5981 89.1632 21.6179 89.1366 21.6434C89.1101 21.6689 89.0889 21.6995 89.0745 21.7334C89.06 21.7673 89.0526 21.8037 89.0526 21.8405V78.0673C89.0526 78.1041 89.06 78.1406 89.0745 78.1744C89.0889 78.2083 89.1101 78.2389 89.1366 78.2644C89.1632 78.2899 89.1947 78.3097 89.2292 78.3227C89.2636 78.3357 89.3004 78.3415 89.3372 78.3399H94.9563C94.9931 78.3415 95.0298 78.3357 95.0643 78.3227C95.0987 78.3097 95.1302 78.2899 95.1568 78.2644C95.1834 78.2389 95.2045 78.2083 95.219 78.1744C95.2334 78.1406 95.2408 78.1041 95.2408 78.0673V21.8405C95.2408 21.8037 95.2334 21.7673 95.219 21.7334C95.2045 21.6995 95.1834 21.6689 95.1568 21.6434C95.1302 21.6179 95.0987 21.5981 95.0643 21.5851C95.0298 21.5722 94.9931 21.5663 94.9563 21.5679ZM94.6836 77.7828H89.6098V22.1251H94.6836V77.7828Z" fill="#000502"/>
<path d="M103.598 34.8214H97.9674V73.6455H103.598V34.8214Z" fill="#EF490F"/>
<path d="M103.598 34.5369H97.9673C97.8939 34.5399 97.8245 34.5712 97.7737 34.6243C97.7229 34.6773 97.6945 34.7479 97.6946 34.8214V73.6336C97.6945 73.707 97.7229 73.7777 97.7737 73.8307C97.8245 73.8837 97.8939 73.915 97.9673 73.9181H103.598C103.674 73.9181 103.746 73.8881 103.799 73.8348C103.853 73.7814 103.883 73.709 103.883 73.6336V34.8214C103.883 34.784 103.875 34.747 103.861 34.7125C103.847 34.678 103.826 34.6466 103.799 34.6202C103.773 34.5938 103.742 34.5728 103.707 34.5585C103.673 34.5442 103.636 34.5369 103.598 34.5369ZM103.326 73.3609H98.2518V35.094H103.326V73.3609Z" fill="#000502"/>
<path d="M112.181 16.9089H106.55V75.2102H112.181V16.9089Z" fill="#2A685B"/>
<path d="M112.181 16.6007H106.55C106.514 16.6007 106.479 16.6078 106.446 16.6215C106.413 16.6352 106.383 16.6553 106.357 16.6806C106.332 16.7059 106.312 16.736 106.298 16.769C106.285 16.8021 106.277 16.8376 106.277 16.8734V75.2102C106.276 75.247 106.282 75.2838 106.295 75.3182C106.308 75.3527 106.328 75.3842 106.353 75.4107C106.379 75.4373 106.409 75.4585 106.443 75.4729C106.477 75.4874 106.513 75.4948 106.55 75.4948H112.181C112.218 75.4948 112.254 75.4874 112.288 75.4729C112.322 75.4585 112.353 75.4373 112.378 75.4107C112.404 75.3842 112.424 75.3527 112.437 75.3182C112.45 75.2838 112.455 75.247 112.454 75.2102V16.9089C112.459 16.8703 112.456 16.831 112.444 16.7936C112.433 16.7563 112.414 16.7219 112.388 16.6927C112.362 16.6635 112.33 16.6402 112.294 16.6243C112.259 16.6084 112.22 16.6004 112.181 16.6007ZM111.908 74.9376H106.835V17.1935H111.908V74.9376Z" fill="#000502"/>
<path d="M120.764 35.2007H115.133V78.0672H120.764V35.2007Z" fill="#EF490F"/>
<path d="M120.764 34.9161H115.133C115.096 34.9161 115.06 34.9235 115.026 34.938C114.992 34.9524 114.961 34.9736 114.936 35.0001C114.91 35.0267 114.89 35.0582 114.878 35.0927C114.865 35.1271 114.859 35.1639 114.86 35.2006V78.0672C114.86 78.1395 114.889 78.2088 114.94 78.26C114.991 78.3111 115.061 78.3398 115.133 78.3398H120.764C120.836 78.3398 120.906 78.3111 120.957 78.26C121.008 78.2088 121.037 78.1395 121.037 78.0672V35.2006C121.038 35.1639 121.032 35.1271 121.019 35.0927C121.006 35.0582 120.986 35.0267 120.961 35.0001C120.936 34.9736 120.905 34.9524 120.871 34.938C120.837 34.9235 120.801 34.9161 120.764 34.9161ZM120.479 77.7826H115.406V35.4733H120.479V77.7826Z" fill="#000502"/>
<path d="M118.014 46.2967C117.822 46.2986 117.633 46.3395 117.457 46.417C117.282 46.4944 117.124 46.6068 116.994 46.7472L110.616 41.211C110.772 40.98 110.855 40.7073 110.853 40.4286C110.871 40.2317 110.848 40.0332 110.785 39.8457C110.722 39.6583 110.621 39.486 110.487 39.3399C110.354 39.1939 110.192 39.0772 110.011 38.9974C109.83 38.9176 109.634 38.8763 109.437 38.8763C109.239 38.8763 109.043 38.9176 108.862 38.9974C108.682 39.0772 108.519 39.1939 108.386 39.3399C108.253 39.486 108.151 39.6583 108.088 39.8457C108.025 40.0332 108.002 40.2317 108.02 40.4286C108.022 40.5951 108.054 40.7598 108.115 40.9147L101.891 44.4711C101.761 44.3265 101.602 44.2107 101.424 44.1311C101.247 44.0515 101.054 44.0098 100.86 44.0087C100.53 44.0116 100.212 44.1289 99.9589 44.3407L93.6522 38.8638C93.7171 38.7014 93.7532 38.5289 93.7589 38.354C93.7769 38.1571 93.7537 37.9586 93.6907 37.7711C93.6277 37.5837 93.5263 37.4114 93.393 37.2654C93.2597 37.1193 93.0974 37.0026 92.9165 36.9228C92.7356 36.843 92.54 36.8018 92.3423 36.8018C92.1445 36.8018 91.9489 36.843 91.768 36.9228C91.5871 37.0026 91.4248 37.1193 91.2915 37.2654C91.1582 37.4114 91.0568 37.5837 90.9938 37.7711C90.9308 37.9586 90.9076 38.1571 90.9256 38.354C90.9236 38.5679 90.9724 38.7792 91.0679 38.9705L84.3107 46.7827C83.9913 46.5968 83.6113 46.5447 83.2537 46.638C82.8961 46.7313 82.5899 46.9623 82.4021 47.2806L76.4748 45.5498C76.4771 45.268 76.3957 44.9918 76.2408 44.7563C76.0859 44.5208 75.8646 44.3366 75.6049 44.2271C75.3451 44.1176 75.0587 44.0878 74.782 44.1413C74.5053 44.1949 74.2507 44.3294 74.0506 44.5279C73.8504 44.7263 73.7138 44.9798 73.6579 45.2561C73.6021 45.5323 73.6295 45.819 73.7368 46.0796C73.8442 46.3402 74.0265 46.5631 74.2607 46.7199C74.4948 46.8768 74.7704 46.9605 75.0522 46.9605C75.3129 46.9632 75.5691 46.8923 75.7913 46.756C76.0136 46.6197 76.1929 46.4235 76.3088 46.19L82.2361 47.9089C82.2303 47.9562 82.2303 48.0039 82.2361 48.0512C82.2181 48.2481 82.2413 48.4466 82.3043 48.6341C82.3673 48.8215 82.4687 48.9938 82.602 49.1398C82.7353 49.2859 82.8976 49.4026 83.0785 49.4824C83.2594 49.5622 83.455 49.6035 83.6528 49.6035C83.8505 49.6035 84.0461 49.5622 84.227 49.4824C84.4079 49.4026 84.5702 49.2859 84.7035 49.1398C84.8368 48.9938 84.9382 48.8215 85.0012 48.6341C85.0642 48.4466 85.0874 48.2481 85.0694 48.0512C85.0646 47.757 84.9694 47.4714 84.7968 47.2332L91.5065 39.5039C91.7511 39.7029 92.0566 39.8117 92.3719 39.8122C92.7341 39.8114 93.0822 39.6713 93.344 39.421L99.5795 44.8504C99.4893 45.0436 99.4409 45.2537 99.4373 45.4669C99.4696 45.8202 99.6329 46.1487 99.895 46.3879C100.157 46.6271 100.499 46.7597 100.854 46.7597C101.209 46.7597 101.551 46.6271 101.813 46.3879C102.075 46.1487 102.238 45.8202 102.271 45.4669C102.271 45.3177 102.247 45.1696 102.199 45.0282L108.435 41.4718C108.567 41.6043 108.724 41.7093 108.897 41.7805C109.07 41.8517 109.256 41.8879 109.443 41.8867C109.698 41.8873 109.948 41.8176 110.166 41.6852L116.674 47.328C116.625 47.4691 116.601 47.6175 116.603 47.7667C116.635 48.12 116.798 48.4485 117.061 48.6877C117.323 48.9269 117.665 49.0595 118.019 49.0595C118.374 49.0595 118.716 48.9269 118.978 48.6877C119.241 48.4485 119.404 48.12 119.436 47.7667C119.442 47.5759 119.41 47.3858 119.342 47.2077C119.273 47.0296 119.169 46.8671 119.037 46.73C118.904 46.5928 118.745 46.4838 118.569 46.4093C118.393 46.3349 118.204 46.2966 118.014 46.2967ZM75.0048 45.7869L75.7753 46.0122C75.6554 46.2023 75.4719 46.3436 75.2575 46.411C75.0431 46.4783 74.8117 46.4674 74.6046 46.38C74.3976 46.2927 74.2282 46.1347 74.1268 45.9341C74.0254 45.7335 73.9986 45.5034 74.051 45.2849C74.1035 45.0663 74.2318 44.8735 74.4132 44.7408C74.5946 44.6081 74.8172 44.5441 75.0414 44.5603C75.2656 44.5765 75.4767 44.6717 75.6372 44.829C75.7977 44.9864 75.897 45.1956 75.9176 45.4194L75.1826 45.1942C75.104 45.1706 75.0193 45.1792 74.947 45.2181C74.8748 45.257 74.8209 45.323 74.7973 45.4016C74.7738 45.4803 74.7824 45.565 74.8213 45.6373C74.8602 45.7095 74.9262 45.7633 75.0048 45.7869ZM83.552 47.0554C83.6865 47.0576 83.8194 47.0857 83.9432 47.1384L83.5283 47.6244L82.817 47.411C82.9059 47.3014 83.0178 47.2127 83.1448 47.1512C83.2719 47.0897 83.4109 47.057 83.552 47.0554ZM83.552 48.964C83.4265 48.964 83.3022 48.9391 83.1863 48.8907C83.0705 48.8423 82.9654 48.7714 82.8772 48.682C82.789 48.5927 82.7193 48.4868 82.6724 48.3703C82.6254 48.2539 82.6021 48.1293 82.6036 48.0038L83.5402 48.2764H83.6231C83.6682 48.2778 83.7129 48.2689 83.754 48.2505C83.7951 48.232 83.8314 48.2044 83.8602 48.1697L84.3818 47.5533C84.4643 47.6893 84.5093 47.8447 84.5122 48.0038C84.5122 48.2584 84.4111 48.5027 84.231 48.6827C84.0509 48.8628 83.8067 48.964 83.552 48.964ZM92.2771 39.3024C92.0717 39.3033 91.8718 39.2366 91.708 39.1127L92.2415 38.4963L92.8935 39.0653C92.7231 39.2157 92.5043 39.2998 92.2771 39.3024ZM93.2136 38.5319L92.4667 37.8324C92.4391 37.8038 92.4059 37.7809 92.3693 37.7654C92.3326 37.7498 92.2932 37.7417 92.2533 37.7417C92.2135 37.7417 92.1741 37.7498 92.1374 37.7654C92.1007 37.7809 92.0676 37.8038 92.04 37.8324L91.4117 38.5437C91.4059 38.4688 91.4059 38.3934 91.4117 38.3185C91.4117 38.1939 91.4362 38.0706 91.4839 37.9556C91.5315 37.8405 91.6014 37.7359 91.6894 37.6479C91.7775 37.5598 91.882 37.49 91.9971 37.4423C92.1122 37.3946 92.2355 37.3701 92.36 37.3701C92.4846 37.3701 92.6079 37.3946 92.723 37.4423C92.838 37.49 92.9426 37.5598 93.0306 37.6479C93.1187 37.7359 93.1886 37.8405 93.2362 37.9556C93.2839 38.0706 93.3084 38.1939 93.3084 38.3185C93.2862 38.3934 93.2543 38.4652 93.2136 38.5319ZM100.86 44.4592C101.087 44.4618 101.306 44.546 101.476 44.6963L100.824 45.0756L100.315 44.637C100.479 44.5403 100.669 44.4949 100.86 44.5066V44.4592ZM100.86 46.3678C100.734 46.3694 100.61 46.346 100.493 46.299C100.377 46.2521 100.271 46.1825 100.182 46.0943C100.092 46.006 100.021 45.901 99.9729 45.7851C99.9245 45.6693 99.8996 45.545 99.8996 45.4194C99.8804 45.3256 99.8804 45.2288 99.8996 45.1349L100.528 45.6802C100.581 45.7154 100.642 45.7342 100.706 45.7342C100.769 45.7342 100.831 45.7154 100.884 45.6802L101.725 45.1823C101.737 45.249 101.737 45.3172 101.725 45.3839C101.737 45.5085 101.723 45.6342 101.686 45.7536C101.648 45.873 101.588 45.9839 101.507 46.0797C101.427 46.1756 101.328 46.2546 101.217 46.3122C101.106 46.3698 100.985 46.4048 100.86 46.4152V46.3678ZM109.443 41.3296C109.237 41.3322 109.036 41.2654 108.874 41.1399L109.336 40.8672L109.786 41.2584C109.682 41.3222 109.564 41.3626 109.443 41.377V41.3296ZM110.249 40.8554L109.561 40.2626C109.51 40.2285 109.451 40.2103 109.389 40.2103C109.328 40.2103 109.268 40.2285 109.217 40.2626L108.518 40.6657C108.512 40.5828 108.512 40.4996 108.518 40.4168C108.503 40.2825 108.516 40.1466 108.558 40.0179C108.599 39.8892 108.667 39.7707 108.757 39.67C108.847 39.5693 108.957 39.4888 109.08 39.4337C109.204 39.3785 109.337 39.35 109.472 39.35C109.607 39.35 109.741 39.3785 109.864 39.4337C109.988 39.4888 110.098 39.5693 110.188 39.67C110.278 39.7707 110.346 39.8892 110.387 40.0179C110.428 40.1466 110.442 40.2825 110.427 40.4168C110.421 40.5936 110.358 40.7639 110.249 40.9028V40.8554ZM118.014 46.7116C118.235 46.7157 118.448 46.7951 118.618 46.9368L117.919 47.494L117.362 47.0435C117.445 46.9543 117.546 46.8831 117.658 46.8342C117.77 46.7853 117.891 46.7597 118.014 46.759V46.7116ZM118.014 48.6202C117.762 48.6202 117.521 48.5203 117.343 48.3424C117.165 48.1646 117.065 47.9233 117.065 47.6718C117.065 47.6718 117.065 47.6007 117.065 47.577L117.729 48.1579C117.788 48.2137 117.867 48.2448 117.948 48.2448C118.03 48.2448 118.108 48.2137 118.168 48.1579L118.938 47.494C118.944 47.565 118.944 47.6364 118.938 47.7074C118.941 47.9569 118.846 48.1976 118.673 48.3774C118.5 48.5571 118.263 48.6614 118.014 48.6676V48.6202Z" fill="white"/>
<path d="M118.014 46.024C117.645 46.024 117.287 46.1448 116.994 46.3678L110.96 41.1517C111.073 40.9278 111.13 40.6796 111.126 40.4286C111.146 40.1949 111.117 39.9596 111.041 39.7377C110.965 39.5158 110.843 39.3121 110.685 39.1394C110.526 38.9668 110.333 38.829 110.118 38.7347C109.903 38.6404 109.671 38.5917 109.437 38.5917C109.202 38.5917 108.97 38.6404 108.755 38.7347C108.541 38.829 108.348 38.9668 108.189 39.1394C108.03 39.3121 107.909 39.5158 107.833 39.7377C107.757 39.9596 107.728 40.1949 107.747 40.4286C107.736 40.5469 107.736 40.666 107.747 40.7842L101.951 44.1628C101.682 43.9387 101.35 43.8045 101.001 43.7789C100.653 43.7534 100.305 43.8379 100.006 44.0206L93.9131 38.7689C93.9303 38.6312 93.9303 38.4918 93.9131 38.354C93.9131 37.9044 93.7345 37.4732 93.4166 37.1553C93.0986 36.8374 92.6675 36.6588 92.2179 36.6588C91.7683 36.6588 91.3371 36.8374 91.0192 37.1553C90.7012 37.4732 90.5226 37.9044 90.5226 38.354C90.5236 38.5486 90.5597 38.7414 90.6293 38.9231L84.1685 46.4389C83.8315 46.3048 83.4602 46.2831 83.1099 46.3771C82.7596 46.4711 82.449 46.6757 82.2244 46.9605L76.6527 45.3364C76.6206 45.0102 76.4945 44.7002 76.2898 44.4441C76.0852 44.188 75.8106 43.9967 75.4994 43.8934C75.1882 43.7902 74.8538 43.7794 74.5366 43.8624C74.2194 43.9454 73.9331 44.1185 73.7123 44.3609C73.4915 44.6033 73.3458 44.9045 73.2927 45.228C73.2397 45.5516 73.2816 45.8836 73.4133 46.1838C73.5451 46.484 73.7611 46.7395 74.0352 46.9195C74.3092 47.0994 74.6296 47.196 74.9575 47.1976C75.2313 47.1991 75.5013 47.1327 75.7433 47.0045C75.9853 46.8762 76.1919 46.6901 76.3444 46.4626L81.845 48.063C81.845 48.5126 82.0236 48.9438 82.3415 49.2617C82.6595 49.5796 83.0906 49.7582 83.5402 49.7582C83.9898 49.7582 84.421 49.5796 84.7389 49.2617C85.0569 48.9438 85.2355 48.5126 85.2355 48.063C85.2348 47.7895 85.1655 47.5205 85.0339 47.2806L91.4473 39.8833C91.7243 40.0377 92.0393 40.1107 92.356 40.094C92.6727 40.0772 92.9782 39.9713 93.2374 39.7884L99.2358 44.9927C99.1794 45.1648 99.1514 45.345 99.1528 45.5261C99.1528 45.9757 99.3315 46.4069 99.6494 46.7248C99.9673 47.0427 100.398 47.2213 100.848 47.2213C101.298 47.2213 101.729 47.0427 102.047 46.7248C102.365 46.4069 102.543 45.9757 102.543 45.5261C102.556 45.4277 102.556 45.3281 102.543 45.2297L108.471 41.8275C108.71 42.0125 108.996 42.129 109.296 42.1645C109.597 42.2 109.902 42.1531 110.178 42.029L116.366 47.4229C116.297 47.7633 116.336 48.1166 116.476 48.4344C116.616 48.7521 116.851 49.0187 117.149 49.1976C117.447 49.3765 117.792 49.459 118.139 49.4337C118.485 49.4084 118.815 49.2766 119.084 49.0564C119.352 48.8362 119.546 48.5383 119.639 48.2035C119.731 47.8688 119.718 47.5137 119.601 47.1868C119.484 46.8598 119.268 46.5772 118.984 46.3775C118.7 46.1778 118.361 46.0709 118.014 46.0714V46.024ZM109.443 39.7529C109.619 39.7529 109.788 39.8228 109.912 39.9473C110.037 40.0718 110.107 40.2407 110.107 40.4167L109.751 40.0967C109.653 40.0245 109.535 39.9855 109.413 39.9855C109.291 39.9855 109.173 40.0245 109.075 40.0967L108.803 40.2508C108.841 40.1097 108.924 39.9849 109.04 39.8951C109.155 39.8053 109.296 39.7554 109.443 39.7529ZM74.2936 45.5024C74.2966 45.3241 74.3688 45.154 74.4949 45.028C74.6209 44.9019 74.791 44.8297 74.9693 44.8267C75.1229 44.8283 75.2722 44.8781 75.3961 44.9689H75.2538C75.1062 44.931 74.9496 44.9502 74.8155 45.0227C74.6814 45.0953 74.5797 45.2158 74.5307 45.3601C74.4772 45.5055 74.4772 45.6652 74.5307 45.8106C74.609 45.9445 74.7367 46.0424 74.8863 46.0833L75.1708 46.1663C75.0685 46.1909 74.962 46.1925 74.859 46.171C74.756 46.1495 74.659 46.1054 74.5751 46.0419C74.4912 45.9784 74.4224 45.8971 74.3737 45.8038C74.3251 45.7105 74.2977 45.6076 74.2936 45.5024ZM83.5521 48.6795C83.4435 48.6785 83.3366 48.6524 83.2399 48.603C83.1432 48.5536 83.0593 48.4824 82.9949 48.3949L83.4573 48.5253C83.5642 48.5602 83.6792 48.5619 83.7871 48.5301C83.895 48.4984 83.9908 48.4347 84.0618 48.3475L84.2041 48.1934C84.1629 48.3342 84.077 48.4578 83.9594 48.5455C83.8418 48.6332 83.6988 48.6802 83.5521 48.6795ZM100.86 46.1426C100.75 46.1433 100.641 46.1166 100.544 46.0648C100.447 46.0131 100.364 45.9379 100.303 45.8462L100.409 45.9292C100.498 46.0095 100.611 46.0596 100.73 46.0723C100.849 46.0851 100.969 46.0599 101.073 46.0003L101.453 45.7869C101.392 45.8917 101.306 45.9794 101.202 46.0416C101.099 46.1038 100.981 46.1386 100.86 46.1426ZM119.033 47.245C118.991 47.2222 118.944 47.2102 118.897 47.2102C118.849 47.2102 118.802 47.2222 118.76 47.245L118.002 47.9089H117.931L117.255 47.4229C117.212 47.3967 117.163 47.3828 117.113 47.3828C117.062 47.3828 117.013 47.3967 116.97 47.4229C116.985 47.3706 116.985 47.3153 116.97 47.2631C116.956 47.2108 116.927 47.1636 116.887 47.1265L110.367 41.4837C110.324 41.4587 110.275 41.4456 110.225 41.4456C110.175 41.4456 110.126 41.4587 110.083 41.4837C110.089 41.4376 110.083 41.3908 110.066 41.3474C110.05 41.304 110.023 41.2653 109.988 41.2347L109.538 40.8317C109.49 40.7995 109.435 40.7824 109.378 40.7824C109.32 40.7824 109.265 40.7995 109.217 40.8317L108.755 41.0925C108.715 41.1163 108.682 41.1491 108.657 41.1882C108.633 41.2273 108.617 41.2717 108.613 41.3177C108.57 41.2915 108.521 41.2777 108.471 41.2777C108.42 41.2777 108.371 41.2915 108.328 41.3177L102.081 44.8741C102.048 44.893 102.019 44.9186 101.997 44.9492C101.975 44.9799 101.959 45.0148 101.951 45.0519C101.912 45.0312 101.87 45.0203 101.826 45.0203C101.783 45.0203 101.74 45.0312 101.702 45.0519L100.813 45.538L100.184 44.9927C100.144 44.9728 100.099 44.9624 100.054 44.9624C100.009 44.9624 99.964 44.9728 99.9234 44.9927C99.9348 44.9439 99.9331 44.8931 99.9185 44.8452C99.9039 44.7973 99.877 44.7541 99.8404 44.72L93.427 39.1246C93.3874 39.1017 93.3424 39.0896 93.2966 39.0896C93.2509 39.0896 93.2059 39.1017 93.1662 39.1246C93.1681 39.0841 93.1605 39.0437 93.144 39.0067C93.1276 38.9696 93.1027 38.937 93.0714 38.9112L92.4668 38.2829C92.414 38.2329 92.344 38.205 92.2712 38.205C92.1984 38.205 92.1284 38.2329 92.0756 38.2829L91.5421 38.8875C91.5185 38.9173 91.5011 38.9515 91.4909 38.9882C91.4807 39.0248 91.478 39.0632 91.4829 39.1009C91.4386 39.0961 91.3939 39.1023 91.3525 39.1188C91.3112 39.1354 91.2746 39.1618 91.2458 39.1957L84.5479 46.925C84.525 46.9689 84.5131 47.0177 84.5131 47.0672C84.5131 47.1167 84.525 47.1655 84.5479 47.2095C84.5095 47.1898 84.4669 47.1799 84.4238 47.1807C84.3806 47.1815 84.3384 47.193 84.3008 47.2141C84.2632 47.2353 84.2315 47.2654 84.2084 47.3018C84.1853 47.3383 84.1716 47.3798 84.1685 47.4229L83.6114 48.0393L82.6748 47.7666C82.6105 47.7748 82.5492 47.7992 82.497 47.8378C82.485 47.7895 82.4614 47.745 82.4284 47.7078C82.3954 47.6706 82.3538 47.642 82.3074 47.6244L76.38 45.9173C76.3413 45.8918 76.296 45.8782 76.2496 45.8782C76.2033 45.8782 76.1579 45.8918 76.1192 45.9173C76.1044 45.8765 76.0808 45.8393 76.0501 45.8086C76.0194 45.7779 75.9823 45.7543 75.9414 45.7395L75.1827 45.4668L75.9295 45.6802C75.9688 45.6975 76.0111 45.7065 76.054 45.7065C76.0969 45.7065 76.1393 45.6975 76.1785 45.6802C76.1892 45.7277 76.2125 45.7714 76.2458 45.8068C76.2792 45.8423 76.3214 45.8681 76.3682 45.8818L82.2955 47.6125C82.343 47.628 82.3939 47.6296 82.4423 47.617C82.4906 47.6044 82.5343 47.5781 82.5682 47.5414C82.5786 47.5858 82.6005 47.6267 82.6317 47.66C82.6629 47.6933 82.7023 47.7178 82.746 47.7311L83.4573 47.9326C83.5075 47.9493 83.5616 47.9503 83.6124 47.9355C83.6633 47.9206 83.7084 47.8907 83.7418 47.8496L84.1567 47.3636C84.1856 47.332 84.2071 47.2942 84.2194 47.2532C84.2317 47.2121 84.2346 47.1688 84.2278 47.1265C84.274 47.1359 84.322 47.132 84.366 47.1152C84.4101 47.0984 84.4485 47.0694 84.4768 47.0317L91.2813 39.1246C91.3124 39.0792 91.3291 39.0255 91.3291 38.9705C91.3291 38.9155 91.3124 38.8617 91.2813 38.8164C91.3311 38.8277 91.3831 38.8248 91.4313 38.808C91.4795 38.7912 91.522 38.7613 91.554 38.7215L92.2179 38.0102L93.024 38.7097C93.0658 38.7325 93.1127 38.7445 93.1603 38.7445C93.2079 38.7445 93.2548 38.7325 93.2966 38.7097C93.2806 38.7618 93.2799 38.8175 93.2946 38.87C93.3093 38.9226 93.3388 38.9698 93.3796 39.006L99.7456 44.5066C99.7848 44.5307 99.8299 44.5435 99.876 44.5435C99.922 44.5435 99.9672 44.5307 100.006 44.5066C99.9988 44.5493 100.004 44.5933 100.021 44.6332C100.037 44.6732 100.065 44.7074 100.101 44.7318L100.611 45.1705C100.658 45.2042 100.714 45.2224 100.771 45.2224C100.828 45.2224 100.885 45.2042 100.931 45.1705L101.571 44.7911C101.611 44.7699 101.644 44.7394 101.669 44.7022C101.694 44.665 101.709 44.6222 101.713 44.5777C101.757 44.6016 101.806 44.6141 101.856 44.6141C101.905 44.6141 101.954 44.6016 101.998 44.5777L108.222 41.0213C108.262 40.9966 108.295 40.9617 108.318 40.9201C108.341 40.8785 108.353 40.8317 108.352 40.7842C108.39 40.805 108.433 40.8159 108.477 40.8159C108.52 40.8159 108.563 40.805 108.601 40.7842L109.289 40.3812L109.988 40.9858C110.06 41.0154 110.141 41.0154 110.213 40.9858C110.203 41.0309 110.205 41.0781 110.219 41.1221C110.234 41.166 110.261 41.2051 110.296 41.2347L116.686 46.759C116.724 46.7808 116.767 46.7924 116.81 46.7924C116.854 46.7924 116.897 46.7808 116.935 46.759C116.939 46.8359 116.973 46.9082 117.03 46.9605L117.599 47.4466C117.648 47.4891 117.711 47.5125 117.777 47.5125C117.842 47.5125 117.905 47.4891 117.954 47.4466L118.666 46.8894C118.696 46.8655 118.72 46.8348 118.737 46.7998C118.753 46.7649 118.761 46.7265 118.76 46.6879C118.833 46.7625 118.89 46.8513 118.926 46.9487L119.033 47.245Z" fill="#000502"/>
<g style="mix-blend-mode:multiply" opacity="0.55">
<path d="M109.336 69.9467L78.9761 63.4148C76.8166 62.9607 74.8412 61.8736 73.302 60.2921C71.7629 58.7107 70.7296 56.7067 70.3341 54.5356C69.7889 57.407 70.3874 60.3778 72.002 62.814C73.6165 65.2502 76.1193 66.959 78.9761 67.5758L109.336 74.1314C111.136 74.5207 113.005 74.4595 114.776 73.9534C116.547 73.4473 118.166 72.5119 119.488 71.2302C120.811 69.9484 121.797 68.36 122.359 66.6058C122.92 64.8516 123.04 62.9859 122.708 61.1743C122.421 62.6358 121.844 64.0252 121.013 65.2611C120.181 66.497 119.112 67.5544 117.866 68.3715C116.621 69.1885 115.225 69.7487 113.76 70.0192C112.295 70.2897 110.791 70.2651 109.336 69.9467Z" fill="#647794"/>
</g>
</g>
<path d="M131.184 90.1708H0.272949V95.5647H131.184V90.1708Z" fill="white"/>
<path d="M131.184 89.8864H0.27294C0.236115 89.8863 0.199663 89.8937 0.165786 89.9082C0.131908 89.9226 0.101307 89.9438 0.0758268 89.9704C0.0503469 89.9969 0.030517 90.0284 0.0175334 90.0629C0.00454977 90.0973 -0.00131849 90.1341 0.000282646 90.1709V95.5529C-0.00131849 95.5897 0.00454977 95.6264 0.0175334 95.6609C0.030517 95.6953 0.0503469 95.7268 0.0758268 95.7534C0.101307 95.78 0.131908 95.8011 0.165786 95.8156C0.199663 95.83 0.236115 95.8374 0.27294 95.8374H131.184C131.221 95.8374 131.257 95.83 131.291 95.8156C131.325 95.8011 131.356 95.78 131.381 95.7534C131.407 95.7268 131.427 95.6953 131.44 95.6609C131.453 95.6264 131.458 95.5897 131.457 95.5529V90.1709C131.458 90.1341 131.453 90.0973 131.44 90.0629C131.427 90.0284 131.407 89.9969 131.381 89.9704C131.356 89.9438 131.325 89.9226 131.291 89.9082C131.257 89.8937 131.221 89.8863 131.184 89.8864ZM130.911 95.2802H0.557452V90.4435H130.959L130.911 95.2802Z" fill="#000502"/>
<path d="M131.184 95.624H7.93102V121.171H131.184V95.624Z" fill="#000502"/>
<path d="M7.64652 121.443H131.457V95.3632H7.64652V121.443ZM8.20369 95.8966H130.911V120.922H8.20369V95.8966Z" fill="#000502"/>
<path d="M79.6755 95.624H7.93102V121.171H79.6755V95.624Z" fill="#2A685B"/>
<path d="M79.6637 95.3513H7.93104C7.89424 95.3497 7.85751 95.3556 7.82305 95.3686C7.78859 95.3816 7.75711 95.4014 7.73053 95.4269C7.70394 95.4524 7.68279 95.483 7.66835 95.5168C7.65391 95.5507 7.64649 95.5872 7.64652 95.624V121.171C7.64649 121.208 7.65391 121.244 7.66835 121.278C7.68279 121.312 7.70394 121.342 7.73053 121.368C7.75711 121.393 7.78859 121.413 7.82305 121.426C7.85751 121.439 7.89424 121.445 7.93104 121.443H79.6637C79.7005 121.445 79.7372 121.439 79.7717 121.426C79.8061 121.413 79.8376 121.393 79.8642 121.368C79.8908 121.342 79.9119 121.312 79.9264 121.278C79.9408 121.244 79.9482 121.208 79.9482 121.171V95.624C79.9482 95.5872 79.9408 95.5507 79.9264 95.5168C79.9119 95.483 79.8908 95.4524 79.8642 95.4269C79.8376 95.4014 79.8061 95.3816 79.7717 95.3686C79.7372 95.3556 79.7005 95.3497 79.6637 95.3513ZM79.4266 120.922H8.29853V95.8966H79.4266V120.922Z" fill="#000502"/>
<path d="M15.3046 95.624H7.93102V121.171H15.3046V95.624Z" fill="white"/>
<path d="M15.3046 95.3513H7.93104C7.89424 95.3497 7.85751 95.3556 7.82305 95.3686C7.78859 95.3816 7.75711 95.4014 7.73053 95.4269C7.70394 95.4524 7.68279 95.483 7.66835 95.5168C7.65391 95.5507 7.64649 95.5872 7.64652 95.624V121.171C7.64649 121.208 7.65391 121.244 7.66835 121.278C7.68279 121.312 7.70394 121.342 7.73053 121.368C7.75711 121.393 7.78859 121.413 7.82305 121.426C7.85751 121.439 7.89424 121.445 7.93104 121.443H15.3046C15.377 121.443 15.4463 121.415 15.4974 121.364C15.5486 121.312 15.5773 121.243 15.5773 121.171V95.624C15.5773 95.5517 15.5486 95.4823 15.4974 95.4312C15.4463 95.3801 15.377 95.3513 15.3046 95.3513ZM15.0201 120.922H8.20369V95.8966H15.0201V120.922Z" fill="#000502"/>
<g style="mix-blend-mode:multiply">
<path d="M7.89542 103.33H15.0675L45.2495 121.171H79.6636V95.624H7.93099L7.89542 103.33Z" fill="#647794"/>
</g>
</svg>
