<svg width="26" height="15" viewBox="0 0 20 12" fill="none" xmlns="http://www.w3.org/2000/svg">
<path d="M18.4895 5.30787C18.8795 5.30787 19.1958 5.62409 19.1958 6.01416C19.1958 6.40424 18.8795 6.72045 18.4895 6.72045L18.4895 5.30787ZM1.03901 6.51358C0.76318 6.23776 0.76318 5.79056 1.03901 5.51473L5.53383 1.01991C5.80965 0.744085 6.25685 0.744085 6.53268 1.01991C6.8085 1.29573 6.8085 1.74294 6.53268 2.01876L2.53728 6.01416L6.53268 10.0096C6.8085 10.2854 6.8085 10.7326 6.53268 11.0084C6.25685 11.2842 5.80965 11.2842 5.53383 11.0084L1.03901 6.51358ZM18.4895 6.72045L1.53843 6.72045L1.53843 5.30787L18.4895 5.30787L18.4895 6.72045Z" fill="#D4D9D7"/>
</svg>
