<svg width="26" height="15" viewBox="0 0 20 12" fill="none" xmlns="http://www.w3.org/2000/svg">
<path d="M1.56644 5.30787C1.17636 5.30787 0.860143 5.62409 0.860143 6.01416C0.860143 6.40424 1.17636 6.72045 1.56644 6.72045L1.56644 5.30787ZM19.0169 6.51358C19.2927 6.23776 19.2927 5.79056 19.0169 5.51473L14.5221 1.01991C14.2463 0.744085 13.7991 0.744085 13.5232 1.01991C13.2474 1.29573 13.2474 1.74294 13.5232 2.01876L17.5186 6.01416L13.5232 10.0096C13.2474 10.2854 13.2474 10.7326 13.5232 11.0084C13.7991 11.2842 14.2463 11.2842 14.5221 11.0084L19.0169 6.51358ZM1.56644 6.72045L18.5175 6.72045L18.5175 5.30787L1.56644 5.30787L1.56644 6.72045Z" fill="#D4D9D7"/>
</svg>
