<svg width="28" height="29" viewBox="0 0 35 36" fill="none" xmlns="http://www.w3.org/2000/svg">
<path d="M17.5 0.5C19.7981 0.5 22.0738 0.952651 24.197 1.83211C26.3202 2.71157 28.2493 4.00061 29.8744 5.62563C31.4994 7.25066 32.7884 9.17984 33.6679 11.303C34.5474 13.4262 35 15.7019 35 18C35 22.6413 33.1563 27.0925 29.8744 30.3744C26.5925 33.6563 22.1413 35.5 17.5 35.5C15.2019 35.5 12.9262 35.0474 10.803 34.1679C8.67984 33.2884 6.75066 31.9994 5.12563 30.3744C1.84374 27.0925 0 22.6413 0 18C0 13.3587 1.84374 8.90752 5.12563 5.62563C8.40752 2.34374 12.8587 0.5 17.5 0.5ZM26.25 25V23.25L24.5 21.5V16.9325C24.5 15.025 24.0275 13.345 23.1175 11.9275C22.225 10.51 20.93 9.6175 19.25 9.25V8.375C19.25 7.91087 19.0656 7.46575 18.7374 7.13756C18.4092 6.80937 17.9641 6.625 17.5 6.625C17.0359 6.625 16.5908 6.80937 16.2626 7.13756C15.9344 7.46575 15.75 7.91087 15.75 8.375V9.25C14.07 9.6175 12.775 10.51 11.8825 11.9275C10.9725 13.345 10.5 15.025 10.5 16.9325V21.5L8.75 23.25V25H26.25ZM20.125 26.75H14.875C14.875 27.4462 15.1516 28.1139 15.6438 28.6062C16.1361 29.0984 16.8038 29.375 17.5 29.375C18.1962 29.375 18.8639 29.0984 19.3562 28.6062C19.8484 28.1139 20.125 27.4462 20.125 26.75Z" fill="#D8D8D8"/>
</svg>
