<svg width="502" height="339" viewBox="0 0 502 339" fill="none" xmlns="http://www.w3.org/2000/svg">
<path d="M460.422 292.718H398.837C387.809 292.706 377.236 288.319 369.439 280.522C361.641 272.724 357.255 262.151 357.242 251.123V138.088C357.255 127.061 361.641 116.488 369.439 108.69C377.236 100.892 387.809 96.5065 398.837 96.4941H460.406C471.434 96.5065 482.006 100.892 489.804 108.69C497.602 116.488 501.988 127.061 502.001 138.088V251.123C501.984 262.147 497.599 272.715 489.805 280.512C482.012 288.308 471.445 292.698 460.422 292.718ZM398.852 129.754C396.646 129.754 394.53 130.631 392.97 132.191C391.41 133.751 390.533 135.867 390.533 138.073V251.108C390.538 253.313 391.415 255.426 392.974 256.986C394.534 258.545 396.647 259.423 398.852 259.427H460.422C462.627 259.423 464.74 258.545 466.299 256.986C467.859 255.426 468.736 253.313 468.74 251.108V138.073C468.736 135.868 467.859 133.754 466.299 132.195C464.74 130.636 462.627 129.758 460.422 129.754H398.852Z" fill="#3D3D3C"/>
<path d="M340.814 219.211V178.439C340.798 167.414 336.41 156.846 328.612 149.051C320.815 141.257 310.245 136.872 299.22 136.86H237.65C226.625 136.872 216.055 141.257 208.257 149.051C200.46 156.846 196.072 167.414 196.056 178.439V267.262V291.49C196.054 296.953 197.128 302.362 199.218 307.41C201.307 312.457 204.371 317.043 208.234 320.906C212.097 324.769 216.683 327.833 221.73 329.922C226.778 332.012 232.187 333.086 237.65 333.084H299.22C310.247 333.072 320.82 328.686 328.618 320.888C336.416 313.09 340.802 302.518 340.814 291.49V259.921C340.802 248.893 336.416 238.321 328.618 230.523C320.82 222.725 310.247 218.339 299.22 218.327H237.65C234.856 218.328 232.069 218.609 229.331 219.165V178.439C229.335 176.234 230.213 174.121 231.772 172.562C233.332 171.002 235.445 170.125 237.65 170.121H299.22C301.425 170.125 303.538 171.002 305.097 172.562C306.657 174.121 307.534 176.234 307.538 178.439V202.232C320.195 204.079 331.891 210.047 340.814 219.211ZM229.331 259.921C229.335 257.716 230.213 255.603 231.772 254.043C233.332 252.484 235.445 251.607 237.65 251.602H299.22C301.425 251.607 303.538 252.484 305.097 254.043C306.657 255.603 307.534 257.716 307.538 259.921V291.49C307.534 293.695 306.657 295.808 305.097 297.367C303.538 298.927 301.425 299.805 299.22 299.809H237.65C236.14 299.806 234.659 299.395 233.364 298.619C232.069 297.843 231.008 296.731 230.294 295.401C229.656 294.202 229.326 292.863 229.331 291.505V259.921Z" fill="#3D3D3C"/>
<path d="M179.637 178.439C179.621 167.414 175.233 156.846 167.435 149.051C159.638 141.257 149.068 136.872 138.043 136.86H76.4579C65.4328 136.872 54.8625 141.257 47.0652 149.051C39.2678 156.846 34.8797 167.414 34.8633 178.439V201.72H68.139V178.439C68.1431 176.234 69.0209 174.121 70.5801 172.562C72.1393 171.002 74.2528 170.125 76.4579 170.121H138.089C140.294 170.125 142.408 171.002 143.967 172.562C145.526 174.121 146.404 176.234 146.408 178.439V209.992C146.404 212.189 145.533 214.296 143.984 215.854C142.434 217.412 140.333 218.295 138.136 218.311H68.139V251.587H137.981C140.186 251.591 142.299 252.469 143.858 254.028C145.418 255.587 146.295 257.701 146.3 259.906V291.474C146.295 293.679 145.418 295.793 143.858 297.352C142.299 298.911 140.186 299.789 137.981 299.793H76.4579C74.2528 299.789 72.1393 298.911 70.5801 297.352C69.0209 295.793 68.1431 293.679 68.139 291.474V268.194H34.8633V291.474C34.8756 302.502 39.2618 313.075 47.0597 320.872C54.8575 328.67 65.4301 333.057 76.4579 333.069H138.089C149.117 333.057 159.69 328.67 167.487 320.872C175.285 313.075 179.672 302.502 179.684 291.474V259.906C179.687 250.9 176.756 242.139 171.334 234.949C176.758 227.76 179.69 218.998 179.684 209.992L179.637 178.439Z" fill="#3D3D3C"/>
<path d="M398.45 309.181C389.889 309.146 381.443 307.206 373.726 303.5C359.419 342.374 333.286 375.785 299.003 399.034C264.72 422.284 224.012 434.201 182.603 433.112C141.194 432.022 101.169 417.979 68.1565 392.959C35.1439 367.938 10.8048 333.199 -1.43753 293.626C-13.6799 254.054 -13.2095 211.639 -0.0926628 172.348C13.0242 133.056 38.1276 98.8653 71.687 74.583C105.246 50.3007 145.573 37.1492 186.996 36.9779C228.418 36.8066 268.852 49.6239 302.612 73.6277L264.602 109.884L366.245 112.227L368.651 10.6153L329.85 47.6622C290.196 17.6287 242.034 0.954253 192.298 0.0397338C142.563 -0.874786 93.8205 14.018 53.0892 42.5734C12.358 71.1288 -18.2604 111.874 -34.3572 158.941C-50.454 206.008 -51.1987 256.97 -36.484 304.487C-21.7693 352.005 7.64546 393.627 47.525 423.36C87.4044 453.094 135.691 469.404 185.432 469.943C235.173 470.482 283.801 455.222 324.316 426.36C364.831 397.498 395.141 356.523 410.882 309.336L398.45 309.181Z" fill="#3D3D3C"/>
</svg>
