<svg width="109" height="50" viewBox="0 0 109 50" fill="none" xmlns="http://www.w3.org/2000/svg">
<path d="M53.1231 31.045H46.6756C45.521 31.0437 44.4142 30.5845 43.5978 29.7681C42.7814 28.9517 42.3222 27.8448 42.3209 26.6903V14.8563C42.3222 13.7018 42.7814 12.5949 43.5978 11.7786C44.4142 10.9622 45.521 10.503 46.6756 10.5017H53.1214C54.276 10.503 55.3829 10.9622 56.1992 11.7786C57.0156 12.5949 57.4748 13.7018 57.4761 14.8563V26.6903C57.4744 27.8444 57.0153 28.9508 56.1993 29.7671C55.3834 30.5833 54.2772 31.0428 53.1231 31.045ZM46.6772 13.9838C46.4462 13.9838 46.2247 14.0755 46.0614 14.2389C45.898 14.4022 45.8063 14.6237 45.8063 14.8547V26.6887C45.8067 26.9195 45.8986 27.1408 46.0618 27.304C46.2251 27.4673 46.4463 27.5592 46.6772 27.5596H53.1231C53.3539 27.5592 53.5752 27.4673 53.7384 27.304C53.9017 27.1408 53.9936 26.9195 53.994 26.6887V14.8547C53.9936 14.6239 53.9017 14.4026 53.7384 14.2394C53.5752 14.0761 53.3539 13.9842 53.1231 13.9838H46.6772Z" fill="#292628"/>
<path d="M40.602 23.3494V19.0808C40.6002 17.9266 40.1408 16.8201 39.3245 16.0041C38.5082 15.1881 37.4016 14.7291 36.2473 14.7278H29.8014C28.6472 14.7291 27.5405 15.1881 26.7242 16.0041C25.9079 16.8201 25.4485 17.9266 25.4468 19.0808V28.38V30.9164C25.4465 31.4883 25.559 32.0547 25.7778 32.5831C25.9966 33.1116 26.3173 33.5917 26.7217 33.9961C27.1261 34.4005 27.6063 34.7213 28.1347 34.9401C28.6631 35.1588 29.2295 35.2713 29.8014 35.2711H36.2473C37.4018 35.2698 38.5087 34.8106 39.3251 33.9942C40.1415 33.1778 40.6007 32.071 40.602 30.9164V27.6114C40.6007 26.4569 40.1415 25.35 39.3251 24.5336C38.5087 23.7173 37.4018 23.2581 36.2473 23.2568H29.8014C29.5089 23.2569 29.2172 23.2863 28.9305 23.3445V19.0808C28.9309 18.85 29.0228 18.6287 29.1861 18.4655C29.3493 18.3022 29.5706 18.2103 29.8014 18.2099H36.2473C36.4782 18.2103 36.6994 18.3022 36.8627 18.4655C37.0259 18.6287 37.1178 18.85 37.1182 19.0808V21.5718C38.4433 21.7652 39.6677 22.3899 40.602 23.3494ZM28.9305 27.6114C28.9309 27.3806 29.0228 27.1593 29.1861 26.9961C29.3493 26.8328 29.5706 26.7409 29.8014 26.7405H36.2473C36.4782 26.7409 36.6994 26.8328 36.8627 26.9961C37.0259 27.1593 37.1178 27.3806 37.1182 27.6114V30.9164C37.1178 31.1473 37.0259 31.3685 36.8627 31.5318C36.6994 31.695 36.4782 31.7869 36.2473 31.7874H29.8014C29.6434 31.7871 29.4883 31.7441 29.3527 31.6628C29.2171 31.5816 29.106 31.4652 29.0312 31.3259C28.9645 31.2003 28.9299 31.0602 28.9305 30.9181V27.6114Z" fill="#292628"/>
<path d="M23.727 19.0808C23.7253 17.9266 23.2659 16.8201 22.4496 16.0041C21.6333 15.1881 20.5266 14.7291 19.3724 14.7278H12.9249C11.7706 14.7291 10.664 15.1881 9.84767 16.0041C9.03134 16.8201 8.57194 17.9266 8.57022 19.0808V21.5181H12.054V19.0808C12.0544 18.85 12.1463 18.6287 12.3095 18.4655C12.4728 18.3022 12.694 18.2103 12.9249 18.2099H19.3773C19.6081 18.2103 19.8294 18.3022 19.9926 18.4655C20.1559 18.6287 20.2478 18.85 20.2482 19.0808V22.3842C20.2478 22.6142 20.1565 22.8348 19.9944 22.9979C19.8322 23.161 19.6121 23.2534 19.3821 23.2552H12.054V26.7389H19.3659C19.5967 26.7393 19.818 26.8312 19.9813 26.9944C20.1445 27.1577 20.2364 27.3789 20.2368 27.6098V30.9148C20.2364 31.1457 20.1445 31.3669 19.9813 31.5302C19.818 31.6934 19.5967 31.7853 19.3659 31.7857H12.9249C12.694 31.7853 12.4728 31.6934 12.3095 31.5302C12.1463 31.3669 12.0544 31.1457 12.054 30.9148V28.4775H8.57022V30.9148C8.57151 32.0693 9.03072 33.1762 9.8471 33.9926C10.6635 34.809 11.7704 35.2682 12.9249 35.2695H19.3773C20.5318 35.2682 21.6387 34.809 22.455 33.9926C23.2714 33.1762 23.7306 32.0693 23.7319 30.9148V27.6098C23.7323 26.667 23.4254 25.7498 22.8577 24.997C23.4256 24.2444 23.7325 23.327 23.7319 22.3842L23.727 19.0808Z" fill="#292628"/>
<path d="M46.6355 32.7684C45.7392 32.7649 44.855 32.5617 44.0471 32.1738C42.5492 36.2436 39.8133 39.7415 36.2241 42.1755C32.6349 44.6095 28.373 45.8573 24.0378 45.7432C19.7026 45.6291 15.5123 44.1589 12.0561 41.5394C8.59989 38.92 6.05176 35.283 4.77007 31.14C3.48839 26.9971 3.53763 22.5565 4.91087 18.443C6.28411 14.3295 8.91227 10.7499 12.4257 8.20773C15.9391 5.66555 20.1611 4.28868 24.4977 4.27074C28.8344 4.25281 33.0675 5.59469 36.6019 8.10772L32.6226 11.9034L43.2639 12.1488L43.5157 1.51076L39.4535 5.38931C35.302 2.24502 30.2598 0.499318 25.0529 0.403574C19.8459 0.30783 14.7429 1.867 10.4786 4.85655C6.21437 7.8461 3.00883 12.1118 1.32361 17.0394C-0.36161 21.967 -0.439573 27.3023 1.10095 32.2771C2.64147 37.2519 5.721 41.6094 9.8961 44.7223C14.0712 47.8351 19.1265 49.5427 24.334 49.5992C29.5415 49.6556 34.6326 48.058 38.8742 45.0363C43.1158 42.0147 46.289 37.7249 47.937 32.7847L46.6355 32.7684Z" fill="#292628"/>
<path d="M71.5337 27.2098H75.0613L72.598 21.9777L68.2108 31.467H65.0423L71.0381 19.3454L74.0441 18.533L80.2527 31.467H77.0842L76.288 29.7771H70.4385L71.5337 27.2098Z" fill="#292628"/>
<path d="M84.2336 22.5937V28.7862H88.962C90.6194 28.7862 91.4822 26.9175 91.4822 25.0814C91.4822 23.2941 90.6698 21.5392 88.962 21.5392H81.2276L82.04 18.8582H89.3195C92.8292 18.8582 94.6507 22.0917 94.6507 25.2764C94.6507 28.3962 92.9104 31.4672 89.3195 31.4672H81.2276V23.4078L84.2336 22.5937Z" fill="#292628"/>
<path d="M95.6256 22.6929C95.6256 20.7593 97.153 18.8582 100.143 18.8582H108.724L107.911 21.5392H100.175C99.2491 21.5392 98.7941 22.1242 98.7941 22.6929C98.7941 23.2616 99.2653 23.8303 100.175 23.8303H104.53C107.473 23.8303 109 25.7314 109 27.665C109 29.5499 107.554 31.4672 104.53 31.4672H95.6256L96.4381 28.7862H104.497C105.407 28.7862 105.879 28.25 105.879 27.665C105.879 27.08 105.424 26.4951 104.497 26.4951H100.143C97.1043 26.4951 95.6256 24.594 95.6256 22.6929Z" fill="#292628"/>
</svg>
