<svg width="20" height="20" viewBox="0 0 34 33" fill="none" xmlns="http://www.w3.org/2000/svg">
<path fill-rule="evenodd" clip-rule="evenodd" d="M16.9903 32.6732C20.2249 32.6732 23.3867 31.7127 26.075 29.9139C28.7634 28.1151 30.8568 25.559 32.0908 22.569C33.3248 19.579 33.6438 16.29 33.0066 13.1187C32.3695 9.9475 30.805 7.03663 28.5119 4.75528C26.2188 2.47392 23.3005 0.92472 20.126 0.303826C16.9515 -0.317069 13.6637 0.0182829 10.6801 1.26757C7.69649 2.51685 5.15098 4.62377 3.36597 7.32127C1.58096 10.0188 0.637009 13.1854 0.653534 16.42C0.670103 20.74 2.39904 24.8769 5.46155 27.9238C8.52406 30.9707 12.6703 32.6788 16.9903 32.6732Z" fill="#292728" fill-opacity="0.2"/>
<path d="M16.823 8.17843C18.4402 8.14576 20.0309 8.59316 21.3937 9.46435C22.7565 10.3355 23.8303 11.5913 24.4795 13.0728C25.1287 14.5542 25.324 16.1949 25.0408 17.7873C24.7576 19.3798 24.0083 20.8527 22.8882 22.0195C21.7681 23.1863 20.327 23.9948 18.7475 24.3428C17.1679 24.6907 15.5205 24.5624 14.0138 23.9742C12.5071 23.386 11.2087 22.3643 10.2826 21.0382C9.35655 19.7121 8.84437 18.1412 8.81103 16.5241V16.4196C8.79448 15.3521 8.98912 14.2916 9.38306 13.2992C9.77701 12.3068 10.3625 11.402 11.1068 10.6364C11.8511 9.87085 12.739 9.25962 13.7199 8.83782C14.7008 8.41601 15.7554 8.19202 16.823 8.17843Z" fill="#292628"/>
</svg>
