<svg width="26" height="26" viewBox="0 0 26 26" fill="none" xmlns="http://www.w3.org/2000/svg">
<rect x="0.414795" y="0.132202" width="24.8697" height="24.8697" rx="12.4349" fill="#D1E0EB"/>
<g clip-path="url(#clip0_1309_3136)">
<path d="M18.1927 12.0814C18.0639 12.0814 17.9404 12.1326 17.8493 12.2237C17.7582 12.3147 17.707 12.4383 17.707 12.5671C17.7109 13.6966 17.3225 14.7924 16.608 15.6672C15.8936 16.542 14.8975 17.1415 13.79 17.3632C12.6825 17.5849 11.5323 17.4151 10.5362 16.8828C9.53997 16.3505 8.7596 15.4888 8.3284 14.4448C7.89721 13.4009 7.84198 12.2396 8.17214 11.1595C8.5023 10.0793 9.19735 9.14737 10.1385 8.52291C11.0797 7.89846 12.2085 7.62026 13.332 7.73587C14.4556 7.85149 15.5041 8.35373 16.2984 9.15677C16.2824 9.16112 16.2662 9.16453 16.2498 9.16697H14.7926C14.6637 9.16697 14.5402 9.21814 14.4491 9.30923C14.358 9.40033 14.3068 9.52388 14.3068 9.6527C14.3068 9.78153 14.358 9.90508 14.4491 9.99617C14.5402 10.0873 14.6637 10.1384 14.7926 10.1384H16.2498C16.6363 10.1384 17.0069 9.98491 17.2802 9.71163C17.5535 9.43835 17.707 9.06771 17.707 8.68123V7.22402C17.707 7.09519 17.6558 6.97164 17.5647 6.88055C17.4736 6.78946 17.3501 6.73828 17.2213 6.73828C17.0924 6.73828 16.9689 6.78946 16.8778 6.88055C16.7867 6.97164 16.7355 7.09519 16.7355 7.22402V8.22706C15.741 7.33794 14.4715 6.81705 13.1391 6.75145C11.8066 6.68584 10.4921 7.07949 9.41502 7.86662C8.33796 8.65374 7.56366 9.78666 7.2215 11.0761C6.87935 12.3655 6.99006 13.7332 7.53514 14.9508C8.08023 16.1684 9.02666 17.162 10.2163 17.7657C11.4059 18.3693 12.7667 18.5464 14.0712 18.2674C15.3757 17.9883 16.5449 17.27 17.3835 16.2325C18.2221 15.195 18.6792 13.9011 18.6785 12.5671C18.6785 12.4383 18.6273 12.3147 18.5362 12.2237C18.4451 12.1326 18.3216 12.0814 18.1927 12.0814Z" fill="#374957"/>
<path d="M12.8495 9.65271C12.7207 9.65271 12.5971 9.70389 12.506 9.79498C12.4149 9.88607 12.3638 10.0096 12.3638 10.1384V12.5671C12.3638 12.6959 12.415 12.8195 12.5061 12.9105L13.9633 14.3678C14.0549 14.4562 14.1776 14.5052 14.305 14.5041C14.4323 14.503 14.5542 14.4519 14.6442 14.3618C14.7343 14.2718 14.7854 14.15 14.7865 14.0226C14.7876 13.8952 14.7386 13.7725 14.6501 13.6809L13.3352 12.366V10.1384C13.3352 10.0096 13.2841 9.88607 13.193 9.79498C13.1019 9.70389 12.9783 9.65271 12.8495 9.65271Z" fill="#374957"/>
</g>
<defs>
<clipPath id="clip0_1309_3136">
<rect width="11.6577" height="11.6577" fill="white" transform="translate(7.02075 6.73828)"/>
</clipPath>
</defs>
</svg>
