<svg width="109" height="50" viewBox="0 0 109 50" fill="none" xmlns="http://www.w3.org/2000/svg">
<path d="M53.123 30.6458H46.6755C45.5209 30.6445 44.414 30.1853 43.5977 29.3689C42.7813 28.5525 42.3221 27.4457 42.3208 26.2911V14.4572C42.3221 13.3026 42.7813 12.1958 43.5977 11.3794C44.414 10.563 45.5209 10.1038 46.6755 10.1025H53.1213C54.2759 10.1038 55.3827 10.563 56.1991 11.3794C57.0155 12.1958 57.4747 13.3026 57.476 14.4572V26.2911C57.4743 27.4453 57.0152 28.5517 56.1992 29.3679C55.3833 30.1841 54.2771 30.6437 53.123 30.6458ZM46.6771 13.5846C46.4461 13.5846 46.2246 13.6764 46.0612 13.8397C45.8979 14.003 45.8062 14.2246 45.8062 14.4555V26.2895C45.8066 26.5204 45.8985 26.7416 46.0617 26.9049C46.225 27.0681 46.4462 27.16 46.6771 27.1605H53.123C53.3538 27.16 53.5751 27.0681 53.7383 26.9049C53.9016 26.7416 53.9935 26.5204 53.9939 26.2895V14.4555C53.9935 14.2247 53.9016 14.0034 53.7383 13.8402C53.5751 13.6769 53.3538 13.5851 53.123 13.5846H46.6771Z" fill="#F6F6F6"/>
<path d="M40.602 22.9497V18.6812C40.6003 17.5269 40.1409 16.4205 39.3245 15.6045C38.5082 14.7884 37.4016 14.3294 36.2473 14.3281H29.8014C28.6472 14.3294 27.5406 14.7884 26.7242 15.6045C25.9079 16.4205 25.4485 17.5269 25.4468 18.6812V27.9803V30.5168C25.4466 31.0887 25.5591 31.6551 25.7778 32.1835C25.9966 32.7119 26.3173 33.192 26.7217 33.5964C27.1262 34.0009 27.6063 34.3216 28.1347 34.5404C28.6632 34.7592 29.2295 34.8716 29.8014 34.8714H36.2473C37.4018 34.8701 38.5087 34.4109 39.3251 33.5945C40.1415 32.7782 40.6007 31.6713 40.602 30.5168V27.2118C40.6007 26.0572 40.1415 24.9504 39.3251 24.134C38.5087 23.3176 37.4018 22.8584 36.2473 22.8571H29.8014C29.5089 22.8573 29.2172 22.8866 28.9305 22.9448V18.6812C28.9309 18.4503 29.0228 18.229 29.1861 18.0658C29.3493 17.9026 29.5706 17.8107 29.8014 17.8103H36.2473C36.4782 17.8107 36.6994 17.9026 36.8627 18.0658C37.0259 18.229 37.1178 18.4503 37.1182 18.6812V21.1721C38.4433 21.3655 39.6678 21.9903 40.602 22.9497ZM28.9305 27.2118C28.9309 26.9809 29.0228 26.7596 29.1861 26.5964C29.3493 26.4332 29.5706 26.3413 29.8014 26.3408H36.2473C36.4782 26.3413 36.6994 26.4332 36.8627 26.5964C37.0259 26.7596 37.1178 26.9809 37.1182 27.2118V30.5168C37.1178 30.7476 37.0259 30.9689 36.8627 31.1321C36.6994 31.2954 36.4782 31.3873 36.2473 31.3877H29.8014C29.6434 31.3875 29.4883 31.3444 29.3527 31.2632C29.2171 31.1819 29.106 31.0655 29.0312 30.9262C28.9645 30.8007 28.9299 30.6606 28.9305 30.5184V27.2118Z" fill="#F6F6F6"/>
<path d="M23.7271 18.6812C23.7254 17.5269 23.266 16.4205 22.4497 15.6045C21.6334 14.7884 20.5267 14.3294 19.3725 14.3281H12.925C11.7707 14.3294 10.6641 14.7884 9.84776 15.6045C9.03143 16.4205 8.57203 17.5269 8.57031 18.6812V21.1185H12.054V18.6812C12.0545 18.4503 12.1464 18.2291 12.3096 18.0658C12.4728 17.9026 12.6941 17.8107 12.925 17.8103H19.3774C19.6082 17.8107 19.8295 17.9026 19.9927 18.0658C20.156 18.2291 20.2479 18.4503 20.2483 18.6812V21.9846C20.2479 22.2146 20.1566 22.4351 19.9944 22.5982C19.8323 22.7613 19.6122 22.8538 19.3822 22.8555H12.054V26.3392H19.366C19.5968 26.3397 19.8181 26.4315 19.9813 26.5948C20.1446 26.758 20.2365 26.9793 20.2369 27.2101V30.5151C20.2365 30.746 20.1446 30.9673 19.9813 31.1305C19.8181 31.2937 19.5968 31.3857 19.366 31.3861H12.925C12.6941 31.3857 12.4728 31.2937 12.3096 31.1305C12.1464 30.9673 12.0545 30.746 12.054 30.5151V28.0778H8.57031V30.5151C8.5716 31.6697 9.03081 32.7765 9.84719 33.5929C10.6636 34.4093 11.7704 34.8685 12.925 34.8698H19.3774C20.5319 34.8685 21.6388 34.4093 22.4551 33.5929C23.2715 32.7765 23.7307 31.6697 23.732 30.5151V27.2101C23.7324 26.2673 23.4255 25.3501 22.8578 24.5974C23.4257 23.8447 23.7326 22.9274 23.732 21.9846L23.7271 18.6812Z" fill="#F6F6F6"/>
<path d="M46.6355 32.369C45.7392 32.3655 44.855 32.1623 44.0471 31.7743C42.5492 35.8441 39.8133 39.342 36.2241 41.7761C32.6349 44.2101 28.373 45.4578 24.0378 45.3437C19.7026 45.2296 15.5123 43.7595 12.0561 41.14C8.59989 38.5205 6.05176 34.8836 4.77007 30.7406C3.48839 26.5977 3.53763 22.1571 4.91087 18.0436C6.28411 13.9301 8.91227 10.3505 12.4257 7.80832C15.9391 5.26613 20.1611 3.88927 24.4977 3.87133C28.8344 3.85339 33.0675 5.19528 36.6019 7.70831L32.6226 11.504L43.2639 11.7494L43.5157 1.11134L39.4535 4.9899C35.302 1.8456 30.2598 0.0999036 25.0529 0.00415984C19.8459 -0.0915839 14.7429 1.46758 10.4786 4.45713C6.21437 7.44668 3.00883 11.7124 1.32361 16.64C-0.36161 21.5676 -0.439573 26.9029 1.10095 31.8777C2.64147 36.8524 5.721 41.21 9.8961 44.3228C14.0712 47.4357 19.1265 49.1433 24.334 49.1998C29.5415 49.2562 34.6326 47.6586 38.8742 44.6369C43.1158 41.6153 46.289 37.3255 47.937 32.3853L46.6355 32.369Z" fill="#F6F6F6"/>
<path d="M71.5336 26.8106H75.0612L72.5979 21.5786L68.2107 31.0678H65.0422L71.038 18.9462L74.044 18.1338L80.2527 31.0678H77.0842L76.288 29.3779H70.4384L71.5336 26.8106Z" fill="#F6F6F6"/>
<path d="M84.2336 22.1946V28.387H88.9619C90.6193 28.387 91.4821 26.5184 91.4821 24.6823C91.4821 22.8949 90.6697 21.14 88.9619 21.14H81.2275L82.04 18.459H89.3194C92.8291 18.459 94.6506 21.6925 94.6506 24.8772C94.6506 27.997 92.9104 31.068 89.3194 31.068H81.2275V23.0086L84.2336 22.1946Z" fill="#F6F6F6"/>
<path d="M95.6255 22.2937C95.6255 20.3601 97.1529 18.459 100.143 18.459H108.724L107.911 21.14H100.175C99.249 21.14 98.794 21.725 98.794 22.2937C98.794 22.8624 99.2652 23.4311 100.175 23.4311H104.53C107.472 23.4311 109 25.3322 109 27.2658C109 29.1507 107.554 31.068 104.53 31.068H95.6255L96.4379 28.387H104.497C105.407 28.387 105.878 27.8508 105.878 27.2658C105.878 26.6809 105.423 26.0959 104.497 26.0959H100.143C97.1041 26.0959 95.6255 24.1948 95.6255 22.2937Z" fill="#F6F6F6"/>
</svg>
