<svg width="32" height="32" viewBox="0 0 31 31" fill="none" xmlns="http://www.w3.org/2000/svg">
<path d="M4.71283 15.7814C5.45255 16.3616 6.29836 16.6514 7.24986 16.6514C8.45185 16.6073 9.45344 16.1756 10.2551 15.3573C10.6415 14.778 10.8899 14.1831 11.0002 13.5734C11.0663 12.9647 11.0996 12.451 11.0996 12.0344C11.0996 10.2354 10.639 8.42129 9.71826 6.592C9.2863 5.71521 8.71793 5.00125 8.01273 4.45052C7.2928 3.93051 6.46551 3.65494 5.53001 3.62549C4.29266 3.65494 3.26328 4.15391 2.44356 5.12031C1.75142 6.13173 1.4205 7.26178 1.45081 8.51006C1.45081 10.161 1.93372 11.8792 2.90078 13.6631C3.35758 14.4827 3.97366 15.2029 4.71283 15.7814ZM7.48604 22.7061C7.15379 22.2691 6.85929 21.8048 6.6057 21.3181C6.3051 20.8414 6.15522 20.2663 6.15522 19.5948C6.15522 19.1922 6.21206 18.856 6.32657 18.5872C6.41891 18.3259 6.51196 18.065 6.6057 17.8042C6.11876 17.8623 5.62887 17.8922 5.13847 17.8938C2.96225 17.8678 1.24957 17.2514 0 16.0477V24.1836C1.10507 23.6761 2.27131 23.314 3.46957 23.1062C5.08163 22.8689 6.42046 22.7355 7.48604 22.7061ZM8.73182 23.9951C8.39109 23.9627 8.04892 23.9477 7.70666 23.9501C7.47383 23.9207 6.87768 23.9501 5.91819 24.0397C4.93634 24.1812 3.96663 24.3968 3.0174 24.6847C2.78458 24.7743 2.45746 24.9073 2.03602 25.0857C1.61417 25.2788 1.18515 25.5531 0.749404 25.9098C0.465107 26.1616 0.21336 26.4478 0 26.7618V28.0025C0.000445838 28.5618 0.222935 29.098 0.61863 29.4935C1.01432 29.889 1.55089 30.1115 2.11054 30.112H13.6152C13.6156 30.0834 13.6173 30.0561 13.6173 30.0283C13.6173 28.8705 13.2388 27.8616 12.4831 27.0004C11.6831 26.1842 10.4331 25.1828 8.73182 23.9951Z" fill="#3C3C3B"/>
<path d="M28.202 0.111816H2.11054C1.55082 0.112151 1.01413 0.334522 0.618384 0.730069C0.222641 1.12562 0.000223074 1.66198 0 2.22131V5.04982C0.13304 4.90846 0.270712 4.76794 0.414698 4.6291C1.71268 3.56089 3.06203 2.86418 4.46148 2.53686C5.84662 2.25497 7.14544 2.11445 8.35712 2.11445H17.4898L14.6694 3.75947H11.8532C12.1399 3.93702 12.4628 4.19744 12.8211 4.53865C13.1651 4.89458 13.5023 5.33255 13.832 5.85172C14.1473 6.34144 14.4269 6.91993 14.6706 7.58804C14.871 8.2553 14.9717 9.03532 14.9717 9.92515C14.9447 11.558 14.5839 12.8635 13.8901 13.8429C13.5601 14.3048 13.1987 14.7436 12.8085 15.156C12.3682 15.5735 11.9192 15.9817 11.4617 16.3803C11.1799 16.6744 10.9271 16.9949 10.7068 17.3374C10.4348 17.7081 10.2984 18.1385 10.2984 18.6282C10.2984 19.1032 10.4382 19.4957 10.7169 19.8075C10.9323 20.0803 11.1629 20.3407 11.4078 20.5875L12.9571 21.8564C13.9003 22.6225 14.7503 23.4964 15.4899 24.4602C16.1741 25.4249 16.5298 26.6863 16.5576 28.2442C16.5576 28.8883 16.4743 29.5106 16.3084 30.1118H28.202C28.7617 30.1113 29.2984 29.8889 29.6942 29.4934C30.09 29.0979 30.3125 28.5616 30.313 28.0023V2.22089C30.3125 1.6616 30.09 1.12534 29.6942 0.729894C29.2984 0.33445 28.7617 0.112151 28.202 0.111816ZM29.8629 9.41691H25.0709V14.206H22.7495V9.41691H17.9575V7.09706H22.7495V2.30882H25.0709V7.09706H29.8629V9.41691Z" fill="#3C3C3B"/>
</svg>
