<svg width="26" height="26" viewBox="0 0 35 36" fill="none" xmlns="http://www.w3.org/2000/svg">
<rect y="0.735596" width="34.5287" height="34.5287" rx="17.2644" fill="#CFD4DA"/>
<path d="M17.2643 10.8926C18.1742 10.8926 19.047 11.2541 19.6904 11.8975C20.3339 12.541 20.6954 13.4137 20.6954 14.3237C20.6954 15.2337 20.3339 16.1064 19.6904 16.7498C19.047 17.3933 18.1742 17.7548 17.2643 17.7548C16.3543 17.7548 15.4816 17.3933 14.8381 16.7498C14.1947 16.1064 13.8332 15.2337 13.8332 14.3237C13.8332 13.4137 14.1947 12.541 14.8381 11.8975C15.4816 11.2541 16.3543 10.8926 17.2643 10.8926ZM10.4021 13.3434C10.951 13.3434 11.4608 13.4904 11.9019 13.7551C11.7549 15.1569 12.1666 16.549 13.0097 17.6371C12.5195 18.5782 11.5392 19.2253 10.4021 19.2253C9.62207 19.2253 8.87403 18.9154 8.3225 18.3639C7.77097 17.8123 7.46112 17.0643 7.46112 16.2843C7.46112 15.5043 7.77097 14.7563 8.3225 14.2047C8.87403 13.6532 9.62207 13.3434 10.4021 13.3434ZM24.1265 13.3434C24.9065 13.3434 25.6545 13.6532 26.206 14.2047C26.7576 14.7563 27.0674 15.5043 27.0674 16.2843C27.0674 17.0643 26.7576 17.8123 26.206 18.3639C25.6545 18.9154 24.9065 19.2253 24.1265 19.2253C22.9893 19.2253 22.009 18.5782 21.5188 17.6371C22.3735 16.5337 22.7703 15.1434 22.6266 13.7551C23.0677 13.4904 23.5775 13.3434 24.1265 13.3434ZM10.8922 23.3916C10.8922 21.3623 13.7449 19.7154 17.2643 19.7154C20.7836 19.7154 23.6363 21.3623 23.6363 23.3916V25.1071H10.8922V23.3916ZM5.50049 25.1071V23.6367C5.50049 22.274 7.35328 21.1271 9.86289 20.7938C9.2845 21.4604 8.93159 22.3819 8.93159 23.3916V25.1071H5.50049ZM29.028 25.1071H25.5969V23.3916C25.5969 22.3819 25.244 21.4604 24.6656 20.7938C27.1752 21.1271 29.028 22.274 29.028 23.6367V25.1071Z" fill="#5E5F60"/>
</svg>
