<svg width="32" height="32" viewBox="0 0 27 28" fill="none" xmlns="http://www.w3.org/2000/svg">
<path d="M7.76294 0.589844H19.0058C23.2888 0.589844 26.7687 4.06978 26.7687 8.35278V19.5957C26.7687 21.6545 25.9509 23.629 24.495 25.0849C23.0392 26.5407 21.0647 27.3586 19.0058 27.3586H7.76294C3.47994 27.3586 0 23.8787 0 19.5957V8.35278C0 6.29392 0.817879 4.31939 2.27371 2.86356C3.72954 1.40772 5.70408 0.589844 7.76294 0.589844ZM7.49525 3.26672C6.21734 3.26672 4.99176 3.77437 4.08814 4.67799C3.18452 5.58161 2.67687 6.80718 2.67687 8.08509V19.8633C2.67687 22.5268 4.83176 24.6817 7.49525 24.6817H19.2735C20.5514 24.6817 21.777 24.1741 22.6806 23.2704C23.5842 22.3668 24.0919 21.1413 24.0919 19.8633V8.08509C24.0919 5.4216 21.937 3.26672 19.2735 3.26672H7.49525ZM20.4112 5.27437C20.8549 5.27437 21.2804 5.45064 21.5942 5.7644C21.9079 6.07816 22.0842 6.5037 22.0842 6.94742C22.0842 7.39114 21.9079 7.81669 21.5942 8.13044C21.2804 8.4442 20.8549 8.62047 20.4112 8.62047C19.9674 8.62047 19.5419 8.4442 19.2281 8.13044C18.9144 7.81669 18.7381 7.39114 18.7381 6.94742C18.7381 6.5037 18.9144 6.07816 19.2281 5.7644C19.5419 5.45064 19.9674 5.27437 20.4112 5.27437ZM13.3844 7.28203C15.1593 7.28203 16.8614 7.9871 18.1165 9.24213C19.3715 10.4972 20.0766 12.1993 20.0766 13.9742C20.0766 15.7491 19.3715 17.4513 18.1165 18.7063C16.8614 19.9613 15.1593 20.6664 13.3844 20.6664C11.6095 20.6664 9.90731 19.9613 8.65228 18.7063C7.39725 17.4513 6.69219 15.7491 6.69219 13.9742C6.69219 12.1993 7.39725 10.4972 8.65228 9.24213C9.90731 7.9871 11.6095 7.28203 13.3844 7.28203ZM13.3844 9.9589C12.3194 9.9589 11.2981 10.3819 10.5451 11.135C9.7921 11.888 9.36906 12.9093 9.36906 13.9742C9.36906 15.0391 9.7921 16.0605 10.5451 16.8135C11.2981 17.5665 12.3194 17.9895 13.3844 17.9895C14.4493 17.9895 15.4706 17.5665 16.2236 16.8135C16.9766 16.0605 17.3997 15.0391 17.3997 13.9742C17.3997 12.9093 16.9766 11.888 16.2236 11.135C15.4706 10.3819 14.4493 9.9589 13.3844 9.9589Z" fill="#3C3C3B"/>
</svg>
