<svg width="26" height="27" viewBox="0 0 26 27" fill="none" xmlns="http://www.w3.org/2000/svg">
<path d="M7.54 0.689453H18.46C22.62 0.689453 26 4.06945 26 8.22945V19.1495C26 21.1492 25.2056 23.067 23.7916 24.481C22.3776 25.8951 20.4597 26.6895 18.46 26.6895H7.54C3.38 26.6895 0 23.3095 0 19.1495V8.22945C0 6.22972 0.794391 4.31189 2.20842 2.89787C3.62244 1.48384 5.54027 0.689453 7.54 0.689453ZM7.28 3.28945C6.03879 3.28945 4.84841 3.78252 3.97074 4.66019C3.09307 5.53786 2.6 6.72824 2.6 7.96945V19.4095C2.6 21.9965 4.693 24.0895 7.28 24.0895H18.72C19.9612 24.0895 21.1516 23.5964 22.0293 22.7187C22.9069 21.841 23.4 20.6507 23.4 19.4095V7.96945C23.4 5.38245 21.307 3.28945 18.72 3.28945H7.28ZM19.825 5.23945C20.256 5.23945 20.6693 5.41066 20.974 5.7154C21.2788 6.02015 21.45 6.43348 21.45 6.86445C21.45 7.29543 21.2788 7.70875 20.974 8.0135C20.6693 8.31825 20.256 8.48945 19.825 8.48945C19.394 8.48945 18.9807 8.31825 18.6759 8.0135C18.3712 7.70875 18.2 7.29543 18.2 6.86445C18.2 6.43348 18.3712 6.02015 18.6759 5.7154C18.9807 5.41066 19.394 5.23945 19.825 5.23945ZM13 7.18945C14.7239 7.18945 16.3772 7.87427 17.5962 9.09326C18.8152 10.3122 19.5 11.9655 19.5 13.6895C19.5 15.4134 18.8152 17.0667 17.5962 18.2856C16.3772 19.5046 14.7239 20.1895 13 20.1895C11.2761 20.1895 9.62279 19.5046 8.40381 18.2856C7.18482 17.0667 6.5 15.4134 6.5 13.6895C6.5 11.9655 7.18482 10.3122 8.40381 9.09326C9.62279 7.87427 11.2761 7.18945 13 7.18945ZM13 9.78945C11.9657 9.78945 10.9737 10.2003 10.2423 10.9317C9.51089 11.6631 9.1 12.6551 9.1 13.6895C9.1 14.7238 9.51089 15.7158 10.2423 16.4472C10.9737 17.1786 11.9657 17.5895 13 17.5895C14.0343 17.5895 15.0263 17.1786 15.7577 16.4472C16.4891 15.7158 16.9 14.7238 16.9 13.6895C16.9 12.6551 16.4891 11.6631 15.7577 10.9317C15.0263 10.2003 14.0343 9.78945 13 9.78945Z" fill="#F6F6F6"/>
</svg>
