<svg width="25" height="25" viewBox="0 0 25 25" fill="none" xmlns="http://www.w3.org/2000/svg">
<rect y="0.821777" width="24.029" height="24.029" rx="12.0145" fill="#FCF3BB"/>
<path d="M16.3369 18.2393H15.2563V15.5378H16.3369M8.77277 18.2393H7.69218V15.5378H8.77277M17.9578 8.51394V13.3766C17.9578 13.6632 17.844 13.9381 17.6413 14.1407C17.4387 14.3434 17.1638 14.4572 16.8772 14.4572H7.15188C6.86529 14.4572 6.59044 14.3434 6.38779 14.1407C6.18514 13.9381 6.07129 13.6632 6.07129 13.3766V8.51394C6.07129 8.22735 6.18514 7.9525 6.38779 7.74985C6.59044 7.5472 6.86529 7.43335 7.15188 7.43335H16.8772C17.1638 7.43335 17.4387 7.5472 17.6413 7.74985C17.844 7.9525 17.9578 8.22735 17.9578 8.51394ZM16.8772 8.51394H7.15188V13.3766H16.8772M16.3369 9.59454H13.6354V10.6751H16.3369M15.2563 11.2154H13.6354V12.296H15.2563M13.0951 12.296H7.69218L9.16719 10.3293L10.2478 11.8044L10.6422 11.5126L9.96143 10.5779L10.8853 9.3514L13.0951 12.296Z" fill="#8C7902"/>
</svg>
