<svg width="89" height="90" viewBox="0 0 89 90" fill="none" xmlns="http://www.w3.org/2000/svg">
<rect width="89" height="89.8182" rx="44.5" fill="#FCF3BB"/>
<path d="M57.2273 60.8182H54.0455V52.8636H57.2273M34.9545 60.8182H31.7727V52.8636H34.9545M62 32.1818V46.5C62 47.3439 61.6648 48.1532 61.0681 48.7499C60.4714 49.3466 59.6621 49.6818 58.8182 49.6818H30.1818C29.3379 49.6818 28.5286 49.3466 27.9319 48.7499C27.3352 48.1532 27 47.3439 27 46.5V32.1818C27 31.3379 27.3352 30.5286 27.9319 29.9319C28.5286 29.3352 29.3379 29 30.1818 29H58.8182C59.6621 29 60.4714 29.3352 61.0681 29.9319C61.6648 30.5286 62 31.3379 62 32.1818ZM58.8182 32.1818H30.1818V46.5H58.8182M57.2273 35.3636H49.2727V38.5455H57.2273M54.0455 40.1364H49.2727V43.3182H54.0455M47.6818 43.3182H31.7727L36.1159 37.5273L39.2977 41.8705L40.4591 41.0114L38.4545 38.2591L41.175 34.6477L47.6818 43.3182Z" fill="#8C7902"/>
</svg>
