<svg width="35" height="35" viewBox="0 0 35 35" fill="none" xmlns="http://www.w3.org/2000/svg">
<rect width="34.1668" height="34.1668" rx="17.0834" fill="#E4E4D8"/>
<path d="M17.0832 5.87231C20.6173 5.87231 23.4895 8.71243 23.4895 12.2252C23.4895 16.9872 17.0832 24.0234 17.0832 24.0234C17.0832 24.0234 10.6769 16.9872 10.6769 12.2252C10.6769 8.71243 13.5491 5.87231 17.0832 5.87231ZM17.0832 10.1432C16.5169 10.1432 15.9737 10.3682 15.5732 10.7686C15.1728 11.1691 14.9478 11.7122 14.9478 12.2786C14.9478 12.8449 15.1728 13.3881 15.5732 13.7886C15.9737 14.189 16.5169 14.414 17.0832 14.414C17.6496 14.414 18.1927 14.189 18.5932 13.7886C18.9937 13.3881 19.2186 12.8449 19.2186 12.2786C19.2186 11.7122 18.9937 11.1691 18.5932 10.7686C18.1927 10.3682 17.6496 10.1432 17.0832 10.1432ZM25.6249 24.0234C25.6249 26.3831 21.8025 28.2943 17.0832 28.2943C12.3639 28.2943 8.5415 26.3831 8.5415 24.0234C8.5415 22.6461 9.84411 21.4182 11.8621 20.6388L12.5454 21.6104C11.3923 22.0909 10.6769 22.7529 10.6769 23.4896C10.6769 24.963 13.5491 26.1589 17.0832 26.1589C20.6173 26.1589 23.4895 24.963 23.4895 23.4896C23.4895 22.7529 22.7741 22.0909 21.621 21.6104L22.3043 20.6388C24.3223 21.4182 25.6249 22.6461 25.6249 24.0234Z" fill="#292728"/>
</svg>
