<svg width="41" height="30" viewBox="0 0 41 30" fill="none" xmlns="http://www.w3.org/2000/svg">
<path d="M24.6 19.321V23.421H30.75V29.571H34.85V23.421H41V19.321H34.85V13.171H30.75V19.321M24.5385 12.3715C24.2925 9.64503 21.7095 6.95953 18.45 7.02103C14.965 7.08253 12.3 9.68603 12.3 13.171C12.3 16.656 14.965 19.198 18.45 19.321C19.229 19.321 20.0285 19.157 20.787 18.8495C21.3405 16.5945 22.263 14.4625 24.5385 12.3715ZM20.5 21.371H8.2C8.2 20.2836 7.76804 19.2408 6.99914 18.4719C6.23024 17.703 5.18739 17.271 4.1 17.271V9.07103C6.3755 9.07103 8.2 7.24653 8.2 4.97103H28.7C28.7 6.05842 29.132 7.10127 29.9009 7.87017C30.6698 8.63907 31.7126 9.07103 32.8 9.07103V9.19403C34.1735 9.19403 35.547 9.44003 36.9 9.89103V0.871033H0V25.471H21.156C20.7204 24.148 20.499 22.7639 20.5 21.371Z" fill="#F6F6F6"/>
</svg>
