<svg width="20" height="13" viewBox="0 0 20 13" fill="none" xmlns="http://www.w3.org/2000/svg">
<path id="Vector" d="M9.80047 0.932129C10.5385 0.932129 11.2464 1.22532 11.7682 1.74721C12.2901 2.26909 12.5833 2.97692 12.5833 3.71498C12.5833 4.45304 12.2901 5.16086 11.7682 5.68275C11.2464 6.20464 10.5385 6.49783 9.80047 6.49783C9.06242 6.49783 8.35459 6.20464 7.8327 5.68275C7.31082 5.16086 7.01762 4.45304 7.01762 3.71498C7.01762 2.97692 7.31082 2.26909 7.8327 1.74721C8.35459 1.22532 9.06242 0.932129 9.80047 0.932129ZM4.23478 2.91988C4.68003 2.91988 5.09348 3.03914 5.45128 3.25382C5.33201 4.39081 5.66595 5.51985 6.34974 6.40242C5.95219 7.16571 5.15709 7.69048 4.23478 7.69048C3.60215 7.69048 2.99544 7.43917 2.54811 6.99184C2.10078 6.54451 1.84948 5.9378 1.84948 5.30518C1.84948 4.67256 2.10078 4.06585 2.54811 3.61852C2.99544 3.17119 3.60215 2.91988 4.23478 2.91988ZM15.3662 2.91988C15.9988 2.91988 16.6055 3.17119 17.0528 3.61852C17.5002 4.06585 17.7515 4.67256 17.7515 5.30518C17.7515 5.9378 17.5002 6.54451 17.0528 6.99184C16.6055 7.43917 15.9988 7.69048 15.3662 7.69048C14.4439 7.69048 13.6488 7.16571 13.2512 6.40242C13.9444 5.50747 14.2662 4.37984 14.1497 3.25382C14.5075 3.03914 14.9209 2.91988 15.3662 2.91988ZM4.63233 11.0697C4.63233 9.42379 6.94607 8.08803 9.80047 8.08803C12.6549 8.08803 14.9686 9.42379 14.9686 11.0697V12.4611H4.63233V11.0697ZM0.259277 12.4611V11.2684C0.259277 10.1632 1.76202 9.23297 3.79747 8.96264C3.32836 9.5033 3.04213 10.2507 3.04213 11.0697V12.4611H0.259277ZM19.3417 12.4611H16.5588V11.0697C16.5588 10.2507 16.2726 9.5033 15.8035 8.96264C17.8389 9.23297 19.3417 10.1632 19.3417 11.2684V12.4611Z" fill="#5E5F60"/>
</svg>
