<svg width="40" height="39" viewBox="0 0 40 39" fill="none" xmlns="http://www.w3.org/2000/svg">
<rect x="0.625467" y="1.48289" width="38.7491" height="36.8524" rx="18.4262" fill="#D4B601"/>
<path d="M28.8851 13.512C29.1013 13.7285 29.2228 14.022 29.2228 14.328C29.2228 14.634 29.1013 14.9275 28.8851 15.144L17.7229 26.3062C17.5064 26.5224 17.2129 26.6439 16.9069 26.6439C16.6009 26.6439 16.3075 26.5224 16.0909 26.3062L11.0872 21.3024C10.8834 21.0834 10.7723 20.7939 10.7775 20.4947C10.7827 20.1955 10.9036 19.91 11.1149 19.6982C11.3268 19.4869 11.6123 19.3659 11.9115 19.3608C12.2106 19.3556 12.5002 19.4666 12.7192 19.6705L16.9069 23.8582L27.2531 13.512C27.4696 13.2958 27.7631 13.1743 28.0691 13.1743C28.3751 13.1743 28.6686 13.2958 28.8851 13.512Z" fill="white"/>
<rect x="0.625467" y="1.48289" width="38.7491" height="36.8524" rx="18.4262" stroke="#D4B601" stroke-width="1.25093"/>
</svg>
