<svg width="28" height="23" viewBox="0 0 28 23" fill="none" xmlns="http://www.w3.org/2000/svg">
<path d="M27.196 3.23867C26.195 3.69367 25.116 3.99267 23.998 4.13567C25.142 3.44667 26.026 2.35467 26.442 1.04167C25.363 1.69167 24.167 2.14667 22.906 2.40667C21.879 1.28867 20.436 0.638672 18.798 0.638672C15.743 0.638672 13.247 3.13467 13.247 6.21567C13.247 6.65767 13.299 7.08667 13.39 7.48967C8.762 7.25567 4.641 5.03267 1.898 1.66567C1.417 2.48467 1.144 3.44667 1.144 4.46067C1.144 6.39767 2.119 8.11367 3.627 9.08867C2.704 9.08867 1.846 8.82867 1.092 8.43867V8.47767C1.092 11.1817 3.016 13.4437 5.564 13.9507C4.74594 14.1745 3.88712 14.2057 3.055 14.0417C3.40809 15.1499 4.0996 16.1196 5.03232 16.8145C5.96504 17.5094 7.09208 17.8945 8.255 17.9157C6.28372 19.4762 3.84019 20.3198 1.326 20.3077C0.884 20.3077 0.442 20.2817 0 20.2297C2.47 21.8157 5.408 22.7387 8.554 22.7387C18.798 22.7387 24.427 14.2367 24.427 6.86567C24.427 6.61867 24.427 6.38467 24.414 6.13767C25.506 5.35767 26.442 4.36967 27.196 3.23867Z" fill="#F6F6F6"/>
</svg>
