<svg width="32" height="32" viewBox="0 0 28 24" fill="none" xmlns="http://www.w3.org/2000/svg">
<path d="M28.0001 3.03527C26.9695 3.50373 25.8586 3.81157 24.7076 3.95879C25.8854 3.24942 26.7955 2.12514 27.2238 0.773314C26.1129 1.44253 24.8815 1.91099 23.5833 2.17867C22.5259 1.02762 21.0402 0.358398 19.3538 0.358398C16.2085 0.358398 13.6387 2.9282 13.6387 6.10029C13.6387 6.55536 13.6922 6.99705 13.7859 7.41196C9.02107 7.17104 4.77822 4.88232 1.95412 1.41576C1.4589 2.25898 1.17782 3.24942 1.17782 4.2934C1.17782 6.28767 2.18165 8.05441 3.73424 9.05824C2.78395 9.05824 1.90058 8.79055 1.12429 8.38902V8.42917C1.12429 11.2131 3.10517 13.542 5.72851 14.064C4.88627 14.2945 4.00205 14.3266 3.14533 14.1577C3.50886 15.2987 4.22081 16.2971 5.18111 17.0125C6.14141 17.7279 7.30177 18.1244 8.49908 18.1462C6.46951 19.7529 3.95374 20.6214 1.36521 20.6089C0.910137 20.6089 0.455069 20.5822 0 20.5286C2.54303 22.1615 5.5679 23.1118 8.80692 23.1118C19.3538 23.1118 25.1492 14.3584 25.1492 6.76951C25.1492 6.51521 25.1492 6.27429 25.1358 6.01999C26.2601 5.21692 27.2238 4.19971 28.0001 3.03527Z" fill="#3C3C3B"/>
</svg>
