<svg width="31" height="28" viewBox="0 0 35 32" fill="none" xmlns="http://www.w3.org/2000/svg">
<path d="M32.2 6.19998H4.2C3.8287 6.19998 3.4726 6.05248 3.21005 5.78993C2.9475 5.52737 2.8 5.17128 2.8 4.79998C2.8 4.42867 2.9475 4.07258 3.21005 3.81003C3.4726 3.54748 3.8287 3.39998 4.2 3.39998H28C28.3713 3.39998 28.7274 3.25248 28.99 2.98992C29.2525 2.72737 29.4 2.37128 29.4 1.99998C29.4 1.62867 29.2525 1.27258 28.99 1.01003C28.7274 0.747475 28.3713 0.599976 28 0.599976H4.2C3.08609 0.599976 2.0178 1.04247 1.23015 1.83013C0.442499 2.61778 0 3.68607 0 4.79998V27.2C0 28.3139 0.442499 29.3822 1.23015 30.1698C2.0178 30.9575 3.08609 31.4 4.2 31.4H32.2C32.9426 31.4 33.6548 31.105 34.1799 30.5799C34.705 30.0548 35 29.3426 35 28.6V8.99998C35 8.25737 34.705 7.54518 34.1799 7.02008C33.6548 6.49498 32.9426 6.19998 32.2 6.19998ZM25.9 20.2C25.4847 20.2 25.0786 20.0768 24.7333 19.8461C24.388 19.6153 24.1188 19.2873 23.9599 18.9036C23.8009 18.5199 23.7593 18.0976 23.8404 17.6903C23.9214 17.2829 24.1214 16.9087 24.4151 16.6151C24.7088 16.3214 25.083 16.1214 25.4903 16.0403C25.8977 15.9593 26.3199 16.0009 26.7036 16.1598C27.0874 16.3188 27.4153 16.5879 27.6461 16.9333C27.8768 17.2786 28 17.6846 28 18.1C28 18.6569 27.7787 19.1911 27.3849 19.5849C26.9911 19.9787 26.457 20.2 25.9 20.2Z" fill="#D0B301"/>
</svg>
