<svg width="90" height="90" viewBox="0 0 90 90" fill="none" xmlns="http://www.w3.org/2000/svg">
<rect width="90" height="90" rx="45" fill="#D3F4CC"/>
<path d="M45 33.1071C38.5089 33.1071 33.2321 38.3839 33.2232 44.875C33.2232 47.0982 33.8482 49.2679 35.0268 51.1339L35.3036 51.5804L34.1161 55.9196L38.5714 54.75L39 55.0089C40.8036 56.0804 42.875 56.6518 44.9911 56.6518H45C51.4821 56.6518 56.9018 51.375 56.9018 44.8839C56.9018 41.7411 55.5446 38.7857 53.3214 36.5625C51.0893 34.3304 48.1429 33.1071 45 33.1071ZM51.9196 49.9286C51.625 50.7589 50.2143 51.5089 49.5357 51.6071C48.4107 51.7768 47.5357 51.6875 45.2946 50.7232C41.75 49.1875 39.4286 45.6161 39.25 45.3839C39.0714 45.1518 37.8036 43.4643 37.8036 41.7232C37.8036 39.9821 38.7143 39.125 39.0446 38.7679C39.3661 38.4107 39.75 38.3214 39.9911 38.3214C40.2232 38.3214 40.4643 38.3214 40.6696 38.3304C40.8839 38.3393 41.1786 38.25 41.4643 38.9375C41.7589 39.6429 42.4643 41.3839 42.5536 41.5625C42.6429 41.7411 42.7054 41.9464 42.5804 42.1786C41.9018 43.5357 41.1786 43.4821 41.5446 44.1071C42.9107 46.4554 44.2768 47.2679 46.3571 48.3125C46.7143 48.4911 46.9196 48.4643 47.125 48.2232C47.3304 47.9911 48.0089 47.1875 48.2411 46.8393C48.4732 46.4821 48.7143 46.5446 49.0357 46.6607C49.3571 46.7768 51.0982 47.6339 51.4554 47.8125C51.8125 47.9911 52.0446 48.0804 52.1339 48.2232C52.2143 48.3929 52.2143 49.1071 51.9196 49.9286ZM60.7143 25H29.2857C26.9196 25 25 26.9196 25 29.2857V60.7143C25 63.0804 26.9196 65 29.2857 65H60.7143C63.0804 65 65 63.0804 65 60.7143V29.2857C65 26.9196 63.0804 25 60.7143 25ZM44.9911 59.0357C42.6161 59.0357 40.2857 58.4375 38.2232 57.3125L30.7143 59.2857L32.7232 51.9464C31.4821 49.8036 30.8304 47.3661 30.8304 44.8661C30.8393 37.0625 37.1875 30.7143 44.9911 30.7143C48.7768 30.7143 52.3304 32.1875 55.0089 34.8661C57.6786 37.5446 59.2857 41.0982 59.2857 44.8839C59.2857 52.6875 52.7946 59.0357 44.9911 59.0357Z" fill="#62A452"/>
</svg>
