<svg width="28" height="29" viewBox="0 0 28 29" fill="none" xmlns="http://www.w3.org/2000/svg">
<path d="M0.00561873 28.8882L1.89842 21.933C0.651211 19.795 -0.00404688 17.3634 1.88051e-05 14.8882C1.88051e-05 7.15598 6.26781 0.888184 14 0.888184C21.7322 0.888184 28 7.15598 28 14.8882C28 22.6204 21.7322 28.8882 14 28.8882C11.5259 28.8922 9.09533 28.2374 6.95801 26.9912L0.00561873 28.8882ZM8.94741 8.31938C8.76662 8.3306 8.58996 8.37822 8.42801 8.45938C8.27614 8.54538 8.13751 8.65289 8.01641 8.77858C7.84841 8.93678 7.75321 9.07398 7.65101 9.20698C7.13359 9.88037 6.85527 10.707 6.86001 11.5562C6.86281 12.2422 7.04201 12.91 7.32201 13.5344C7.89461 14.7972 8.83681 16.1342 10.0814 17.3732C10.381 17.6714 10.6736 17.971 10.9886 18.2496C12.5334 19.6096 14.3742 20.5904 16.3646 21.114L17.1612 21.2358C17.4202 21.2498 17.6792 21.2302 17.9396 21.2176C18.3473 21.1965 18.7455 21.0861 19.1058 20.8942C19.2891 20.7997 19.4681 20.697 19.642 20.5862C19.642 20.5862 19.7022 20.547 19.817 20.4602C20.006 20.3202 20.1222 20.2208 20.279 20.057C20.3952 19.9366 20.496 19.7952 20.573 19.6342C20.6822 19.406 20.7914 18.9706 20.8362 18.608C20.8698 18.3308 20.86 18.1796 20.8558 18.0858C20.8502 17.936 20.7256 17.7806 20.5898 17.7148L19.775 17.3494C19.775 17.3494 18.557 16.8188 17.8136 16.48C17.7352 16.4458 17.6512 16.4263 17.5658 16.4226C17.47 16.4127 17.3732 16.4235 17.282 16.4542C17.1907 16.4848 17.107 16.5347 17.0366 16.6004V16.5976C17.0296 16.5976 16.9358 16.6774 15.9236 17.9038C15.8655 17.9818 15.7855 18.0408 15.6937 18.0732C15.602 18.1057 15.5026 18.11 15.4084 18.0858C15.3172 18.0614 15.2278 18.0305 15.141 17.9934C14.9674 17.9206 14.9072 17.8926 14.7882 17.8408L14.7812 17.838C13.9803 17.4883 13.2387 17.016 12.5832 16.438C12.4068 16.284 12.243 16.116 12.075 15.9536C11.5242 15.4261 11.0442 14.8294 10.647 14.1784L10.5644 14.0454C10.5051 13.956 10.4571 13.8596 10.4216 13.7584C10.3684 13.5526 10.507 13.3874 10.507 13.3874C10.507 13.3874 10.8472 13.015 11.0054 12.8134C11.1371 12.6458 11.26 12.4715 11.3736 12.2912C11.5388 12.0252 11.5906 11.7522 11.5038 11.5408C11.1118 10.5832 10.7058 9.62978 10.2886 8.68338C10.206 8.49578 9.96101 8.36138 9.73841 8.33478C9.66281 8.32638 9.58721 8.31798 9.51161 8.31238C9.3236 8.30304 9.1352 8.30631 8.94741 8.31938Z" fill="#3C3C3B"/>
</svg>
