<svg width="211" height="160" viewBox="0 0 324 176" fill="none" xmlns="http://www.w3.org/2000/svg">
<path d="M323.362 174.297H0V175.29H323.362V174.297Z" fill="black"/>
<path d="M238.214 81.3413L236.669 148.113C251.531 133.156 271.17 134.191 271.17 134.191C257.285 95.5078 238.214 81.3413 238.214 81.3413Z" fill="#2A685B"/>
<path d="M237.02 148.464L236.314 147.764C249.541 134.457 266.738 133.687 270.48 133.682C256.802 96.087 238.102 81.878 237.917 81.74L238.511 80.9438C238.708 81.0925 243.405 84.6222 249.88 92.9554C255.836 100.63 264.45 113.98 271.642 134.022C271.671 134.098 271.68 134.18 271.669 134.261C271.657 134.341 271.627 134.418 271.579 134.484C271.528 134.548 271.464 134.599 271.39 134.634C271.316 134.669 271.236 134.687 271.154 134.685C270.968 134.675 251.547 133.847 237.02 148.464Z" fill="#000502"/>
<path d="M238.548 81.0976C222.397 67.1222 169.388 71.7081 158.284 74.5584C134.245 80.7208 142.361 114.197 139.993 138.905C137.557 164.26 138.072 174.748 138.072 174.748H255.767C255.767 139.935 250.937 91.8247 238.548 81.0976Z" fill="#2A685B"/>
<path d="M255.767 175.248H138.072C137.944 175.248 137.822 175.199 137.73 175.111C137.638 175.023 137.584 174.902 137.578 174.775C137.578 174.669 137.085 163.958 139.5 138.857C140.083 132.801 140.03 126.092 139.983 119.601C139.829 99.5531 139.664 78.8208 158.162 74.0757C163.146 72.7965 177.408 71.0024 193.528 71.0024C209.095 71.0024 229.621 72.685 238.872 80.721C246.032 86.9258 250.125 104.866 252.296 118.82C254.817 135.036 256.266 155.444 256.266 174.749C256.266 174.881 256.213 175.008 256.12 175.101C256.026 175.195 255.899 175.248 255.767 175.248ZM138.534 174.255H255.252C255.204 136.57 249.865 91.5808 238.203 81.4747C231.149 75.3601 215.274 71.995 193.506 71.995C177.472 71.995 163.321 73.7731 158.39 75.0364C150.338 77.1011 145.444 82.2921 142.997 91.3632C140.805 99.4469 140.874 109.691 140.965 119.595C141.012 126.108 141.065 132.865 140.482 138.948C138.364 161.055 138.491 171.973 138.534 174.255Z" fill="#000502"/>
<g style="mix-blend-mode:multiply" opacity="0.55">
<path d="M239.169 174.748C237.54 163.103 166.198 159.239 166.198 127.827C166.198 119.982 139.993 116.654 139.993 138.905C139.993 163.719 138.072 174.748 138.072 174.748H239.169Z" fill="#647794"/>
</g>
<path d="M132.695 173.867C168.523 173.867 196.229 160.21 196.229 160.21C201.107 165.417 211.553 156.245 212.466 158.968C213.379 161.691 213.559 169.323 216.394 168.994C218.097 168.793 219.323 163.533 219.323 163.533C219.323 163.533 221.378 167.811 224.403 169.939C227.428 172.068 227.795 168.618 227.795 168.618C228.755 170.714 233.665 171.372 233.495 168.395C233.416 166.988 230.91 160.672 230.91 160.672C230.91 160.672 234.493 165.98 237.211 164.918C240.141 163.777 236.409 159.711 232.89 152.742C229.982 146.978 228.994 146.012 226.802 142.471C225.332 140.093 222.736 140.04 217.322 141.941C211.908 143.841 201.399 144.594 197.301 144.594C194.961 144.594 175.64 143.676 157.742 143.676L160.863 133.56L125.349 128.029C125.349 128.029 96.4426 173.867 132.695 173.867Z" fill="url(#paint0_linear_554_1549)"/>
<path d="M132.695 174.366C124.202 174.366 118.518 171.856 115.79 166.909C108.619 153.905 124.282 128.836 124.93 127.775L125.105 127.499L161.506 133.167L158.416 143.194C171.362 143.194 184.881 143.687 192.201 143.947C194.807 144.043 196.691 144.107 197.301 144.107C201.457 144.107 211.882 143.31 217.158 141.453C219.812 140.519 221.754 140.089 223.219 140.089C225.061 140.089 226.335 140.757 227.227 142.212C227.842 143.21 228.363 144 228.862 144.759C230.531 147.24 232.026 149.833 233.336 152.519C234.302 154.436 235.279 156.123 236.144 157.61C237.949 160.725 239.143 162.785 238.654 164.191C238.545 164.471 238.375 164.722 238.156 164.928C237.938 165.133 237.677 165.288 237.391 165.38C237.093 165.493 236.776 165.55 236.457 165.55C235.04 165.55 233.57 164.43 232.444 163.289C233.15 165.205 233.941 167.535 233.989 168.358C234.02 168.673 233.984 168.992 233.884 169.292C233.785 169.593 233.623 169.87 233.41 170.104C233.121 170.377 232.78 170.588 232.406 170.725C232.033 170.861 231.636 170.921 231.239 170.9C230.057 170.895 228.914 170.472 228.012 169.706C227.879 170.105 227.627 170.454 227.29 170.706C226.954 170.958 226.548 171.102 226.128 171.118C225.394 171.065 224.692 170.791 224.116 170.332C221.993 168.82 220.316 166.309 219.477 164.86C218.947 166.58 217.928 169.303 216.452 169.478H216.218C213.899 169.478 213.235 165.619 212.652 162.212C212.499 161.162 212.281 160.123 211.999 159.101C211.972 159.022 211.935 158.926 211.617 158.926C210.884 158.926 209.493 159.51 208.039 160.126C205.736 161.102 202.869 162.312 200.274 162.312C198.746 162.367 197.257 161.82 196.128 160.789C192.928 162.318 166.187 174.366 132.695 174.366ZM125.598 128.581C123.895 131.384 110.158 154.643 116.66 166.431C119.197 171.038 124.622 173.374 132.695 173.374C167.997 173.374 195.736 159.903 196.012 159.765L196.341 159.605L196.59 159.871C197.063 160.366 197.636 160.755 198.272 161.009C198.907 161.264 199.59 161.379 200.274 161.346C202.668 161.346 205.428 160.173 207.652 159.223C209.345 158.507 210.682 157.944 211.617 157.944C211.901 157.916 212.187 157.985 212.427 158.14C212.667 158.296 212.847 158.528 212.938 158.799C213.241 159.868 213.471 160.957 213.628 162.058C214.095 164.775 214.738 168.496 216.218 168.496H216.34C217.264 168.39 218.379 165.402 218.84 163.411L219.159 162.042L219.769 163.31C219.769 163.353 221.808 167.498 224.69 169.526C225.1 169.863 225.6 170.073 226.128 170.131C227.126 170.131 227.301 168.576 227.301 168.538L227.497 166.739L228.246 168.379C228.628 169.213 229.971 169.887 231.239 169.887C231.502 169.906 231.766 169.872 232.016 169.789C232.265 169.705 232.496 169.572 232.694 169.398C232.812 169.262 232.9 169.102 232.953 168.929C233.006 168.756 233.023 168.575 233.002 168.395C232.938 167.302 231.139 162.557 230.449 160.821L228.766 156.575L231.324 160.359C232.105 161.522 234.557 164.536 236.457 164.536C236.654 164.539 236.851 164.505 237.036 164.435C237.187 164.395 237.326 164.32 237.444 164.217C237.562 164.114 237.654 163.985 237.715 163.841C238.06 162.864 236.834 160.757 235.284 158.087C234.414 156.585 233.426 154.903 232.45 152.944C231.157 150.292 229.681 147.733 228.034 145.285C227.529 144.515 227.009 143.724 226.383 142.716C226.063 142.168 225.594 141.722 225.03 141.43C224.466 141.139 223.83 141.014 223.198 141.071C221.85 141.071 220.013 141.485 217.466 142.376C212.009 144.276 201.627 145.067 197.296 145.067C196.664 145.067 194.876 145.004 192.158 144.908C184.727 144.643 170.869 144.154 157.737 144.154H157.111L160.258 133.942L125.598 128.581Z" fill="#000502"/>
<path d="M230.666 161.357C228.161 155.327 224.722 148.045 224.69 147.976L225.581 147.557C225.619 147.631 229.069 154.929 231.585 160.98L230.666 161.357Z" fill="#000502"/>
<path d="M227.333 168.745C226.789 166.653 226.104 164.6 225.284 162.599C225.04 162.068 224.753 161.277 224.414 160.274C223.352 157.217 221.76 152.599 219.148 150.609L219.748 149.818C222.577 151.994 224.244 156.782 225.348 159.95C225.677 160.885 225.958 161.697 226.181 162.174C227.034 164.23 227.743 166.342 228.304 168.496L227.333 168.745Z" fill="#000502"/>
<path d="M218.963 163.942C218.825 162.397 218.379 158.13 217.949 156.978C217.418 155.523 215.868 153.767 214.446 153.464L214.653 152.493C216.659 152.917 218.331 155.147 218.899 156.633C219.467 158.119 219.961 163.623 219.961 163.851L218.963 163.942Z" fill="#000502"/>
<g style="mix-blend-mode:multiply" opacity="0.55">
<path d="M192.785 169.25C192.785 169.006 196.171 160.455 196.245 160.226C196.245 160.226 193.114 161.76 193.114 154.483C193.114 149.59 200.789 144.399 200.789 144.399L209.281 114.77C209.477 114.129 209.874 113.568 210.413 113.17C210.952 112.771 211.604 112.556 212.275 112.557H213.538L261.489 112.7L276.149 172.556H197.174L194.844 173.618H130.789C128.964 173.618 128.55 171.076 128.55 169.25H192.785Z" fill="#647794"/>
</g>
<path d="M166.198 127.828L151.002 78.4971C123.725 94.8663 115.179 138.316 115.179 138.443C114.686 141.702 118.47 145.089 131.633 147.074C144.797 149.059 159.117 145.073 159.606 141.814C159.611 141.747 159.611 141.679 159.606 141.612C160.582 139.669 164.361 132.239 166.198 127.828Z" fill="#2A685B"/>
<path d="M138.958 148.087C136.471 148.094 133.988 147.917 131.527 147.556C125.349 146.622 120.8 145.306 118.013 143.65C115.492 142.153 114.367 140.37 114.675 138.342C116.47 130.11 119.06 122.072 122.408 114.34C127.493 102.488 136.543 86.5697 150.752 78.0454L151.283 78.8947C124.309 95.0941 115.71 138.098 115.646 138.533C115.413 140.099 116.373 141.543 118.518 142.811C121.172 144.404 125.62 145.672 131.67 146.59C144.664 148.554 158.666 144.51 159.085 141.744C159.088 141.714 159.088 141.684 159.085 141.654V141.612C159.086 141.536 159.104 141.461 159.138 141.394C160.226 139.271 163.915 131.989 165.736 127.641L166.649 128.024C164.85 132.339 161.23 139.488 160.072 141.744C160.072 141.792 160.072 141.84 160.072 141.893C159.584 145.083 149.558 148.087 138.958 148.087Z" fill="#000502"/>
<path d="M185.821 6.6449C185.821 6.6449 186.882 -2.25097 202.397 1.3371C213.602 3.94323 215.624 3.05152 215.624 3.05152C215.144 4.3326 214.351 5.47324 213.317 6.36966C212.283 7.26609 211.042 7.88983 209.706 8.18416C209.706 8.18416 217.8 7.17568 217.333 15.424C216.866 23.6723 211.808 24.8506 211.733 28.6616C211.659 32.4726 218.575 36.6233 211.341 41.9683C204.106 47.3133 187.944 57.0106 177.265 41.1934C166.914 25.8644 176.177 -0.276472 185.821 6.6449Z" fill="#000502"/>
<path d="M192.063 50.3445C185.948 50.3445 180.826 47.3562 176.851 41.4698C170.64 32.2661 171.261 18.6144 175.449 10.7324C177.413 7.01691 179.945 5.00525 182.588 5.00525C183.618 5.01666 184.627 5.30446 185.508 5.83858C186.038 4.11885 188.161 0 195.725 0C198.012 0.0345194 200.287 0.32652 202.508 0.870479C209.074 2.39912 212.455 2.71759 214.138 2.71759C214.574 2.74011 215.012 2.7026 215.438 2.60613L216.431 2.16558L216.096 3.22714C215.385 5.18244 213.987 6.8124 212.163 7.81308C213.661 8.01666 215.052 8.70446 216.123 9.77166C217.391 11.1145 217.965 13.036 217.827 15.4828C217.545 20.4987 215.619 22.9668 214.074 24.952C213.06 26.2577 212.254 27.2874 212.227 28.6674C212.227 29.729 212.843 30.9126 213.517 32.1493C215.04 34.9465 216.94 38.4285 211.638 42.3615C204.504 47.6587 197.917 50.3445 192.063 50.3445ZM182.588 5.99781C180.332 5.99781 178.108 7.84493 176.325 11.1995C172.275 18.8215 171.67 32.0219 177.673 40.9231C181.452 46.5122 186.304 49.3625 192.063 49.3625C197.62 49.3625 204.186 46.6715 211.049 41.5813C215.656 38.1631 214.191 35.4826 212.641 32.643C211.903 31.2842 211.203 29.9891 211.229 28.6674C211.266 26.9371 212.2 25.7322 213.289 24.3363C214.753 22.452 216.558 20.1166 216.839 15.3926C216.962 13.2323 216.479 11.5604 215.401 10.4192C213.941 8.87464 211.717 8.6411 210.523 8.6411C210.271 8.63935 210.02 8.65176 209.769 8.67825L209.594 7.70162C210.702 7.45862 211.744 6.9758 212.645 6.28713C213.547 5.59846 214.286 4.72066 214.812 3.71546C213.352 3.80569 209.945 3.64646 202.28 1.86304C200.133 1.33813 197.935 1.05506 195.725 1.0191C187.142 1.0191 186.346 6.50205 186.314 6.7356L186.208 7.5583L185.534 7.07529C184.691 6.41339 183.659 6.03612 182.588 5.99781Z" fill="#000502"/>
<path d="M225.9 174.753H146.368C146.109 174.753 145.86 174.651 145.677 174.467C145.494 174.284 145.391 174.036 145.391 173.777V171.452H225.9V174.753Z" fill="#000502"/>
<path d="M226.399 175.247H146.368C145.977 175.246 145.602 175.09 145.326 174.813C145.05 174.537 144.894 174.162 144.892 173.772V170.948H226.399V175.247ZM145.885 171.94V173.772C145.885 173.835 145.897 173.898 145.922 173.956C145.946 174.015 145.982 174.068 146.026 174.113C146.071 174.158 146.124 174.193 146.183 174.218C146.242 174.242 146.304 174.255 146.368 174.255H225.406V171.94H145.885Z" fill="#000502"/>
<path d="M229.111 114.722H309.354C309.843 114.722 310.325 114.837 310.761 115.057C311.197 115.277 311.575 115.596 311.866 115.989C312.156 116.382 312.351 116.837 312.434 117.319C312.516 117.8 312.485 118.294 312.343 118.761L295.979 172.535C295.784 173.175 295.388 173.736 294.85 174.135C294.312 174.534 293.66 174.749 292.99 174.748H212.747C212.259 174.749 211.777 174.635 211.341 174.415C210.905 174.196 210.526 173.877 210.235 173.485C209.945 173.093 209.75 172.637 209.667 172.156C209.585 171.675 209.616 171.181 209.759 170.714L226.112 116.941C226.307 116.298 226.704 115.735 227.244 115.335C227.785 114.936 228.439 114.721 229.111 114.722Z" fill="#000502"/>
<path d="M292.991 175.247H212.747C212.181 175.247 211.623 175.114 211.117 174.859C210.611 174.604 210.173 174.234 209.836 173.779C209.499 173.324 209.273 172.797 209.177 172.239C209.081 171.681 209.116 171.108 209.281 170.566L225.645 116.798C225.869 116.053 226.327 115.401 226.951 114.938C227.576 114.475 228.334 114.226 229.111 114.229H309.355C309.92 114.23 310.478 114.362 310.983 114.617C311.488 114.872 311.927 115.241 312.263 115.696C312.6 116.15 312.826 116.677 312.923 117.234C313.02 117.792 312.985 118.364 312.821 118.905L296.457 172.678C296.233 173.423 295.774 174.075 295.15 174.538C294.525 175.001 293.768 175.25 292.991 175.247ZM229.111 115.222C228.547 115.219 227.997 115.4 227.544 115.735C227.091 116.071 226.758 116.544 226.595 117.085L210.231 170.858C210.117 171.251 210.095 171.665 210.167 172.068C210.239 172.471 210.403 172.852 210.646 173.181C210.89 173.51 211.206 173.778 211.571 173.964C211.935 174.15 212.338 174.25 212.747 174.255H292.991C293.555 174.257 294.105 174.077 294.558 173.741C295.011 173.405 295.344 172.932 295.506 172.392L311.87 118.619C311.985 118.226 312.007 117.811 311.935 117.409C311.863 117.006 311.699 116.625 311.455 116.296C311.212 115.967 310.895 115.699 310.531 115.512C310.166 115.326 309.764 115.226 309.355 115.222H229.111Z" fill="#000502"/>
<path d="M230.358 114.722H310.618C311.106 114.723 311.588 114.838 312.024 115.058C312.46 115.278 312.839 115.597 313.13 115.989C313.421 116.382 313.616 116.837 313.699 117.318C313.783 117.8 313.753 118.294 313.611 118.761L297.237 172.535C297.04 173.175 296.643 173.736 296.104 174.135C295.566 174.533 294.913 174.748 294.243 174.748H214.016C213.527 174.748 213.046 174.634 212.609 174.415C212.173 174.196 211.794 173.877 211.503 173.485C211.212 173.093 211.017 172.638 210.934 172.157C210.85 171.675 210.88 171.181 211.022 170.714L227.386 116.941C227.581 116.303 227.975 115.744 228.509 115.345C229.044 114.946 229.691 114.728 230.358 114.722Z" fill="#D4D9D7"/>
<path d="M294.254 175.248H214.016C213.449 175.248 212.89 175.116 212.384 174.861C211.878 174.607 211.438 174.237 211.101 173.782C210.764 173.326 210.538 172.798 210.443 172.239C210.347 171.681 210.384 171.108 210.55 170.566L226.914 116.798C227.136 116.053 227.594 115.4 228.219 114.937C228.844 114.473 229.602 114.225 230.38 114.229H310.618C311.184 114.228 311.742 114.361 312.248 114.615C312.753 114.869 313.192 115.239 313.53 115.693C313.867 116.148 314.092 116.676 314.189 117.233C314.285 117.791 314.249 118.364 314.084 118.905L297.72 172.679C297.496 173.423 297.038 174.076 296.414 174.539C295.789 175.002 295.031 175.25 294.254 175.248ZM230.358 115.222C229.794 115.219 229.244 115.398 228.79 115.734C228.337 116.07 228.004 116.544 227.843 117.085L211.495 170.858C211.38 171.251 211.358 171.666 211.43 172.069C211.502 172.473 211.667 172.854 211.911 173.183C212.155 173.512 212.473 173.78 212.838 173.966C213.203 174.152 213.606 174.251 214.016 174.255H294.254C294.819 174.257 295.369 174.077 295.823 173.742C296.278 173.406 296.611 172.933 296.775 172.392L313.16 118.619C313.275 118.225 313.297 117.811 313.225 117.407C313.152 117.004 312.988 116.623 312.744 116.294C312.499 115.965 312.182 115.697 311.817 115.511C311.452 115.325 311.049 115.226 310.639 115.222H230.358Z" fill="#000502"/>
<path d="M264.211 155.407L261.95 156.527C261.554 156.72 261.215 157.016 260.97 157.382C260.724 157.749 260.58 158.174 260.552 158.615C260.524 159.055 260.613 159.496 260.81 159.89C261.007 160.285 261.305 160.621 261.674 160.863H261.706C263.378 161.893 265.639 161.511 267.545 160.094C267.874 159.846 268.137 159.521 268.311 159.148C268.486 158.776 268.567 158.366 268.547 157.954C268.527 157.543 268.407 157.143 268.197 156.789C267.987 156.434 267.694 156.137 267.343 155.922L266.648 155.497C266.283 155.276 265.868 155.152 265.441 155.136C265.015 155.121 264.592 155.214 264.211 155.407Z" fill="white"/>
<path d="M263.84 161.962C262.997 161.973 262.167 161.747 261.446 161.309L261.404 161.283C260.96 161.004 260.6 160.61 260.362 160.142C260.125 159.675 260.019 159.152 260.056 158.629C260.081 158.09 260.25 157.568 260.545 157.116C260.84 156.665 261.25 156.3 261.733 156.06L263.989 154.94C264.45 154.716 264.96 154.611 265.473 154.634C265.986 154.657 266.484 154.808 266.924 155.072L267.619 155.502C268.044 155.764 268.397 156.126 268.649 156.556C268.901 156.987 269.043 157.472 269.063 157.97C269.084 158.457 268.985 158.942 268.775 159.381C268.564 159.821 268.25 160.202 267.858 160.492C266.707 161.393 265.301 161.907 263.84 161.962ZM265.337 155.635C265.022 155.636 264.712 155.708 264.429 155.847L262.173 156.973C261.847 157.131 261.569 157.375 261.37 157.679C261.171 157.983 261.058 158.335 261.043 158.698C261.022 159.042 261.094 159.386 261.252 159.694C261.41 160.001 261.647 160.26 261.94 160.444C262.51 160.798 263.169 160.982 263.84 160.975C265.086 160.926 266.285 160.488 267.269 159.722C267.532 159.529 267.743 159.274 267.882 158.979C268.022 158.685 268.087 158.36 268.07 158.034C268.058 157.698 267.962 157.37 267.791 157.08C267.621 156.79 267.381 156.547 267.094 156.373L266.404 155.943C266.083 155.744 265.714 155.638 265.337 155.635Z" fill="#000502"/>
<path d="M266.717 154.138L268.962 152.986C269.356 152.787 269.691 152.487 269.931 152.116C270.172 151.746 270.31 151.318 270.332 150.877C270.353 150.436 270.257 149.997 270.054 149.604C269.851 149.212 269.547 148.881 269.175 148.644H269.148C267.46 147.641 265.204 148.055 263.309 149.493C262.984 149.746 262.725 150.075 262.555 150.451C262.386 150.827 262.311 151.238 262.337 151.65C262.363 152.061 262.49 152.46 262.706 152.811C262.921 153.163 263.22 153.456 263.575 153.665L264.275 154.079C264.644 154.295 265.062 154.414 265.489 154.424C265.916 154.434 266.338 154.336 266.717 154.138Z" fill="white"/>
<path d="M265.56 154.913C265.014 154.912 264.479 154.766 264.01 154.488L263.309 154.069C262.881 153.813 262.522 153.455 262.264 153.028C262.007 152.6 261.859 152.115 261.834 151.617C261.805 151.13 261.896 150.644 262.1 150.202C262.303 149.759 262.613 149.374 263.001 149.08C264.159 148.153 265.585 147.626 267.067 147.578C267.886 147.567 268.692 147.782 269.397 148.199H269.434C269.881 148.47 270.246 148.857 270.492 149.318C270.737 149.78 270.854 150.299 270.83 150.821C270.812 151.359 270.649 151.883 270.36 152.337C270.07 152.792 269.665 153.161 269.185 153.405L266.945 154.557C266.518 154.783 266.043 154.905 265.56 154.913ZM267.067 148.57C265.802 148.621 264.587 149.077 263.601 149.87C263.341 150.066 263.133 150.323 262.997 150.618C262.86 150.914 262.8 151.239 262.821 151.564C262.838 151.9 262.939 152.226 263.113 152.514C263.287 152.802 263.529 153.043 263.819 153.214L264.514 153.634C264.835 153.825 265.202 153.924 265.576 153.92C265.899 153.922 266.217 153.845 266.505 153.697L268.75 152.546C269.074 152.382 269.347 152.134 269.542 151.827C269.736 151.521 269.844 151.167 269.854 150.805C269.871 150.46 269.795 150.116 269.633 149.811C269.471 149.505 269.23 149.249 268.935 149.069C268.372 148.731 267.724 148.558 267.067 148.57Z" fill="#000502"/>
<path d="M207.853 43.9167C207.853 43.9167 207.153 65.6044 209.042 72.9929C209.042 72.9929 202.413 84.3887 175.205 72.1012C175.205 72.1012 177.105 44.8138 176.633 40.334L207.853 43.9167Z" fill="url(#paint1_linear_554_1549)"/>
<path d="M196.824 78.3008C190.789 78.3008 183.448 76.3634 175.004 72.5524L174.685 72.4091L174.712 72.0641C174.712 71.7934 176.601 44.7714 176.139 40.3872L176.076 39.7715L208.363 43.4869V43.9434C208.363 44.161 207.684 65.647 209.541 72.8815L209.589 73.0779L209.488 73.2531C209.35 73.4495 206.42 78.3008 196.824 78.3008ZM175.725 71.7881C183.905 75.4505 191.007 77.3082 196.824 77.3082C204.892 77.3082 207.933 73.7042 208.501 72.8975C206.808 65.8699 207.248 47.5739 207.339 44.3574L177.164 40.8967C177.445 46.4434 175.943 68.6034 175.725 71.7881Z" fill="#000502"/>
<path d="M218.899 44.5852C218.474 38.651 216.5 23.7627 215.274 18.0462C212.429 4.77666 177.626 6.20446 177.626 21.5599C177.626 23.8794 177.217 28.3433 177.323 32.9292H177.238C175.155 32.9292 173.157 33.7569 171.683 35.2301C170.21 36.7033 169.383 38.7013 169.383 40.7848C169.383 42.8682 170.21 44.8663 171.683 46.3395C173.157 47.8127 175.155 48.6403 177.238 48.6403C177.793 48.6391 178.346 48.5804 178.889 48.4652C179.759 54.4523 180.853 62.1433 185.906 66.724C189.122 69.638 195.73 65.9597 197.816 71.5488C205.391 71.1931 212.089 69.2133 217.009 63.4544C220.667 59.1816 219.324 50.5352 218.899 44.5852Z" fill="url(#paint2_linear_554_1549)"/>
<path d="M197.477 72.0638L197.355 71.7241C196.251 68.7676 193.745 68.6721 191.091 68.5765C189.101 68.5022 187.042 68.4226 185.571 67.0903C180.529 62.5203 179.356 55.116 178.475 49.0438C178.066 49.1071 177.652 49.139 177.238 49.1394C175.059 49.1389 172.966 48.2871 171.406 46.7655C169.846 45.2439 168.943 43.1731 168.888 40.9946C168.833 38.8162 169.632 36.7026 171.113 35.1046C172.595 33.5067 174.642 32.5509 176.819 32.441C176.771 29.7022 176.904 27.043 177.01 24.8774C177.073 23.5558 177.127 22.4093 177.127 21.5654C177.127 12.988 187.493 8.49756 197.726 8.49756C205.109 8.49756 214.26 10.971 215.773 17.9454C217.004 23.6885 218.989 38.7095 219.408 44.564C219.462 45.3284 219.531 46.1564 219.605 46.9791C220.104 52.7327 220.72 59.8983 217.402 63.7783C212.938 69.0012 206.723 71.6285 197.859 72.0425L197.477 72.0638ZM179.308 47.8708L179.393 48.4759C180.263 54.4631 181.341 61.9152 186.24 66.3526C187.44 67.446 189.234 67.515 191.129 67.584C193.782 67.6795 196.744 67.791 198.145 71.034C206.532 70.5829 212.418 68.067 216.633 63.1307C219.679 59.5692 219.085 52.6319 218.602 47.064C218.527 46.2201 218.458 45.4027 218.405 44.633C217.986 38.7945 216.012 23.8636 214.785 18.1524C213.506 12.1706 205.295 9.49012 197.726 9.49012C187.986 9.49012 178.119 13.6355 178.119 21.5654C178.119 22.4305 178.061 23.5876 177.997 24.9252C177.886 27.2075 177.753 30.0419 177.817 32.9187V33.4495H177.227C175.275 33.4495 173.402 34.2251 172.022 35.6058C170.641 36.9864 169.865 38.8589 169.865 40.8114C169.865 42.7639 170.641 44.6365 172.022 46.0171C173.402 47.3977 175.275 48.1734 177.227 48.1734C177.748 48.1711 178.268 48.116 178.777 48.0088L179.308 47.8708Z" fill="#000502"/>
<path d="M178.56 46.2626C179.542 52.4409 180.2 61.5596 185.9 66.7188C189.117 69.6381 195.73 65.9598 197.822 71.5489C205.385 71.188 212.089 69.2135 217.015 63.4598C220.672 59.1818 219.318 50.53 218.894 44.6012C218.846 43.8263 218.75 42.8762 218.612 41.7934C216.563 43.0611 214.19 43.7064 211.781 43.6511C208.421 43.6511 206.51 42.218 203.931 41.8146C200.782 41.2885 197.551 41.9935 194.908 43.7838C192.068 45.8167 189.488 47.8602 184.929 47.8602C182.702 47.8964 180.505 47.3454 178.56 46.2626ZM195.858 47.7381C195.858 46.098 208.91 45.0842 208.91 46.7243C208.91 48.8103 208.496 51.305 205.194 52.4408C201.086 53.874 195.858 51.4854 195.858 47.7381ZM202.652 53.3591C199.149 53.3591 195.364 51.236 195.364 47.7381C195.364 45.5301 204.998 45.3921 205.093 45.3921C208.915 45.3921 209.403 46.1033 209.403 46.7243C209.403 48.9536 208.947 51.6712 205.375 52.9132C204.493 53.215 203.567 53.3657 202.636 53.3591H202.652ZM196.341 47.77C196.378 50.5141 199.616 52.3506 202.636 52.3506C203.452 52.3544 204.263 52.2217 205.035 51.9578C207.959 50.944 208.384 48.7732 208.4 46.788C208.257 46.6925 207.588 46.3687 205.077 46.3687C200.794 46.3847 196.781 47.2392 196.341 47.77Z" fill="#000502"/>
<path d="M195.858 47.7379C195.858 51.4906 201.102 53.8738 205.21 52.4407C208.496 51.3048 208.926 48.8101 208.926 46.7242C208.894 45.0787 195.858 46.0978 195.858 47.7379Z" fill="white"/>
<path d="M205.077 45.3921C204.982 45.3921 195.348 45.5301 195.348 47.7381C195.348 51.2094 199.133 53.3591 202.636 53.3591C203.562 53.3639 204.482 53.2132 205.359 52.9132C208.931 51.6712 209.387 48.9536 209.387 46.7243C209.387 46.1033 208.899 45.3921 205.077 45.3921ZM205.035 51.9738C204.263 52.2376 203.452 52.3704 202.636 52.3665C199.616 52.3665 196.378 50.53 196.341 47.7859C196.781 47.2233 200.794 46.3846 205.077 46.3846C207.588 46.3846 208.262 46.7084 208.4 46.804C208.384 48.7997 207.959 50.9547 205.035 51.9738Z" fill="#000502"/>
<path d="M208.14 24.6063L208.49 25.5352C208.517 25.5352 211.442 24.4736 216.521 26.1827L216.834 25.2432C211.388 23.428 208.273 24.5585 208.14 24.6063Z" fill="#000502"/>
<path d="M188.591 24.4154L189.122 25.2593C193.687 22.4621 196.765 22.8071 196.797 22.8124L196.925 21.8305C196.776 21.8039 193.49 21.4112 188.591 24.4154Z" fill="#000502"/>
<path d="M193.098 33.6401C193.81 33.6401 194.387 33.0627 194.387 32.3503C194.387 31.638 193.81 31.0605 193.098 31.0605C192.385 31.0605 191.808 31.638 191.808 32.3503C191.808 33.0627 192.385 33.6401 193.098 33.6401Z" fill="#000502"/>
<path d="M193.098 30.5669C192.746 30.5669 192.402 30.6709 192.11 30.8657C191.817 31.0605 191.588 31.3375 191.453 31.6618C191.317 31.9862 191.28 32.3434 191.347 32.6886C191.414 33.0338 191.581 33.3516 191.828 33.602C192.074 33.8525 192.39 34.0244 192.734 34.0962C193.078 34.168 193.436 34.1364 193.762 34.0055C194.088 33.8746 194.369 33.6501 194.568 33.3603C194.767 33.0706 194.876 32.7284 194.881 32.3769C194.885 32.1404 194.841 31.9057 194.753 31.6862C194.665 31.4668 194.534 31.267 194.368 31.0986C194.202 30.9302 194.004 30.7964 193.786 30.7051C193.568 30.6139 193.334 30.5669 193.098 30.5669ZM193.098 33.1412C192.939 33.1421 192.783 33.0954 192.651 33.0071C192.519 32.9187 192.416 32.7928 192.356 32.6456C192.296 32.4983 192.281 32.3365 192.314 32.1809C192.347 32.0253 192.425 31.883 192.54 31.7725C192.654 31.662 192.799 31.5883 192.956 31.5608C193.112 31.5334 193.273 31.5534 193.419 31.6184C193.564 31.6835 193.686 31.7905 193.77 31.9256C193.854 32.0608 193.895 32.218 193.889 32.3769C193.882 32.582 193.795 32.7764 193.648 32.919C193.5 33.0616 193.303 33.1413 193.098 33.1412Z" fill="#000502"/>
<path d="M212.041 28.8901C211.786 28.8901 211.537 28.9658 211.325 29.1075C211.113 29.2492 210.947 29.4507 210.85 29.6864C210.752 29.922 210.726 30.1814 210.776 30.4316C210.826 30.6818 210.949 30.9116 211.129 31.092C211.31 31.2723 211.539 31.3952 211.79 31.445C212.04 31.4947 212.299 31.4692 212.535 31.3716C212.771 31.2739 212.972 31.1086 213.114 30.8965C213.255 30.6844 213.331 30.435 213.331 30.1799C213.332 30.0104 213.299 29.8423 213.234 29.6855C213.17 29.5287 213.075 29.3863 212.955 29.2664C212.835 29.1464 212.692 29.0515 212.536 28.9869C212.379 28.9223 212.211 28.8894 212.041 28.8901Z" fill="#000502"/>
<path d="M212.041 28.396C211.689 28.396 211.344 28.5006 211.05 28.6966C210.757 28.8925 210.529 29.1711 210.394 29.4969C210.259 29.8228 210.223 30.1814 210.292 30.5273C210.361 30.8733 210.531 31.1911 210.78 31.4405C211.03 31.6899 211.347 31.8598 211.693 31.9286C212.039 31.9974 212.398 31.9621 212.724 31.8271C213.05 31.6921 213.328 31.4635 213.524 31.1702C213.72 30.8769 213.825 30.5321 213.825 30.1794C213.825 29.9452 213.779 29.7133 213.689 29.4969C213.599 29.2806 213.468 29.084 213.302 28.9183C213.137 28.7527 212.94 28.6214 212.724 28.5318C212.507 28.4421 212.275 28.396 212.041 28.396ZM212.041 30.9703C211.884 30.9692 211.73 30.9215 211.6 30.8331C211.469 30.7448 211.368 30.6198 211.309 30.4739C211.25 30.328 211.235 30.1678 211.267 30.0136C211.299 29.8594 211.375 29.718 211.487 29.6074C211.599 29.4968 211.742 29.4219 211.896 29.3922C212.051 29.3625 212.211 29.3794 212.356 29.4406C212.501 29.5018 212.625 29.6047 212.711 29.7362C212.798 29.8677 212.844 30.022 212.843 30.1794C212.843 30.2842 212.822 30.3879 212.782 30.4845C212.741 30.5812 212.682 30.6688 212.607 30.7424C212.533 30.816 212.444 30.874 212.347 30.9132C212.25 30.9523 212.146 30.9717 212.041 30.9703Z" fill="#000502"/>
<path d="M204.17 35.7637L203.947 36.7297C204.355 36.8252 204.87 37.0163 205.008 37.3719C205.152 37.8231 204.695 38.4919 204.525 38.6883L205.274 39.3411C205.375 39.2191 206.293 38.1309 205.953 37.0694C205.725 36.4271 205.13 35.9919 204.17 35.7637Z" fill="#000502"/>
<path d="M174.34 36.2306C173.467 36.5803 172.726 37.1963 172.223 37.9909C171.72 38.7856 171.48 39.7186 171.537 40.6573C171.697 45.3388 177.036 45.928 177.095 45.9333L177.19 44.946C177.004 44.946 172.657 44.4153 172.525 40.6202C172.476 39.884 172.662 39.1515 173.057 38.5284C173.452 37.9053 174.035 37.424 174.722 37.1542C176.267 36.5066 178.13 36.8039 179.143 37.8654L179.86 37.1542C179.134 36.4722 178.222 36.0206 177.24 35.8562C176.257 35.6919 175.248 35.8222 174.34 36.2306Z" fill="#000502"/>
<path d="M175.364 39.134C175.057 38.513 175.115 37.7221 175.54 36.7774L174.627 36.3687C174.096 37.6001 174.027 38.6775 174.467 39.5533C174.716 39.988 175.05 40.3684 175.448 40.672C175.847 40.9756 176.302 41.1962 176.787 41.3208L177.015 40.3548C176.33 40.1728 175.739 39.7362 175.364 39.134Z" fill="#000502"/>
<path d="M87.308 140.227C84.0118 138.337 83.5448 134.951 83.2688 131.479C82.9928 128.008 82.9025 124.553 82.7857 121.087C82.5947 115.322 82.4301 109.473 81.1138 103.831C80.0097 99.2193 78.1882 94.8097 75.7158 90.7632C73.0035 86.2622 69.6277 82.3079 67.5736 77.4194C65.3709 72.1806 64.7127 61.151 64.511 60.9652C64.3942 60.8432 65.0418 73.2846 67.5046 78.7039C69.7551 83.6614 73.375 87.7272 76.0289 92.4511C78.6118 97.0089 80.3658 101.989 81.2093 107.159C82.2178 113.454 82.1594 119.898 82.4779 126.23C82.6318 129.282 82.6477 132.504 83.3802 135.481C83.911 137.668 85.1212 139.494 87.1965 140.465C87.3133 140.529 87.4407 140.301 87.308 140.227Z" fill="#2A685B"/>
<path d="M87.5788 139.796C84.548 138.056 84.0703 134.982 83.789 131.442C83.5449 128.401 83.444 125.29 83.3432 122.281L83.2848 120.529C83.099 114.972 82.9079 109.229 81.6181 103.719C80.4984 99.0584 78.6574 94.6009 76.1617 90.5083C75.2116 88.9159 74.1713 87.4085 73.1681 85.9329C71.2998 83.1994 69.373 80.3757 68.0514 77.2281C66.4219 73.3481 65.647 66.2091 65.2754 62.7803C65.0631 60.8111 65.0525 60.7687 64.8826 60.6041C64.8278 60.5567 64.7639 60.5209 64.6947 60.4991C64.6256 60.4774 64.5527 60.47 64.4806 60.4774C64.4085 60.4849 64.3387 60.507 64.2755 60.5425C64.2122 60.578 64.157 60.6261 64.113 60.6837C63.7309 61.2782 64.8136 73.9161 67.0748 78.9001C68.407 81.83 70.2594 84.4839 71.9951 87.0529C73.2371 88.8681 74.5216 90.7683 75.6203 92.6844C78.1519 97.1918 79.8645 102.112 80.6787 107.217C81.4217 111.846 81.5863 116.623 81.7402 121.251C81.7986 122.886 81.857 124.579 81.9419 126.24C81.9685 126.739 81.9897 127.244 82.0109 127.748C82.0334 130.382 82.3161 133.008 82.8549 135.587C83.4706 138.098 84.8824 139.934 86.9419 140.895C87.0226 140.935 87.1118 140.955 87.2019 140.954C87.3437 140.953 87.4812 140.905 87.5927 140.818C87.7042 140.73 87.7834 140.608 87.8176 140.471C87.8546 140.347 87.8514 140.216 87.8085 140.094C87.7655 139.973 87.6851 139.869 87.5788 139.796Z" fill="#000502"/>
<path d="M81.9419 111.15L82.0746 111.071C84.3623 108.99 87.1754 107.615 89.8346 106.05C92.4938 104.484 95.1159 102.615 96.6392 99.9243C93.4203 100.343 90.368 101.6 87.7884 103.571C85.2088 105.541 83.1925 108.155 81.9419 111.15Z" fill="#2A685B"/>
<path d="M96.602 99.4365C93.2986 99.8757 90.1674 101.171 87.5194 103.195C84.8714 105.218 82.7985 107.898 81.5066 110.97C81.4657 111.066 81.457 111.173 81.4819 111.275C81.5068 111.376 81.5639 111.467 81.6446 111.533C81.7337 111.608 81.8465 111.65 81.9631 111.65C82.0574 111.65 82.1497 111.622 82.2285 111.57L82.3612 111.49L82.4302 111.437C84.2546 109.905 86.243 108.579 88.359 107.483C88.9429 107.149 89.532 106.82 90.1106 106.475C92.6424 104.988 95.4502 103.072 97.0903 100.174C97.1366 100.095 97.1596 100.004 97.1569 99.9119C97.1543 99.8199 97.1259 99.7305 97.0752 99.6538C97.0244 99.5771 96.9532 99.5161 96.8696 99.4777C96.786 99.4393 96.6933 99.425 96.602 99.4365ZM89.5851 105.625C89.0119 105.965 88.428 106.294 87.8495 106.623C86.2894 107.465 84.7811 108.399 83.3325 109.42C84.6298 107.152 86.3999 105.189 88.5228 103.665C90.6458 102.141 93.0717 101.092 95.636 100.588C94.0649 102.791 91.7241 104.362 89.5851 105.625Z" fill="#000502"/>
<path d="M80.3176 102.328C80.3548 102.148 80.3972 101.978 80.445 101.797L80.3548 101.866L80.3176 102.328Z" fill="#2A685B"/>
<path d="M80.7209 101.379C80.6324 101.32 80.5272 101.291 80.4211 101.297C80.3149 101.303 80.2134 101.343 80.1318 101.411H80.0999L80.0309 101.469C79.9342 101.553 79.8734 101.671 79.8611 101.798L79.8239 102.249C79.8145 102.375 79.8531 102.5 79.9318 102.598C80.0106 102.697 80.1238 102.762 80.2485 102.78H80.3175C80.4323 102.78 80.5435 102.74 80.6325 102.668C80.7214 102.595 80.7826 102.494 80.8058 102.382C80.8353 102.221 80.8743 102.061 80.9226 101.904C80.9465 101.807 80.94 101.704 80.904 101.61C80.868 101.516 80.8041 101.436 80.7209 101.379Z" fill="#000502"/>
<path d="M88.2422 94.2293C87.0656 94.7357 85.9694 95.4117 84.9885 96.2356C83.0618 97.7271 81.1192 99.4999 80.4451 101.809C81.9631 100.546 84.0438 100.216 85.9015 99.5318C89.4259 98.2154 92.2443 95.4501 95.7262 94.0117C93.2262 93.656 90.5936 93.311 88.2422 94.2293Z" fill="#2A685B"/>
<path d="M95.7951 93.5178C94.4555 93.2999 93.1022 93.1757 91.7453 93.1463C90.4893 93.1196 89.2395 93.3303 88.0617 93.7673C86.8422 94.2926 85.7052 94.9917 84.6859 95.8427C82.7592 97.3342 80.6891 99.1972 79.9726 101.681C79.9475 101.78 79.9534 101.884 79.9895 101.979C80.0256 102.074 80.0901 102.155 80.1743 102.212C80.2557 102.262 80.3492 102.29 80.445 102.292C80.5609 102.293 80.6737 102.254 80.7634 102.18C81.7719 101.342 83.0564 100.943 84.4205 100.529C84.9513 100.365 85.5298 100.19 86.0765 99.9987C87.9162 99.2387 89.666 98.2775 91.2941 97.1325C92.7495 96.1063 94.2972 95.2178 95.9172 94.4786C96.0198 94.4385 96.106 94.3653 96.1622 94.2706C96.2184 94.1758 96.2413 94.0651 96.2273 93.9558C96.2132 93.8466 96.1631 93.7452 96.0848 93.6677C96.0065 93.5903 95.9045 93.5413 95.7951 93.5285V93.5178ZM90.7527 96.2726C89.1849 97.3866 87.4993 98.3247 85.7262 99.0698C85.1954 99.2609 84.6647 99.4307 84.1339 99.6006C83.2461 99.8497 82.3785 100.165 81.5384 100.545C82.4248 99.0008 83.9003 97.7216 85.2963 96.6388C86.2401 95.8465 87.293 95.194 88.4226 94.7015C89.489 94.3182 90.6178 94.1382 91.7506 94.1707C92.5046 94.1774 93.2576 94.2252 94.0064 94.314C92.8865 94.8873 91.8249 95.5879 90.7633 96.2726H90.7527Z" fill="#000502"/>
<path d="M78.3909 96.1552C83.3112 91.1924 85.3494 84.1384 87.2071 77.3975C83.1573 82.8539 80.6891 89.3029 78.4599 95.7253L78.3909 96.1552Z" fill="#2A685B"/>
<path d="M87.4247 76.9624C87.3204 76.9116 87.2015 76.8992 87.0889 76.9273C86.9763 76.9555 86.8772 77.0224 86.809 77.1164C82.6265 82.7426 80.1583 89.3243 77.9874 95.5716C77.9849 95.5998 77.9849 95.6283 77.9874 95.6565L77.9131 96.0811C77.8995 96.186 77.9174 96.2925 77.9647 96.3871C78.012 96.4816 78.0865 96.5599 78.1785 96.6119C78.2493 96.6475 78.3276 96.6657 78.4068 96.665C78.4722 96.6655 78.5371 96.6526 78.5974 96.6271C78.6576 96.6015 78.712 96.5638 78.7571 96.5164C83.895 91.336 86.0075 83.6927 87.7007 77.5463C87.7314 77.4321 87.7205 77.3106 87.6699 77.2037C87.6194 77.0967 87.5325 77.0112 87.4247 76.9624ZM79.5586 94.1066C81.2358 89.3827 83.1572 84.5526 85.9279 80.1737C84.5214 85.0038 82.8016 90.0621 79.5586 94.096V94.1066Z" fill="#000502"/>
<path d="M77.1806 83.8944C75.8249 85.2122 74.9885 86.9737 74.824 88.8572L74.9195 89.6746C75.8537 88.7564 77.0426 88.1301 78.0564 87.302C81.2411 84.6906 82.7007 80.2002 85.9438 77.7852L81.6445 80.5187C80.0268 81.4612 78.5281 82.5945 77.1806 83.8944Z" fill="#2A685B"/>
<path d="M85.6733 77.3659L81.3793 80.0994C79.7256 81.063 78.1947 82.2232 76.8199 83.5548C75.3738 84.9635 74.4891 86.8499 74.3305 88.8626C74.3277 88.8872 74.3277 88.9122 74.3305 88.9369L74.4207 89.7543C74.4308 89.8466 74.4665 89.9342 74.5237 90.0074C74.5809 90.0805 74.6574 90.1362 74.7445 90.1683C74.8007 90.1785 74.8582 90.1785 74.9144 90.1683C75.0429 90.1684 75.1664 90.119 75.2594 90.0303C75.8093 89.5214 76.4024 89.0614 77.0322 88.6555C77.4727 88.353 77.9345 88.0345 78.3644 87.6842C79.9568 86.3679 81.1563 84.6004 82.2975 82.9072C83.4971 81.1025 84.6383 79.3934 86.2306 78.2045C86.3351 78.1289 86.4056 78.0151 86.4264 77.8878C86.4473 77.7605 86.417 77.6301 86.3421 77.5251C86.2723 77.4179 86.1639 77.3415 86.0395 77.3119C85.915 77.2823 85.7839 77.3016 85.6733 77.3659ZM81.4748 82.3393C80.3761 83.99 79.2402 85.6938 77.7593 86.9146C77.3613 87.2437 76.9207 87.5462 76.4961 87.8382C76.0715 88.1301 75.7318 88.3689 75.3549 88.6555C75.5692 86.9769 76.3456 85.4204 77.5577 84.2395C78.8806 82.9708 80.3486 81.8626 81.9313 80.938L82.8708 80.3435C82.3665 80.9964 81.9207 81.6705 81.4748 82.3393Z" fill="#000502"/>
<path d="M86.9949 77.1167C86.6245 77.3122 86.2696 77.5358 85.9333 77.7855L86.9949 77.1167Z" fill="#2A685B"/>
<path d="M86.7614 76.6758C86.3728 76.8851 86.0003 77.1228 85.6467 77.387C85.5532 77.4672 85.4926 77.5792 85.4766 77.7013C85.4607 77.8235 85.4905 77.9473 85.5604 78.0488C85.6302 78.1503 85.7352 78.2224 85.855 78.2511C85.9748 78.2798 86.1011 78.2632 86.2094 78.2044L87.2709 77.5356C87.3731 77.4639 87.4447 77.3564 87.4715 77.2345C87.4983 77.1125 87.4784 76.9849 87.4157 76.8769C87.3531 76.769 87.2522 76.6884 87.133 76.6511C87.0138 76.6139 86.885 76.6227 86.772 76.6758H86.7614Z" fill="#000502"/>
<path d="M71.6554 83.5338C71.528 84.2079 71.4325 84.9881 71.8889 85.4977L72.1703 85.0624L74.5853 80.365C75.4784 78.8012 76.1636 77.1275 76.6235 75.3863C77.2339 72.6369 76.7031 69.7494 75.7902 67.0796C74.0972 72.4804 72.7166 77.9742 71.6554 83.5338Z" fill="#2A685B"/>
<path d="M75.7954 66.5859C75.6909 66.5859 75.5891 66.6194 75.505 66.6815C75.4209 66.7436 75.359 66.831 75.3283 66.9309C73.6294 72.351 72.2435 77.8643 71.1776 83.4435C71.0184 84.2928 70.944 85.1738 71.5279 85.8267C71.5746 85.8789 71.6319 85.9206 71.696 85.949C71.76 85.9774 71.8294 85.9918 71.8995 85.9912H71.9313C72.0073 85.9838 72.0808 85.96 72.1467 85.9215C72.2127 85.883 72.2695 85.8308 72.3135 85.7683L72.5948 85.3384V85.2906L75.0098 80.5932C75.9231 78.9905 76.6243 77.2759 77.0958 75.4924C77.6266 73.0031 77.3665 70.1846 76.2412 66.9203C76.2099 66.8258 76.1504 66.7431 76.0707 66.6833C75.991 66.6235 75.8949 66.5895 75.7954 66.5859ZM76.151 75.2801C75.6972 76.978 75.0264 78.6103 74.1553 80.1367L72.0693 84.1972C72.0876 84.0065 72.1159 83.817 72.1542 83.6293C73.1101 78.6152 74.3272 73.6545 75.8007 68.7674C76.4436 70.8778 76.5638 73.1129 76.151 75.2801Z" fill="#000502"/>
<path d="M67.2816 89.3029C66.0252 89.5444 64.8307 90.0375 63.7698 90.7526C62.709 91.4678 61.8037 92.3901 61.1086 93.4642C63.5299 94.0013 66.0541 93.8375 68.3856 92.9918C70.5993 92.1883 72.7319 91.1771 74.755 89.9717C72.3712 89.0725 69.7872 88.8413 67.2816 89.3029Z" fill="#2A685B"/>
<path d="M74.9356 89.5052C72.462 88.5723 69.7804 88.3337 67.1809 88.8152C65.8559 89.067 64.5963 89.5867 63.4792 90.3424C62.3621 91.0981 61.411 92.0739 60.6842 93.21C60.6438 93.2755 60.6198 93.3497 60.6143 93.4264C60.6087 93.5031 60.6218 93.58 60.6523 93.6506C60.6807 93.7229 60.7258 93.7876 60.7839 93.8392C60.842 93.8909 60.9115 93.9281 60.9867 93.9478C61.8944 94.1759 62.8269 94.29 63.7627 94.2875C65.3886 94.2688 67.0012 93.9911 68.5397 93.4648C70.7892 92.6527 72.9559 91.6272 75.0099 90.4022C75.0948 90.358 75.1645 90.2894 75.2099 90.2052C75.2554 90.1209 75.2744 90.025 75.2647 89.9298C75.2574 89.8346 75.2223 89.7436 75.1638 89.6682C75.1053 89.5927 75.026 89.536 74.9356 89.5052ZM68.2319 92.52C66.2131 93.243 64.0467 93.4546 61.9262 93.1357C63.286 91.39 65.2352 90.1993 67.4092 89.7865C69.4497 89.398 71.5536 89.5035 73.545 90.0943C71.8521 91.0642 70.0736 91.8761 68.2319 92.52Z" fill="#000502"/>
<path d="M74.8082 89.9824L75.047 89.8179L74.771 89.9718L74.8082 89.9824Z" fill="#2A685B"/>
<path d="M74.8082 89.3831L74.5269 89.537C74.444 89.5852 74.3772 89.6567 74.3348 89.7426C74.2923 89.8285 74.276 89.925 74.288 90.02C74.3006 90.1164 74.3395 90.2075 74.4003 90.2833C74.4612 90.3591 74.5416 90.4168 74.633 90.45L74.7975 90.02L74.6436 90.45C74.6961 90.4703 74.7519 90.4811 74.8082 90.4818C74.9104 90.48 75.0099 90.4486 75.0948 90.3916L75.3336 90.2217C75.4448 90.1513 75.5235 90.0397 75.5524 89.9112C75.5813 89.7828 75.5579 89.6482 75.4876 89.537C75.4172 89.4258 75.3055 89.3471 75.1771 89.3182C75.0487 89.2894 74.9141 89.3127 74.8029 89.3831H74.8082Z" fill="#000502"/>
<path d="M78.29 95.997C78.4386 95.9333 78.5925 95.8643 78.7411 95.79L78.2847 95.9758C78.2847 95.9758 78.2847 95.9917 78.29 95.997Z" fill="#2A685B"/>
<path d="M78.5555 95.328L78.099 95.5191C78.0065 95.576 77.9336 95.6599 77.8903 95.7594C77.847 95.859 77.8352 95.9695 77.8566 96.0759C77.878 96.1824 77.9316 96.2797 78.01 96.3548C78.0885 96.4299 78.1881 96.4791 78.2954 96.4958C78.3629 96.4942 78.4296 96.4798 78.4918 96.4533C78.651 96.3843 78.8155 96.31 78.9695 96.2304C79.076 96.1677 79.1556 96.0678 79.1927 95.9499C79.2297 95.832 79.2217 95.7045 79.1702 95.5921C79.1186 95.4798 79.0272 95.3906 78.9136 95.3418C78.8001 95.293 78.6724 95.2881 78.5555 95.328Z" fill="#000502"/>
<path d="M58.7468 103.879C62.3594 104.189 65.9947 103.659 69.368 102.329C72.7412 100.999 75.7605 98.9064 78.1893 96.2142C78.25 96.1576 78.2862 96.0795 78.2901 95.9966C75.3549 97.2811 71.8836 96.7131 68.7361 97.4456C64.8296 98.3479 61.698 101.166 58.7468 103.879Z" fill="#2A685B"/>
<path d="M78.5554 95.5672C78.4855 95.5348 78.4095 95.5181 78.3325 95.5181C78.2555 95.5181 78.1794 95.5348 78.1096 95.5672C76.4641 96.2837 74.6436 96.3952 72.7168 96.5119C71.3471 96.5533 69.9834 96.7113 68.6404 96.9843C64.5057 97.9397 61.1405 101.045 58.4335 103.539C58.3632 103.604 58.3133 103.688 58.2898 103.781C58.2663 103.874 58.2702 103.971 58.3012 104.062C58.3321 104.152 58.3887 104.232 58.464 104.291C58.5393 104.35 58.6302 104.386 58.7255 104.394C59.4155 104.463 60.1214 104.495 60.8486 104.495C64.1903 104.472 67.4906 103.753 70.5392 102.384C73.5877 101.015 76.3178 99.0259 78.5554 96.5438C78.6354 96.4651 78.6966 96.3693 78.7343 96.2636C78.772 96.1578 78.7852 96.045 78.773 95.9334C78.766 95.8601 78.7429 95.7892 78.7053 95.7259C78.6677 95.6626 78.6165 95.6084 78.5554 95.5672ZM59.9781 103.465C62.5259 101.14 65.4027 98.7359 68.8846 97.9291C70.1739 97.6715 71.4823 97.5206 72.7964 97.478C74.1336 97.435 75.4651 97.2823 76.7773 97.0215C74.5454 99.1697 71.9043 100.847 69.011 101.954C66.1178 103.061 63.0315 103.575 59.9357 103.465H59.9781Z" fill="#000502"/>
<path d="M78.152 96.0339L78.2847 95.9756C78.2847 95.9756 78.0565 95.9968 78.152 96.0339Z" fill="#2A685B"/>
<path d="M78.6988 95.6887C78.6488 95.6083 78.5793 95.5418 78.4967 95.4954C78.4141 95.449 78.3211 95.4242 78.2264 95.4233C78.0877 95.4241 77.9535 95.4726 77.8463 95.5605C77.739 95.6484 77.6652 95.7705 77.6373 95.9064C77.6159 96.0288 77.6383 96.1548 77.7003 96.2625C77.7624 96.3701 77.8603 96.4526 77.977 96.4955C78.0331 96.5159 78.0924 96.5267 78.1521 96.5274C78.2177 96.5279 78.2826 96.5153 78.3432 96.4902L78.4706 96.4371C78.5796 96.3933 78.6694 96.3121 78.7239 96.208C78.7784 96.1039 78.794 95.9837 78.7678 95.8692C78.7522 95.8065 78.729 95.7459 78.6988 95.6887ZM78.2264 96.4159C78.1519 96.4166 78.0784 96.3979 78.0133 96.3616C77.9481 96.3253 77.8935 96.2727 77.8549 96.2089L78.237 95.9913H78.2848L78.2317 95.8639L78.3273 95.5932C78.3961 95.6186 78.4577 95.6604 78.5067 95.7149C78.5557 95.7695 78.5907 95.8352 78.6086 95.9064L78.2848 95.9966L78.6139 95.9382C78.6245 95.9943 78.6245 96.0519 78.6139 96.1081C78.5935 96.1956 78.5442 96.2736 78.4738 96.3295C78.4035 96.3854 78.3163 96.4158 78.2264 96.4159Z" fill="#000502"/>
<path d="M73.8261 101.049C70.1106 100.12 65.9759 99.9559 62.7434 101.973C65.6574 103.056 68.6843 103.808 71.7667 104.213C73.2194 104.46 74.7034 104.46 76.1562 104.213C76.8823 104.086 77.5762 103.817 78.1982 103.422C78.8203 103.027 79.3583 102.513 79.7814 101.909L80.4874 101.67C78.3483 102.408 76.0288 101.607 73.8261 101.049Z" fill="#2A685B"/>
<path d="M80.3389 101.209C79.7863 101.393 79.2068 101.483 78.6245 101.475C77.3232 101.41 76.0354 101.18 74.7923 100.79L73.9483 100.572C72.2913 100.138 70.587 99.9099 68.8741 99.893C66.6369 99.8363 64.4292 100.412 62.5047 101.554C62.4265 101.603 62.3636 101.672 62.3233 101.755C62.2829 101.838 62.2667 101.93 62.2765 102.021C62.2885 102.113 62.3242 102.2 62.38 102.273C62.4359 102.347 62.51 102.405 62.5949 102.441C65.548 103.533 68.6136 104.293 71.735 104.707C72.5738 104.827 73.4195 104.893 74.2668 104.904C74.9476 104.909 75.6272 104.843 76.2944 104.707C77.8306 104.434 79.2048 103.586 80.1372 102.335L80.668 102.149C80.7926 102.107 80.8953 102.017 80.9535 101.899C81.0117 101.781 81.0207 101.644 80.9785 101.52C80.9363 101.395 80.8463 101.293 80.7283 101.234C80.6104 101.176 80.4741 101.167 80.3495 101.209H80.3389ZM76.0661 103.736C75.4652 103.857 74.8533 103.916 74.2402 103.911C73.4374 103.9 72.6361 103.838 71.8411 103.725C69.1597 103.368 66.5197 102.75 63.959 101.878C66.5121 100.684 69.8878 100.567 73.7042 101.533L74.5375 101.751C75.8833 102.164 77.2763 102.405 78.6829 102.467C77.9367 103.112 77.0344 103.549 76.0661 103.736Z" fill="#000502"/>
<path d="M82.0214 110.896L82.1228 110.805C82.0908 110.837 82.0481 110.864 82.0107 110.896H82.0214Z" fill="#2A685B"/>
<path d="M75.7158 108.667C72.5311 107.228 68.8953 107.493 65.4558 107.987L74.0173 111.018C75.3417 111.561 76.735 111.918 78.1574 112.079C78.8449 112.148 79.5392 112.08 80.2005 111.88C80.8618 111.679 81.477 111.35 82.0108 110.912C79.7762 111.273 77.7858 109.606 75.7158 108.667Z" fill="#2A685B"/>
<path d="M81.7986 110.429C81.6519 110.439 81.5047 110.439 81.358 110.429C80.0841 110.429 78.8633 109.754 77.5736 109.043C77.0428 108.746 76.4801 108.438 75.9228 108.189C74.0811 107.396 72.0887 107.013 70.0842 107.069C68.5038 107.092 66.927 107.227 65.3656 107.472C65.2557 107.487 65.154 107.539 65.0769 107.618C64.9999 107.698 64.952 107.802 64.9409 107.912C64.9299 108.023 64.9564 108.133 65.0161 108.227C65.0758 108.32 65.1653 108.391 65.2701 108.428L73.8528 111.464C75.22 112.017 76.6585 112.374 78.1256 112.525C78.2795 112.525 78.4281 112.525 78.582 112.525C80.0117 112.579 81.4061 112.073 82.4673 111.113C82.5645 111.025 82.6224 110.901 82.6284 110.77C82.6343 110.638 82.5879 110.51 82.4992 110.413C82.4105 110.316 82.2869 110.258 82.1555 110.252C82.0241 110.246 81.8957 110.292 81.7986 110.381V110.429ZM78.1893 111.57C76.8134 111.414 75.4652 111.071 74.1819 110.551L67.6055 108.221C68.4017 108.146 69.2562 108.088 70.1055 108.088C71.9614 108.038 73.8063 108.389 75.5141 109.118C76.0449 109.356 76.5757 109.648 77.1065 109.94C78.097 110.551 79.1693 111.017 80.2911 111.326C79.6118 111.537 78.899 111.62 78.1893 111.57Z" fill="#000502"/>
<path d="M85.4184 113.629C83.9057 114.25 82.4885 115.37 81.9949 116.931L82.1594 117.955C85.8749 115.19 91.0659 114.882 94.4947 111.782C94.886 111.428 95.2416 111.037 95.5563 110.614C93.8265 111.412 92.0171 112.024 90.1583 112.44C88.5765 112.796 86.9364 113.008 85.4184 113.629Z" fill="#2A685B"/>
<path d="M95.3653 110.163C93.6663 110.951 91.8866 111.553 90.0575 111.957L88.8155 112.211C87.5896 112.415 86.3863 112.737 85.2221 113.172C83.3431 113.936 81.995 115.253 81.5066 116.776C81.4906 116.853 81.4906 116.933 81.5066 117.01L81.6765 118.034C81.6895 118.118 81.7243 118.198 81.7773 118.265C81.8303 118.332 81.8999 118.384 81.979 118.416C82.0386 118.438 82.1015 118.449 82.1648 118.448C82.2712 118.447 82.3748 118.413 82.4621 118.352C84.1287 117.105 86.1775 116.351 88.1626 115.624C90.5087 114.759 92.9396 113.867 94.8345 112.153C95.254 111.775 95.6378 111.359 95.981 110.911C96.0438 110.822 96.0775 110.715 96.0775 110.606C96.0775 110.497 96.0438 110.39 95.981 110.301C95.9106 110.209 95.8105 110.146 95.6981 110.12C95.5856 110.095 95.4679 110.11 95.3653 110.163ZM87.8123 114.69C85.9595 115.295 84.1794 116.103 82.5045 117.1V116.967C82.7971 116.3 83.2237 115.701 83.7579 115.206C84.292 114.711 84.9223 114.331 85.6096 114.09C86.7157 113.681 87.8586 113.379 89.0225 113.188L90.2911 112.928C91.3517 112.689 92.3974 112.387 93.4227 112.026C91.7932 113.23 89.8505 113.942 87.8123 114.69Z" fill="#000502"/>
<path d="M78.6243 115.598C74.4429 114.286 70.145 113.38 65.79 112.891C67.5098 114.425 69.6117 115.455 71.687 116.463C73.3194 117.332 75.0401 118.025 76.8196 118.528C78.6151 119.031 80.5236 118.951 82.2708 118.3V118.05C81.6497 116.676 80.0733 116.049 78.6243 115.598Z" fill="#2A685B"/>
<path d="M78.7729 115.126C74.5598 113.806 70.2302 112.893 65.8431 112.398C65.739 112.386 65.6338 112.408 65.5429 112.46C65.452 112.512 65.38 112.592 65.3375 112.688C65.2949 112.783 65.2839 112.89 65.3061 112.993C65.3283 113.095 65.3826 113.188 65.461 113.257C67.2444 114.85 69.3887 115.911 71.4694 116.909C73.1329 117.802 74.8874 118.514 76.7029 119.032C77.5708 119.25 78.4619 119.363 79.3568 119.367C80.4223 119.377 81.4794 119.177 82.4672 118.778C82.5478 118.74 82.6177 118.683 82.6706 118.612C82.7234 118.54 82.7575 118.457 82.7697 118.369V118.119C82.7799 118.03 82.7652 117.94 82.7272 117.859C82.0319 116.325 80.413 115.641 78.7729 115.126ZM76.963 118.045C75.2171 117.549 73.5286 116.869 71.9259 116.017C70.3963 115.32 68.9218 114.507 67.5151 113.587C71.23 114.105 74.8959 114.929 78.4757 116.049C79.7867 116.458 81.0659 116.978 81.6922 117.965C80.1547 118.437 78.5154 118.464 76.963 118.045Z" fill="#000502"/>
<path d="M74.2454 125.365C71.9584 126.764 69.9808 128.616 68.4333 130.805C72.0464 129.944 75.4316 128.315 78.3589 126.028C79.6169 125.046 80.9226 123.905 82.5149 123.826L81.9258 123.613C79.243 123.341 76.545 123.956 74.2454 125.365Z" fill="#2A685B"/>
<path d="M82.6849 123.379L82.0957 123.167C82.0605 123.162 82.0247 123.162 81.9895 123.167C79.2009 122.87 76.3921 123.498 73.996 124.955C71.6495 126.387 69.6209 128.283 68.0353 130.528C67.9798 130.602 67.9461 130.69 67.9378 130.781C67.9295 130.873 67.9471 130.965 67.9885 131.048C68.0299 131.13 68.0935 131.199 68.1722 131.247C68.2508 131.295 68.3413 131.32 68.4334 131.319H68.5449C72.2269 130.447 75.6788 128.795 78.6669 126.473L79.0278 126.187C80.1212 125.322 81.2517 124.43 82.5362 124.377C82.651 124.371 82.7602 124.326 82.8454 124.249C82.9307 124.172 82.9868 124.068 83.0043 123.954C83.0217 123.841 82.9995 123.725 82.9413 123.626C82.8831 123.527 82.7925 123.451 82.6849 123.411V123.379ZM78.4121 125.375L78.0564 125.656C75.5715 127.588 72.7495 129.042 69.7338 129.945C71.071 128.291 72.6878 126.884 74.5108 125.789C76.2635 124.739 78.2501 124.142 80.291 124.053C79.6328 124.446 79.0047 124.888 78.4121 125.375Z" fill="#000502"/>
<path d="M82.5362 124.202C82.6636 124.117 82.7963 124.037 82.929 123.963C82.7885 123.923 82.6446 123.896 82.499 123.883L82.5362 124.202Z" fill="#2A685B"/>
<path d="M83.067 123.491C82.8947 123.436 82.7165 123.402 82.5362 123.39C82.4632 123.386 82.3902 123.397 82.3217 123.423C82.2532 123.448 82.1907 123.488 82.1382 123.539C82.0875 123.591 82.0489 123.654 82.0251 123.722C82.0012 123.791 81.9927 123.864 82.0002 123.937L82.0373 124.255C82.0468 124.341 82.0781 124.422 82.1283 124.492C82.1785 124.562 82.2459 124.617 82.3239 124.653C82.3888 124.683 82.4596 124.698 82.5309 124.696C82.6285 124.695 82.724 124.667 82.8069 124.616C82.9237 124.536 83.0405 124.467 83.1626 124.398C83.2484 124.351 83.3184 124.28 83.3636 124.193C83.4088 124.106 83.4272 124.008 83.4163 123.911C83.4055 123.814 83.3661 123.722 83.3029 123.647C83.2398 123.572 83.1558 123.518 83.0617 123.491H83.067Z" fill="#000502"/>
<path d="M85.0096 123.242C84.2822 123.37 83.5799 123.614 82.929 123.963C83.7251 124.192 84.3886 124.818 85.0521 125.312C87 126.723 89.4469 127.207 91.8089 127.658C92.6167 127.845 93.4426 127.943 94.2717 127.95C96.1719 127.907 97.9182 126.952 99.5795 126.018C97.1114 125.641 94.7653 124.712 92.3715 123.995C89.9777 123.279 87.4618 122.764 85.0096 123.242Z" fill="#2A685B"/>
<path d="M99.675 125.529C97.9229 125.207 96.1994 124.746 94.5212 124.148C93.8683 123.936 93.1995 123.719 92.5307 123.517C90.7434 122.938 88.8832 122.615 87.0053 122.556C86.3036 122.555 85.6034 122.621 84.914 122.753C84.1362 122.894 83.3855 123.157 82.6901 123.533C82.6044 123.58 82.5345 123.652 82.4892 123.739C82.4439 123.825 82.4252 123.924 82.4353 124.021C82.4456 124.119 82.4851 124.211 82.5485 124.286C82.6119 124.36 82.6964 124.414 82.7909 124.44C83.3513 124.653 83.8691 124.964 84.3196 125.359C84.4735 125.481 84.6327 125.603 84.7867 125.714C86.862 127.216 89.4575 127.71 91.7452 128.145C92.5371 128.322 93.3439 128.423 94.1549 128.448H94.3088C96.3948 128.4 98.3056 127.317 99.8449 126.452C99.933 126.397 100.003 126.318 100.047 126.223C100.09 126.129 100.105 126.024 100.089 125.921C100.068 125.821 100.018 125.73 99.9437 125.66C99.8697 125.59 99.7759 125.544 99.675 125.529ZM94.2876 127.455H94.1549C93.4066 127.43 92.6621 127.335 91.931 127.174C89.7441 126.755 87.2654 126.282 85.3705 124.913L84.9247 124.573C84.6593 124.371 84.3939 124.17 84.1126 123.984C84.4357 123.876 84.7655 123.789 85.0998 123.724C85.7279 123.605 86.366 123.546 87.0053 123.549C88.7878 123.607 90.5532 123.916 92.2494 124.467C92.9023 124.663 93.5711 124.881 94.2133 125.093C95.4925 125.507 96.8088 125.937 98.157 126.245C96.977 126.94 95.6531 127.354 94.2876 127.455Z" fill="#000502"/>
<path d="M71.3209 85.2424L71.6446 85.0195C71.3447 84.9209 71.04 84.8376 70.7317 84.77L71.3209 85.2424Z" fill="#2A685B"/>
<path d="M71.7985 84.5479C71.4832 84.444 71.1625 84.3572 70.8378 84.2878C70.7278 84.2607 70.6118 84.2722 70.5092 84.3204C70.4067 84.3687 70.3239 84.4508 70.2747 84.5528C70.2256 84.6549 70.213 84.7708 70.2392 84.8811C70.2654 84.9913 70.3287 85.0892 70.4185 85.1583L71.0129 85.6307C71.0987 85.6925 71.2018 85.7257 71.3075 85.7257C71.4133 85.7257 71.5163 85.6925 71.6021 85.6307L71.9206 85.4078C71.9976 85.3565 72.0585 85.2843 72.096 85.1997C72.1336 85.1152 72.1464 85.0216 72.1329 84.9301C72.1135 84.8435 72.0728 84.7632 72.0144 84.6964C71.9559 84.6297 71.8817 84.5786 71.7985 84.5479Z" fill="#000502"/>
<path d="M67.5045 82.2709C66.0916 81.3746 64.5771 80.6494 62.9929 80.1106C61.291 79.424 59.4776 79.0552 57.6427 79.0225C57.1451 78.9973 56.6525 79.1312 56.2361 79.4047C57.475 80.6516 58.8292 81.7784 60.2806 82.7698C61.7415 83.76 63.4208 84.3811 65.1744 84.5798C66.5916 84.7019 68.0247 84.4577 69.4207 84.5798C69.8547 84.6115 70.2858 84.6753 70.7105 84.7709L69.5321 83.8049C68.858 83.2794 68.2052 82.7539 67.5045 82.2709Z" fill="#2A685B"/>
<path d="M69.8241 83.4172C69.1712 82.8864 68.4971 82.3556 67.7806 81.8779C66.3347 80.9594 64.7845 80.2164 63.1628 79.6645C61.4003 78.9667 59.5273 78.5893 57.6321 78.5499C57.0263 78.5241 56.4284 78.6954 55.9283 79.0382C55.872 79.0818 55.8258 79.1371 55.793 79.2002C55.7601 79.2633 55.7412 79.3328 55.7377 79.4039C55.7341 79.475 55.746 79.546 55.7725 79.612C55.799 79.6781 55.8395 79.7377 55.8911 79.7866C57.1558 81.0526 58.5366 82.1971 60.0153 83.2048C61.5399 84.2452 63.2972 84.8942 65.132 85.0944C65.8886 85.1396 66.6471 85.1396 67.4037 85.0944C68.0703 85.0604 68.7382 85.0604 69.4048 85.0944C69.8152 85.1279 70.223 85.1881 70.6256 85.2749C70.6607 85.2804 70.6965 85.2804 70.7317 85.2749C70.8344 85.2753 70.9348 85.2437 71.0187 85.1844C71.1025 85.1251 71.1658 85.0411 71.1997 84.9441C71.2336 84.8471 71.2364 84.742 71.2077 84.6433C71.179 84.5447 71.1202 84.4574 71.0396 84.3938L69.8241 83.4172ZM67.356 84.1019C66.6489 84.1438 65.9399 84.1438 65.2328 84.1019C63.5572 83.9146 61.9532 83.3186 60.562 82.3662C59.3363 81.544 58.1886 80.6112 57.1331 79.5796C57.3088 79.5529 57.4862 79.5387 57.6639 79.5372C59.4375 79.573 61.1895 79.9328 62.8337 80.5987C64.3831 81.1245 65.8625 81.8375 67.2392 82.7218C67.8655 83.1358 68.4653 83.6082 69.0598 84.0806C68.5184 84.0488 67.9398 84.0753 67.356 84.1019Z" fill="#000502"/>
<path d="M70.0099 65.9759C69.471 66.4765 69.0047 67.05 68.6246 67.6797C68.3535 68.2036 68.1348 68.7529 67.9717 69.3198C67.5519 70.5032 67.2305 71.7193 67.011 72.9556C66.7749 74.5309 66.8707 76.1382 67.2923 77.6743C69.242 74.3087 70.9073 70.7862 72.271 67.1436C72.6744 66.082 73.0672 64.8984 72.6638 63.8315C71.6991 64.4411 70.8085 65.1607 70.0099 65.9759Z" fill="#2A685B"/>
<path d="M72.823 63.364C72.7551 63.3405 72.6828 63.3322 72.6113 63.3395C72.5398 63.3468 72.4708 63.3697 72.409 63.4065C71.4105 64.0359 70.4895 64.7806 69.6649 65.6251C69.0883 66.1561 68.5913 66.7675 68.1893 67.4404C67.9045 67.9919 67.6734 68.5696 67.4993 69.1654C67.0721 70.3753 66.7437 71.6179 66.5174 72.8809C66.2762 74.5257 66.3774 76.2027 66.8146 77.8065C66.8404 77.9003 66.8935 77.9842 66.9673 78.0476C67.041 78.111 67.132 78.1508 67.2286 78.1622H67.2923C67.379 78.1623 67.4642 78.1399 67.5396 78.0971C67.615 78.0543 67.678 77.9926 67.7222 77.918C69.6861 74.5257 71.3622 70.9747 72.7328 67.3024C73.168 66.1719 73.5927 64.8608 73.1256 63.64C73.0975 63.5752 73.0561 63.5171 73.0039 63.4696C72.9518 63.422 72.8901 63.386 72.823 63.364ZM71.8039 66.9627C70.599 70.1758 69.164 73.2978 67.5099 76.3044C67.348 75.2188 67.348 74.1152 67.5099 73.0295C67.7267 71.8202 68.0427 70.6308 68.4547 69.4733C68.6063 68.9444 68.8071 68.4308 69.0545 67.9393C69.4132 67.3502 69.8527 66.8142 70.3602 66.347C70.9696 65.7298 71.6302 65.1651 72.3347 64.6591C72.3201 65.4556 72.1393 66.2402 71.8039 66.9627Z" fill="#000502"/>
<path d="M67.1064 78.024L67.3294 77.8435C67.3195 77.7951 67.3071 77.7473 67.2922 77.7002L67.1064 78.024Z" fill="#2A685B"/>
<path d="M67.7701 77.5414C67.7448 77.4474 67.6924 77.363 67.6194 77.2988C67.5463 77.2345 67.4559 77.1933 67.3595 77.1802C67.2631 77.1672 67.165 77.1829 67.0775 77.2255C66.99 77.268 66.917 77.3354 66.8677 77.4193L66.7775 77.5732L66.682 77.7431C66.6219 77.8421 66.5985 77.9591 66.616 78.0736C66.6335 78.1881 66.6906 78.2928 66.7775 78.3694C66.8702 78.4463 66.9862 78.4893 67.1066 78.4915C67.2184 78.4928 67.3272 78.4553 67.4144 78.3853L67.6374 78.2102C67.7158 78.1491 67.7741 78.0658 67.8044 77.9711C67.8347 77.8763 67.8357 77.7747 67.8072 77.6794L67.7701 77.5414Z" fill="#000502"/>
<path d="M55.5461 67.6421C56.0455 68.7952 56.676 69.8869 57.4251 70.8958C57.9539 71.5201 58.5307 72.1022 59.1501 72.6367C59.9318 73.3646 60.7503 74.052 61.6023 74.6962C63.3274 75.9594 65.5832 76.3947 67.1968 77.7959C66.5133 76.5535 65.7472 75.3583 64.9038 74.2185C62.51 71.2036 59.0705 69.192 55.5461 67.6421Z" fill="#2A685B"/>
<path d="M65.286 73.9112C63.1628 71.2573 60.1586 69.1341 55.7319 67.1862C55.6421 67.1516 55.5442 67.1437 55.4501 67.1635C55.3559 67.1833 55.2694 67.2298 55.2011 67.2976C55.1363 67.3679 55.0933 67.4554 55.0773 67.5496C55.0613 67.6439 55.073 67.7407 55.1109 67.8284C55.6288 69.0168 56.2806 70.1423 57.0536 71.1829C57.5986 71.8264 58.1931 72.4263 58.8317 72.977C59.6257 73.7277 60.4583 74.4364 61.3263 75.1001C62.1689 75.6721 63.069 76.1542 64.0121 76.5385C65.0448 76.9385 66.0125 77.4895 66.8836 78.1733C66.9763 78.2501 67.0923 78.2932 67.2127 78.2954C67.306 78.2954 67.3974 78.269 67.4763 78.2192C67.5552 78.1695 67.6184 78.0983 67.6585 78.0141C67.7912 77.7434 67.7966 77.7275 66.8465 76.1776C66.3657 75.3957 65.8448 74.6393 65.286 73.9112ZM64.3996 75.6362C63.5204 75.2783 62.6808 74.8301 61.8943 74.2986C61.0532 73.667 60.247 72.9901 59.4792 72.271C58.8773 71.7545 58.3181 71.19 57.8073 70.5832C57.3433 69.9877 56.9397 69.3477 56.6024 68.6724C60.1905 70.3921 62.7223 72.271 64.511 74.5109C64.872 74.9674 65.3019 75.615 65.6894 76.2254C65.286 76.0237 64.8348 75.8273 64.4049 75.6362H64.3996Z" fill="#000502"/>
<path d="M117.154 125.969C113.401 130.343 99.5584 141.298 80.0416 171.526C80.0416 171.526 78.0936 174.069 81.135 171.728C81.135 171.728 109.68 150.216 117.345 126.787C117.419 126.559 117.738 125.29 117.154 125.969Z" fill="#2A685B"/>
<path d="M117.414 125.263C117.287 125.274 117.165 125.313 117.056 125.377C116.947 125.442 116.853 125.53 116.782 125.635C116.05 126.489 114.887 127.636 113.417 129.085C107.536 134.892 95.3015 146.967 79.6382 171.229C78.7518 172.391 78.911 172.71 78.996 172.879C79.0449 172.978 79.1208 173.061 79.2147 173.118C79.3086 173.175 79.4167 173.205 79.5267 173.203C79.7603 173.203 80.1212 173.118 81.4322 172.142C81.7189 171.924 110.19 150.263 117.807 126.956C117.934 126.569 118.109 125.895 117.86 125.523C117.814 125.446 117.748 125.381 117.67 125.335C117.592 125.29 117.504 125.265 117.414 125.263ZM80.8324 171.335L80.6785 171.441C96.1879 147.482 108.279 135.539 114.118 129.785C115.121 128.793 115.986 127.944 116.671 127.222C108.852 150.019 81.1191 171.123 80.8324 171.335Z" fill="#000502"/>
<path d="M74.0385 112.605C69.2615 99.9143 69.0544 99.7869 68.9483 99.2561C68.0513 94.7976 67.8867 120.885 69.0279 124.85C70.1691 128.815 74.9992 151.968 74.2402 153.38C73.4812 154.792 70.3496 136.782 64.9993 125.248C59.649 113.715 47.8816 97.7062 47.3827 96.5173C45.4135 91.8252 48.8317 118.093 61.6023 136.676C74.3729 155.259 72.0427 157.154 71.2147 155.784C70.3867 154.415 58.6299 134.489 54.7605 129.447C51.1194 124.728 38.7045 112.674 38.1365 111.56C35.7002 106.783 43.6195 127.642 48.2638 133.852C52.9081 140.062 57.165 145.2 66.2148 153.842C76.4694 163.624 77.1807 165.805 77.1807 165.805C77.1807 165.805 78.773 167.705 77.0586 164.436C77.0586 164.436 76.0926 160.243 77.1382 153.592C78.1839 146.941 78.8155 125.291 74.0385 112.605Z" fill="#2A685B"/>
<path d="M74.5002 112.429C71.6446 104.85 70.4078 101.708 69.8771 100.365C69.703 99.9731 69.5541 99.5707 69.4312 99.16C69.3675 98.8203 69.2507 98.2524 68.7518 98.2524C68.6658 98.251 68.5808 98.2706 68.504 98.3095C68.4273 98.3483 68.3611 98.4052 68.3113 98.4753C67.4089 99.6748 67.6106 121.723 68.5554 124.988C69.617 128.703 73.0352 145.232 73.7252 151.129C73.3961 149.993 72.9981 148.475 72.5893 146.935C70.997 140.938 68.6138 131.872 65.4504 125.062C61.4801 116.522 54.1235 105.694 50.1745 99.8818C48.9803 98.125 47.9506 96.6122 47.8391 96.3469C47.6639 95.9328 47.4463 95.4923 47.0164 95.4923C46.9063 95.4901 46.7978 95.5195 46.7038 95.5768C46.6098 95.6342 46.5341 95.7172 46.4856 95.8161C45.6151 97.504 49.8932 120.572 61.1935 136.941C69.0013 148.278 71.1244 153.395 71.411 155.131L71.1828 154.749C60.8697 137.392 56.7615 131.235 55.132 129.128C53.0089 126.384 48.0196 121.246 43.9856 117.116C41.4167 114.462 38.7681 111.745 38.5345 111.32C38.1895 110.646 38.0037 110.349 37.6587 110.349C37.5645 110.351 37.4726 110.378 37.3924 110.428C37.3121 110.477 37.2465 110.547 37.2023 110.63C37.0908 110.853 37.0112 111.012 38.1577 114.043C38.8848 115.98 39.8402 118.326 40.8434 120.657C42.4357 124.324 45.44 130.959 47.8285 134.154C52.6373 140.609 56.9367 145.715 65.8325 154.202C75.6679 163.586 76.6339 165.879 76.6657 165.964C76.6873 166.023 76.7177 166.079 76.756 166.128C77.3611 166.856 77.6105 166.856 77.7485 166.856C77.8424 166.857 77.9352 166.834 78.0172 166.789C78.0993 166.743 78.1677 166.676 78.2156 166.596C78.3855 166.309 78.3749 165.985 77.4885 164.271C77.3823 163.74 76.6339 159.722 77.584 153.655C78.688 146.829 79.325 125.232 74.5002 112.429ZM76.6233 153.522C76.0313 156.924 75.9615 160.397 76.4163 163.82C75.084 162.116 72.3133 159 66.5332 153.485C57.6851 145.046 53.4176 139.972 48.6353 133.56C45.5249 129.388 40.8169 118.279 38.9538 113.295C39.888 114.303 41.3317 115.789 43.2903 117.806C47.2871 121.92 52.2605 127.037 54.3411 129.733C55.9335 131.824 60.0364 137.944 70.3229 155.253C70.5512 155.635 70.7104 155.9 70.7794 156.022C70.8595 156.19 70.9819 156.333 71.1347 156.438C71.2874 156.544 71.465 156.607 71.6499 156.622C71.7837 156.621 71.9144 156.582 72.0278 156.511C72.1411 156.44 72.2325 156.339 72.2921 156.219C73.1997 154.483 69.3569 147.073 62.0056 136.394C52.0588 121.946 47.8285 102.716 47.3826 97.5146C47.7648 98.109 48.3964 99.0432 49.3465 100.439C53.2849 106.23 60.6097 117.01 64.5427 125.481C67.6743 132.212 70.0522 141.224 71.6233 147.185C73.2581 153.379 73.4704 153.952 74.1392 153.952C74.2506 153.951 74.3595 153.919 74.4533 153.859C74.5472 153.799 74.6223 153.713 74.67 153.613C75.6201 151.84 70.2805 127.435 69.4949 124.712C68.5873 121.564 68.6138 105.943 68.9323 100.699C68.9323 100.699 68.9323 100.699 68.9323 100.731C69.4631 102.069 70.6998 105.206 73.5501 112.78C78.3324 125.407 77.6955 146.75 76.6286 153.522H76.6233Z" fill="#000502"/>
<path d="M102.398 115.445C100.965 117.679 93.8366 128.847 91.549 133.236C88.9959 138.13 80.1584 163.438 78.6298 168.204C77.4939 171.734 78.9217 169.266 78.9217 169.266C78.9217 169.266 88.5501 156.527 91.9789 150.476C95.3281 144.574 102.488 122.695 102.653 115.503C102.65 115.474 102.638 115.447 102.619 115.426C102.6 115.404 102.575 115.389 102.546 115.382C102.518 115.376 102.489 115.378 102.462 115.39C102.436 115.401 102.413 115.42 102.398 115.445Z" fill="#2A685B"/>
<path d="M102.515 114.887C102.409 114.886 102.304 114.912 102.211 114.963C102.118 115.014 102.04 115.088 101.984 115.179C100.572 117.381 93.4066 128.602 91.1084 133.008C88.5182 137.976 79.5745 163.634 78.1573 168.039C77.5735 169.849 77.6266 170.13 77.8176 170.369C77.8669 170.44 77.9328 170.498 78.0096 170.538C78.0864 170.578 78.1717 170.598 78.2582 170.597C78.444 170.597 78.72 170.597 79.3198 169.536C79.7922 168.91 89.0596 156.585 92.3929 150.72C95.7262 144.855 102.961 122.986 103.131 115.513C103.133 115.43 103.119 115.347 103.089 115.27C103.059 115.192 103.013 115.122 102.955 115.062C102.836 114.95 102.679 114.887 102.515 114.887ZM91.5489 150.242C88.6933 155.268 81.4163 165.104 79.1817 168.103C80.8272 163.05 89.463 138.299 91.9842 133.469C93.9852 129.632 99.7282 120.555 102.069 116.898C101.167 125.179 94.5691 144.902 91.5489 150.242Z" fill="#000502"/>
<path d="M84.9672 104.696C84.9672 104.696 80.9598 118.629 79.6594 124.908C78.359 131.187 76.8993 159.838 76.9737 162.556C77.048 165.274 76.6074 167.667 77.2656 165.826C77.3452 165.613 80.981 156.272 82.5999 150.316C84.2188 144.361 88.1094 130.226 86.8302 116.24C85.5511 102.254 84.9672 104.696 84.9672 104.696Z" fill="#2A685B"/>
<path d="M85.0892 104.033C84.9433 104.038 84.8038 104.094 84.6945 104.191C84.5851 104.288 84.5127 104.419 84.4894 104.563C84.4523 104.701 80.4608 118.581 79.1816 124.807C77.9025 131.033 76.411 159.865 76.4906 162.572C76.4906 163.554 76.4906 164.515 76.4428 165.226C76.3951 166.341 76.3844 166.606 76.5914 166.819C76.6402 166.87 76.6986 166.911 76.7633 166.939C76.828 166.967 76.8977 166.982 76.9683 166.983C77.3929 166.983 77.5415 166.569 77.7432 166.001C77.7432 166.001 77.7804 165.906 77.8282 165.778C79.2347 162.1 81.7878 155.226 83.0882 150.455V150.38C84.7283 144.351 88.5711 130.211 87.2973 116.203C86.2198 104.033 85.6678 104.033 85.0892 104.033ZM82.154 150.104V150.179C81.0288 154.313 78.9693 160.062 77.5044 163.883C77.5044 163.459 77.5044 163.002 77.5044 162.541C77.4301 159.844 78.911 131.198 80.1583 125.004C81.2198 119.887 84.102 109.553 85.1052 106.023C85.3705 107.355 85.7846 110.2 86.3366 116.278C87.5786 130.126 83.7835 144.128 82.154 150.11V150.104Z" fill="#000502"/>
<path d="M75.1691 165.168C75.6468 167.854 77.8973 169.945 80.4769 174.722H84.118C82.1435 170.826 80.2646 167.19 78.7518 165.009C75.9015 160.916 75.0151 164.292 75.1691 165.168Z" fill="#2A685B"/>
<path d="M79.1393 164.722C78.1149 163.246 77.2125 162.53 76.3845 162.53C76.1716 162.529 75.9613 162.577 75.7693 162.669C75.5772 162.76 75.4084 162.894 75.2752 163.061C74.8099 163.687 74.5977 164.466 74.6807 165.242C74.9833 166.941 75.9546 168.427 77.1913 170.29C78.0352 171.569 78.996 173.029 80.0204 174.934C80.0619 175.014 80.1244 175.081 80.2011 175.127C80.2778 175.174 80.3658 175.199 80.4556 175.2H84.0968C84.1813 175.199 84.2642 175.176 84.3377 175.134C84.4112 175.092 84.4728 175.033 84.5168 174.961C84.5609 174.888 84.5859 174.806 84.5894 174.722C84.593 174.637 84.5751 174.553 84.5373 174.478C82.5681 170.608 80.6785 166.93 79.1393 164.722ZM80.7316 174.223C79.7391 172.402 78.8155 171.001 77.9981 169.759C76.7826 167.917 75.875 166.574 75.6361 165.083C75.6078 164.597 75.7423 164.115 76.0183 163.713C76.0557 163.656 76.1068 163.608 76.1669 163.575C76.2271 163.541 76.2945 163.523 76.3633 163.522C76.5756 163.522 77.1966 163.692 78.3006 165.285C79.7072 167.312 81.4429 170.635 83.2687 174.223H80.7316Z" fill="#000502"/>
<path d="M76.4694 165.29L55.079 144.993C49.9187 140.097 44.1324 135.906 37.8711 132.53C34.5007 130.715 31.2629 128.932 30.2544 128.236C27.4254 126.326 31.0241 129.51 39.49 140.609C47.9559 151.708 68.2901 163.072 73.6404 164.85C78.9906 166.628 77.7274 166.463 76.4694 165.29Z" fill="#2A685B"/>
<path d="M77.6318 165.603C77.3446 165.4 77.0699 165.18 76.8091 164.945L55.4239 144.637C50.2318 139.708 44.4077 135.49 38.1046 132.095C33.9273 129.844 31.3743 128.379 30.5144 127.848C29.7607 127.318 29.5484 127.249 29.3361 127.249C29.2343 127.247 29.1341 127.274 29.0475 127.328C28.9609 127.382 28.8916 127.459 28.8478 127.551C28.6514 127.965 28.7788 128.124 30.9391 130.736C32.611 132.753 35.4135 136.123 39.0971 140.943C47.6799 152.174 68.2316 163.612 73.4811 165.359C74.9726 165.858 75.9651 166.208 76.5543 166.42C76.8714 166.566 77.2072 166.668 77.5521 166.723C77.6594 166.72 77.7635 166.686 77.8507 166.623C77.9378 166.561 78.004 166.473 78.0405 166.372C78.1572 165.964 77.8918 165.773 77.6318 165.603ZM73.7783 164.377C68.6032 162.657 48.3327 151.378 39.8721 140.306C36.1566 135.47 33.3647 132.089 31.6875 130.067C31.4804 129.823 31.2841 129.584 31.1036 129.361C32.4252 130.136 34.6067 131.346 37.6216 132.97C43.8456 136.322 49.5965 140.486 54.7233 145.354L75.3122 164.897C74.8929 164.743 74.3834 164.573 73.7783 164.377Z" fill="#000502"/>
<path d="M80.7422 172.848C44.1184 164.753 31.0666 165.258 26.3373 165.714C19.538 166.367 23.7896 166.823 23.7896 166.823C50.1428 179.27 79.7125 173.32 79.7125 173.32C82.8017 173.299 80.7422 172.848 80.7422 172.848Z" fill="#2A685B"/>
<path d="M80.8483 172.365C58.7466 167.477 42.0589 164.998 31.2575 164.998C29.4476 164.998 27.8234 165.072 26.2894 165.221C22.1759 165.619 21.9848 165.911 21.9795 166.442C21.9795 166.845 22.2661 167.148 23.6514 167.307C37.5685 173.862 52.3666 175.237 62.34 175.237C68.1771 175.273 74.0062 174.797 79.7602 173.814C81.2464 173.814 81.8568 173.74 81.9151 173.183C81.9735 172.625 81.2411 172.45 80.8483 172.365ZM62.34 174.244C52.494 174.244 37.9241 172.891 24.1875 166.463C24.7183 166.389 25.4136 166.298 26.385 166.208C27.8871 166.065 29.4794 165.991 31.2575 165.991C41.7086 165.991 57.7381 168.337 78.9162 172.96C73.4348 173.837 67.8911 174.266 62.34 174.244Z" fill="#000502"/>
<path d="M76.719 168.602C76.719 168.602 53.6089 154.987 37.0751 150.863C20.5413 146.739 16.7781 147.843 20.8916 148.873C21.6138 149.177 22.2907 149.578 22.9033 150.067C34.1823 157.248 48.1525 162.275 57.0536 165.401C65.9548 168.527 79.5056 170.242 79.5056 170.242C80.7423 170.412 76.719 168.602 76.719 168.602Z" fill="#2A685B"/>
<path d="M76.9631 168.161C76.0926 167.631 53.4071 154.404 37.2077 150.38C26.1675 147.642 21.7249 147.429 20.6208 147.429C19.8194 147.429 18.9542 147.482 18.8799 148.114C18.8109 148.645 19.347 148.995 20.7854 149.351C21.4437 149.633 22.0599 150.004 22.6166 150.455L22.6537 150.481C34.4742 158.013 49.6226 163.321 56.9049 165.874C65.7583 168.974 79.3251 170.72 79.4578 170.741H79.6595C79.7919 170.75 79.9231 170.711 80.0299 170.633C80.1367 170.554 80.2123 170.44 80.2433 170.311C80.3123 169.918 80.3601 169.695 76.9631 168.161ZM57.234 164.929C49.9783 162.418 34.9094 157.111 23.1898 149.68C22.5681 149.186 21.8847 148.776 21.1569 148.459C22.8501 148.533 27.3724 148.99 36.9529 151.368C53.2479 155.412 76.2306 168.915 76.4642 169.053H76.5119L77.34 169.435C73.1256 168.788 63.8263 167.243 57.2181 164.929H57.234Z" fill="#000502"/>
<path d="M199.865 104.293L107.265 49.2296C106.211 48.6038 105.009 48.2683 103.783 48.2571C102.557 48.246 101.349 48.5596 100.283 49.1661C99.2175 49.7726 98.3312 50.6504 97.7144 51.7103C97.0977 52.7703 96.7724 53.9746 96.7717 55.2009V167.53C96.7689 168.77 97.0981 169.988 97.7253 171.058C98.3525 172.127 99.2548 173.01 100.338 173.613C101.422 174.215 102.647 174.517 103.887 174.486C105.126 174.456 106.335 174.093 107.387 173.437L199.971 116.172C200.988 115.544 201.825 114.665 202.402 113.619C202.979 112.574 203.277 111.397 203.266 110.202C203.256 109.008 202.937 107.836 202.341 106.801C201.745 105.766 200.892 104.902 199.865 104.293Z" fill="white"/>
<path d="M200.104 103.862L107.52 48.8312C106.393 48.1565 105.107 47.7927 103.793 47.7769C102.479 47.7611 101.185 48.0938 100.042 48.7412C98.8987 49.3886 97.9476 50.3275 97.2855 51.4622C96.6234 52.5969 96.2739 53.8868 96.2727 55.2006V167.53C96.2684 168.857 96.6198 170.161 97.2902 171.307C97.9607 172.453 98.9259 173.398 100.085 174.044C101.245 174.691 102.556 175.015 103.883 174.982C105.21 174.95 106.505 174.563 107.631 173.862L200.231 116.591C201.325 115.92 202.226 114.979 202.848 113.857C203.47 112.736 203.79 111.472 203.779 110.19C203.768 108.907 203.425 107.65 202.784 106.539C202.143 105.428 201.225 104.503 200.12 103.852L200.104 103.862ZM199.695 115.752L107.111 173.034C106.135 173.643 105.013 173.979 103.862 174.007C102.711 174.036 101.574 173.755 100.569 173.195C99.5635 172.634 98.7268 171.815 98.1458 170.821C97.5648 169.828 97.2607 168.696 97.2653 167.545V55.2006C97.2681 53.4873 97.9503 51.8451 99.1623 50.6342C100.374 49.4232 102.017 48.7424 103.73 48.741C104.889 48.741 106.025 49.0586 107.016 49.6592L199.616 104.717C200.569 105.284 201.359 106.087 201.912 107.049C202.464 108.011 202.759 109.099 202.769 110.208C202.779 111.317 202.502 112.409 201.967 113.38C201.431 114.352 200.654 115.168 199.711 115.752H199.695Z" fill="#000502"/>
<path d="M193.607 109.187L109.112 58.9433C108.151 58.377 107.057 58.0745 105.941 58.0666C104.825 58.0586 103.727 58.3454 102.757 58.898C101.788 59.4506 100.982 60.2494 100.42 61.2136C99.8581 62.1778 99.561 63.2732 99.5584 64.3891V166.893C99.5579 168.022 99.859 169.131 100.431 170.104C101.002 171.078 101.823 171.881 102.809 172.431C103.795 172.981 104.91 173.257 106.039 173.232C107.168 173.206 108.269 172.88 109.229 172.286L193.729 120.025C194.655 119.45 195.416 118.646 195.94 117.691C196.464 116.736 196.733 115.661 196.72 114.572C196.708 113.482 196.415 112.414 195.87 111.471C195.325 110.528 194.545 109.741 193.607 109.187Z" fill="#002D3A"/>
<path d="M193.862 108.757L109.341 58.5185C108.304 57.8967 107.121 57.5615 105.912 57.5473C104.704 57.5331 103.513 57.8404 102.462 58.4377C101.411 59.0349 100.538 59.9007 99.9317 60.9464C99.3254 61.9921 99.008 63.1802 99.0118 64.3889V166.893C99.0073 168.112 99.3297 169.31 99.9453 170.362C100.561 171.414 101.447 172.282 102.512 172.876C103.577 173.469 104.782 173.766 106 173.736C107.219 173.706 108.407 173.35 109.442 172.705L193.942 120.45C194.938 119.831 195.759 118.966 196.324 117.939C196.89 116.912 197.182 115.756 197.172 114.583C197.161 113.41 196.85 112.26 196.266 111.242C195.683 110.224 194.848 109.374 193.841 108.773L193.862 108.757ZM193.443 119.606L108.943 171.861C108.025 172.434 106.967 172.741 105.885 172.748C104.339 172.739 102.859 172.121 101.766 171.028C100.673 169.935 100.055 168.455 100.047 166.909V64.3889C100.047 62.8404 100.662 61.3553 101.757 60.2604C102.852 59.1654 104.337 58.5503 105.885 58.5503C106.935 58.549 107.965 58.8354 108.863 59.3783L193.363 109.622C194.228 110.134 194.946 110.861 195.447 111.733C195.949 112.604 196.217 113.59 196.225 114.595C196.234 115.601 195.983 116.591 195.496 117.471C195.01 118.35 194.304 119.089 193.448 119.617L193.443 119.606Z" fill="#000502"/>
<mask id="mask0_554_1549" style="mask-type:luminance" maskUnits="userSpaceOnUse" x="99" y="58" width="98" height="116">
<path d="M193.703 120.025L109.203 172.286C108.242 172.88 107.141 173.206 106.012 173.232C104.884 173.257 103.769 172.981 102.783 172.431C101.797 171.881 100.975 171.078 100.404 170.104C99.8324 169.131 99.5313 168.022 99.5317 166.893V64.3891C99.5343 63.2732 99.8315 62.1778 100.393 61.2136C100.955 60.2494 101.761 59.4506 102.731 58.898C103.7 58.3454 104.799 58.0586 105.914 58.0666C107.03 58.0745 108.124 58.377 109.086 58.9433L193.581 109.187C194.519 109.741 195.298 110.528 195.843 111.471C196.389 112.414 196.682 113.482 196.694 114.572C196.706 115.661 196.437 116.736 195.913 117.691C195.389 118.646 194.628 119.45 193.703 120.025Z" fill="white"/>
</mask>
<g mask="url(#mask0_554_1549)">
<g style="mix-blend-mode:multiply" opacity="0.7">
<path d="M153.194 94.261C151.621 93.7713 149.964 93.6105 148.326 93.7886C144.722 94.192 141.585 96.1931 139.149 99.3141L100.317 116.485L93.3429 119.569C90.8004 119.855 89.1444 123.751 89.6274 128.268C90.1104 132.785 92.6104 136.23 95.1528 135.933L101.91 137.169L102.366 137.254L119.882 180.369C119.882 180.369 130.848 184.122 131.522 181.208C132.196 178.294 129.303 174.308 127.451 171.84C126.108 170.046 122.143 150.879 120.02 140.492L144.749 145.03C146.174 146.163 147.792 147.028 149.526 147.583C151.099 148.072 152.756 148.231 154.393 148.05C164.16 146.952 170.476 134.176 168.767 118.964C167.429 106.809 161.012 96.6495 153.194 94.261Z" fill="#647794"/>
</g>
<path d="M124.542 128.655L106.814 128.591L125.694 175.157C125.694 175.157 136.654 178.915 137.334 175.995C138.013 173.076 135.11 169.095 133.263 166.627C131.416 164.159 124.542 128.655 124.542 128.655Z" fill="#2A685B"/>
<path d="M125.03 128.56C125.008 128.446 124.947 128.344 124.858 128.271C124.769 128.197 124.658 128.157 124.542 128.156L106.814 128.093C106.733 128.095 106.653 128.116 106.582 128.154C106.51 128.191 106.448 128.245 106.4 128.31C106.357 128.379 106.33 128.457 106.322 128.538C106.313 128.619 106.324 128.701 106.352 128.777L125.264 175.322C125.29 175.387 125.33 175.446 125.382 175.495C125.433 175.543 125.494 175.58 125.561 175.603C125.795 175.682 131.368 177.577 134.844 177.577C136.601 177.577 137.61 177.073 137.843 176.086C138.592 172.853 135.396 168.597 133.682 166.304C132.35 164.541 127.78 142.779 125.03 128.56ZM136.851 175.858C136.713 176.457 135.667 176.585 134.818 176.585C131.872 176.585 127.127 175.083 126.071 174.732L107.552 129.085L124.133 129.144C125.126 134.271 131.033 164.478 132.865 166.893C134.367 168.904 137.472 173.082 136.851 175.858Z" fill="#000502"/>
</g>
<path d="M99.1656 114.335C96.6178 114.621 94.9671 118.512 95.4501 123.034C95.9331 127.556 98.4331 130.996 100.976 130.693L159.361 141.41L153.634 90.2319L99.1656 114.335Z" fill="#D4D9D7"/>
<path d="M153.884 89.8128C153.814 89.7804 153.738 89.7637 153.661 89.7637C153.584 89.7637 153.508 89.7804 153.438 89.8128L99.033 113.852C96.2145 114.234 94.4417 118.268 94.9831 123.087C95.5245 127.907 98.1678 131.447 100.981 131.198L159.292 141.898H159.383C159.508 141.895 159.628 141.848 159.722 141.765C159.777 141.711 159.819 141.645 159.846 141.573C159.872 141.5 159.883 141.423 159.876 141.346L154.128 90.1843C154.119 90.1077 154.092 90.0343 154.05 89.9698C154.007 89.9054 153.95 89.8516 153.884 89.8128ZM101.092 130.21C101.063 130.205 101.032 130.205 101.002 130.21H100.949C98.6986 130.46 96.4321 127.121 95.9651 122.981C95.498 118.841 96.9895 115.083 99.2187 114.828C99.27 114.824 99.3202 114.812 99.3674 114.791L153.22 90.9752L158.815 140.799L101.092 130.21Z" fill="#000502"/>
<path d="M106.156 111.246L99.1814 114.335C96.6337 114.622 94.983 118.512 95.466 123.035C95.949 127.557 98.449 130.996 100.991 130.694L107.732 131.936C102.467 123.008 104.564 115.031 106.156 111.246Z" fill="#F7BC48"/>
<path d="M106.597 111.463C106.633 111.374 106.642 111.276 106.623 111.182C106.604 111.087 106.558 111.001 106.49 110.932C106.419 110.869 106.332 110.827 106.239 110.809C106.146 110.791 106.049 110.799 105.96 110.831L99.0596 113.889C96.2411 114.271 94.4683 118.305 95.0097 123.124C95.5511 127.944 98.1944 131.484 101.008 131.234L107.685 132.455C107.713 132.46 107.742 132.46 107.77 132.455C107.849 132.453 107.927 132.433 107.998 132.396C108.069 132.359 108.131 132.307 108.178 132.243C108.225 132.162 108.249 132.071 108.249 131.978C108.249 131.884 108.225 131.793 108.178 131.712C103.046 123.007 104.983 115.274 106.597 111.463ZM101.092 130.231C101.063 130.226 101.032 130.226 101.002 130.231H100.949C98.6986 130.481 96.4322 127.142 95.9651 123.002C95.498 118.862 96.9895 115.104 99.2188 114.849C99.27 114.845 99.3202 114.833 99.3674 114.812L105.243 112.211C104.115 115.315 103.669 118.625 103.936 121.916C104.204 125.207 105.178 128.402 106.793 131.282L101.092 130.231Z" fill="#000502"/>
<path d="M159.011 89.0224C157.44 88.5343 155.785 88.3753 154.149 88.5553C144.372 89.6487 138.061 102.44 139.77 117.642C141.14 129.797 147.551 139.935 155.375 142.344C156.948 142.834 158.605 142.995 160.242 142.817C170.009 141.713 176.325 128.937 174.616 113.725C173.252 101.57 166.835 91.4109 159.011 89.0224Z" fill="white"/>
<path d="M159.16 88.5492C157.522 88.0383 155.796 87.872 154.091 88.0609C144.048 89.1862 137.541 102.206 139.277 117.694C140.667 130.04 147.238 140.375 155.232 142.821C156.868 143.33 158.592 143.497 160.296 143.31C170.343 142.174 176.845 129.159 175.11 113.671C173.719 101.325 167.164 90.9961 159.16 88.5492ZM160.184 142.323C158.614 142.492 157.027 142.339 155.519 141.871C147.886 139.536 141.612 129.552 140.264 117.583C138.587 102.647 144.712 90.1097 154.202 89.0429C154.617 88.9987 155.033 88.9757 155.45 88.9739C156.609 88.9801 157.761 89.159 158.868 89.5046C166.506 91.8401 172.779 101.829 174.122 113.793C175.8 128.719 169.68 141.256 160.184 142.323Z" fill="#000502"/>
<path d="M154.377 90.6144C145.837 91.5751 140.174 103.576 141.729 117.419C143.284 131.262 151.469 141.713 160.009 140.773C168.549 139.834 174.213 127.811 172.657 113.969C171.102 100.126 162.918 89.6537 154.377 90.6144Z" fill="#EF490F"/>
<path d="M155.471 90.0571C155.088 90.057 154.705 90.0783 154.324 90.1208C145.524 91.1081 139.654 103.39 141.235 117.477C142.737 130.842 150.503 141.309 158.916 141.309C159.299 141.309 159.681 141.288 160.062 141.246C164.372 140.763 168.103 137.62 170.571 132.397C173.04 127.175 173.915 120.678 173.151 113.889C171.649 100.524 163.884 90.0571 155.471 90.0571ZM169.674 131.989C167.36 136.888 163.91 139.834 159.956 140.28C159.603 140.316 159.249 140.334 158.894 140.333C150.98 140.333 143.645 130.248 142.201 117.382C140.678 103.831 146.156 92.0476 154.409 91.124C154.761 91.0821 155.116 91.0626 155.471 91.0656C163.385 91.0656 170.72 101.15 172.169 114.017C172.907 120.609 172.02 126.989 169.674 131.973V131.989Z" fill="#000502"/>
<path d="M152.159 110.826L141.655 109.233C141.388 111.958 141.413 114.704 141.729 117.423C142.004 119.933 142.52 122.411 143.268 124.822L153.183 120.045L152.599 111.022L152.159 110.826Z" fill="#002D3A"/>
<path d="M152.78 110.535L152.344 110.365C152.309 110.349 152.272 110.34 152.233 110.339L141.729 108.746C141.595 108.731 141.46 108.767 141.352 108.847C141.248 108.932 141.179 109.053 141.161 109.187C140.892 111.949 140.917 114.731 141.235 117.488C141.511 120.026 142.028 122.532 142.78 124.972C142.801 125.04 142.836 125.103 142.884 125.156C142.932 125.209 142.99 125.252 143.056 125.28C143.118 125.306 143.185 125.321 143.252 125.322C143.328 125.323 143.403 125.305 143.47 125.269L153.395 120.487C153.484 120.445 153.558 120.376 153.607 120.291C153.657 120.206 153.679 120.107 153.671 120.009L153.088 110.986C153.087 110.889 153.057 110.794 153.003 110.713C152.948 110.633 152.87 110.571 152.78 110.535ZM143.576 124.128C142.936 121.919 142.492 119.658 142.249 117.371C141.958 114.859 141.917 112.323 142.127 109.802L152.058 111.31L152.148 111.342L152.679 119.739L143.576 124.128Z" fill="#000502"/>
<path d="M152.153 110.826C150.72 110.985 149.791 113.183 150.078 115.725C150.365 118.268 151.755 120.2 153.188 120.04C154.622 119.881 155.556 117.689 155.269 115.141C154.982 112.594 153.587 110.667 152.153 110.826Z" fill="white"/>
<path d="M152.1 110.333C150.37 110.529 149.261 112.923 149.584 115.779C149.887 118.496 151.368 120.556 153.024 120.556C153.098 120.561 153.173 120.561 153.247 120.556C154.977 120.359 156.081 117.971 155.763 115.11C155.444 112.249 153.841 110.137 152.1 110.333ZM153.135 119.547H153.024C152.053 119.547 150.837 118.061 150.572 115.662C150.306 113.263 151.193 111.416 152.212 111.31H152.334C153.305 111.31 154.515 112.79 154.786 115.195C155.057 117.599 154.149 119.425 153.135 119.547Z" fill="#000502"/>
<path d="M290.904 60.1475L260.952 60.2324C258.275 60.2408 255.71 61.3104 253.82 63.2067C251.929 65.1031 250.868 67.6715 250.868 70.3491V78.7778C250.868 81.4554 251.929 84.0238 253.82 85.9202C255.71 87.8165 258.275 88.8861 260.952 88.8945H262.455C263.117 88.8958 263.772 89.0288 264.382 89.2858C264.992 89.5428 265.545 89.9186 266.008 90.3914C266.471 90.8641 266.836 91.4244 267.081 92.0395C267.325 92.6546 267.445 93.3122 267.433 93.9741L267.354 97.8435L274.88 90.3276C275.819 89.3928 277.09 88.868 278.415 88.868L290.899 88.8945C292.229 88.8966 293.546 88.6365 294.775 88.129C296.005 87.6215 297.122 86.8767 298.063 85.937C299.004 84.9974 299.751 83.8815 300.26 82.653C300.769 81.4246 301.032 80.1077 301.032 78.7778V70.2641C301.032 68.9347 300.77 67.6183 300.261 66.3902C299.751 65.1621 299.005 64.0464 298.065 63.1068C297.124 62.1673 296.008 61.4223 294.779 60.9145C293.551 60.4067 292.234 60.1461 290.904 60.1475Z" fill="#F7BC48"/>
<path d="M290.905 59.6539L260.953 59.7335C258.143 59.7419 255.451 60.8641 253.467 62.8539C251.483 64.8438 250.369 67.5391 250.369 70.3491V78.7779C250.369 81.5933 251.487 84.2934 253.478 86.2842C255.469 88.275 258.169 89.3935 260.984 89.3935H262.487C263.083 89.394 263.673 89.5135 264.222 89.7448C264.772 89.9762 265.27 90.3147 265.687 90.7407C266.104 91.1667 266.432 91.6717 266.652 92.2259C266.871 92.7802 266.978 93.3727 266.966 93.9688L266.892 97.8382C266.89 97.9373 266.918 98.0346 266.972 98.1178C267.026 98.201 267.103 98.2663 267.195 98.3052C267.284 98.3398 267.381 98.3482 267.475 98.3294C267.569 98.3106 267.656 98.2654 267.725 98.1991L275.252 90.6833C275.67 90.2654 276.167 89.9345 276.713 89.7095C277.26 89.4845 277.845 89.3698 278.437 89.3722H290.936C292.33 89.3722 293.711 89.0976 294.999 88.5642C296.287 88.0307 297.457 87.2487 298.443 86.263C299.429 85.2772 300.21 84.107 300.744 82.819C301.277 81.5311 301.552 80.1507 301.552 78.7566V70.2641C301.551 68.8679 301.275 67.4854 300.739 66.196C300.204 64.9066 299.419 63.7355 298.43 62.7499C297.441 61.7643 296.267 60.9835 294.976 60.4523C293.684 59.921 292.301 59.6497 290.905 59.6539ZM300.554 78.7619C300.55 81.3151 299.532 83.7622 297.725 85.5655C295.918 87.3689 293.468 88.3811 290.915 88.3797H278.421C277.702 88.3759 276.989 88.5146 276.324 88.7879C275.659 89.0613 275.054 89.4637 274.546 89.972L267.89 96.6174L267.943 93.9635C267.957 93.2354 267.826 92.5119 267.557 91.8351C267.289 91.1583 266.888 90.5417 266.379 90.0214C265.869 89.5011 265.261 89.0875 264.59 88.8047C263.919 88.5219 263.199 88.3756 262.471 88.3744H260.969C258.42 88.3673 255.978 87.3507 254.177 85.5471C252.377 83.7435 251.364 81.2999 251.361 78.7513V70.3491C251.366 67.8037 252.376 65.3633 254.173 63.5604C255.97 61.7576 258.407 60.7386 260.953 60.726L290.931 60.6464C293.482 60.6478 295.928 61.6614 297.732 63.4646C299.536 65.2678 300.551 67.7133 300.554 70.2641V78.7619Z" fill="#000502"/>
<path d="M276.138 71.6499H274.694V73.7942H272.534V75.2751H274.694V77.4195H276.138V75.2751H278.304V73.7942H276.138V71.6499Z" fill="#000502"/>
<path d="M282.338 73.0879C281.968 73.0914 281.605 73.1804 281.276 73.348L281.526 71.9468H284.498V70.4712H280.305L279.493 74.7652L280.777 74.951C280.923 74.7661 281.108 74.6159 281.32 74.5113C281.531 74.4066 281.762 74.3501 281.998 74.3459C282.165 74.3406 282.331 74.3721 282.484 74.4381C282.637 74.5042 282.774 74.6032 282.884 74.728C283.135 75.0532 283.256 75.4599 283.224 75.8692C283.257 76.3008 283.134 76.7298 282.879 77.0794C282.779 77.2059 282.652 77.308 282.506 77.3779C282.361 77.4478 282.202 77.4837 282.04 77.4828C281.754 77.4824 281.48 77.3699 281.276 77.1696C281.044 76.9447 280.902 76.6426 280.878 76.3204L279.286 76.4849C279.349 77.1253 279.657 77.7166 280.146 78.1357C280.671 78.56 281.333 78.7788 282.009 78.7514C282.442 78.7684 282.874 78.6774 283.264 78.4865C283.654 78.2957 283.99 78.011 284.243 77.6579C284.635 77.1322 284.843 76.4928 284.838 75.8374C284.852 75.4745 284.795 75.1124 284.67 74.7717C284.544 74.431 284.352 74.1185 284.105 73.8523C283.88 73.6086 283.607 73.4148 283.302 73.2832C282.998 73.1515 282.669 73.085 282.338 73.0879Z" fill="#000502"/>
<path d="M288.362 70.3229C288.006 70.306 287.651 70.3736 287.327 70.5203C287.002 70.667 286.716 70.8885 286.494 71.1668C285.963 71.8515 285.687 72.9661 285.687 74.5213C285.687 76.0765 285.931 77.2071 286.425 77.8228C286.651 78.1201 286.945 78.3593 287.281 78.5208C287.618 78.6823 287.989 78.7614 288.362 78.7516C288.719 78.7685 289.075 78.7009 289.4 78.5542C289.726 78.4076 290.012 78.186 290.236 77.9077C290.774 77.2248 291.043 76.1013 291.043 74.5372C291.043 72.9732 290.775 71.8533 290.241 71.1774C290.018 70.8964 289.731 70.6724 289.405 70.5238C289.078 70.3752 288.721 70.3064 288.362 70.3229ZM289.227 76.602C289.179 76.8499 289.057 77.0775 288.877 77.2548C288.733 77.373 288.553 77.4377 288.367 77.4377C288.182 77.4377 288.001 77.373 287.858 77.2548C287.664 77.0551 287.535 76.8018 287.486 76.5277C287.363 75.87 287.313 75.2006 287.338 74.5319C287.315 73.8397 287.37 73.147 287.502 72.4672C287.549 72.2188 287.672 71.9908 287.853 71.8143C288.001 71.689 288.19 71.6229 288.383 71.6286C288.577 71.6218 288.767 71.6881 288.914 71.8143C289.106 72.0132 289.236 72.2643 289.286 72.5362C289.487 73.8822 289.487 75.2507 289.286 76.5967L289.227 76.602Z" fill="#000502"/>
<path d="M294.779 70.3231C294.422 70.3053 294.067 70.3726 293.741 70.5193C293.415 70.666 293.129 70.888 292.906 71.167C292.375 71.8517 292.099 72.9664 292.099 74.5216C292.099 76.0767 292.343 77.2073 292.837 77.823C293.064 78.1207 293.358 78.3602 293.696 78.5217C294.034 78.6832 294.405 78.7621 294.779 78.7519C295.135 78.7683 295.49 78.7005 295.815 78.5538C296.139 78.4072 296.425 78.1859 296.648 77.9079C297.178 77.2232 297.46 76.098 297.46 74.5375C297.46 72.977 297.189 71.8517 296.653 71.1777C296.43 70.8974 296.144 70.6738 295.819 70.5253C295.493 70.3767 295.137 70.3075 294.779 70.3231ZM295.644 76.6022C295.596 76.8502 295.474 77.0778 295.294 77.2551C295.151 77.3733 294.971 77.4379 294.785 77.4379C294.599 77.4379 294.419 77.3733 294.275 77.2551C294.081 77.0553 293.952 76.802 293.904 76.5279C293.783 75.8699 293.735 75.2007 293.76 74.5322C293.736 73.8401 293.789 73.1476 293.919 72.4674C293.966 72.219 294.089 71.9911 294.27 71.8146C294.414 71.695 294.595 71.6296 294.782 71.6296C294.969 71.6296 295.15 71.695 295.294 71.8146C295.486 72.0128 295.614 72.2644 295.66 72.5364C295.862 73.8824 295.862 75.2509 295.66 76.5969L295.644 76.6022Z" fill="#000502"/>
<path d="M261.377 66.6026C259.802 66.5973 258.26 67.0598 256.947 67.9314C255.634 68.8031 254.61 70.0447 254.003 71.499C253.396 72.9534 253.235 74.555 253.539 76.1012C253.843 77.6474 254.599 79.0685 255.712 80.1846C256.824 81.3007 258.243 82.0616 259.788 82.371C261.333 82.6804 262.935 82.5242 264.392 81.9224C265.848 81.3206 267.093 80.3002 267.969 78.9903C268.845 77.6804 269.313 76.1401 269.313 74.5643C269.313 72.4573 268.477 70.4362 266.99 68.9439C265.503 67.4515 263.484 66.6096 261.377 66.6026Z" fill="white"/>
<path d="M261.377 66.103C259.709 66.103 258.078 66.5977 256.691 67.5244C255.305 68.4512 254.223 69.7684 253.585 71.3095C252.947 72.8507 252.78 74.5465 253.105 76.1825C253.431 77.8186 254.234 79.3214 255.413 80.5009C256.593 81.6804 258.096 82.4837 259.732 82.8092C261.368 83.1346 263.064 82.9676 264.605 82.3292C266.146 81.6908 267.463 80.6098 268.39 79.2228C269.317 77.8359 269.811 76.2052 269.811 74.5371C269.81 72.3007 268.921 70.1563 267.339 68.5749C265.758 66.9935 263.614 66.1044 261.377 66.103ZM261.377 81.9733C259.908 81.9733 258.471 81.5375 257.249 80.721C256.027 79.9045 255.074 78.7439 254.512 77.3861C253.95 76.0283 253.802 74.5342 254.089 73.0927C254.376 71.6513 255.084 70.3272 256.123 69.288C257.162 68.2487 258.486 67.541 259.928 67.2543C261.369 66.9676 262.863 67.1147 264.221 67.6772C265.579 68.2396 266.739 69.192 267.556 70.414C268.372 71.636 268.808 73.0727 268.808 74.5424C268.808 76.5132 268.025 78.4033 266.632 79.7969C265.238 81.1904 263.348 81.9733 261.377 81.9733Z" fill="#000502"/>
<path d="M264.392 72.5683C263.569 72.5364 262.8 72.5683 262.8 72.5683C262.8 72.5683 262.656 72.6266 262.757 70.6628C262.858 68.6989 261.754 69.2137 261.696 69.235V69.8613C261.71 70.4286 261.545 70.9861 261.223 71.4536L260.119 73.046H259.588V77.7487H260.73C260.73 77.7487 263.877 78.1892 264.487 78.1786C264.577 78.177 264.666 78.1646 264.753 78.1414C265.051 78.0516 265.311 77.8674 265.495 77.6165C265.679 77.3657 265.776 77.0618 265.772 76.7508V74.0544C265.781 73.6758 265.641 73.3087 265.384 73.0311C265.126 72.7536 264.77 72.5875 264.392 72.5683Z" fill="#D4D9D7"/>
<path d="M264.408 72.0693C263.957 72.0693 263.511 72.0693 263.203 72.0693C263.203 71.8199 263.203 71.4006 263.235 70.684C263.28 70.3914 263.266 70.0928 263.194 69.8056C263.122 69.5185 262.994 69.2487 262.816 69.012C262.712 68.9019 262.587 68.8144 262.448 68.7551C262.309 68.6957 262.16 68.6657 262.009 68.667C261.825 68.6706 261.645 68.7122 261.478 68.7891C261.394 68.8313 261.323 68.8966 261.274 68.9774C261.225 69.0582 261.2 69.1512 261.202 69.2456V69.8719C261.211 70.3318 261.076 70.7829 260.815 71.1617L259.854 72.5523H259.594C259.464 72.5537 259.34 72.6064 259.248 72.6988C259.157 72.7912 259.105 72.916 259.105 73.046V77.7487C259.106 77.8152 259.12 77.881 259.146 77.942C259.173 78.0031 259.211 78.0583 259.259 78.1043C259.356 78.1979 259.486 78.251 259.62 78.2529H260.719C261.085 78.3007 263.824 78.6829 264.488 78.6829H264.519C264.654 78.676 264.787 78.6546 264.917 78.6192C265.319 78.4995 265.671 78.2525 265.92 77.9155C266.169 77.5785 266.301 77.1698 266.298 76.7508V74.0545C266.308 73.5414 266.115 73.0451 265.761 72.6734C265.407 72.3017 264.921 72.0846 264.408 72.0693ZM265.305 76.719C265.31 76.9236 265.247 77.124 265.126 77.2891C265.005 77.4541 264.833 77.5747 264.636 77.6319C264.592 77.6479 264.545 77.6569 264.498 77.6584C264.01 77.6584 261.966 77.3878 260.825 77.2285H260.751H260.109V73.5131H260.162C260.236 73.5055 260.309 73.4822 260.373 73.4446C260.438 73.4071 260.495 73.3563 260.539 73.2954L261.637 71.7031C262.011 71.164 262.21 70.5227 262.205 69.8666C262.262 70.1099 262.28 70.3607 262.258 70.6097C262.157 72.6001 262.258 72.7328 262.423 72.8814C262.52 72.9802 262.651 73.0373 262.789 73.0407C262.885 73.0407 263.617 73.0407 264.381 73.0407C264.631 73.0489 264.867 73.1538 265.04 73.3331C265.214 73.5123 265.31 73.752 265.31 74.0014L265.305 76.719Z" fill="#000502"/>
<path d="M256.966 73.0879H258.734V77.7641H256.961V73.0879H256.966Z" fill="#D4D9D7"/>
<path d="M258.734 72.5938H256.966C256.835 72.6002 256.71 72.6554 256.617 72.7486C256.524 72.8418 256.469 72.9663 256.462 73.098V77.7742C256.47 77.9049 256.526 78.0281 256.619 78.1202C256.712 78.2123 256.836 78.2668 256.966 78.2731H258.734C258.869 78.2733 259 78.2218 259.098 78.1291C259.197 78.0363 259.257 77.9093 259.265 77.7742V73.098C259.258 72.9619 259.199 72.8336 259.1 72.7397C259.001 72.6458 258.87 72.5936 258.734 72.5938ZM258.246 77.2858H257.455V73.5704H258.246V77.2858Z" fill="#000502"/>
<defs>
<linearGradient id="paint0_linear_554_1549" x1="177.503" y1="143.538" x2="176.118" y2="164.35" gradientUnits="userSpaceOnUse">
<stop stop-color="#FE757C"/>
<stop offset="0.38" stop-color="#FE908B"/>
<stop offset="0.75" stop-color="#FEA495"/>
<stop offset="1" stop-color="#FEAB99"/>
</linearGradient>
<linearGradient id="paint1_linear_554_1549" x1="188.947" y1="63.2478" x2="183.045" y2="73.237" gradientUnits="userSpaceOnUse">
<stop stop-color="#FE757C"/>
<stop offset="0.38" stop-color="#FE908B"/>
<stop offset="0.75" stop-color="#FEA495"/>
<stop offset="1" stop-color="#FEAB99"/>
</linearGradient>
<linearGradient id="paint2_linear_554_1549" x1="192.28" y1="49.325" x2="199.637" y2="37.5205" gradientUnits="userSpaceOnUse">
<stop stop-color="#FE757C"/>
<stop offset="0.38" stop-color="#FE908B"/>
<stop offset="0.75" stop-color="#FEA495"/>
<stop offset="1" stop-color="#FEAB99"/>
</linearGradient>
</defs>
</svg>
