<svg width="211" height="160" viewBox="0 0 205 199" fill="none" xmlns="http://www.w3.org/2000/svg">
<path d="M166.851 67.2388H10.5268C9.2001 67.2364 7.88592 67.4957 6.65951 68.0017C5.43309 68.5078 4.31851 69.2508 3.37953 70.188C2.44055 71.1253 1.69562 72.2386 1.18736 73.4641C0.679094 74.6896 0.417478 76.0033 0.41748 77.33V198.1H176.942V77.33C176.942 74.6537 175.879 72.0869 173.986 70.1944C172.094 68.302 169.527 67.2388 166.851 67.2388Z" fill="white"/>
<path d="M166.851 66.8057H10.5268C7.73674 66.8104 5.06237 67.9209 3.08953 69.8937C1.11669 71.8666 0.00624653 74.5409 0.00146501 77.3309V198.1C0.0013677 198.213 0.0446053 198.32 0.122131 198.401C0.199657 198.482 0.305463 198.53 0.417413 198.534H176.942C176.998 198.535 177.054 198.523 177.105 198.501C177.157 198.479 177.204 198.447 177.243 198.406C177.282 198.366 177.312 198.318 177.332 198.265C177.351 198.213 177.36 198.157 177.358 198.1V77.3309C177.358 74.5426 176.252 71.8682 174.282 69.8948C172.312 67.9215 169.639 66.8105 166.851 66.8057ZM176.526 197.684H0.851445V77.3309C0.856225 74.7664 1.87712 72.3082 3.69056 70.4948C5.50399 68.6813 7.96217 67.6604 10.5268 67.6556H166.851C169.415 67.6604 171.874 68.6813 173.687 70.4948C175.5 72.3082 176.521 74.7664 176.526 77.3309V197.684Z" fill="#000502"/>
<path d="M166.851 67.2388H10.5268C9.2001 67.2364 7.88592 67.4957 6.65951 68.0017C5.43309 68.5078 4.31851 69.2508 3.37953 70.188C2.44055 71.1253 1.69562 72.2386 1.18736 73.4641C0.679094 74.6896 0.417478 76.0033 0.41748 77.33V83.8948H176.942V77.33C176.942 74.6537 175.879 72.0869 173.986 70.1944C172.094 68.302 169.527 67.2388 166.851 67.2388Z" fill="#2A685B"/>
<path d="M166.851 66.8057H10.5268C7.73674 66.8104 5.06237 67.9209 3.08953 69.8937C1.11669 71.8666 0.00624636 74.5409 0.00146484 77.3309L0.00146484 83.8957C0.00146484 84.006 0.0452878 84.1118 0.123293 84.1898C0.201298 84.2678 0.307096 84.3116 0.417413 84.3116H176.942C176.997 84.3116 177.051 84.3009 177.101 84.28C177.152 84.2591 177.197 84.2284 177.236 84.1898C177.275 84.1512 177.305 84.1053 177.326 84.0549C177.347 84.0044 177.358 83.9503 177.358 83.8957V77.3309C177.358 74.5426 176.252 71.8682 174.282 69.8948C172.312 67.9215 169.639 66.8105 166.851 66.8057ZM176.526 83.4797H0.851445V77.3309C0.856225 74.7664 1.87712 72.3082 3.69056 70.4948C5.50399 68.6813 7.96217 67.6604 10.5268 67.6556H166.851C169.415 67.6604 171.874 68.6813 173.687 70.4948C175.5 72.3082 176.521 74.7664 176.526 77.3309V83.4797Z" fill="#000502"/>
<path d="M160.811 80.1886L161.407 80.7854L165.892 76.3185L165.277 75.7217L160.811 80.1886Z" fill="white"/>
<path d="M160.811 76.3185L165.277 80.7854L165.892 80.1886L161.407 75.7217L160.811 76.3185Z" fill="white"/>
<path d="M154.391 75.2873C153.799 75.2802 153.218 75.449 152.723 75.7725C152.228 76.096 151.839 76.5595 151.608 77.1041C151.377 77.6487 151.312 78.2498 151.423 78.831C151.534 79.4121 151.816 79.9472 152.232 80.3682C152.647 80.7891 153.179 81.0769 153.759 81.195C154.339 81.3131 154.94 81.2562 155.488 81.0314C156.035 80.8067 156.503 80.4243 156.833 79.9328C157.162 79.4413 157.338 78.863 157.338 78.2713C157.338 77.4861 157.029 76.7326 156.477 76.174C155.925 75.6154 155.176 75.2968 154.391 75.2873ZM154.391 80.4053C153.968 80.4053 153.556 80.2801 153.205 80.0457C152.854 79.8112 152.58 79.4779 152.419 79.0879C152.257 78.698 152.215 78.2689 152.298 77.855C152.38 77.441 152.583 77.0608 152.882 76.7623C153.18 76.4639 153.56 76.2607 153.974 76.1783C154.388 76.096 154.817 76.1382 155.207 76.2997C155.597 76.4613 155.93 76.7348 156.165 77.0857C156.399 77.4367 156.525 77.8492 156.525 78.2713C156.525 78.8373 156.3 79.3801 155.899 79.7803C155.499 80.1805 154.956 80.4053 154.391 80.4053Z" fill="white"/>
<path d="M149.471 80.4053H144.932V81.2553H149.471V80.4053Z" fill="white"/>
<path d="M130.049 70.1689H18.3575C16.9186 70.1689 15.5387 70.7406 14.5212 71.758C13.5037 72.7755 12.9321 74.1554 12.9321 75.5943C12.9321 77.0333 13.5037 78.4132 14.5212 79.4307C15.5387 80.4482 16.9186 81.0198 18.3575 81.0198H130.049C131.487 81.0198 132.867 80.4482 133.885 79.4307C134.902 78.4132 135.474 77.0333 135.474 75.5943C135.474 74.1554 134.902 72.7755 133.885 71.758C132.867 70.7406 131.487 70.1689 130.049 70.1689Z" fill="white"/>
<path d="M130.049 69.7532H18.3575C17.557 69.7088 16.7559 69.8281 16.0031 70.1039C15.2503 70.3797 14.5617 70.8061 13.9793 71.3571C13.3969 71.9081 12.9331 72.572 12.616 73.3084C12.299 74.0448 12.1355 74.838 12.1355 75.6397C12.1355 76.4415 12.299 77.2347 12.616 77.9711C12.9331 78.7075 13.3969 79.3714 13.9793 79.9224C14.5617 80.4734 15.2503 80.8998 16.0031 81.1756C16.7559 81.4514 17.557 81.5707 18.3575 81.5263H130.049C130.849 81.5707 131.65 81.4514 132.403 81.1756C133.156 80.8998 133.844 80.4734 134.427 79.9224C135.009 79.3714 135.473 78.7075 135.79 77.9711C136.107 77.2347 136.271 76.4415 136.271 75.6397C136.271 74.838 136.107 74.0448 135.79 73.3084C135.473 72.572 135.009 71.9081 134.427 71.3571C133.844 70.8061 133.156 70.3797 132.403 70.1039C131.65 69.8281 130.849 69.7088 130.049 69.7532ZM130.049 80.604H18.3575C17.6707 80.6452 16.9827 80.5454 16.3359 80.3109C15.6891 80.0764 15.097 79.7121 14.5962 79.2404C14.0953 78.7687 13.6962 78.1995 13.4234 77.5678C13.1507 76.9362 13.0099 76.2554 13.0099 75.5674C13.0099 74.8794 13.1507 74.1986 13.4234 73.567C13.6962 72.9353 14.0953 72.3661 14.5962 71.8944C15.097 71.4227 15.6891 71.0584 16.3359 70.8239C16.9827 70.5894 17.6707 70.4897 18.3575 70.5308H130.049C130.735 70.4897 131.423 70.5894 132.07 70.8239C132.717 71.0584 133.309 71.4227 133.81 71.8944C134.311 72.3661 134.71 72.9353 134.983 73.567C135.255 74.1986 135.396 74.8794 135.396 75.5674C135.396 76.2554 135.255 76.9362 134.983 77.5678C134.71 78.1995 134.311 78.7687 133.81 79.2404C133.309 79.7121 132.717 80.0764 132.07 80.3109C131.423 80.5454 130.735 80.6452 130.049 80.604Z" fill="#101C2F"/>
<path d="M65.8659 93.6792H13.0405V184.971H65.8659V93.6792Z" fill="#D4D9D7"/>
<path d="M128.132 93.625H75.3062V124.496H128.132V93.625Z" fill="#D4D9D7"/>
<g style="mix-blend-mode:multiply">
<path d="M114.586 68.5777C114.193 70.8938 114.733 73.2714 116.089 75.1899C117.445 77.1084 119.505 78.4115 121.82 78.8137L160.539 85.3241L152.293 83.9135C152.078 85.7644 152.244 87.6395 152.779 89.4243C153.313 91.2091 154.207 92.8661 155.403 94.2941C157.628 97.0068 157.881 102.396 157.7 106.411C156.582 106.769 155.419 106.97 154.246 107.008C154.246 107.442 154.246 107.876 154.246 108.31C152.562 106.765 150.345 105.935 148.061 105.995C137.626 86.1018 121.766 97.043 121.766 97.043C104.965 94.5473 109.432 109.485 109.432 109.485C110.987 100.045 116.991 102.125 116.991 102.125C112.109 103.554 111.566 106.013 112.506 108.436C111.289 110.654 110.249 112.964 109.396 115.345C107.418 116.767 105.296 117.98 103.066 118.962C100.245 119.866 103.265 122.868 103.265 122.868C102.279 124.511 101.725 126.378 101.656 128.293C101.656 131.223 99.1237 132.652 101.167 135.997C101.667 136.799 102.399 137.429 103.265 137.806C99.2273 140.929 95.7218 144.685 92.8845 148.928C95.2804 149.49 97.6317 150.227 99.9194 151.134L99.3407 151.605C87.1155 146.577 69.5914 143.81 69.5914 143.81C61.0555 127.769 37.1475 110.607 37.1475 110.607C37.1475 110.607 36.7316 111.113 36.0444 112.035C35.5007 111.172 35.1413 110.206 34.9888 109.198C34.8363 108.19 34.894 107.161 35.1582 106.176C36.7497 101.817 35.2667 96.3739 42.1751 93.5165C45.4665 92.1602 45.792 90.7495 44.4537 90.0985H54.5088C56.8373 90.1036 59.0742 89.1919 60.7359 87.5607C62.3975 85.9295 63.3504 83.7099 63.3884 81.3817V67.1129H0.128174V90.3155H40.0411C39.9057 90.3409 39.7727 90.3772 39.6432 90.424C34.5795 91.9431 30.6009 95.5782 25.1755 95.0718C19.7501 94.5654 6.54824 89.5921 0.200513 90.424V93.8601C2.20791 94.2037 10.6354 96.6452 10.6354 96.6452C10.6354 96.6452 5.78868 97.6579 6.31314 99.9727C6.83759 102.288 5.82485 102.722 6.05995 104.657C6.4759 107.894 8.79074 108.509 9.40561 111.312C10.5811 116.737 18.9724 113.12 23.4936 117.497C25.6193 119.847 27.5544 122.363 29.2807 125.02C27.3109 130.294 26.1996 135.851 25.9893 141.477C25.9893 141.477 39.7879 166.94 51.778 179.274C61.0193 188.805 76.4998 192.494 87.64 194.013C87.2963 195.532 86.9527 197.033 86.6453 198.498H176.508L177.105 197.739V181.987C173.597 176.379 169.459 171.191 164.771 166.524L166.037 165.692C170.23 162.776 173.961 159.246 177.105 155.221V104.892C174.229 100.244 171.426 96.8079 169.69 96.175L169.292 96.7898C168.953 95.8119 168.67 94.8156 168.442 93.8059C170.431 93.3702 172.38 92.7652 174.266 91.9974C174.573 91.8708 175.767 91.4006 177.105 90.9123V67.0405H114.839L114.586 68.5777ZM154.825 132.344L154.571 132.254C154.915 130.735 155.313 129.107 155.711 127.353C155.848 128.418 156.134 129.459 156.561 130.445L154.825 132.344Z" fill="#647794"/>
</g>
<path d="M197.125 9.69351L143.051 0.651168C140.737 0.25794 138.362 0.798764 136.446 2.15496C134.531 3.51115 133.231 5.57192 132.834 7.88504L124.298 58.8658C123.914 61.1784 124.459 63.5489 125.813 65.4622C127.168 67.3754 129.223 68.6768 131.531 69.0836L185.605 78.1259C187.919 78.5192 190.294 77.9783 192.21 76.6222C194.125 75.266 195.425 73.2052 195.822 70.8921L204.467 19.8933C204.658 18.7411 204.619 17.5624 204.353 16.4252C204.087 15.2879 203.599 14.2145 202.917 13.2666C202.234 12.3187 201.371 11.5151 200.377 10.9019C199.383 10.2887 198.278 9.878 197.125 9.69351Z" fill="white"/>
<path d="M197.269 9.27794L143.196 0.235596C142.686 0.111375 142.165 0.0326993 141.641 0.000494838C139.44 -0.00212266 137.311 0.779083 135.634 2.20409C133.957 3.6291 132.842 5.60474 132.49 7.77691L123.882 58.7938C123.483 61.2243 124.062 63.7136 125.492 65.7191C126.921 67.7246 129.086 69.0837 131.513 69.4999L185.587 78.5423C186.1 78.63 186.621 78.6724 187.142 78.6689C189.337 78.6729 191.462 77.8968 193.139 76.479C194.815 75.0613 195.933 73.0942 196.293 70.9286L204.883 19.9117C205.27 17.4937 204.688 15.0205 203.262 13.0294C201.837 11.0383 199.683 9.69016 197.269 9.27794ZM204.051 19.8936L195.461 70.9105C195.135 72.8796 194.119 74.6685 192.595 75.9573C191.071 77.2461 189.138 77.9509 187.142 77.9455C186.67 77.9453 186.198 77.9091 185.731 77.837L131.658 68.7223C129.453 68.3294 127.492 67.0802 126.205 65.2472C124.917 63.4142 124.407 61.1463 124.786 58.9385L133.322 7.92159C133.648 5.95075 134.663 4.15972 136.187 2.86792C137.71 1.57611 139.643 0.867534 141.641 0.86856C142.114 0.873813 142.585 0.91614 143.051 0.995152L197.125 10.0375C198.231 10.2208 199.29 10.6225 200.239 11.2193C201.188 11.8161 202.009 12.596 202.654 13.5135C203.299 14.431 203.754 15.4677 203.994 16.5631C204.234 17.6585 204.253 18.7907 204.051 19.8936Z" fill="#16162B"/>
<path d="M197.378 9.71199L142.87 0.54306C141.746 0.353941 140.595 0.388249 139.484 0.644022C138.373 0.899796 137.323 1.37202 136.394 2.03372C135.465 2.69543 134.676 3.53363 134.071 4.50045C133.466 5.46728 133.058 6.54377 132.87 7.66842L204.431 19.7309C204.819 17.4676 204.295 15.1425 202.974 13.2647C201.652 11.3869 199.639 10.1094 197.378 9.71199Z" fill="#000502"/>
<path d="M197.45 9.29628L143.015 0.127342C142.513 0.0403048 142.005 -0.00205881 141.496 0.000749513C139.329 -0.0271458 137.223 0.724432 135.564 2.11858C133.904 3.51272 132.8 5.45667 132.454 7.59632V8.01226L204.792 20.2194V19.8035C205.002 18.6221 204.974 17.4108 204.711 16.2402C204.448 15.0696 203.954 13.9631 203.259 12.9852C202.564 12.0073 201.681 11.1774 200.662 10.5441C199.643 9.91079 198.508 9.4866 197.323 9.29628H197.45ZM204.141 19.2429L133.43 7.32505C133.831 5.48617 134.851 3.84042 136.319 2.66225C137.787 1.48407 139.614 0.844693 141.496 0.85073C141.956 0.85249 142.416 0.888761 142.87 0.959238L197.305 10.1282C199.488 10.4871 201.439 11.6968 202.731 13.4919C203.903 15.1652 204.406 17.217 204.141 19.2429Z" fill="#000502"/>
<path d="M199.494 13.2932L196.202 15.2463L195.081 13.6911C195.016 13.5999 194.918 13.5383 194.808 13.5196C194.698 13.5009 194.584 13.5268 194.493 13.5916C194.402 13.6563 194.34 13.7546 194.322 13.8649C194.303 13.9751 194.329 14.0882 194.394 14.1793L195.732 15.9878C195.773 16.0407 195.825 16.0842 195.884 16.1154C195.944 16.1466 196.009 16.1647 196.076 16.1687C196.147 16.1843 196.221 16.1843 196.293 16.1687L199.91 14.0166C200.003 13.9569 200.07 13.8636 200.097 13.756C200.124 13.6484 200.109 13.5346 200.054 13.4379C199.995 13.349 199.905 13.2851 199.802 13.2584C199.698 13.2317 199.589 13.2441 199.494 13.2932Z" fill="white"/>
<path d="M140.049 2.65881C139.973 2.58543 139.872 2.54246 139.767 2.53799C139.661 2.53351 139.557 2.56783 139.475 2.63449C139.393 2.70116 139.338 2.79557 139.32 2.89996C139.303 3.00436 139.324 3.11154 139.38 3.20135L143.16 7.92145C143.196 7.97366 143.245 8.01593 143.302 8.04436C143.359 8.0728 143.422 8.0865 143.485 8.08421C143.567 8.11644 143.657 8.11644 143.738 8.08421C143.778 8.04544 143.81 7.99906 143.832 7.9478C143.853 7.89655 143.865 7.84146 143.865 7.78581C143.865 7.73017 143.853 7.67508 143.832 7.62383C143.81 7.57257 143.778 7.52619 143.738 7.48742L140.049 2.65881Z" fill="white"/>
<path d="M143.793 3.36458L138.946 6.5294C138.889 6.58861 138.85 6.66354 138.836 6.74467C138.821 6.8258 138.831 6.90947 138.864 6.98505C138.896 7.06063 138.951 7.12472 139.021 7.16917C139.09 7.21362 139.171 7.23643 139.254 7.2347C139.324 7.25814 139.4 7.25814 139.471 7.2347L144.335 4.06988C144.382 4.04046 144.422 4.00207 144.454 3.95695C144.486 3.91182 144.508 3.86085 144.52 3.80701C144.531 3.75316 144.532 3.69751 144.522 3.64329C144.513 3.58907 144.492 3.53736 144.462 3.49117C144.432 3.43311 144.388 3.38268 144.336 3.34366C144.283 3.30464 144.222 3.27805 144.158 3.26587C144.094 3.25369 144.027 3.25624 143.964 3.27334C143.901 3.29043 143.842 3.32162 143.793 3.36458Z" fill="white"/>
<path d="M168.858 19.5677C164.045 18.7103 159.085 19.2994 154.607 21.2604C150.128 23.2215 146.331 26.4665 143.697 30.5851C141.062 34.7038 139.708 39.5111 139.806 44.3993C139.903 49.2874 141.448 54.037 144.244 58.0473C147.041 62.0576 150.964 65.1487 155.517 66.9296C160.071 68.7106 165.05 69.1014 169.825 68.0528C174.6 67.0041 178.958 64.5631 182.346 61.0382C185.734 57.5134 188.001 53.0631 188.86 48.25C190.007 41.7946 188.545 35.1477 184.794 29.7697C181.044 24.3916 175.312 20.7223 168.858 19.5677Z" fill="white"/>
<path d="M168.93 19.1521C167.491 18.8984 166.033 18.7653 164.572 18.7542C158.23 18.6693 152.091 20.9828 147.382 25.2316C142.674 29.4804 139.744 35.351 139.179 41.6679C138.615 47.9848 140.457 54.2819 144.337 59.2985C148.217 64.3151 153.849 67.6809 160.105 68.7222C161.567 68.9891 163.05 69.1222 164.536 69.1201C170.815 69.1047 176.862 66.7416 181.487 62.4951C186.113 58.2485 188.983 52.4256 189.533 46.1706C190.084 39.9156 188.276 33.6807 184.463 28.6913C180.651 23.7019 175.11 20.3186 168.93 19.2063V19.1521ZM188.444 48.178C187.631 52.7332 185.535 56.9618 182.403 60.3669C179.27 63.772 175.23 66.2121 170.758 67.4005C166.286 68.5888 161.568 68.476 157.158 67.0754C152.748 65.6747 148.829 63.0443 145.863 59.4934C142.896 55.9424 141.005 51.6185 140.411 47.0297C139.817 42.4408 140.545 37.7778 142.51 33.5887C144.475 29.3995 147.595 25.8582 151.503 23.3809C155.411 20.9037 159.945 19.5935 164.572 19.6042C166.015 19.6049 167.455 19.732 168.876 19.984C175.2 21.1462 180.808 24.7635 184.474 30.046C188.14 35.3284 189.567 41.8469 188.444 48.178Z" fill="#16162B"/>
<path d="M170.16 30.8888C169.726 25.7166 155.566 20.6348 155.403 31.1962C155.403 35.5727 152.69 39.9131 154.137 41.5588L174.953 45.2119C175.785 45.3746 177.756 42.3545 177.34 38.195C176.562 30.4548 170.16 30.8888 170.16 30.8888Z" fill="#000502"/>
<path d="M170.54 30.4556C169.907 27.2546 165.006 24.5962 161.154 24.5962C157.302 24.5962 155.041 27.0015 154.987 31.1971C154.88 33.0396 154.546 34.8619 153.992 36.6225C153.341 38.9554 152.853 40.8001 153.812 41.9032L153.92 42.0117L174.88 45.6829H175.007C175.213 45.6604 175.413 45.5958 175.593 45.4932C175.774 45.3905 175.931 45.252 176.056 45.0861C177.483 43.0915 178.092 40.6255 177.756 38.1959C177.069 31.1971 171.987 30.5099 170.54 30.4556ZM175.423 44.4532C175.17 44.7606 174.989 44.851 174.935 44.851L154.3 41.2341C153.757 40.4203 154.3 38.7565 154.734 36.8395C155.311 35.0345 155.652 33.1622 155.747 31.2694C155.747 26.2419 159.129 25.4823 161.172 25.4823C165.115 25.4823 169.527 28.3036 169.762 30.9077V31.3056H170.323C171.3 31.3056 176.237 31.6311 176.906 38.3044C177.168 40.4657 176.641 42.6489 175.423 44.4532Z" fill="#000502"/>
<path d="M162.149 57.1484C156.5 56.1335 150.675 57.1183 145.674 59.9335C149.395 64.3044 154.52 67.2462 160.171 68.2557C165.822 69.2652 171.648 68.2795 176.653 65.4674C172.93 61.0952 167.802 58.1542 162.149 57.1484Z" fill="white"/>
<path d="M162.221 56.732C156.478 55.7219 150.563 56.7248 145.475 59.5713C145.418 59.5989 145.369 59.6396 145.331 59.6899C145.294 59.7402 145.268 59.7987 145.258 59.8606C145.242 59.9882 145.275 60.1169 145.348 60.2223C149.126 64.6803 154.336 67.6853 160.087 68.7221C161.555 68.989 163.044 69.1222 164.536 69.12C168.85 69.1126 173.091 67.998 176.852 65.8828C176.91 65.8579 176.961 65.818 176.999 65.7672C177.037 65.7164 177.061 65.6565 177.069 65.5935C177.114 65.4834 177.114 65.3599 177.069 65.2499C173.258 60.7729 168.009 57.7614 162.221 56.732ZM160.25 67.836C154.873 66.8761 149.976 64.1374 146.343 60.0596C151.159 57.4844 156.702 56.6049 162.078 57.5628C167.455 58.5208 172.353 61.2603 175.983 65.3403C171.167 67.912 165.626 68.7909 160.25 67.836Z" fill="#16162B"/>
<path d="M159.636 51.7877L158.6 57.5732C158.311 59.1856 159.384 60.7267 160.997 61.0153L161.905 61.1779C163.517 61.4665 165.058 60.3935 165.347 58.7811L166.383 52.9955C166.671 51.3832 165.598 49.8421 163.986 49.5534L163.078 49.3909C161.466 49.1022 159.924 50.1753 159.636 51.7877Z" fill="white"/>
<path d="M164.048 49.1367L163.143 48.974C162.7 48.8879 162.244 48.891 161.802 48.983C161.36 49.0751 160.941 49.2543 160.568 49.5102C160.196 49.7661 159.879 50.0936 159.635 50.4735C159.391 50.8534 159.225 51.2781 159.147 51.7228L158.116 57.4919C158.03 57.9417 158.037 58.4041 158.134 58.8513C158.232 59.2986 158.419 59.7216 158.684 60.0948C158.95 60.468 159.287 60.7839 159.677 61.0234C160.068 61.2629 160.502 61.4211 160.955 61.4886L161.859 61.6513H162.456C163.254 61.651 164.026 61.37 164.638 60.8575C165.25 60.3451 165.662 59.6338 165.802 58.8482L166.833 53.0792C166.91 52.6373 166.9 52.1843 166.802 51.7465C166.704 51.3086 166.52 50.8945 166.261 50.528C166.002 50.1615 165.673 49.8499 165.293 49.6111C164.913 49.3723 164.49 49.2111 164.048 49.1367ZM165.965 52.9164L164.934 58.7035C164.81 59.3685 164.43 59.9579 163.874 60.3439C163.319 60.7299 162.634 60.8813 161.968 60.7652L161.082 60.6024C160.752 60.5452 160.436 60.423 160.154 60.2429C159.871 60.0629 159.627 59.8285 159.436 59.5535C159.241 59.2819 159.104 58.9734 159.032 58.6469C158.961 58.3204 158.957 57.9828 159.02 57.6546L160.051 51.8675C160.153 51.2799 160.459 50.7472 160.916 50.3635C161.373 49.9797 161.95 49.7694 162.547 49.7697H162.999L163.903 49.9325C164.572 50.0556 165.164 50.4389 165.551 50.9983C165.937 51.5576 166.086 52.2475 165.965 52.9164Z" fill="#16162B"/>
<path d="M166.905 30.5277C161.281 29.5149 155.747 34.1446 154.535 40.8721C154.222 42.2406 154.19 43.6584 154.442 45.0395C154.693 46.4206 155.223 47.7362 155.998 48.9065C156.773 50.0767 157.778 51.0773 158.952 51.8474C160.126 52.6174 161.444 53.141 162.826 53.3863C164.208 53.6316 165.626 53.5935 166.993 53.2743C168.36 52.9551 169.648 52.3615 170.779 51.5294C171.909 50.6974 172.859 49.6443 173.57 48.4341C174.282 47.2238 174.74 45.8817 174.917 44.4891C176.128 37.7977 172.529 31.5223 166.905 30.5277Z" fill="white"/>
<path d="M166.977 30.1115C166.446 30.0184 165.907 29.9701 165.368 29.9668C160.051 29.9668 155.222 34.6326 154.119 40.8176C152.962 47.3462 156.434 52.4461 162.764 53.6216C163.486 53.7498 164.218 53.8163 164.952 53.8205C170.377 53.8205 174.302 50.2036 175.314 44.5792C175.936 41.3597 175.405 38.0241 173.813 35.1571C173.119 33.8619 172.146 32.7372 170.963 31.8645C169.781 30.9919 168.42 30.3931 166.977 30.1115ZM174.5 44.4345C174.258 46.7877 173.147 48.9659 171.385 50.5442C169.622 52.1225 167.335 52.9875 164.97 52.9705C164.285 52.9724 163.601 52.9119 162.926 52.7897C161.592 52.6069 160.312 52.1446 159.169 51.433C158.026 50.7213 157.046 49.7764 156.293 48.66C155.54 47.5436 155.031 46.2809 154.8 44.9544C154.569 43.6279 154.62 42.2676 154.951 40.9623C155.982 35.1752 160.376 30.8168 165.368 30.8168C165.859 30.814 166.349 30.8564 166.833 30.9434C168.157 31.206 169.407 31.759 170.492 32.5627C171.577 33.3664 172.471 34.4007 173.108 35.5911C174.592 38.2853 175.085 41.4146 174.5 44.4345Z" fill="#16162B"/>
<path d="M156.687 33.2401C162.42 37.9602 168.569 31.0881 168.569 31.0881C166.634 26.7116 150.954 28.52 156.687 33.2401Z" fill="#000502"/>
<path d="M162.004 28.1768C159.02 28.1768 155.729 28.9544 155.114 30.7086C154.879 31.3416 154.933 32.3362 156.416 33.566C157.697 34.6967 159.337 35.3374 161.046 35.3745C164.057 35.0855 166.851 33.6789 168.876 31.432L169.057 31.215L168.949 30.9799C168.062 28.9363 164.771 28.1768 162.004 28.1768ZM161.046 34.4702C159.541 34.4554 158.092 33.9039 156.958 32.9149C156.344 32.4086 155.656 31.6671 155.91 30.998C156.307 29.8767 158.93 29.0267 162.004 29.0267C165.078 29.0267 167.285 29.8044 168.044 31.0161C166.209 32.9804 163.721 34.2085 161.046 34.4702Z" fill="#000502"/>
<path d="M64.1115 10.9961L9.27879 11.1227C8.1144 11.1227 6.96148 11.3526 5.88619 11.7993C4.81089 12.246 3.83439 12.9006 3.01273 13.7256C2.19107 14.5507 1.54042 15.5298 1.09813 16.6069C0.655841 17.684 0.430614 18.8379 0.435377 20.0023V71.7245C0.444944 74.078 1.3866 76.3319 3.0542 77.9927C4.7218 79.6535 6.97949 80.586 9.33304 80.586L64.1658 80.4774C66.5193 80.4679 68.7732 79.5262 70.434 77.8586C72.0948 76.191 73.0273 73.9333 73.0273 71.5798L73.0092 19.8938C73.0092 17.534 72.0718 15.2708 70.4031 13.6022C68.7345 11.9335 66.4714 10.9961 64.1115 10.9961Z" fill="white"/>
<path d="M64.1117 10.5806L9.27891 10.6891C6.81653 10.7034 4.45962 11.6904 2.72181 13.435C0.984011 15.1795 0.00619538 17.5403 0.00146484 20.0027L0.109973 71.7249C0.124253 74.1841 1.10876 76.5383 2.84943 78.2756C4.59011 80.0129 6.94622 80.9928 9.4055 81.0023L64.2383 80.8938C65.459 80.8914 66.6673 80.6487 67.7941 80.1793C68.921 79.71 69.9444 79.0233 70.8059 78.1584C71.6674 77.2936 72.3501 76.2675 72.815 75.1388C73.28 74.0101 73.5181 72.8009 73.5157 71.5802L73.4253 19.8942C73.4253 17.4241 72.444 15.0551 70.6974 13.3085C68.9507 11.5618 66.5818 10.5806 64.1117 10.5806ZM70.2243 77.4939C69.4426 78.2808 68.5127 78.9049 67.4884 79.3302C66.464 79.7555 65.3655 79.9734 64.2563 79.9715L9.42358 80.0981C7.19419 80.0936 5.05581 79.2134 3.46928 77.6471C1.88274 76.0809 0.975068 73.954 0.941868 71.7249L0.851445 20.0027C0.849068 18.8936 1.06516 17.7949 1.4874 16.7693C1.90963 15.7438 2.52973 14.8114 3.31229 14.0255C4.09486 13.2396 5.02456 12.6155 6.04831 12.1888C7.07206 11.7622 8.16982 11.5414 9.27891 11.5391L64.1298 11.4125C65.2412 11.4148 66.3413 11.6361 67.3673 12.0636C68.3932 12.4912 69.3249 13.1166 70.1092 13.9042C70.8934 14.6918 71.5148 15.6261 71.938 16.6539C72.3611 17.6817 72.5777 18.7827 72.5753 19.8942L72.6838 71.6164C72.6867 72.7213 72.4709 73.816 72.0488 74.8371C71.6266 75.8583 71.0066 76.7858 70.2243 77.5662V77.4939Z" fill="#16162B"/>
<path d="M64.2924 10.9961L9.04369 11.1046C6.73497 11.1285 4.53003 12.0673 2.91276 13.7151C1.29549 15.3629 0.398013 17.585 0.417297 19.8938L73.0092 19.7491C73.0164 18.6007 72.7961 17.4622 72.361 16.3994C71.9259 15.3366 71.2847 14.3704 70.4743 13.5566C69.6639 12.7429 68.7004 12.0977 67.6394 11.6582C66.5784 11.2187 65.4408 10.9937 64.2924 10.9961Z" fill="#000502"/>
<path d="M64.2925 10.5801L9.04381 10.6886C7.84253 10.6884 6.65325 10.9275 5.54544 11.3921C4.43763 11.8567 3.43349 12.5373 2.59167 13.3943C1.74984 14.2513 1.08722 15.2674 0.642488 16.3833C0.197759 17.4992 -0.0201579 18.6926 0.00146509 19.8937V20.3096L73.4253 20.1649V19.749C73.4422 18.5433 73.2178 17.3463 72.7653 16.2286C72.3128 15.1109 71.6413 14.095 70.7904 13.2407C69.9394 12.3863 68.9261 11.7108 67.8102 11.2539C66.6943 10.797 65.4983 10.5679 64.2925 10.5801ZM0.851445 19.3873C0.961812 17.2822 1.87067 15.2984 3.39283 13.84C4.91499 12.3817 6.93591 11.5587 9.04381 11.5385L64.2563 11.4119C66.3725 11.4178 68.4066 12.2316 69.9427 13.6871C71.4789 15.1426 72.4012 17.1298 72.521 19.2426L0.851445 19.3873Z" fill="#000502"/>
<path d="M66.9147 14.1602L64.0573 16.6378L62.701 15.2996C62.6637 15.2572 62.6177 15.2233 62.5663 15.2001C62.5148 15.1769 62.459 15.1649 62.4026 15.1649C62.3461 15.1649 62.2903 15.1769 62.2389 15.2001C62.1874 15.2233 62.1415 15.2572 62.1042 15.2996C62.0279 15.3802 61.9854 15.487 61.9854 15.598C61.9854 15.709 62.0279 15.8157 62.1042 15.8964L63.7318 17.524C63.8188 17.5943 63.9274 17.6326 64.0393 17.6325C64.138 17.6388 64.2353 17.6064 64.3105 17.5421L67.5296 14.8113C67.6159 14.7393 67.6702 14.636 67.6803 14.5241C67.6905 14.4122 67.6558 14.3008 67.5839 14.2145C67.5119 14.1281 67.4086 14.0739 67.2967 14.0638C67.1848 14.0536 67.0734 14.0883 66.9871 14.1602H66.9147Z" fill="white"/>
<path d="M6.60236 13.6906C6.56359 13.6507 6.5172 13.619 6.46595 13.5973C6.41469 13.5756 6.35961 13.5645 6.30396 13.5645C6.24831 13.5645 6.19323 13.5756 6.14197 13.5973C6.09072 13.619 6.04433 13.6507 6.00556 13.6906C5.92925 13.7712 5.88672 13.878 5.88672 13.989C5.88672 14.1 5.92925 14.2068 6.00556 14.2874L10.5267 18.3203C10.6001 18.3896 10.6971 18.4284 10.798 18.4288C10.8592 18.428 10.9197 18.4148 10.9756 18.3899C11.0316 18.365 11.0819 18.329 11.1235 18.2841C11.1998 18.2035 11.2424 18.0967 11.2424 17.9857C11.2424 17.8747 11.1998 17.7679 11.1235 17.6873L6.60236 13.6906Z" fill="white"/>
<path d="M10.4002 13.7451L6.1503 17.6876C6.08766 17.7446 6.04393 17.8194 6.02497 17.902C6.006 17.9845 6.01269 18.0709 6.04415 18.1496C6.07562 18.2282 6.13035 18.2954 6.20103 18.3421C6.2717 18.3888 6.35496 18.4128 6.43965 18.4109C6.54646 18.4133 6.65007 18.3744 6.72901 18.3024L10.9789 14.36C11.0188 14.3212 11.0506 14.2748 11.0722 14.2236C11.0939 14.1723 11.1051 14.1172 11.1051 14.0616C11.1051 14.0059 11.0939 13.9508 11.0722 13.8996C11.0506 13.8483 11.0188 13.802 10.9789 13.7632C10.9037 13.6856 10.8012 13.6403 10.6932 13.6369C10.5852 13.6335 10.4801 13.6723 10.4002 13.7451Z" fill="white"/>
<path d="M59.4907 59.7879C64.6889 47.2383 58.7294 32.8509 46.1799 27.6527C33.6303 22.4545 19.2429 28.414 14.0447 40.9636C8.84654 53.5131 14.806 67.9005 27.3555 73.0987C39.9051 78.2969 54.2925 72.3374 59.4907 59.7879Z" fill="white"/>
<path d="M36.7677 25.3193C31.8225 25.3193 26.9883 26.7853 22.876 29.532C18.7638 32.2786 15.558 36.1827 13.6639 40.7508C11.7698 45.3189 11.2724 50.3459 12.2345 55.1966C13.1967 60.0473 15.5752 64.5039 19.0694 68.0032C22.5637 71.5025 27.0168 73.8874 31.8661 74.8566C36.7154 75.8257 41.7432 75.3356 46.314 73.4481C50.8848 71.5606 54.7935 68.3605 57.5461 64.2522C60.2987 60.1439 61.7717 55.3118 61.7788 50.3666C61.7788 43.7299 59.1449 37.3645 54.4554 32.6683C49.766 27.9721 43.4044 25.3289 36.7677 25.3193ZM36.7677 74.4916C31.9875 74.4916 27.3148 73.0736 23.3407 70.4172C19.3667 67.7607 16.2699 63.9851 14.4423 59.5681C12.6146 55.1512 12.1383 50.2913 13.0735 45.6035C14.0087 40.9157 16.3134 36.6107 19.696 33.2332C23.0786 29.8556 27.3871 27.5573 32.0763 26.6292C36.7655 25.701 41.6246 26.1846 46.0388 28.0189C50.4531 29.8531 54.224 32.9555 56.8745 36.9336C59.525 40.9116 60.936 45.5865 60.9288 50.3666C60.924 56.7731 58.377 62.9158 53.8469 67.4458C49.3169 71.9759 43.1742 74.523 36.7677 74.5278V74.4916Z" fill="#16162B"/>
<path d="M36.7677 32.4443C27.9605 32.4443 20.8351 40.9803 20.8351 51.4875C20.7232 55.285 21.8744 59.0123 24.1084 62.0851H49.427C51.6662 59.0139 52.8237 55.2869 52.7184 51.4875C52.7184 40.9803 45.5749 32.4443 36.7677 32.4443Z" fill="#000502"/>
<path d="M36.7677 32.0288C27.7254 32.0288 20.4915 40.7637 20.4915 51.4879C20.393 55.3786 21.5818 59.193 23.8733 62.3387L23.9999 62.5015H49.6259L49.7525 62.3387C52.0515 59.1967 53.2411 55.3797 53.1344 51.4879C53.1344 40.7637 45.792 32.0288 36.7677 32.0288ZM49.21 61.6515H24.3255C22.2169 58.691 21.1369 55.1208 21.2511 51.4879C21.2511 41.2339 28.2137 32.8788 36.7677 32.8788C45.3218 32.8788 52.2844 41.2339 52.2844 51.4879C52.3985 55.1208 51.3186 58.691 49.21 61.6515Z" fill="#000502"/>
<path d="M21.1243 69.3557C25.532 72.9797 31.0612 74.9609 36.7675 74.9609C42.4738 74.9609 48.003 72.9797 52.4108 69.3557C48.009 65.7186 42.4775 63.729 36.7675 63.729C31.0576 63.729 25.526 65.7186 21.1243 69.3557Z" fill="white"/>
<path d="M36.7676 63.2969C30.9609 63.3009 25.3358 65.3208 20.8531 69.0116C20.8063 69.0518 20.7691 69.1018 20.7441 69.1581C20.7191 69.2144 20.7069 69.2756 20.7084 69.3372C20.7092 69.3984 20.7224 69.4588 20.7473 69.5148C20.7722 69.5707 20.8081 69.621 20.8531 69.6627C25.3392 73.3451 30.9636 75.3578 36.7676 75.3578C42.5715 75.3578 48.1959 73.3451 52.6821 69.6627C52.7321 69.6243 52.7728 69.5751 52.801 69.5187C52.8292 69.4623 52.8442 69.4002 52.8449 69.3372C52.8471 69.2736 52.8334 69.2105 52.805 69.1536C52.7766 69.0968 52.7343 69.0479 52.6821 69.0116C48.1978 65.3235 42.5737 63.3039 36.7676 63.2969ZM36.7676 74.5094C31.3379 74.5102 26.0651 72.6889 21.7935 69.3372C26.0607 65.9754 31.3351 64.1474 36.7676 64.1474C42.2 64.1474 47.4744 65.9754 51.7417 69.3372C47.469 72.6892 42.1982 74.5161 36.7676 74.5275V74.5094Z" fill="#16162B"/>
<path d="M37.2197 55.9907H36.3336C34.6955 55.9907 33.3677 57.3186 33.3677 58.9566V64.7618C33.3677 66.3998 34.6955 67.7277 36.3336 67.7277H37.2197C38.8577 67.7277 40.1856 66.3998 40.1856 64.7618V58.9566C40.1856 57.3186 38.8577 55.9907 37.2197 55.9907Z" fill="white"/>
<path d="M37.2016 55.5562H36.3335C35.4333 55.5609 34.5712 55.9206 33.9347 56.5572C33.2981 57.1938 32.9383 58.0558 32.9336 58.9561V64.7613C32.9384 65.6598 33.2987 66.52 33.9358 67.1537C34.5729 67.7874 35.4349 68.1431 36.3335 68.1431H37.2016C38.1002 68.1431 38.9622 67.7874 39.5993 67.1537C40.2364 66.52 40.5967 65.6598 40.6015 64.7613V58.9561C40.6015 58.0544 40.2433 57.1896 39.6057 56.552C38.9681 55.9144 38.1033 55.5562 37.2016 55.5562ZM39.7877 64.7613C39.7877 65.4375 39.519 66.0861 39.0408 66.5643C38.5626 67.0425 37.914 67.3112 37.2378 67.3112H36.3697C35.6934 67.3112 35.0448 67.0425 34.5666 66.5643C34.0884 66.0861 33.8197 65.4375 33.8197 64.7613V58.9561C33.8197 58.2798 34.0884 57.6312 34.5666 57.153C35.0448 56.6748 35.6934 56.4061 36.3697 56.4061H37.2378C37.914 56.4061 38.5626 56.6748 39.0408 57.153C39.519 57.6312 39.7877 58.2798 39.7877 58.9561V64.7613Z" fill="#16162B"/>
<path d="M36.7677 36.8394C31.0891 36.8394 27.7253 42.3552 27.7253 49.1369C27.7253 55.9187 31.1795 59.7526 36.7677 59.7526C42.3558 59.7526 45.9004 55.9368 45.9004 49.1369C45.9004 42.3371 42.4463 36.8394 36.7677 36.8394Z" fill="white"/>
<path d="M36.7677 36.4233C31.1434 36.4233 27.219 41.6498 27.219 49.0826C27.219 55.991 30.8359 60.1143 36.7677 60.1143C42.6995 60.1143 46.3164 55.991 46.3164 49.0826C46.3164 41.5956 42.392 36.4233 36.7677 36.4233ZM36.7677 59.3366C31.2338 59.3366 28.069 55.6112 28.069 49.1369C28.069 42.1562 31.6859 37.2733 36.7677 37.2733C41.8495 37.2733 45.4845 42.1562 45.4845 49.1369C45.4845 55.6112 42.3016 59.3366 36.7677 59.3366Z" fill="#16162B"/>
<path d="M36.7676 36.8394C35.0735 36.8948 33.4221 37.3846 31.9717 38.2618C30.5213 39.139 29.3206 40.3742 28.4849 41.8488H45.0504C44.2147 40.3742 43.014 39.139 41.5636 38.2618C40.1132 37.3846 38.4618 36.8948 36.7676 36.8394Z" fill="#000502"/>
<path d="M36.7677 36.4233C35.0062 36.4807 33.2884 36.9857 31.776 37.8906C30.2636 38.7955 29.0065 40.0705 28.1232 41.5956L27.7253 42.2466H45.81L45.4122 41.5956C44.5315 40.0682 43.275 38.7913 41.7621 37.8861C40.2491 36.9809 38.5299 36.4773 36.7677 36.4233ZM29.2806 41.4328C30.0958 40.1824 31.2039 39.15 32.5086 38.4251C33.8134 37.7002 35.2754 37.3049 36.7677 37.2733C38.26 37.3049 39.722 37.7002 41.0267 38.4251C42.3315 39.15 43.4396 40.1824 44.2547 41.4328H29.2806Z" fill="#000502"/>
<path d="M126.739 92.4858C123.305 96.3092 120.717 100.814 119.143 105.706C117.159 107.129 115.032 108.341 112.796 109.323C109.974 110.209 112.994 113.211 112.994 113.211C112.009 114.855 111.455 116.721 111.385 118.636C111.385 121.548 108.871 122.977 110.897 126.322C113.248 130.156 119.939 127.516 119.939 135.998C119.939 135.998 136.613 138.186 146.795 136.703C156.976 135.22 147.048 92.4858 126.739 92.4858Z" fill="url(#paint0_linear_554_1470)"/>
<path d="M126.739 92.0703H126.594L126.486 92.1788C123.023 96.0071 120.41 100.525 118.818 105.435C116.919 106.861 114.869 108.074 112.705 109.052C112.366 109.123 112.052 109.285 111.797 109.521C111.542 109.756 111.356 110.057 111.258 110.39C110.987 111.529 112.018 112.868 112.506 113.41C111.577 115.072 111.062 116.933 111.005 118.836C110.94 119.716 110.706 120.575 110.318 121.367C109.883 122.179 109.676 123.093 109.717 124.013C109.759 124.933 110.047 125.825 110.553 126.594C111.537 127.953 112.985 128.905 114.622 129.271C117.136 130.175 119.523 131.079 119.523 136.052V136.432H119.885C125.951 137.189 132.056 137.599 138.168 137.662C141.077 137.69 143.983 137.515 146.867 137.137C150.086 136.667 151.66 132.544 151.171 125.834C150.104 112.126 140.881 92.0703 126.739 92.0703ZM146.741 136.378C143.898 136.74 141.034 136.909 138.168 136.884C132.212 136.806 126.264 136.389 120.355 135.636C120.228 130.356 117.407 129.343 114.93 128.402C113.489 128.07 112.21 127.245 111.313 126.07C110.875 125.402 110.63 124.627 110.605 123.829C110.579 123.032 110.774 122.242 111.168 121.548C111.595 120.622 111.834 119.62 111.873 118.601C111.936 116.762 112.465 114.97 113.411 113.392L113.591 113.103L113.356 112.85C112.958 112.47 111.91 111.186 112.108 110.39C112.108 110.264 112.217 109.902 112.995 109.667C115.239 108.691 117.373 107.479 119.36 106.05H119.469V105.923C121.038 101.161 123.541 96.7593 126.829 92.9745C139.868 93.1554 149.254 112.307 150.339 126.051C150.773 132.019 149.435 135.98 146.741 136.378Z" fill="#000502"/>
<path d="M124.352 105.417L124.062 106.212C124.062 106.212 125.039 106.755 124.623 110.498H125.455C125.961 106.158 124.623 105.507 124.352 105.417Z" fill="#000502"/>
<path d="M129.235 117.081L129.651 117.823C130.236 117.494 130.909 117.356 131.577 117.428C132.244 117.499 132.873 117.776 133.376 118.22C133.856 118.631 134.188 119.188 134.322 119.805C134.456 120.422 134.384 121.066 134.118 121.638C132.924 124.496 129.307 123.736 129.144 123.7L128.963 124.514C129.415 124.61 129.876 124.652 130.338 124.64C131.281 124.718 132.224 124.502 133.04 124.023C133.856 123.544 134.504 122.825 134.895 121.964C135.235 121.224 135.325 120.393 135.152 119.598C134.979 118.802 134.552 118.084 133.937 117.551C133.299 116.993 132.504 116.648 131.661 116.564C130.818 116.479 129.97 116.66 129.235 117.081Z" fill="#000502"/>
<path d="M132.815 117.931C132.868 118.25 132.852 118.576 132.767 118.888C132.683 119.2 132.533 119.49 132.327 119.739C132.076 119.944 131.787 120.098 131.477 120.191C131.167 120.284 130.841 120.315 130.519 120.282V121.114H130.736C131.534 121.135 132.31 120.85 132.906 120.318C133.207 119.99 133.43 119.599 133.558 119.173C133.687 118.747 133.717 118.298 133.647 117.858L132.815 117.931Z" fill="#000502"/>
<path d="M186.653 77.3854C182.295 79.5013 183.887 82.3406 183.887 82.3406C186.194 81.3525 188.584 80.5718 191.03 80.0077C193.978 80.0077 190.994 75.2695 186.653 77.3854Z" fill="url(#paint1_linear_554_1470)"/>
<path d="M188.86 76.4087C188.023 76.4194 187.2 76.6237 186.455 77.0055C185.751 77.274 185.111 77.6861 184.576 78.2154C184.04 78.7447 183.621 79.3796 183.344 80.0799C183.209 80.4813 183.155 80.9055 183.187 81.3279C183.218 81.7502 183.333 82.1621 183.525 82.5394L183.706 82.8649L184.049 82.7202C186.301 81.7422 188.638 80.9734 191.03 80.4235C191.442 80.4502 191.85 80.3353 192.187 80.098C192.33 79.9866 192.445 79.8438 192.524 79.6807C192.602 79.5176 192.642 79.3385 192.64 79.1576C192.64 77.8916 190.976 76.4087 188.86 76.4087ZM191.699 79.4288C191.507 79.5384 191.287 79.5888 191.066 79.5735C188.696 80.0765 186.381 80.8156 184.158 81.7798C184.013 81.3022 184.013 80.7926 184.158 80.315C184.408 79.7306 184.774 79.2032 185.234 78.7648C185.694 78.3264 186.239 77.9863 186.834 77.765C187.46 77.4386 188.154 77.2651 188.86 77.2587C189.491 77.1938 190.126 77.3467 190.659 77.6921C191.192 78.0374 191.591 78.5545 191.79 79.1576C191.799 79.2067 191.796 79.2576 191.78 79.3051C191.764 79.3527 191.736 79.3953 191.699 79.4288Z" fill="#000502"/>
<path d="M185.984 69.8431C187.268 62.8805 185.098 62.2837 183.398 64.4177C182.314 65.9281 181.749 67.7493 181.789 69.608C181 71.3378 180.435 73.1609 180.107 75.0334C178.503 75.0441 176.924 75.4279 175.495 76.1547C175.495 76.1547 182.132 65.4124 180.92 63.6039C179.112 60.8731 176.653 64.3996 175.857 65.6475C174.951 67.0528 174.284 68.599 173.886 70.2229C172.354 71.8393 171.128 73.7205 170.269 75.7749L162.04 74.3643C161.825 76.2166 161.988 78.0933 162.52 79.8807C163.052 81.6682 163.94 83.3291 165.133 84.763C168.948 89.3565 166.941 101.835 166.941 101.835C174.301 104.511 182.132 94.2032 182.132 94.2032C180.334 91.0752 178.988 87.7081 178.135 84.2024C182.675 82.8279 185.152 83.0088 187.033 78.7769C187.63 77.4568 189.673 70.8197 188.968 68.3421C188.082 65.1049 185.984 69.8431 185.984 69.8431Z" fill="url(#paint2_linear_554_1470)"/>
<path d="M188.082 66.7508C187.787 66.8058 187.507 66.9229 187.261 67.0944C187.015 67.2659 186.808 67.4878 186.654 67.7455C186.979 66.2739 186.768 64.7343 186.057 63.4052C185.333 62.5371 184.086 62.7903 183.019 64.0562C181.853 65.5911 181.218 67.4637 181.21 69.3912C180.464 71.0225 179.929 72.7424 179.619 74.5092C178.516 74.536 177.426 74.7564 176.4 75.1602C178.208 72.0677 182.259 64.9604 181.156 63.2786C180.977 62.9438 180.718 62.6582 180.403 62.4469C180.088 62.2356 179.725 62.1051 179.347 62.0669C177.828 62.0669 176.4 63.8754 175.459 65.3402C174.556 66.7453 173.879 68.283 173.452 69.8976C172.015 71.4673 170.848 73.2638 169.998 75.2145L161.642 73.7858V74.2198C161.409 76.1372 161.569 78.0821 162.113 79.9354C162.658 81.7887 163.574 83.5115 164.807 84.9983C168.424 89.3929 166.616 101.618 166.616 101.745V102.07L166.941 102.197C167.799 102.508 168.705 102.667 169.618 102.667C176.273 102.667 182.277 94.764 182.621 94.4204L182.783 94.2034L182.639 93.9683C180.951 90.9742 179.65 87.7777 178.769 84.4557L180.686 83.9494C183.85 83.1175 185.948 82.5749 187.558 78.9761C188.173 77.6197 190.27 70.9103 189.529 68.2338C189.149 67.2391 188.715 66.7508 188.082 66.7508ZM186.635 78.5782C185.171 81.7973 183.453 82.1951 180.306 83.0813C179.601 83.2621 178.823 83.4611 177.991 83.7143L177.611 83.8228L177.702 84.2025C178.555 87.651 179.888 90.9626 181.662 94.0406C180.631 95.3065 175.17 101.727 169.509 101.727C168.811 101.724 168.116 101.621 167.448 101.419C167.737 99.3033 169.021 88.6695 165.458 84.3653C163.211 81.6794 162.113 78.2162 162.402 74.7262L170.522 76.1187L170.649 75.8113C171.521 73.8014 172.746 71.964 174.266 70.3858L174.356 70.2773V70.1508C174.765 68.5874 175.418 67.0982 176.291 65.7381C177.412 63.9296 178.606 62.8626 179.456 62.8626C179.89 62.8626 180.27 63.1339 180.649 63.6945C181.3 64.6892 178.389 70.621 175.224 75.7751L174.428 77.0772L175.785 76.3719C177.151 75.6924 178.653 75.3279 180.179 75.3049H180.541V74.9251C180.848 73.1145 181.389 71.3515 182.15 69.6805V69.572V69.4093C182.115 67.6546 182.648 65.9354 183.67 64.5083C184.339 63.7126 185.008 63.369 185.478 63.8573C185.948 64.3456 186.364 65.4668 185.587 69.6805L184.936 73.1709L186.382 69.9337C186.889 68.7944 187.739 67.5104 188.191 67.5104C188.191 67.5104 188.48 67.6912 188.661 68.3242C189.24 70.7295 187.323 77.1676 186.69 78.5782H186.635Z" fill="#000502"/>
<path d="M186.111 69.2648C186.001 69.2487 185.889 69.2754 185.798 69.3393C185.707 69.4033 185.645 69.4996 185.623 69.6084C185.303 72.1253 184.752 74.6074 183.977 77.0232C182.919 77.9503 181.69 78.6628 180.36 79.121C180.309 79.1409 180.262 79.1708 180.222 79.209C180.183 79.2471 180.151 79.2928 180.129 79.3432C180.107 79.3937 180.096 79.4479 180.095 79.5029C180.094 79.5579 180.104 79.6125 180.125 79.6635C180.155 79.7444 180.209 79.814 180.281 79.8626C180.352 79.9112 180.436 79.9364 180.523 79.9348H180.667C181.246 79.6997 184.14 78.5242 184.736 77.4572C185.573 74.9496 186.178 72.3709 186.545 69.7531C186.556 69.6912 186.553 69.6276 186.536 69.5671C186.519 69.5066 186.488 69.4507 186.446 69.4037C186.405 69.3567 186.353 69.3198 186.295 69.2957C186.236 69.2717 186.174 69.2611 186.111 69.2648Z" fill="#16162B"/>
<path d="M179.42 86.4814C179.42 86.4814 173.198 97.1152 163.975 97.3323C163.975 108.183 165.205 119.034 166.29 120.68C166.29 120.68 145.511 143.304 133.9 155.692C133.9 155.692 147.609 174.897 175.766 155.945C188.426 147.481 197.468 130.626 197.468 122.958C197.378 111.818 184.284 88.2718 179.42 86.4814Z" fill="#EF490F"/>
<path d="M179.564 86.0839C179.467 86.0497 179.362 86.0509 179.266 86.0873C179.17 86.1237 179.09 86.193 179.04 86.2829C179.04 86.2829 172.855 96.6996 163.957 96.9528C163.85 96.9575 163.749 97.0034 163.675 97.0809C163.601 97.1584 163.559 97.2615 163.559 97.3688C163.559 107.098 164.608 118.021 165.784 120.644C163.614 122.977 144.462 143.828 133.593 155.529C133.531 155.606 133.498 155.702 133.498 155.8C133.498 155.899 133.531 155.995 133.593 156.072C135.914 158.834 138.82 161.046 142.101 162.547C145.382 164.049 148.956 164.802 152.564 164.752C159.798 164.752 167.683 161.931 176.074 156.325C189.185 147.5 197.866 130.428 197.866 122.995C197.794 111.511 184.465 87.8924 179.564 86.0839ZM175.531 155.62C167.357 161.045 159.635 163.92 152.564 163.92C149.136 163.959 145.741 163.247 142.617 161.835C139.493 160.423 136.715 158.345 134.479 155.746C145.981 143.449 166.381 121.168 166.598 121.005C166.651 120.932 166.679 120.843 166.679 120.752C166.679 120.661 166.651 120.573 166.598 120.499C165.585 118.871 164.373 108.437 164.355 97.7847C172.674 97.2784 178.389 88.7424 179.528 86.9339C184.411 89.5019 196.907 112.252 196.907 122.904C196.962 130.319 187.956 147.264 175.531 155.62Z" fill="#000502"/>
<path d="M172.565 153.721C178.316 147.662 177.267 121.548 158.803 121.548C158.803 121.548 153.378 129.125 151.714 129.668C138.91 133.845 128.909 131.223 121.928 131.892C113.302 132.724 115.562 138.023 115.562 138.023C115.562 138.023 99.4671 143.268 100.245 164.825C100.625 176.073 95.2534 188.642 95.0725 198.1H177.738C177.738 195.261 177.738 189.347 176.038 187.43C173.849 184.862 172.565 153.721 172.565 153.721Z" fill="#EF490F"/>
<path d="M173 153.956C176.309 150.339 177.43 139.777 173.904 131.567C172.775 128.482 170.716 125.824 168.011 123.961C165.305 122.098 162.088 121.122 158.803 121.168C158.738 121.169 158.675 121.187 158.618 121.218C158.561 121.25 158.513 121.295 158.478 121.349C156.398 124.242 152.69 128.944 151.587 129.306C146.363 130.977 140.904 131.796 135.42 131.73C133.268 131.73 131.296 131.73 129.379 131.567C126.886 131.405 124.385 131.405 121.892 131.567C118.583 131.874 116.467 132.887 115.436 134.533C115.152 135.033 114.97 135.585 114.901 136.156C114.833 136.728 114.88 137.307 115.038 137.86C112.542 138.855 99.1598 145.094 99.829 164.861C99.7147 171.252 98.7848 177.603 97.062 183.759C95.7863 188.454 94.9806 193.264 94.6567 198.118C94.6566 198.23 94.6949 198.339 94.7652 198.426C94.8506 198.501 94.9589 198.546 95.0727 198.552H177.738C177.848 198.552 177.954 198.509 178.032 198.431C178.11 198.353 178.154 198.247 178.154 198.136C178.154 194.881 178.063 189.094 176.345 187.159C174.627 185.224 173.614 166.38 173 153.956ZM95.5067 197.684C95.8792 193.039 96.6782 188.439 97.8939 183.94C99.63 177.707 100.56 171.276 100.661 164.806C99.9556 143.846 115.526 138.547 115.743 138.493C115.856 138.451 115.947 138.367 115.997 138.258C116.024 138.205 116.038 138.146 116.038 138.086C116.038 138.027 116.024 137.968 115.997 137.914C115.818 137.43 115.745 136.914 115.782 136.399C115.82 135.884 115.967 135.384 116.214 134.931C117.064 133.538 119.017 132.67 122.019 132.399C124.476 132.236 126.941 132.236 129.397 132.399C131.314 132.399 133.304 132.579 135.474 132.579C141.045 132.679 146.596 131.879 151.913 130.21C153.559 129.668 158.134 123.447 159.147 122.108C162.226 122.102 165.233 123.044 167.757 124.808C170.281 126.572 172.2 129.071 173.253 131.965C176.58 139.922 175.423 150.104 172.258 153.503C172.188 153.59 172.149 153.699 172.15 153.811C172.276 157.012 173.506 185.097 175.767 187.702C176.834 188.949 177.412 192.584 177.358 197.684H95.5067Z" fill="#000502"/>
<g style="mix-blend-mode:multiply" opacity="0.5">
<path d="M172.638 129.939C167.628 136.287 168.044 139.705 159.979 140.429C151.913 141.152 127.426 140.609 127.227 140.555C128.746 141.658 139.489 149.869 142.527 155.023C147.952 164.065 153.739 176.128 173.669 172.42L172.566 153.721C176.201 149.977 177.105 138.132 172.638 129.939Z" fill="#647794"/>
</g>
<path d="M150.321 156.252C143.515 153.594 137.297 149.624 132.02 144.57C128.222 141.26 125.491 138.873 122.435 139.253L122.543 140.084C125.22 139.759 127.842 142.038 131.459 145.202C136.845 150.326 143.178 154.349 150.104 157.048C153.371 158.329 156.833 159.039 160.34 159.146C168.75 159.146 171.806 154.082 171.806 154.01L171.083 153.594C171.083 153.594 165.965 161.967 150.321 156.252Z" fill="#101C2F"/>
<path d="M44.8877 96.5905C46.4973 92.214 45.0143 86.7705 51.9227 83.9312C57.5651 81.5802 54.4365 79.0845 49.3727 80.6217C44.309 82.1589 40.4208 85.7939 34.905 85.2695C29.3892 84.745 16.2778 79.8621 9.91197 80.676C5.64399 81.2185 6.89183 83.6238 9.91197 84.1301C11.9194 84.4737 20.3287 86.9152 20.3287 86.9152C20.3287 86.9152 15.5544 87.9641 16.0969 90.2428C16.6395 92.5214 15.5906 92.9916 15.8437 94.9267C16.2597 98.1819 18.5564 98.7064 19.1894 101.582C20.3649 107.007 28.7381 103.39 33.2774 107.767C37.8166 112.143 51.5067 134.731 51.5067 134.731L63.8948 120.498C63.8948 120.498 41.8314 104.891 44.8877 96.5905Z" fill="url(#paint3_linear_554_1470)"/>
<path d="M45.2133 96.7355C45.6281 95.5077 45.9189 94.2415 46.0813 92.9558C46.642 89.5378 47.1845 86.3006 52.0131 84.2932C55.1237 83.0092 55.3769 81.7794 55.2684 81.1646C55.0875 80.2603 53.912 79.6997 52.2121 79.6997C51.1802 79.7207 50.1567 79.8912 49.1738 80.2061C47.4199 80.7808 45.7145 81.4944 44.0739 82.3401C41.3179 84.0442 38.1263 84.9112 34.8869 84.8358C31.9707 84.413 29.0836 83.809 26.2424 83.0273C21.4148 81.5678 16.4422 80.64 11.413 80.2603C10.869 80.2518 10.3251 80.282 9.78539 80.3508C7.09077 80.6944 6.67482 81.7071 6.65674 82.3039C6.65674 83.3347 7.92267 84.3294 9.71305 84.6368C11.1779 84.89 16.2235 86.3187 18.7554 87.024C17.6389 87.3287 16.6381 87.9581 15.8799 88.8325C15.7319 89.0531 15.6314 89.302 15.5847 89.5635C15.538 89.825 15.5461 90.0934 15.6087 90.3516C15.8468 91.1541 15.8468 92.0086 15.6087 92.8111C15.3983 93.5141 15.3367 94.2532 15.4278 94.9813C15.6231 96.4198 16.2542 97.7641 17.2363 98.8333C17.9789 99.6357 18.5076 100.612 18.7735 101.673C19.4788 104.892 22.3904 105.29 25.5914 105.561C28.2498 105.868 31.0168 106.158 32.9699 108.075C37.4188 112.361 51.0546 134.731 51.1993 134.966L51.5067 135.455L64.582 120.408L64.2022 120.155C63.9309 119.992 42.374 104.693 45.2133 96.7355ZM51.4887 134.026C49.4089 130.608 37.6358 111.511 33.404 107.478C31.1622 105.696 28.3826 104.727 25.5191 104.729C22.4447 104.385 20.0032 104.114 19.4426 101.51C19.1568 100.316 18.5718 99.2143 17.7426 98.3088C16.9265 97.3328 16.4168 96.1374 16.2778 94.8728C16.2135 94.2639 16.2751 93.6483 16.4586 93.0643C16.7256 92.1244 16.7256 91.1287 16.4586 90.1888C16.4234 90.0408 16.4197 89.887 16.4477 89.7375C16.4757 89.5879 16.5349 89.446 16.6214 89.3208C17.6521 88.3087 18.9623 87.6285 20.383 87.3676L22.0106 87.0059L20.4192 86.5538C20.0756 86.4453 11.9556 84.0943 9.94815 83.7507C8.51946 83.4975 7.57906 82.7741 7.59714 82.2677C7.61523 81.7614 8.23011 81.3454 9.98432 81.1284C10.4884 81.0678 10.9957 81.0376 11.5034 81.038C16.4589 81.4263 21.358 82.3479 26.1159 83.7868C29.0002 84.6185 31.9363 85.2589 34.905 85.7038C35.2667 85.7038 35.6465 85.7038 35.9901 85.7038C38.9931 85.5464 41.917 84.6853 44.5261 83.1901C46.1243 82.3705 47.7804 81.6693 49.4813 81.0922C50.3902 80.8123 51.3336 80.6601 52.2844 80.6401C53.6407 80.6401 54.4184 81.038 54.5088 81.4358C54.5992 81.8337 54.0748 82.6475 51.7599 83.606C46.4973 85.7942 45.9005 89.4112 45.3218 92.9196C45.1534 94.1477 44.875 95.3583 44.4899 96.5365C41.5963 104.476 60.2416 118.383 63.298 120.571L51.4887 134.026Z" fill="#000502"/>
<path d="M122.001 109.847C121.911 109.927 121.841 110.027 121.797 110.139C121.753 110.251 121.735 110.372 121.745 110.492C121.755 110.611 121.793 110.727 121.856 110.83C121.918 110.933 122.004 111.02 122.106 111.084C122.208 111.148 122.323 111.188 122.443 111.199C122.563 111.211 122.684 111.195 122.796 111.152C122.909 111.11 123.01 111.041 123.092 110.953C123.173 110.864 123.233 110.758 123.267 110.642C123.356 110.562 123.426 110.462 123.47 110.35C123.515 110.238 123.533 110.117 123.522 109.997C123.512 109.877 123.474 109.761 123.412 109.659C123.349 109.556 123.263 109.469 123.161 109.405C123.059 109.341 122.944 109.301 122.824 109.289C122.704 109.278 122.584 109.294 122.471 109.336C122.358 109.379 122.257 109.448 122.176 109.536C122.094 109.625 122.034 109.731 122.001 109.847Z" fill="#000502"/>
<path d="M121.639 109.63C121.456 109.914 121.373 110.251 121.404 110.588C121.416 110.755 121.466 110.917 121.551 111.061C121.635 111.206 121.752 111.328 121.892 111.42C122.059 111.528 122.254 111.585 122.453 111.583C122.694 111.573 122.929 111.501 123.135 111.375C123.341 111.248 123.511 111.071 123.628 110.859C123.832 110.585 123.919 110.242 123.872 109.903C123.825 109.565 123.646 109.259 123.375 109.051C123.067 108.904 122.714 108.883 122.391 108.991C122.067 109.098 121.798 109.327 121.639 109.63ZM122.905 110.407C122.742 110.697 122.471 110.787 122.344 110.715C122.287 110.655 122.25 110.579 122.236 110.498C122.231 110.346 122.268 110.195 122.344 110.064C122.394 109.978 122.462 109.904 122.543 109.848C122.624 109.792 122.717 109.754 122.815 109.738H122.923C122.977 109.847 123.086 110.136 122.977 110.407H122.905Z" fill="#000502"/>
<path d="M79.339 134.225C70.785 118.166 46.8951 101.021 46.8951 101.021C40.0561 109.855 36.1429 120.602 35.7007 131.765C35.7007 131.765 49.5536 157.211 61.4894 169.544C73.4253 181.878 95.8503 184.464 105.833 185.151L119.035 148.114C111.349 139.253 79.339 134.225 79.339 134.225Z" fill="#EF490F"/>
<path d="M79.5742 133.827C71.002 117.931 47.3473 100.841 47.0217 100.678C46.9451 100.608 46.8451 100.569 46.7414 100.569C46.6377 100.569 46.5377 100.608 46.4611 100.678C39.5945 109.6 35.653 120.427 35.1763 131.675C35.16 131.747 35.16 131.821 35.1763 131.892C35.3209 132.145 49.1738 157.554 61.0374 169.87C71.8882 181.064 91.293 184.609 105.652 185.622V184.772C91.4377 183.777 72.2499 180.269 61.598 169.291C50.1866 157.536 36.8943 133.447 35.9177 131.675C36.4277 120.798 40.2096 110.328 46.7686 101.636C49.644 103.734 70.8935 119.721 78.7604 134.46C78.7939 134.516 78.8385 134.563 78.8914 134.601C78.9443 134.638 79.0044 134.664 79.0678 134.677C79.3933 134.677 111.023 139.777 118.529 148.44L119.162 147.879C111.891 139.253 82.6305 134.315 79.5742 133.827Z" fill="#000502"/>
<path d="M166.109 114.639C170.395 95.415 157.808 96.3554 157.808 96.3554C147.374 76.4623 131.495 87.3131 131.495 87.3131C114.713 84.8355 119.161 99.7554 119.161 99.7554C120.717 90.3152 126.739 92.3949 126.739 92.3949C117.028 95.2523 124.46 102.143 126.739 104.855C129.56 108.147 127.806 111.149 129.108 114.639C129.797 114.416 130.518 114.306 131.242 114.314C139.489 114.314 139.471 127.081 131.242 127.081C129.662 127.131 128.127 126.552 126.974 125.472C115.056 120.046 102.614 139.252 102.614 139.252C118.312 143.086 120.5 150.103 120.5 150.103C106.231 176.651 112.398 191.173 139.814 188.605C167.231 186.037 163.505 204.592 180.36 193.741C197.215 182.891 188.082 171.136 173.217 155.529C158.351 139.921 161.425 135.635 166.109 114.639Z" fill="#000502"/>
<path d="M165.169 120.661C165.585 118.853 166.055 116.863 166.525 114.729C168.117 107.622 167.61 102.396 165.042 99.1765C164.19 98.1591 163.125 97.3416 161.922 96.7822C160.718 96.2227 159.407 95.935 158.08 95.9393C152.835 86.0651 146.198 83.9673 141.55 83.9673C137.97 84.0304 134.475 85.0683 131.441 86.9693C125.889 86.1736 122.001 87.2044 119.921 89.9895C117.027 93.8777 118.727 99.719 118.8 99.9722L119.324 101.781L119.614 99.9722C120.554 94.3479 123.086 93.0096 124.822 92.7384C124.085 92.9838 123.412 93.3903 122.852 93.9284C122.292 94.4664 121.859 95.1225 121.585 95.8489C120.753 98.7967 123.719 102.124 125.69 104.313L126.45 105.163C127.673 106.694 128.267 108.634 128.113 110.588C128.077 112.001 128.291 113.409 128.746 114.747L128.873 115.127L129.271 115.001C129.914 114.795 130.585 114.691 131.26 114.693C132.039 114.674 132.814 114.817 133.534 115.113C134.255 115.409 134.907 115.852 135.447 116.413C135.988 116.974 136.406 117.642 136.675 118.373C136.945 119.104 137.059 119.883 137.011 120.661C137.04 122.165 136.526 123.629 135.564 124.784C135.027 125.387 134.361 125.862 133.617 126.175C132.872 126.488 132.067 126.631 131.26 126.593C129.788 126.636 128.358 126.097 127.281 125.092H127.173C125.717 124.414 124.131 124.062 122.525 124.061C112.036 124.061 102.632 138.402 102.27 138.999L101.945 139.505L102.524 139.65C116.449 142.978 119.595 148.909 120.048 149.94C112.47 164.064 110.68 174.644 114.622 181.371C118.239 187.556 126.847 190.106 139.778 188.895C141.586 188.732 143.196 188.641 144.769 188.641C151.471 188.43 158.055 190.432 163.505 194.338C166.109 196.02 168.352 197.467 171.3 197.467C174.638 197.192 177.83 195.975 180.505 193.958C186.147 190.341 189.149 186.453 189.692 182.095C190.668 173.993 182.91 165.059 173.415 155.058C160.34 141.205 161.371 136.847 165.169 120.661ZM188.914 182.149C188.426 186.236 185.55 189.925 180.125 193.416C177.583 195.34 174.548 196.506 171.372 196.78C168.677 196.78 166.616 195.459 164.03 193.796C158.449 189.795 151.704 187.748 144.842 187.972C143.232 187.972 141.532 187.972 139.778 188.207C127.119 189.383 118.944 186.978 115.436 181.1C111.602 174.716 113.483 164.064 120.861 150.356V150.193V150.031C120.861 149.741 118.474 142.941 103.247 139.18C105.055 136.63 113.501 125.128 122.471 125.128C123.931 125.129 125.374 125.443 126.703 126.05C127.928 127.175 129.543 127.778 131.206 127.732C133.014 127.732 134.748 127.014 136.027 125.735C137.305 124.457 138.024 122.723 138.024 120.914C138.024 119.106 137.305 117.372 136.027 116.093C134.748 114.815 133.014 114.096 131.206 114.096C130.596 114.104 129.989 114.183 129.397 114.331C129.087 113.188 128.941 112.007 128.963 110.823C129.147 108.659 128.5 106.506 127.155 104.801L126.395 103.933C124.587 101.998 121.766 98.7606 122.471 96.2468C122.869 94.8543 124.279 93.7692 126.92 93.0096L128.186 92.6479L126.938 92.2139C126.447 92.0579 125.934 91.9846 125.419 91.9969C123.61 91.9969 120.681 92.8107 119.27 97.8925C118.806 95.3942 119.297 92.8127 120.644 90.6586C122.453 88.1087 126.233 87.2044 131.495 87.9821H131.658L131.803 87.8736C134.736 86.0375 138.109 85.0254 141.568 84.9439C148.043 84.9439 153.396 88.8863 157.483 96.6808L157.609 96.934H157.881C159.123 96.8939 160.358 97.1368 161.492 97.6444C162.626 98.1519 163.63 98.9109 164.427 99.8637C166.833 102.866 167.285 107.857 165.766 114.693C165.277 116.827 164.825 118.798 164.391 120.607C160.612 136.738 159.472 141.603 172.963 155.872C182.223 165.583 189.891 174.355 188.914 182.077V182.149Z" fill="#000502"/>
<path d="M114.206 118.256C114.119 118.3 114.023 118.324 113.926 118.324C113.828 118.324 113.732 118.3 113.646 118.256C113.397 118.042 113.231 117.748 113.175 117.424L112.344 117.569C112.389 117.856 112.493 118.131 112.648 118.376C112.804 118.622 113.008 118.833 113.248 118.997C113.439 119.092 113.649 119.142 113.863 119.142C114.101 119.143 114.337 119.087 114.55 118.979C115.419 118.607 116.151 117.975 116.648 117.171L115.906 116.773C115.504 117.429 114.911 117.946 114.206 118.256Z" fill="#000502"/>
<defs>
<linearGradient id="paint0_linear_554_1470" x1="133.249" y1="116.647" x2="140.176" y2="112.903" gradientUnits="userSpaceOnUse">
<stop stop-color="#FE757C"/>
<stop offset="0.38" stop-color="#FE908B"/>
<stop offset="0.75" stop-color="#FEA495"/>
<stop offset="1" stop-color="#FEAB99"/>
</linearGradient>
<linearGradient id="paint1_linear_554_1470" x1="183.615" y1="79.5917" x2="192.205" y2="79.5917" gradientUnits="userSpaceOnUse">
<stop stop-color="#FE757C"/>
<stop offset="0.38" stop-color="#FE908B"/>
<stop offset="0.75" stop-color="#FEA495"/>
<stop offset="1" stop-color="#FEAB99"/>
</linearGradient>
<linearGradient id="paint2_linear_554_1470" x1="175.875" y1="88.6512" x2="175.676" y2="78.994" gradientUnits="userSpaceOnUse">
<stop stop-color="#FE757C"/>
<stop offset="0.38" stop-color="#FE908B"/>
<stop offset="0.75" stop-color="#FEA495"/>
<stop offset="1" stop-color="#FEAB99"/>
</linearGradient>
<linearGradient id="paint3_linear_554_1470" x1="41.3793" y1="85.5588" x2="37.0933" y2="97.0607" gradientUnits="userSpaceOnUse">
<stop stop-color="#FE757C"/>
<stop offset="0.38" stop-color="#FE908B"/>
<stop offset="0.75" stop-color="#FEA495"/>
<stop offset="1" stop-color="#FEAB99"/>
</linearGradient>
</defs>
</svg>
