<svg width="211" height="160" viewBox="0 0 211 179" fill="none" xmlns="http://www.w3.org/2000/svg">
<g style="mix-blend-mode:multiply" opacity="0.8">
<path d="M90.7121 89.5859C90.2471 88.7276 89.8895 88.1554 89.8895 88.1554C89.7243 87.3048 89.5154 86.4632 89.2637 85.6341C88.4195 84.2385 87.2392 83.0766 85.8305 82.2545C85.2225 81.8969 84.4715 81.5035 83.7205 81.1101C95.2003 77.6769 97.203 62.1917 95.8798 54.8782C96.9771 54.2321 97.8852 53.3088 98.5129 52.2009C99.1406 51.093 99.4659 49.8394 99.456 48.5661C99.4531 47.7252 99.3081 46.8909 99.0269 46.0984H93.6625C93.6625 45.6514 93.6625 45.2044 93.6625 44.7573L94.0022 44.9898C95.4063 39.1312 96.1441 33.1327 96.2016 27.1085C96.1301 17.8817 86.0271 12.5173 75.5129 17.381C72.9738 14.2339 69.3975 13.5186 64.5695 13.8047C62.6098 13.9963 60.7187 14.6281 59.0374 15.6529C57.3561 16.6778 55.9281 18.0693 54.86 19.7235C42.8616 19.7235 36.7104 22.2447 33.7957 38.928C31.489 52.2318 40.4297 64.3732 42.2 66.1613C45.236 68.8293 48.5513 71.1614 52.0884 73.1172C51.8559 76.2643 51.5877 79.1611 51.3016 81.7896H51.2122C47.7611 81.7896 44.8822 88.2627 44.2921 89.6932L44.1669 89.4428H41.4132C22.6557 89.4428 6.99161 102.389 5.29288 119.305L0 178.259H129.121L121.593 117.409C119.286 102.764 106.501 91.5707 90.7121 89.5859Z" fill="#617C85"/>
</g>
<path d="M91.5704 5.98989C79.9297 11.998 112.331 35.2974 112.331 35.2974C113.844 29.0058 114.642 22.5635 114.709 16.0929C114.709 5.81108 103.229 -0.000356674 91.5704 5.98989Z" fill="#002D3A"/>
<path d="M101.012 3.14648C97.655 3.19733 94.3581 4.04299 91.3914 5.61411C90.631 5.94074 89.9734 6.46741 89.4885 7.13809C89.0036 7.80876 88.7095 8.59835 88.6377 9.42284C87.994 18.2026 111.097 34.9395 112.098 35.6369C112.163 35.6923 112.245 35.7238 112.33 35.7263H112.474C112.539 35.7062 112.599 35.6693 112.646 35.619C112.693 35.5688 112.726 35.5072 112.742 35.4402C114.249 29.099 115.047 22.61 115.12 16.0926C115.12 8.54665 109.183 3.14648 101.012 3.14648ZM112.08 34.5998C108.647 32.0606 88.8344 17.1297 89.4781 9.56589C89.5218 8.88259 89.7607 8.22617 90.1664 7.67464C90.5721 7.1231 91.1276 6.69963 91.767 6.45453C94.6163 4.93762 97.7842 4.11655 101.012 4.05843C108.701 4.05843 114.28 9.11885 114.28 16.0926C114.2 22.3219 113.463 28.5254 112.08 34.5998Z" fill="#000502"/>
<path d="M112.134 29.6649C111.687 16.0929 88.2981 7.72446 78.4991 13.3034C68.7001 18.8824 69.5585 38.3373 69.5585 38.3373C64.0868 38.1406 60.4211 41.5381 60.8502 47.0098C61.0599 49.1984 61.7954 51.3039 62.994 53.147C64.1927 54.9902 65.819 56.5163 67.7346 57.5955C67.4218 68.8812 66.1597 80.1206 63.9616 91.1946C63.9616 91.1946 74.6904 102.925 91.0876 100.511C101.566 98.9551 99.0984 94.145 98.4011 91.284C97.3219 85.8562 96.5163 80.3776 95.9871 74.8689C115.353 74.8689 116.569 48.9767 113.511 42.9507C111.043 38.3194 112.277 34.3855 112.134 29.6649Z" fill="url(#paint0_linear_554_1953)"/>
<path d="M112.456 33.4913C112.456 32.2575 112.581 30.9879 112.456 29.6468C112.17 18.3458 96.7916 11.1218 86.3668 11.1218C83.5648 11.0247 80.784 11.6399 78.2844 12.9099C69.0755 18.1491 69.004 34.9397 69.0576 37.9438C67.823 37.8932 66.5913 38.099 65.4403 38.5484C64.2892 38.9977 63.2438 39.6808 62.37 40.5544C61.5943 41.4393 61.0148 42.4783 60.6696 43.6033C60.3244 44.7282 60.2214 45.9135 60.3673 47.0811C60.5776 49.2862 61.3102 51.4095 62.5042 53.2752C63.6983 55.1409 65.3195 56.6954 67.2338 57.81C66.9058 69.0227 65.6498 80.189 63.4787 91.1944V91.409L63.6396 91.5699C69.7883 97.6374 78.0173 101.135 86.6529 101.351C88.1555 101.353 89.6559 101.239 91.1411 101.011C95.2002 100.403 97.7393 99.2231 98.8659 97.435C99.2812 96.6059 99.5093 95.6957 99.534 94.7687C99.5587 93.8417 99.3794 92.9207 99.0089 92.0706C99.0089 91.7845 98.848 91.4984 98.7943 91.2481C97.737 85.9869 96.9492 80.6752 96.434 75.3337C99.3887 75.333 102.291 74.5543 104.849 73.0758C107.408 71.5974 109.531 69.4713 111.007 66.9115C116.139 58.5788 115.764 46.5805 113.868 42.8075C112.522 39.8994 112.032 36.6679 112.456 33.4913ZM110.256 66.5182C108.822 69.0245 106.733 71.0939 104.213 72.5049C101.694 73.9159 98.8378 74.6156 95.9512 74.529H95.4863V74.9939C95.4863 75.1012 96.5949 86.0804 97.9003 91.4805C97.9003 91.7487 98.0433 92.0348 98.1327 92.3388C98.4769 93.0812 98.6553 93.8898 98.6553 94.7081C98.6553 95.5264 98.4769 96.335 98.1327 97.0774C97.1492 98.5794 94.7531 99.6344 90.9802 100.189C89.5357 100.403 88.0774 100.51 86.6171 100.511C78.2942 100.315 70.3511 96.9883 64.3727 91.1944C66.5225 80.1616 67.7783 68.9733 68.1278 57.7384V57.4702L67.949 57.3272C66.0962 56.2778 64.5241 54.7968 63.366 53.0099C62.208 51.223 61.4983 49.1831 61.2971 47.0633C61.1621 46.012 61.2517 44.944 61.5599 43.9299C61.8682 42.9158 62.3881 41.9786 63.0853 41.1803C63.9287 40.337 64.9476 39.6899 66.0695 39.2851C67.1913 38.8802 68.3886 38.7275 69.5762 38.8378H70.0232V38.3908C70.0232 38.1941 69.3438 19.0432 78.8209 13.6609C81.1822 12.4167 83.8239 11.8009 86.492 11.8728C96.5949 11.8728 111.526 18.775 111.83 29.5932C111.893 30.85 111.893 32.1093 111.83 33.3661C111.376 36.6979 111.878 40.0901 113.278 43.1472C114.905 46.8487 115.209 58.4179 110.256 66.5182Z" fill="#000502"/>
<path d="M84.7576 33.9739L85.294 34.5997C86.6039 33.4595 88.1273 32.591 89.7757 32.0446C91.4241 31.4982 93.1647 31.2848 94.8963 31.4168L95.0215 30.5764C93.1701 30.424 91.3071 30.6462 89.5436 31.23C87.7801 31.8137 86.1523 32.7469 84.7576 33.9739Z" fill="#000502"/>
<path d="M110.185 34.9401C107.336 34.8541 104.556 34.0483 102.103 32.5977L101.638 33.295C104.224 34.8467 107.17 35.6972 110.185 35.7627V34.9222V34.9401Z" fill="#000502"/>
<path d="M103.301 48.834C102.246 48.834 101.191 49.4777 100.118 50.9797L100.797 51.4804C101.673 50.2466 102.585 49.6923 103.247 49.6923C103.909 49.6923 104.57 50.6758 104.588 50.6758L105.321 50.3003C105.123 49.9148 104.836 49.5814 104.485 49.3267C104.134 49.0721 103.729 48.9033 103.301 48.834Z" fill="#000502"/>
<path d="M90.3545 39.625H87.8153C87.5741 39.8475 87.4134 40.1437 87.3584 40.4672C87.3034 40.7908 87.3572 41.1234 87.5113 41.4131C87.7934 41.653 88.1429 41.7994 88.5117 41.8322C88.8805 41.8649 89.2504 41.7824 89.5702 41.5959C89.8901 41.4095 90.1442 41.1284 90.2975 40.7913C90.4508 40.4543 90.4957 40.078 90.426 39.7144L90.3545 39.625Z" fill="#000502"/>
<path d="M90.7121 39.3385L90.5869 39.1597H87.6186L87.4934 39.2848C87.1943 39.5764 86.9978 39.957 86.9333 40.3697C86.8688 40.7823 86.9399 41.2048 87.1358 41.5737C87.2992 41.8574 87.5373 42.0908 87.8243 42.2484C88.1112 42.4061 88.4359 42.4819 88.763 42.4677C89.1666 42.4666 89.5623 42.3553 89.9074 42.1459C90.3733 41.8786 90.7284 41.4537 90.9088 40.9478C90.9958 40.7021 91.0281 40.4404 91.0034 40.181C90.9787 39.9215 90.8976 39.6706 90.7657 39.4458L90.7121 39.3385ZM90.122 40.6796C90.0153 40.9997 89.7918 41.2679 89.4961 41.4306C89.2792 41.5579 89.0324 41.6258 88.7809 41.6273C88.6041 41.6357 88.4282 41.5972 88.2711 41.5155C88.114 41.4338 87.9814 41.312 87.8868 41.1624C87.7884 40.9785 87.7477 40.7693 87.77 40.5619C87.7924 40.3546 87.8767 40.1588 88.012 40.0001H90.122C90.1712 40.1129 90.1966 40.2346 90.1966 40.3577C90.1966 40.4808 90.1712 40.6025 90.122 40.7153V40.6796Z" fill="#000502"/>
<path d="M108.862 39.625H106.322C106.081 39.8475 105.92 40.1437 105.865 40.4672C105.81 40.7908 105.864 41.1234 106.018 41.4131C106.3 41.653 106.65 41.7994 107.019 41.8322C107.388 41.8649 107.757 41.7824 108.077 41.5959C108.397 41.4095 108.651 41.1284 108.805 40.7913C108.958 40.4543 109.003 40.078 108.933 39.7144L108.862 39.625Z" fill="#000502"/>
<path d="M109.219 39.3385L109.076 39.1597H106.144L106.019 39.2848C105.719 39.5764 105.523 39.957 105.458 40.3697C105.394 40.7823 105.465 41.2048 105.661 41.5737C105.824 41.8574 106.062 42.0908 106.349 42.2484C106.636 42.4061 106.961 42.4819 107.288 42.4677C107.692 42.4666 108.087 42.3553 108.433 42.1459C108.898 41.8786 109.254 41.4537 109.434 40.9478C109.521 40.7021 109.553 40.4404 109.529 40.181C109.504 39.9215 109.423 39.6706 109.291 39.4458L109.219 39.3385ZM108.629 40.6796C108.523 40.9997 108.299 41.2679 108.003 41.4306C107.786 41.5579 107.54 41.6258 107.288 41.6273C107.111 41.6357 106.935 41.5972 106.778 41.5155C106.621 41.4338 106.489 41.312 106.394 41.1624C106.296 40.9785 106.255 40.7693 106.277 40.5619C106.3 40.3546 106.384 40.1588 106.519 40.0001H108.629C108.678 40.1129 108.704 40.2346 108.704 40.3577C108.704 40.4808 108.678 40.6025 108.629 40.7153V40.6796Z" fill="#000502"/>
<path d="M89.818 55.2891L89.1743 55.8255C89.1743 55.8255 92.1247 59.2408 95.2719 59.2408C96.1983 59.2438 97.0989 58.9352 97.8289 58.3647L97.3282 57.6852C94.038 60.1707 89.8538 55.4321 89.818 55.2891Z" fill="#000502"/>
<path d="M72.187 61.4756L71.4539 61.8511C78.213 74.7078 95.9513 75.3694 96.1301 75.3694V74.529C95.9692 74.529 78.6779 73.9031 72.187 61.4756Z" fill="#000502"/>
<path d="M66.3041 51.0871C65.8451 50.8124 65.4488 50.4445 65.1408 50.0071C64.8328 49.5697 64.62 49.0727 64.5159 48.548C64.175 47.5023 64.1636 46.3772 64.4835 45.3249C64.8033 44.2726 65.4389 43.344 66.3041 42.665C66.7155 42.3446 67.222 42.1705 67.7435 42.1705C68.265 42.1705 68.7716 42.3446 69.183 42.665L69.6836 42.0034C69.1289 41.58 68.4503 41.3506 67.7524 41.3506C67.0546 41.3506 66.376 41.58 65.8213 42.0034C64.8275 42.7922 64.097 43.8645 63.7265 45.078C63.3561 46.2915 63.3632 47.589 63.747 48.7983C63.8769 49.4321 64.1381 50.0316 64.5139 50.5583C64.8896 51.0849 65.3715 51.527 65.9286 51.856C66.5613 52.1712 67.2602 52.3307 67.967 52.3209C68.5738 52.3303 69.1779 52.2397 69.7552 52.0527L69.4691 51.2659C68.429 51.6053 67.2993 51.5414 66.3041 51.0871Z" fill="#000502"/>
<path d="M66.1608 46.08C65.8501 45.7218 65.627 45.2962 65.509 44.8369C65.3911 44.3776 65.3816 43.8972 65.4813 43.4336H64.6409C64.5239 44.0317 64.5522 44.6492 64.7233 45.2342C64.8944 45.8192 65.2034 46.3545 65.6244 46.7953C66.1751 47.2398 66.8659 47.4743 67.5734 47.4569C67.8054 47.4796 68.0389 47.4796 68.2708 47.4569L68.092 46.6522C67.748 46.6958 67.3988 46.6674 67.0663 46.5689C66.7339 46.4704 66.4255 46.3039 66.1608 46.08Z" fill="#000502"/>
<path d="M117.802 36.0667H102.997C102.908 36.0634 102.822 36.0898 102.75 36.1416C102.679 36.1935 102.627 36.2679 102.603 36.3528C102.206 37.4876 102.061 38.6953 102.178 39.8919C102.294 41.0885 102.67 42.2453 103.28 43.2819C103.889 44.3185 104.716 45.21 105.705 45.8944C106.693 46.5788 107.819 47.0397 109.004 47.245C110.188 47.4504 111.403 47.3952 112.564 47.0834C113.726 46.7716 114.805 46.2107 115.727 45.4396C116.65 44.6684 117.393 43.7057 117.906 42.6182C118.419 41.5307 118.688 40.3445 118.696 39.1423C118.7 38.1898 118.53 37.2445 118.196 36.3528C118.172 36.2679 118.12 36.1935 118.049 36.1416C117.977 36.0898 117.89 36.0634 117.802 36.0667ZM110.399 46.5988C109.223 46.6127 108.06 46.3467 107.007 45.8227C105.953 45.2987 105.039 44.5317 104.341 43.5851C103.642 42.6384 103.178 41.5391 102.988 40.378C102.798 39.2169 102.887 38.0272 103.247 36.9071H117.445C117.672 37.6302 117.787 38.3842 117.784 39.1423C117.785 41.1075 117.009 42.9934 115.626 44.3897C114.243 45.786 112.365 46.5799 110.399 46.5988Z" fill="#000502"/>
<path d="M98.5262 36.0664H83.7204C83.633 36.0661 83.5476 36.0936 83.4769 36.1451C83.4062 36.1965 83.3537 36.2692 83.327 36.3525C82.8806 37.602 82.7409 38.9404 82.9199 40.2552C83.0989 41.5699 83.5912 42.8223 84.3555 43.907C85.1197 44.9916 86.1334 45.8767 87.3112 46.4876C88.4891 47.0985 89.7965 47.4174 91.1233 47.4174C92.4501 47.4174 93.7575 47.0985 94.9354 46.4876C96.1132 45.8767 97.1269 44.9916 97.8911 43.907C98.6554 42.8223 99.1477 41.5699 99.3267 40.2552C99.5057 38.9404 99.366 37.602 98.9196 36.3525C98.893 36.2692 98.8405 36.1965 98.7697 36.1451C98.699 36.0936 98.6137 36.0661 98.5262 36.0664ZM91.1948 46.5985C90.0183 46.6125 88.8554 46.3465 87.8019 45.8225C86.7485 45.2985 85.8347 44.5315 85.1361 43.5848C84.4374 42.6381 83.9739 41.5388 83.7837 40.3777C83.5935 39.2166 83.6821 38.0269 84.0423 36.9068H98.2401C98.6002 38.0269 98.6889 39.2166 98.4987 40.3777C98.3085 41.5388 97.845 42.6381 97.1463 43.5848C96.4477 44.5315 95.5339 45.2985 94.4804 45.8225C93.427 46.3465 92.264 46.6125 91.0875 46.5985H91.1948Z" fill="#000502"/>
<path d="M103.497 83.5596H99.2593C97.8491 85.7028 95.7176 87.2697 93.2512 87.9763C90.5356 88.6799 87.6531 88.3084 85.2046 86.9391C83.3586 86.0782 81.5671 85.1048 79.8402 84.0245C79.6077 83.8814 79.3932 83.7205 79.1786 83.5596H55.7719C35.566 83.5596 18.686 97.5249 16.8621 115.746L13.4468 178.331H147.932L142.157 113.958C139.474 96.5593 122.916 83.5596 103.497 83.5596Z" fill="white"/>
<path d="M103.497 83.148H99.2594C99.1878 83.1468 99.1172 83.1644 99.0545 83.1989C98.9917 83.2334 98.9391 83.2836 98.9018 83.3447C97.5517 85.4085 95.5103 86.9237 93.144 87.6183C90.5273 88.2741 87.7592 87.9097 85.4014 86.5991C84.7755 86.2415 84.1139 85.9375 83.4523 85.6156C82.2752 85.0717 81.1448 84.4318 80.0727 83.7023L79.572 83.3626L79.429 83.2553C79.3533 83.2319 79.2722 83.2319 79.1965 83.2553H55.772C35.2084 83.2553 18.2211 97.2564 16.433 115.817L13.0177 178.402C13.0119 178.457 13.0185 178.513 13.037 178.566C13.0556 178.619 13.0856 178.666 13.125 178.706C13.1627 178.75 13.2093 178.785 13.2617 178.81C13.3141 178.835 13.3711 178.848 13.4289 178.849H147.932C147.991 178.85 148.049 178.838 148.101 178.813C148.154 178.788 148.2 178.752 148.236 178.706C148.28 178.665 148.312 178.615 148.331 178.559C148.349 178.502 148.354 178.442 148.344 178.384L142.568 114.011C139.779 96.3266 122.988 83.148 103.497 83.148ZM13.8939 177.919L17.2913 115.853C19.0973 97.6498 35.6376 84.0421 55.772 84.0421H79.0177L79.5363 84.3997C80.6355 85.1613 81.8028 85.8197 83.0231 86.3666C83.6669 86.6706 84.3106 86.9925 84.9186 87.3322C87.4684 88.7452 90.4602 89.1351 93.287 88.423C95.8001 87.725 97.9931 86.1766 99.4919 84.0421H103.497C122.577 84.0421 139.028 96.9166 141.745 113.958L147.485 177.901L13.8939 177.919Z" fill="#000502"/>
<path d="M80.6984 1.78783C78.5888 1.99433 76.5533 2.67595 74.7447 3.78155C72.9361 4.88714 71.4014 6.38799 70.2557 8.17147C57.3096 8.17147 50.6935 10.8716 47.5643 28.8423C45.0788 43.1474 54.7168 56.2186 56.6123 57.9889C59.9635 60.9182 63.6205 63.4781 67.5199 65.6242C69.6656 63.4785 68.7895 58.6863 67.6629 57.6849C66.0315 57.0092 64.5743 55.9729 63.4006 54.6536C62.2268 53.3344 61.3671 51.7664 60.8859 50.0675C60.6671 48.7739 60.5654 47.4633 60.5819 46.1515C60.6892 41.0731 65.6423 36.728 70.0769 38.6234C72.5267 39.6963 74.5294 41.395 74.5294 36.9247C74.5294 33.1159 75.1552 23.2276 83.7025 23.2276C92.2498 23.2276 97.6321 16.9691 94.9141 9.88808C92.1961 2.80707 87.6185 1.23351 80.6984 1.78783Z" fill="#002D3A"/>
<path d="M83.0768 1.26953C82.3258 1.26953 81.539 1.26953 80.6628 1.37682C78.5099 1.55876 76.4261 2.22604 74.568 3.32855C72.7098 4.43106 71.1255 5.94016 69.934 7.74258C56.6482 7.74258 50.2646 10.8897 47.0638 28.771C44.5783 43.5053 54.717 56.809 56.3263 58.2931C59.7111 61.2413 63.3971 63.8245 67.3234 66C67.3876 66.0184 67.4558 66.0184 67.52 66C67.6326 65.9937 67.7397 65.9496 67.824 65.8748C68.8713 64.6314 69.3853 63.0249 69.2545 61.4045C69.2864 59.9544 68.8263 58.5363 67.9492 57.3812L67.7883 57.2203C64.7484 56.3262 62.1735 52.7857 61.2973 49.9068C61.0821 48.6549 60.9804 47.3861 60.9934 46.1159C60.9934 42.1642 64.3729 38.5521 67.8777 38.5521C68.5739 38.5511 69.2626 38.6973 69.8983 38.9813C70.2559 39.1243 70.5956 39.2853 70.9175 39.4462C71.6231 39.8666 72.4088 40.1346 73.2242 40.233C73.5056 40.2402 73.7826 40.162 74.0188 40.0088C74.2549 39.8556 74.4392 39.6346 74.5474 39.3747C74.8614 38.5856 74.9957 37.7366 74.9408 36.8892C74.9408 31.936 76.0852 23.6033 83.7027 23.6033C85.7578 23.7177 87.8098 23.3278 89.6797 22.4676C91.5497 21.6074 93.181 20.303 94.4315 18.6681C95.2998 17.3638 95.8325 15.8652 95.9822 14.3054C96.132 12.7457 95.8941 11.1731 95.2898 9.72741C92.9831 3.80868 89.4068 1.26953 83.0768 1.26953ZM93.8056 18.2747C92.6197 19.7857 91.0874 20.9889 89.3382 21.7826C87.589 22.5762 85.6744 22.937 83.7563 22.8344C75.4057 22.8344 74.1719 31.6857 74.1719 36.9607C74.2201 37.6849 74.1103 38.411 73.85 39.0886C73.811 39.2078 73.7338 39.3109 73.6304 39.382C73.527 39.4531 73.4032 39.4882 73.2778 39.482C72.5907 39.3617 71.9306 39.1195 71.3288 38.7667L70.2917 38.2839C69.5524 37.9615 68.7557 37.7912 67.9492 37.7832C63.9438 37.7832 60.3317 41.7171 60.2245 46.1696C60.22 47.5299 60.3337 48.888 60.5642 50.2287C61.069 51.9689 61.9552 53.5748 63.1584 54.9295C64.3616 56.2843 65.8516 57.354 67.52 58.0607C68.1754 59.0773 68.5117 60.2667 68.4856 61.476C68.5667 62.7445 68.2205 64.0036 67.5022 65.0523C63.7451 62.9483 60.2157 60.4615 56.9701 57.6315C55.3965 56.1831 45.5439 43.3265 48.0294 28.8604C51.0156 11.5155 57.2204 8.583 70.2559 8.583C70.3288 8.58059 70.3999 8.55962 70.4625 8.52208C70.5251 8.48453 70.5771 8.43165 70.6135 8.36842C71.7365 6.6531 73.2275 5.20946 74.9781 4.14237C76.7288 3.07528 78.6951 2.41154 80.7344 2.19936C81.5927 2.19936 82.3616 2.10995 83.0768 2.10995C89.0313 2.10995 92.3394 4.41665 94.5209 10.0672C95.0886 11.3905 95.3156 12.8351 95.1813 14.2688C95.047 15.7025 94.5556 17.0798 93.752 18.2747H93.8056Z" fill="#000502"/>
<path d="M97.06 80.7339C97.3461 82.3969 99.7422 87.0818 92.3214 87.0818C83.6847 87.0818 68.6286 76.353 66.304 74.7437C62.1377 74.7437 58.7402 83.5592 58.7402 83.5592L80.7522 103.443L93.1618 88.1189L107.61 99.5272C107.61 84.5069 97.06 80.7339 97.06 80.7339Z" fill="white"/>
<path d="M97.2031 80.3407C97.1358 80.3148 97.0628 80.307 96.9915 80.3181C96.9202 80.3293 96.8531 80.359 96.797 80.4043C96.7408 80.4496 96.6975 80.5089 96.6715 80.5762C96.6455 80.6435 96.6377 80.7165 96.6488 80.7878C96.6984 81.0773 96.7641 81.3638 96.8455 81.6461C97.115 82.2195 97.2547 82.8453 97.2547 83.4789C97.2547 84.1125 97.115 84.7383 96.8455 85.3117C96.2467 85.8475 95.5376 86.2453 94.7683 86.477C93.9989 86.7087 93.1881 86.7688 92.393 86.6528C87.1895 86.6528 78.7853 82.7011 67.3591 74.9227L66.5902 74.3862C66.5138 74.368 66.4342 74.368 66.3578 74.3862C61.959 74.3862 58.5436 83.1123 58.4006 83.4878C58.3679 83.5669 58.3607 83.6541 58.3799 83.7374C58.3991 83.8208 58.4439 83.896 58.5079 83.9528L80.4662 103.712C80.546 103.78 80.6473 103.818 80.7523 103.819C80.864 103.802 80.9657 103.745 81.0384 103.658L93.1977 88.6556L107.288 99.8493C107.351 99.8931 107.426 99.9166 107.503 99.9166C107.579 99.9166 107.654 99.8931 107.717 99.8493C107.788 99.8153 107.847 99.7619 107.888 99.6954C107.929 99.6289 107.951 99.552 107.95 99.4738C108.021 84.3998 97.3104 80.4659 97.2031 80.3407ZM93.4301 87.7972C93.3486 87.7256 93.2437 87.6861 93.1351 87.6861C93.0265 87.6861 92.9216 87.7256 92.84 87.7972L80.6986 102.782L59.241 83.3984C59.8311 81.9679 62.8173 75.2624 66.179 75.1015L66.8406 75.5485C78.374 83.4342 86.9571 87.4396 92.3215 87.4396C94.9143 87.4396 96.5773 86.8853 97.4356 85.7767C97.8041 85.1151 98.0166 84.3782 98.0568 83.622C98.0971 82.8659 97.9641 82.1105 97.668 81.4136C99.9747 82.5938 106.841 87.0641 107.181 98.5976L93.4301 87.7972Z" fill="#000502"/>
<path d="M107.61 83.1655C107.61 83.1655 116.354 125.634 114.28 138.777C112.355 152.09 109.626 165.275 106.108 178.259H150.203L142.157 113.278C139.582 97.113 125.169 84.8464 107.61 83.1655Z" fill="#002D3A"/>
<path d="M107.646 82.7549C107.579 82.7518 107.513 82.763 107.451 82.7876C107.39 82.8123 107.334 82.8499 107.288 82.898C107.262 82.9541 107.249 83.015 107.249 83.0768C107.249 83.1385 107.262 83.1995 107.288 83.2556C107.288 83.6847 115.996 125.795 113.958 138.688C112.024 151.988 109.295 165.16 105.786 178.134C105.756 178.189 105.741 178.25 105.741 178.313C105.741 178.375 105.756 178.437 105.786 178.492C105.824 178.547 105.875 178.592 105.934 178.623C105.993 178.654 106.059 178.671 106.126 178.67H150.203C150.264 178.671 150.324 178.659 150.379 178.634C150.434 178.609 150.483 178.572 150.523 178.526C150.562 178.48 150.591 178.426 150.606 178.367C150.622 178.309 150.625 178.247 150.615 178.188L142.568 113.207C139.975 96.9885 125.616 84.4715 107.646 82.7549ZM106.662 177.848C110.076 165.011 112.757 151.99 114.691 138.849C116.658 126.439 109.201 88.9061 108.128 83.649C125.456 85.4371 139.242 97.6679 141.745 113.314L149.756 177.848H106.662Z" fill="#000502"/>
<path d="M55.7719 82.9692C35.566 82.9692 18.686 96.9346 16.8621 115.156L11.158 178.259H96.5593C80.18 120.896 58.7402 82.9692 58.7402 82.9692H55.7719Z" fill="#002D3A"/>
<path d="M59.0977 82.7728C59.0642 82.7071 59.0129 82.6521 58.9497 82.6142C58.8865 82.5762 58.8138 82.5568 58.7401 82.5582H55.7718C35.2083 82.5582 18.221 96.5414 16.4328 115.102L10.7287 178.223C10.7185 178.282 10.723 178.342 10.7417 178.398C10.7605 178.454 10.7928 178.505 10.836 178.545C10.8721 178.591 10.9183 178.628 10.9711 178.653C11.0238 178.677 11.0817 178.69 11.14 178.688H96.5592C96.6233 178.687 96.6862 178.67 96.7423 178.639C96.7984 178.608 96.846 178.563 96.881 178.509C96.9124 178.455 96.9289 178.393 96.9289 178.331C96.9289 178.268 96.9124 178.206 96.881 178.152C80.752 121.396 59.3123 83.1483 59.0977 82.7728ZM11.6228 177.848L17.2911 115.263C19.0793 97.1315 35.6374 83.4701 55.7718 83.4701H58.4898C60.2779 86.5994 80.4659 123.739 95.9333 177.919L11.6228 177.848Z" fill="#000502"/>
<path d="M114.137 64.3726L124.329 105.035C124.397 105.284 124.538 105.506 124.733 105.674C124.929 105.842 125.171 105.947 125.427 105.976C125.683 106.005 125.942 105.956 126.171 105.836C126.399 105.716 126.586 105.53 126.707 105.303C129.795 99.7338 131.303 93.4275 131.07 87.064L130.337 64.7481L114.137 64.3726Z" fill="#F7BC48"/>
<path d="M130.337 64.3731L114.244 63.9082C114.115 63.9206 113.995 63.9776 113.904 64.0691C113.879 64.1252 113.865 64.1862 113.865 64.2479C113.865 64.3097 113.879 64.3707 113.904 64.4268L124.097 105.107C124.215 105.411 124.413 105.677 124.672 105.876C124.93 106.076 125.238 106.201 125.562 106.237C125.886 106.274 126.214 106.222 126.511 106.085C126.807 105.949 127.061 105.734 127.244 105.464C130.344 99.8596 131.871 93.5201 131.66 87.1182L130.748 64.7307C130.735 64.6312 130.686 64.5399 130.611 64.474C130.535 64.4081 130.438 64.3723 130.337 64.3731ZM126.35 105.017C126.275 105.155 126.163 105.269 126.028 105.348C125.892 105.427 125.738 105.467 125.581 105.464C125.391 105.471 125.204 105.412 125.051 105.299C124.898 105.185 124.789 105.023 124.74 104.839L114.691 64.7129L129.926 65.142L130.659 87.0824C130.868 93.3402 129.379 99.5379 126.35 105.017Z" fill="#000502"/>
<path d="M102.138 54.2698C100.35 55.3069 100.243 58.9369 102.138 62.4058C104.034 65.8748 106.966 67.9133 108.879 66.9656L168.299 57.5242L143.301 10.1387L102.138 54.2698Z" fill="#888A9E"/>
<path d="M102.138 54.2697C100.35 55.3068 100.243 58.9368 102.138 62.4057C104.034 65.8747 106.966 67.9132 108.879 66.9655L164.973 62.7991L136.792 11.3545L102.138 54.2697Z" fill="#2A685B"/>
<path d="M137.15 11.158C137.118 11.0985 137.072 11.0479 137.016 11.0105C136.96 10.9731 136.895 10.95 136.828 10.9434C136.759 10.9325 136.689 10.9419 136.625 10.9705C136.562 10.9991 136.508 11.0456 136.471 11.1043L101.924 53.948C99.9211 55.164 99.8496 58.9369 101.781 62.6026C103.354 65.5888 105.786 67.6094 107.843 67.6094C108.236 67.6169 108.627 67.5375 108.987 67.3769L165.009 63.2284C165.08 63.2184 165.147 63.1922 165.206 63.1519C165.265 63.1116 165.314 63.0582 165.349 62.996C165.383 62.9362 165.402 62.8683 165.402 62.7993C165.402 62.7302 165.383 62.6624 165.349 62.6026L137.15 11.158ZM108.772 66.5901H108.629C108.361 66.716 108.067 66.7772 107.771 66.7689C105.983 66.7689 103.855 64.8914 102.407 62.2092C100.726 59.0084 100.618 55.5395 102.299 54.6454L102.424 54.5381L136.721 12.1057L164.222 62.4417L108.772 66.5901Z" fill="#000502"/>
<path d="M146.341 5.56033C135.97 11.0141 133.824 27.2146 141.388 41.7343C148.952 56.2539 163.614 63.6032 174.003 58.1494C184.392 52.6956 186.52 36.4951 178.956 21.9754C171.393 7.45575 156.712 0.106519 146.341 5.56033Z" fill="#F7BC48"/>
<path d="M153.78 3.34332C151.115 3.30141 148.48 3.91548 146.109 5.13145C141.012 7.88518 137.686 13.2138 136.685 20.1875C135.863 27.7077 137.373 35.2989 141.012 41.9313C146.824 52.9641 157.106 60.3669 166.511 60.3669C169.181 60.4023 171.82 59.7887 174.2 58.5788C184.75 53.0177 187.057 36.549 179.314 21.8326C173.449 10.7283 163.275 3.34332 153.78 3.34332ZM173.807 57.792C171.558 58.9757 169.053 59.5897 166.511 59.5801C157.356 59.5801 147.414 52.4276 141.745 41.5736C138.186 35.0958 136.712 27.6772 137.526 20.3306C138.437 13.643 141.638 8.52891 146.466 6.02552C148.709 4.84191 151.208 4.22784 153.744 4.23739C162.899 4.23739 172.841 11.4793 178.51 22.2439C186.091 36.4774 183.963 52.4455 173.807 57.792Z" fill="#000502"/>
<path d="M134.933 32.8477L146.037 52.9105L160.95 38.8915L154.817 27.2329L134.933 32.8477Z" fill="#002D3A"/>
<path d="M155.174 27.0367C155.132 26.9499 155.06 26.8808 154.972 26.8416C154.884 26.8024 154.784 26.7955 154.691 26.8221L134.807 32.4547C134.692 32.4953 134.596 32.5784 134.539 32.6872C134.513 32.7463 134.5 32.8103 134.5 32.8749C134.5 32.9396 134.513 33.0035 134.539 33.0627L145.679 53.1077C145.711 53.164 145.754 53.2125 145.807 53.2496C145.859 53.2868 145.92 53.3116 145.983 53.3222C146.089 53.3245 146.191 53.2861 146.269 53.215L161.182 39.196C161.235 39.123 161.263 39.0355 161.263 38.9456C161.263 38.8558 161.235 38.7683 161.182 38.6953L155.174 27.0367ZM146.234 52.2315L135.54 33.1163L154.602 27.7519L160.431 38.8384L146.234 52.2315Z" fill="#000502"/>
<path d="M154.817 27.2332C152.51 28.4312 152.009 32.0254 153.708 35.244C155.407 38.4627 158.643 40.1077 160.95 38.8203C163.257 37.5328 163.74 34.0281 162.041 30.7916C160.342 27.555 157.106 26.0172 154.817 27.2332Z" fill="white"/>
<path d="M156.462 26.4106C155.838 26.4103 155.224 26.5638 154.674 26.8577C154.033 27.2244 153.491 27.7417 153.096 28.3648C152.7 28.988 152.462 29.6982 152.403 30.4339C152.209 32.1643 152.552 33.9124 153.386 35.4407C153.913 36.6151 154.742 37.629 155.788 38.3796C156.834 39.1301 158.059 39.5907 159.341 39.7144C159.963 39.7019 160.574 39.5491 161.129 39.2673C163.614 37.9441 164.187 34.0996 162.398 30.6664C161.872 29.4968 161.045 28.4872 160.003 27.7398C158.96 26.9924 157.739 26.5339 156.462 26.4106ZM160.753 38.5163C160.301 38.752 159.798 38.8747 159.287 38.8739C158.162 38.7441 157.09 38.3227 156.177 37.6516C155.265 36.9805 154.543 36.0828 154.084 35.0473C153.317 33.6771 152.998 32.1016 153.172 30.5412C153.214 29.9427 153.398 29.3628 153.709 28.8497C154.02 28.3365 154.449 27.905 154.96 27.5908C155.414 27.3613 155.917 27.2448 156.426 27.2511C157.552 27.3797 158.624 27.7983 159.54 28.466C160.455 29.1336 161.181 30.0273 161.647 31.0598C163.257 34.0817 162.845 37.4256 160.753 38.5163Z" fill="#000502"/>
<path d="M144.839 2.71753C132.483 9.22634 129.532 27.1077 138.115 43.4512C146.698 59.7948 163.149 67.4838 175.487 60.9928C187.826 54.5019 190.794 36.6027 182.211 20.2591C173.628 3.91558 157.213 -3.7734 144.839 2.71753ZM174.003 58.1497C163.614 63.5141 148.969 56.2543 141.388 41.7346C133.806 27.215 135.898 11.0145 146.341 5.56067C156.784 0.106855 171.375 7.45609 178.956 21.9757C186.538 36.4954 184.374 52.6959 174.003 58.1497Z" fill="white"/>
<path d="M154.298 0.00032013C150.942 -0.0184199 147.633 0.785876 144.66 2.34278C132.143 8.95887 129.05 27.0906 137.758 43.6487C144.159 55.8259 155.264 63.7116 166.046 63.7116C169.404 63.7329 172.716 62.9219 175.684 61.3512C188.201 54.753 191.277 36.6034 182.586 20.0632C176.167 7.88599 165.063 0.00032013 154.298 0.00032013ZM175.237 60.6181C172.386 62.1144 169.212 62.888 165.992 62.8711C155.514 62.8711 144.696 55.1643 138.437 43.2016C129.962 27.1084 132.84 9.42379 144.982 3.04015C147.859 1.55104 151.059 0.795534 154.298 0.840743C164.759 0.840743 175.577 8.52972 181.835 20.5102C190.329 36.5856 187.45 54.2344 175.237 60.6181Z" fill="#000502"/>
<path d="M153.78 3.34353C151.114 3.29941 148.48 3.91361 146.109 5.13166C141.012 7.88539 137.686 13.214 136.685 20.1878C135.863 27.708 137.373 35.2991 141.012 41.9315C146.806 52.9643 157.106 60.3671 166.511 60.3671C169.181 60.4025 171.82 59.7889 174.2 58.579C184.75 53.0179 187.057 36.5492 179.314 21.8328C173.449 10.7285 163.275 3.34353 153.78 3.34353ZM173.807 57.7743C171.561 58.9657 169.054 59.5802 166.511 59.5625C157.356 59.5625 147.414 52.4099 141.745 41.556C138.186 35.0781 136.712 27.6595 137.526 20.3129C138.437 13.6253 141.638 8.51124 146.466 6.00785C148.709 4.82424 151.208 4.21017 153.744 4.21971C162.899 4.21971 172.841 11.4617 178.51 22.2262C186.091 36.4598 183.963 52.4457 173.807 57.7743Z" fill="#000502"/>
<path d="M130.033 81.861C129.459 80.1811 128.468 78.6739 127.154 77.4801C125.259 75.692 121.79 72.8846 121.79 72.8846C121.79 72.8846 124.937 73.8144 126.153 73.0276C127.369 72.2409 126.814 69.8626 124.186 68.6646C121.557 67.4665 120.771 65.4996 117.212 65.6426C114.247 65.966 111.304 66.4615 108.397 67.1268C106.179 67.395 104.713 73.9932 100.457 82.3259C96.2016 90.6586 109.398 92.2501 109.398 104.767C109.398 111.598 92.2856 134.933 90.9087 150.043H121.057C121.057 150.043 126.797 116.694 128.012 111.455C128.746 108.272 132.983 108.361 128.406 101.03C122.934 92.2143 120.592 91.9819 123.685 88.0301C123.685 88.0301 124.687 90.301 126.367 90.5156C126.367 90.5156 127.136 97.0602 130.301 95.4866C133.466 93.9131 130.069 84.7578 130.069 84.7578C130.112 83.7923 130.1 82.8252 130.033 81.861Z" fill="url(#paint1_linear_554_1953)"/>
<path d="M130.534 81.7715C129.941 80.0086 128.906 78.4267 127.53 77.176C126.385 76.1031 124.633 74.6369 123.417 73.5998C123.842 73.6717 124.273 73.7076 124.704 73.707C125.289 73.7416 125.871 73.6115 126.385 73.3315C126.679 73.1443 126.912 72.8753 127.055 72.5576C127.197 72.2399 127.245 71.8874 127.19 71.5434C127.056 70.7821 126.724 70.0693 126.229 69.4763C125.733 68.8832 125.09 68.4306 124.365 68.1638C123.603 67.8021 122.884 67.3584 122.219 66.8406C120.843 65.6091 119.039 64.967 117.194 65.0525C115.143 65.1821 113.108 65.4993 111.115 66.0002C110.113 66.2148 109.165 66.4293 108.343 66.5187C106.716 66.7154 105.661 69.2725 103.908 73.5104C102.925 75.8707 101.691 78.8748 100.082 81.9682C97.793 86.4386 100.243 89.1208 103.086 92.1785C105.929 95.2362 108.951 98.5621 108.987 104.588C108.987 107.396 105.875 113.35 102.245 120.234C97.2744 129.694 91.1947 141.263 90.408 149.989V150.454H121.414V150.114C121.414 149.774 127.154 116.712 128.37 111.544C128.585 110.778 128.977 110.074 129.514 109.488C130.784 107.896 132.089 106.233 128.71 100.797C127.226 98.4191 125.992 96.7025 125.008 95.3077C122.541 91.8566 121.969 91.0519 123.578 88.8168C124.087 89.7639 124.927 90.4898 125.938 90.8553C126.135 92.1069 126.904 96.2197 129.318 96.2197C129.705 96.216 130.086 96.1178 130.426 95.9336C133.556 94.3779 130.873 85.9558 130.426 84.6683C130.527 83.7062 130.563 82.7384 130.534 81.7715ZM130.194 95.111C129.971 95.2398 129.718 95.3076 129.461 95.3077C127.816 95.3077 127.029 91.7314 126.868 90.4619V90.14H126.546C125.116 89.9612 124.204 87.9406 124.204 87.9227L123.918 87.2969L123.488 87.8333C121.021 90.9625 121.825 92.1069 124.508 95.8441C125.491 97.221 126.707 98.9376 128.084 101.209C131.16 106.144 130.14 107.449 128.96 108.933C128.336 109.61 127.883 110.425 127.637 111.312C126.493 116.229 121.361 146.019 120.753 149.578H91.2841C92.2319 141.066 98.1327 129.908 102.907 120.771C106.716 113.493 109.738 107.735 109.72 104.678C109.72 98.3118 106.322 94.6461 103.604 91.7136C100.886 88.781 98.7049 86.3492 100.743 82.4331C102.371 79.2503 103.587 76.282 104.588 73.9037C106.054 70.3275 107.216 67.5916 108.361 67.4486C109.219 67.3413 110.149 67.1267 111.204 66.8943C113.158 66.4774 115.144 66.232 117.141 66.1611C117.956 66.1114 118.773 66.2249 119.543 66.4951C120.314 66.7653 121.023 67.1868 121.629 67.7347C122.35 68.2798 123.122 68.753 123.935 69.1473C124.526 69.3422 125.054 69.6923 125.463 70.1611C125.872 70.6298 126.147 71.1999 126.26 71.8116C126.288 71.9949 126.264 72.1821 126.191 72.3526C126.118 72.5231 126 72.6701 125.849 72.7772C125.465 72.9614 125.04 73.0415 124.615 73.0097C123.672 72.9744 122.736 72.8304 121.825 72.5805L119.805 71.8831L121.593 73.2064C121.593 73.2064 125.169 76.0316 126.957 77.784C128.205 78.9276 129.156 80.3575 129.729 81.9503C129.729 82.2722 129.729 83.7385 129.729 84.6504V84.7935C130.873 88.2803 132.036 94.1633 130.105 95.111H130.194Z" fill="#000502"/>
<path d="M91.624 131.428L125.062 139.207C127.118 131.786 129.318 123.721 130.766 118.25C123.791 112.855 116.138 108.401 108.003 105C104.427 110.435 97.5249 120.681 91.624 131.428Z" fill="white"/>
<path d="M108.2 104.624C108.109 104.576 108.003 104.565 107.904 104.591C107.805 104.618 107.719 104.68 107.664 104.767L106.305 106.823C102.389 112.76 96.5593 121.7 91.1949 131.231C91.1688 131.29 91.1553 131.354 91.1553 131.419C91.1553 131.484 91.1688 131.547 91.1949 131.607C91.2242 131.663 91.2647 131.712 91.3139 131.752C91.3631 131.792 91.42 131.822 91.481 131.839L124.919 139.617C125.014 139.62 125.107 139.589 125.182 139.53C125.257 139.471 125.31 139.389 125.33 139.296C127.887 129.979 129.801 122.934 131.017 118.339C131.046 118.262 131.048 118.177 131.022 118.099C130.996 118.02 130.943 117.954 130.874 117.91C123.935 112.5 116.311 108.032 108.2 104.624ZM124.776 138.706L92.2499 131.142C97.3997 121.826 103.157 113.099 107.002 107.288L108.164 105.5C116.069 108.813 123.505 113.147 130.283 118.392C129.085 122.934 127.244 129.765 124.776 138.706Z" fill="#000502"/>
<path d="M65.7319 178.259H120.485C124.203 163.57 126.838 148.629 128.37 133.555C118.464 123.577 98.5084 114.494 98.4548 114.458C92.1069 124.185 79.8582 144.338 65.7319 178.259Z" fill="#002D3A"/>
<path d="M98.6515 114.154C98.5569 114.11 98.4497 114.099 98.3484 114.126C98.2471 114.152 98.1582 114.212 98.0972 114.297C87.0286 131.177 75.6918 153.243 65.3385 178.098C65.3165 178.163 65.3096 178.232 65.3185 178.3C65.3274 178.368 65.3517 178.433 65.3898 178.49C65.4278 178.547 65.4784 178.595 65.5378 178.629C65.5971 178.663 65.6635 178.684 65.7319 178.688H120.485C120.578 178.684 120.668 178.651 120.742 178.593C120.816 178.536 120.87 178.456 120.896 178.366C124.596 163.674 127.231 148.734 128.782 133.663C128.792 133.605 128.787 133.545 128.769 133.488C128.75 133.432 128.717 133.382 128.674 133.341C119.251 123.828 100.744 115.12 98.6515 114.154ZM120.109 177.848H66.3578C75.197 156.004 85.9685 134.994 98.5442 115.066C101.62 116.497 118.857 124.776 127.887 133.788C126.362 148.639 123.781 163.363 120.163 177.848H120.109Z" fill="#000502"/>
<path d="M117.463 70.4167C115.592 71.4369 113.526 72.0465 111.401 72.2048C111.295 72.2047 111.193 72.2456 111.116 72.3189C111.04 72.3922 110.994 72.4923 110.99 72.5982C111.002 73.9578 110.541 75.2794 109.684 76.3354L109.97 76.6394L110.257 76.9434C111.202 75.8453 111.744 74.4576 111.794 73.0095C113.839 72.7875 115.823 72.1807 117.642 71.2214C118.339 71.5969 120.735 72.8664 121.879 73.4029L122.219 72.634C120.932 72.0439 117.874 70.3988 117.838 70.3809C117.777 70.3603 117.711 70.3529 117.647 70.359C117.582 70.3652 117.519 70.3848 117.463 70.4167Z" fill="#000502"/>
<path d="M126.064 80.806C124.275 80.1802 120.949 81.6107 119.179 82.5942C117.535 83.6266 116.001 84.825 114.602 86.1704L115.192 86.7605C116.549 85.4594 118.028 84.2918 119.608 83.2737C121.647 82.0577 124.597 81.0564 125.777 81.4855C127.275 82.3972 128.62 83.5375 129.765 84.8651L130.391 84.2929C129.135 82.9168 127.675 81.7409 126.064 80.806Z" fill="#000502"/>
<path d="M107.699 78.1051L108.218 78.7488C108.218 78.7488 114.548 73.5632 120.127 72.4724L119.966 71.6499C114.19 72.7943 107.95 77.8905 107.699 78.1051Z" fill="#000502"/>
<path d="M120.949 76.3352C116.908 76.6392 110.864 80.4658 110.614 80.6446L111.061 81.3599C111.061 81.3599 117.176 77.4439 121.021 77.1757H121.218C124.901 77.1757 129.372 83.7918 129.425 83.8633L130.105 83.3984C129.908 83.0765 125.169 76.0313 120.949 76.3352Z" fill="#000502"/>
<path d="M30.5056 146.34L46.5631 178.563L47.3141 178.187L31.2566 145.965L30.5056 146.34Z" fill="#000502"/>
<path d="M127.619 86.2949H200.933C203.479 86.2949 205.922 87.3066 207.722 89.1074C209.523 90.9081 210.535 93.3505 210.535 95.8972V138.812C210.535 141.347 209.533 143.778 207.748 145.577C205.962 147.376 203.538 148.396 201.004 148.415H127.691C125.142 148.429 122.692 147.432 120.879 145.641C119.065 143.851 118.036 141.414 118.017 138.866V95.9509C118.022 93.4025 119.037 90.9602 120.841 89.1599C122.644 87.3597 125.089 86.3486 127.637 86.3486L127.619 86.2949Z" fill="#EF490F"/>
<path d="M201.004 85.8301H127.691C125.032 85.8348 122.483 86.8932 120.603 88.7734C118.722 90.6537 117.664 93.2025 117.659 95.8615V138.777C117.659 141.437 118.716 143.989 120.597 145.87C122.479 147.751 125.03 148.808 127.691 148.808H201.004C203.646 148.799 206.178 147.748 208.049 145.883C209.921 144.018 210.981 141.49 211 138.848V95.933C211.007 94.6133 210.754 93.3052 210.255 92.0832C209.757 90.8613 209.023 89.7495 208.094 88.8113C207.166 87.8732 206.062 87.1271 204.846 86.6155C203.629 86.104 202.324 85.8371 201.004 85.8301ZM210.195 138.812C210.195 141.252 209.227 143.591 207.504 145.318C205.781 147.044 203.443 148.017 201.004 148.021H127.691C125.251 148.017 122.914 147.044 121.19 145.318C119.467 143.591 118.5 141.252 118.5 138.812V95.8973C118.5 94.6903 118.737 93.4951 119.199 92.38C119.661 91.2649 120.338 90.2517 121.192 89.3983C122.045 88.5448 123.058 87.8678 124.173 87.4059C125.288 86.944 126.484 86.7063 127.691 86.7063H201.004C203.44 86.711 205.775 87.6808 207.498 89.4035C209.221 91.1261 210.19 93.4611 210.195 95.8973V138.812Z" fill="#000502"/>
<path d="M128.46 106.733L127.494 107.037V108.039H126.671V108.772H127.494V111.722C127.452 112.225 127.592 112.726 127.887 113.135C128.025 113.273 128.189 113.382 128.371 113.452C128.553 113.523 128.747 113.555 128.942 113.546C129.235 113.551 129.526 113.502 129.801 113.403V112.67C129.611 112.694 129.418 112.694 129.228 112.67C128.674 112.67 128.495 112.294 128.495 111.633V108.772H129.89V108.039H128.495L128.46 106.733Z" fill="white"/>
<path d="M133.18 107.914C132.805 107.909 132.432 107.984 132.088 108.134C131.744 108.285 131.437 108.508 131.186 108.787C130.935 109.067 130.747 109.397 130.635 109.755C130.522 110.114 130.488 110.492 130.534 110.865C130.504 111.219 130.548 111.577 130.665 111.913C130.781 112.25 130.966 112.559 131.208 112.82C131.451 113.081 131.745 113.288 132.072 113.429C132.4 113.569 132.753 113.64 133.109 113.636C133.478 113.64 133.844 113.567 134.184 113.42C134.523 113.274 134.828 113.059 135.079 112.787C135.33 112.516 135.521 112.195 135.641 111.846C135.76 111.496 135.805 111.125 135.773 110.757C135.817 110.395 135.782 110.027 135.671 109.679C135.559 109.331 135.374 109.011 135.128 108.741C134.882 108.471 134.581 108.258 134.245 108.115C133.908 107.972 133.545 107.904 133.18 107.914ZM133.18 112.814C132.232 112.814 131.571 111.92 131.571 110.739C131.571 109.559 132.072 108.647 133.216 108.647C134.36 108.647 134.825 109.792 134.825 110.704C134.754 111.92 134.11 112.814 133.127 112.814H133.18Z" fill="white"/>
<path d="M143.051 108.826C142.886 108.53 142.64 108.288 142.342 108.126C142.045 107.965 141.708 107.891 141.37 107.914C141.019 107.929 140.675 108.016 140.36 108.169C140.044 108.323 139.764 108.54 139.535 108.806C139.307 109.073 139.137 109.384 139.034 109.719C138.931 110.055 138.898 110.408 138.938 110.757C138.906 111.085 138.942 111.417 139.043 111.731C139.144 112.045 139.309 112.336 139.527 112.584C139.745 112.832 140.011 113.032 140.31 113.173C140.608 113.314 140.933 113.393 141.263 113.403C141.616 113.432 141.97 113.362 142.286 113.201C142.602 113.04 142.866 112.794 143.051 112.491V113.081C143.051 114.458 142.318 114.977 141.263 114.977C140.708 114.987 140.162 114.838 139.689 114.548L139.439 115.299C139.985 115.601 140.602 115.756 141.227 115.746C141.939 115.777 142.638 115.548 143.194 115.102C143.489 114.772 143.712 114.383 143.847 113.961C143.983 113.539 144.028 113.093 143.98 112.652V109.505C143.98 108.844 143.98 108.414 143.98 108.039H143.104L143.051 108.826ZM143.051 111.114C143.079 111.286 143.079 111.461 143.051 111.633C142.965 111.927 142.787 112.186 142.541 112.37C142.296 112.554 141.998 112.653 141.692 112.652C140.655 112.652 140.1 111.758 140.1 110.721C140.1 109.684 140.78 108.665 141.71 108.665C142.021 108.663 142.325 108.766 142.571 108.958C142.817 109.149 142.993 109.417 143.069 109.72C143.097 109.861 143.097 110.007 143.069 110.149L143.051 111.114Z" fill="white"/>
<path d="M147.754 107.896C147.386 107.905 147.023 107.992 146.691 108.15C146.358 108.308 146.063 108.535 145.823 108.815C145.584 109.094 145.406 109.421 145.301 109.774C145.196 110.127 145.167 110.499 145.215 110.864C145.186 111.222 145.234 111.582 145.356 111.92C145.478 112.258 145.671 112.566 145.921 112.823C146.172 113.08 146.475 113.281 146.809 113.412C147.144 113.543 147.502 113.601 147.861 113.582C148.474 113.588 149.081 113.472 149.649 113.242L149.47 112.545C148.993 112.736 148.482 112.827 147.968 112.813C147.494 112.813 147.039 112.624 146.704 112.289C146.369 111.954 146.18 111.499 146.18 111.025H149.953C149.966 110.87 149.966 110.715 149.953 110.56C150.007 110.237 149.991 109.906 149.906 109.59C149.821 109.273 149.669 108.979 149.461 108.726C149.252 108.474 148.992 108.269 148.697 108.126C148.403 107.982 148.081 107.904 147.754 107.896ZM146.162 110.184C146.174 109.778 146.336 109.391 146.617 109.097C146.898 108.803 147.277 108.624 147.682 108.593C147.879 108.598 148.072 108.645 148.249 108.731C148.426 108.816 148.582 108.938 148.709 109.088C148.836 109.239 148.929 109.414 148.983 109.603C149.037 109.792 149.051 109.99 149.023 110.184H146.162Z" fill="white"/>
<path d="M152.367 106.733L151.401 107.037V108.039H150.579V108.772H151.401V111.722C151.354 112.223 151.487 112.724 151.777 113.135C151.918 113.274 152.086 113.382 152.27 113.453C152.455 113.524 152.652 113.556 152.85 113.546C153.142 113.551 153.433 113.502 153.708 113.403V112.67C153.518 112.694 153.326 112.694 153.136 112.67C152.582 112.67 152.403 112.294 152.403 111.633V108.772H153.78V108.039H152.385L152.367 106.733Z" fill="white"/>
<path d="M158.411 106.733L157.463 107.037V108.039H156.623V108.772H157.463V111.722C157.416 112.223 157.549 112.724 157.838 113.135C157.976 113.273 158.141 113.382 158.322 113.452C158.504 113.523 158.699 113.555 158.893 113.546C159.186 113.551 159.477 113.502 159.752 113.403V112.67C159.549 112.691 159.345 112.685 159.144 112.652C158.607 112.652 158.411 112.277 158.411 111.615V108.772H159.805V108.039H158.411V106.733Z" fill="white"/>
<path d="M163.614 107.914C163.262 107.911 162.916 108.004 162.613 108.182C162.32 108.345 162.078 108.586 161.916 108.88V105.5H160.932V113.404H161.916V110.167C161.884 110.014 161.884 109.856 161.916 109.702C162.004 109.423 162.178 109.179 162.412 109.002C162.645 108.826 162.928 108.727 163.221 108.719C164.151 108.719 164.473 109.452 164.473 110.328V113.421H165.456V110.221C165.51 108.361 164.347 107.914 163.614 107.914Z" fill="white"/>
<path d="M169.247 107.896C168.879 107.905 168.517 107.992 168.184 108.15C167.852 108.308 167.556 108.535 167.317 108.815C167.077 109.094 166.899 109.421 166.794 109.774C166.69 110.127 166.66 110.499 166.708 110.864C166.679 111.222 166.727 111.582 166.849 111.92C166.971 112.258 167.164 112.566 167.415 112.823C167.665 113.08 167.968 113.281 168.302 113.412C168.637 113.543 168.995 113.601 169.354 113.582C169.967 113.588 170.575 113.472 171.142 113.242L170.963 112.545C170.492 112.734 169.987 112.826 169.479 112.813C169.005 112.813 168.55 112.624 168.215 112.289C167.88 111.954 167.691 111.499 167.691 111.025H171.464C171.477 110.87 171.477 110.715 171.464 110.56C171.518 110.235 171.502 109.903 171.416 109.585C171.33 109.268 171.176 108.973 170.966 108.72C170.755 108.467 170.493 108.262 170.196 108.12C169.9 107.978 169.576 107.901 169.247 107.896ZM167.673 110.184C167.677 109.779 167.834 109.389 168.112 109.094C168.391 108.799 168.77 108.62 169.175 108.593C169.372 108.598 169.565 108.645 169.742 108.731C169.919 108.816 170.076 108.938 170.202 109.088C170.329 109.239 170.422 109.414 170.476 109.603C170.531 109.792 170.544 109.99 170.516 110.184H167.673Z" fill="white"/>
<path d="M129.783 123.167C130.173 123.161 130.559 123.247 130.909 123.417L131.142 122.684C130.716 122.489 130.251 122.391 129.783 122.398C129.405 122.385 129.029 122.451 128.678 122.591C128.327 122.73 128.009 122.941 127.744 123.21C127.478 123.479 127.271 123.8 127.136 124.152C127.001 124.505 126.94 124.882 126.957 125.259C126.929 125.623 126.979 125.988 127.102 126.331C127.226 126.674 127.421 126.987 127.674 127.249C127.928 127.511 128.234 127.716 128.573 127.851C128.912 127.986 129.275 128.047 129.64 128.031C130.175 128.035 130.705 127.925 131.195 127.709L131.016 126.976C130.641 127.149 130.232 127.235 129.818 127.226C129.564 127.228 129.313 127.176 129.081 127.073C128.848 126.97 128.641 126.818 128.472 126.629C128.302 126.439 128.176 126.216 128.1 125.974C128.023 125.731 128 125.475 128.03 125.223C127.992 124.97 128.008 124.711 128.079 124.465C128.149 124.219 128.271 123.99 128.437 123.795C128.603 123.6 128.81 123.443 129.042 123.335C129.274 123.226 129.527 123.169 129.783 123.167Z" fill="white"/>
<path d="M134.486 122.398C134.124 122.39 133.764 122.457 133.429 122.594C133.094 122.732 132.791 122.938 132.539 123.198C132.287 123.458 132.092 123.767 131.965 124.107C131.839 124.446 131.784 124.808 131.803 125.169C131.774 125.527 131.819 125.886 131.936 126.225C132.053 126.564 132.239 126.875 132.483 127.137C132.727 127.4 133.024 127.608 133.353 127.75C133.682 127.891 134.038 127.963 134.396 127.959C134.759 127.964 135.119 127.895 135.454 127.755C135.789 127.616 136.092 127.409 136.343 127.147C136.595 126.885 136.79 126.575 136.917 126.235C137.043 125.894 137.098 125.532 137.078 125.169C137.111 124.812 137.068 124.452 136.952 124.113C136.836 123.774 136.649 123.463 136.404 123.201C136.159 122.94 135.862 122.733 135.531 122.594C135.2 122.456 134.844 122.389 134.486 122.398ZM134.486 127.279C133.538 127.279 132.876 126.403 132.876 125.223C132.876 124.043 133.377 123.131 134.521 123.131C135.666 123.131 136.131 124.275 136.131 125.187C136.059 126.403 135.362 127.279 134.432 127.279H134.486Z" fill="white"/>
<path d="M140.994 122.398C140.634 122.388 140.277 122.476 139.962 122.652C139.648 122.829 139.386 123.087 139.206 123.399V122.505H138.348C138.348 122.952 138.348 123.399 138.348 123.971V127.905H139.331V124.651C139.303 124.497 139.303 124.339 139.331 124.186C139.419 123.905 139.592 123.658 139.826 123.479C140.059 123.3 140.343 123.197 140.637 123.184C141.567 123.184 141.888 123.918 141.888 124.794V127.905H142.872V124.687C142.908 122.827 141.745 122.398 140.994 122.398Z" fill="white"/>
<path d="M146.234 124.776C145.536 124.507 145.214 124.311 145.214 123.846C145.214 123.381 145.536 123.113 146.109 123.113C146.497 123.124 146.877 123.228 147.217 123.417L147.45 122.719C147.05 122.499 146.6 122.388 146.144 122.397C145.923 122.38 145.7 122.408 145.49 122.478C145.279 122.549 145.085 122.66 144.918 122.807C144.752 122.954 144.616 123.132 144.52 123.332C144.423 123.532 144.367 123.749 144.356 123.971C144.356 124.615 144.803 125.133 145.787 125.491C146.77 125.849 146.77 126.009 146.77 126.492C146.77 126.975 146.448 127.279 145.733 127.279C145.279 127.266 144.836 127.136 144.446 126.904L144.213 127.637C144.669 127.901 145.188 128.037 145.715 128.03C146.985 128.03 147.718 127.351 147.718 126.403C147.718 125.455 147.164 125.169 146.234 124.776Z" fill="white"/>
<path d="M153.422 122.504H152.438V125.812C152.467 125.978 152.467 126.147 152.438 126.313C152.338 126.574 152.162 126.799 151.932 126.958C151.703 127.118 151.43 127.204 151.151 127.207C150.275 127.207 149.953 126.51 149.953 125.419V122.504H148.969V125.669C148.969 127.458 149.989 128.03 150.758 128.03C151.119 128.043 151.477 127.957 151.792 127.78C152.108 127.604 152.369 127.344 152.546 127.028V127.905H153.404C153.404 127.475 153.404 126.993 153.404 126.438L153.422 122.504Z" fill="white"/>
<path d="M156.033 120.001H155.049V127.905H156.033V120.001Z" fill="white"/>
<path d="M158.84 121.218L157.874 121.522V122.505H157.052V123.256H157.874V126.189C157.826 126.695 157.959 127.202 158.25 127.619C158.39 127.758 158.558 127.867 158.743 127.937C158.928 128.008 159.125 128.04 159.323 128.031C159.615 128.035 159.906 127.987 160.181 127.888V127.136C159.992 127.171 159.798 127.171 159.609 127.136C159.054 127.136 158.876 126.761 158.876 126.099V123.256H160.27V122.505H158.876L158.84 121.218Z" fill="white"/>
<path d="M165.134 124.597C165.134 123.506 164.741 122.397 163.078 122.397C162.451 122.387 161.832 122.548 161.29 122.862L161.522 123.506C161.946 123.243 162.436 123.106 162.935 123.113C163.103 123.091 163.273 123.109 163.433 123.165C163.593 123.221 163.738 123.313 163.856 123.435C163.974 123.556 164.062 123.703 164.113 123.865C164.164 124.026 164.177 124.197 164.151 124.364V124.472C162.076 124.454 160.932 125.169 160.932 126.474C160.929 126.687 160.97 126.898 161.053 127.094C161.136 127.29 161.258 127.467 161.413 127.613C161.568 127.76 161.751 127.872 161.951 127.944C162.152 128.016 162.365 128.045 162.577 128.03C162.898 128.034 163.215 127.963 163.503 127.823C163.792 127.683 164.044 127.479 164.24 127.225L164.329 127.905H165.224C165.154 127.473 165.124 127.037 165.134 126.6V124.597ZM164.186 126.081C164.203 126.188 164.203 126.296 164.186 126.403C164.091 126.674 163.911 126.907 163.672 127.068C163.434 127.229 163.15 127.309 162.863 127.297C162.74 127.305 162.616 127.287 162.501 127.242C162.385 127.198 162.28 127.13 162.194 127.042C162.107 126.953 162.041 126.847 161.999 126.731C161.957 126.614 161.941 126.49 161.951 126.367C161.951 125.312 163.167 125.133 164.24 125.151L164.186 126.081Z" fill="white"/>
<path d="M167.852 121.218L166.887 121.522V122.505H166.046V123.256H166.887V126.189C166.838 126.695 166.971 127.202 167.262 127.619C167.401 127.756 167.566 127.863 167.747 127.934C167.929 128.004 168.122 128.037 168.317 128.031C168.615 128.035 168.912 127.987 169.193 127.888V127.136C169.01 127.171 168.822 127.171 168.639 127.136C168.085 127.136 167.906 126.761 167.906 126.099V123.256H169.301V122.505H167.906L167.852 121.218Z" fill="white"/>
<path d="M170.838 120.27C170.756 120.265 170.674 120.277 170.597 120.305C170.52 120.334 170.45 120.378 170.391 120.435C170.332 120.493 170.286 120.561 170.255 120.638C170.224 120.714 170.21 120.796 170.212 120.878C170.208 120.96 170.22 121.043 170.248 121.121C170.276 121.199 170.32 121.271 170.377 121.331C170.434 121.391 170.503 121.439 170.579 121.472C170.655 121.505 170.737 121.521 170.82 121.521C170.905 121.524 170.989 121.509 171.067 121.477C171.146 121.446 171.216 121.398 171.275 121.337C171.334 121.277 171.38 121.205 171.409 121.126C171.439 121.046 171.451 120.962 171.446 120.878C171.449 120.797 171.435 120.717 171.405 120.642C171.375 120.567 171.331 120.499 171.274 120.442C171.217 120.385 171.149 120.341 171.074 120.311C170.999 120.281 170.919 120.267 170.838 120.27Z" fill="white"/>
<path d="M171.339 122.504H170.356V127.887H171.339V122.504Z" fill="white"/>
<path d="M175.237 122.398C174.877 122.392 174.519 122.461 174.186 122.6C173.853 122.739 173.552 122.944 173.302 123.204C173.053 123.464 172.859 123.773 172.733 124.111C172.608 124.449 172.553 124.809 172.573 125.169C172.531 125.538 172.57 125.912 172.686 126.265C172.803 126.617 172.994 126.941 173.247 127.212C173.5 127.484 173.809 127.698 174.153 127.839C174.496 127.98 174.866 128.046 175.237 128.03C175.599 128.024 175.956 127.944 176.285 127.795C176.615 127.645 176.91 127.43 177.153 127.161C177.396 126.893 177.582 126.578 177.698 126.236C177.814 125.893 177.859 125.53 177.83 125.169C177.863 124.812 177.82 124.452 177.704 124.113C177.587 123.774 177.401 123.463 177.156 123.201C176.911 122.94 176.613 122.733 176.283 122.594C175.952 122.456 175.596 122.389 175.237 122.398ZM175.237 127.279C174.307 127.279 173.628 126.403 173.628 125.223C173.628 124.043 174.128 123.131 175.273 123.131C176.417 123.131 176.9 124.275 176.9 125.187C176.829 126.403 176.113 127.279 175.237 127.279Z" fill="white"/>
<path d="M181.764 122.398C181.403 122.388 181.047 122.476 180.732 122.652C180.417 122.829 180.156 123.087 179.976 123.399V122.505H179.1C179.1 122.952 179.1 123.399 179.1 123.971V127.905H180.065V124.651C180.045 124.496 180.045 124.34 180.065 124.186C180.154 123.902 180.33 123.653 180.567 123.474C180.804 123.294 181.091 123.193 181.388 123.184C182.3 123.184 182.622 123.918 182.622 124.794V127.905H183.606V124.687C183.659 122.827 182.497 122.398 181.764 122.398Z" fill="white"/>
<path d="M158.822 32.186C158.822 32.186 201.04 57.5418 177.276 95.0211L201.076 91.0693C201.076 50.8363 158.822 32.186 158.822 32.186Z" fill="#EF490F"/>
<path d="M158.983 31.7568C158.886 31.7137 158.775 31.7101 158.675 31.7468C158.575 31.7835 158.493 31.8576 158.447 31.9535C158.401 32.0467 158.392 32.1539 158.422 32.2534C158.451 32.3529 158.518 32.4374 158.608 32.49C158.804 32.6151 178.581 44.685 183.159 64.0505C185.537 74.1356 183.445 84.4532 176.918 94.7349L177.615 95.182C184.267 84.7035 186.413 74.1535 183.963 63.8538C180.798 50.4428 170.481 40.4829 164.151 35.4583C175.559 42.1459 200.647 60.367 200.647 91.0156H201.487C201.487 51.015 159.412 31.9535 158.983 31.7568Z" fill="#000502"/>
<defs>
<linearGradient id="paint0_linear_554_1953" x1="81.3423" y1="66.2322" x2="87.3504" y2="55.4855" gradientUnits="userSpaceOnUse">
<stop stop-color="#FE757C"/>
<stop offset="0.38" stop-color="#FE908B"/>
<stop offset="0.75" stop-color="#FEA495"/>
<stop offset="1" stop-color="#FEAB99"/>
</linearGradient>
<linearGradient id="paint1_linear_554_1953" x1="131.07" y1="95.6297" x2="118.535" y2="105.447" gradientUnits="userSpaceOnUse">
<stop stop-color="#FE757C"/>
<stop offset="0.38" stop-color="#FE908B"/>
<stop offset="0.75" stop-color="#FEA495"/>
<stop offset="1" stop-color="#FEAB99"/>
</linearGradient>
</defs>
</svg>
