<svg width="22" height="22" viewBox="0 0 22 22" fill="none" xmlns="http://www.w3.org/2000/svg">
<rect width="21.3401" height="21.3401" rx="10.6701" fill="#F5EFC5"/>
<path d="M10.67 3.66797C12.8774 3.66797 14.6713 5.44187 14.6713 7.6359C14.6713 10.6102 10.67 15.0049 10.67 15.0049C10.67 15.0049 6.66872 10.6102 6.66872 7.6359C6.66872 5.44187 8.46262 3.66797 10.67 3.66797ZM10.67 6.33549C10.3163 6.33549 9.97701 6.47601 9.72688 6.72613C9.47676 6.97626 9.33624 7.31551 9.33624 7.66924C9.33624 8.02298 9.47676 8.36223 9.72688 8.61235C9.97701 8.86248 10.3163 9.003 10.67 9.003C11.0237 9.003 11.363 8.86248 11.6131 8.61235C11.8632 8.36223 12.0038 8.02298 12.0038 7.66924C12.0038 7.31551 11.8632 6.97626 11.6131 6.72613C11.363 6.47601 11.0237 6.33549 10.67 6.33549ZM16.005 15.0049C16.005 16.4787 13.6176 17.6724 10.67 17.6724C7.72239 17.6724 5.33496 16.4787 5.33496 15.0049C5.33496 14.1446 6.14855 13.3777 7.40896 12.8909L7.83576 13.4978C7.11553 13.7979 6.66872 14.2113 6.66872 14.6715C6.66872 15.5918 8.46262 16.3387 10.67 16.3387C12.8774 16.3387 14.6713 15.5918 14.6713 14.6715C14.6713 14.2113 14.2245 13.7979 13.5042 13.4978L13.931 12.8909C15.1914 13.3777 16.005 14.1446 16.005 15.0049Z" fill="#D0B301"/>
</svg>
