<svg width="20" height="20" viewBox="0 0 34 33" fill="none" xmlns="http://www.w3.org/2000/svg">
<path fill-rule="evenodd" clip-rule="evenodd" d="M17.0103 32.6732C20.2449 32.6732 23.4067 31.7127 26.0951 29.9139C28.7834 28.1151 30.8768 25.559 32.1108 22.569C33.3448 19.579 33.6638 16.29 33.0267 13.1187C32.3895 9.9475 30.825 7.03663 28.5319 4.75528C26.2388 2.47392 23.3205 0.92472 20.146 0.303826C16.9716 -0.317069 13.6838 0.0182829 10.7001 1.26757C7.71651 2.51685 5.171 4.62377 3.38599 7.32127C1.60098 10.0188 0.657029 13.1854 0.673553 16.42C0.690122 20.74 2.41906 24.8769 5.48157 27.9238C8.54408 30.9707 12.6903 32.6788 17.0103 32.6732Z" fill="#292728" fill-opacity="0.2"/>
<path d="M16.8431 8.17843C18.4602 8.14576 20.0509 8.59316 21.4137 9.46435C22.7765 10.3355 23.8503 11.5913 24.4995 13.0728C25.1487 14.5542 25.344 16.1949 25.0608 17.7873C24.7776 19.3798 24.0283 20.8527 22.9082 22.0195C21.7881 23.1863 20.3471 23.9948 18.7675 24.3428C17.1879 24.6907 15.5405 24.5624 14.0338 23.9742C12.5271 23.386 11.2287 22.3643 10.3026 21.0382C9.37657 19.7121 8.86439 18.1412 8.83105 16.5241V16.4196C8.8145 15.3521 9.00914 14.2916 9.40308 13.2992C9.79703 12.3068 10.3826 11.402 11.1268 10.6364C11.8711 9.87085 12.7591 9.25962 13.7399 8.83782C14.7208 8.41601 15.7754 8.19202 16.8431 8.17843Z" fill="#D0B301"/>
</svg>
