<?xml version="1.0" encoding="UTF-8"?>
<svg xmlns="http://www.w3.org/2000/svg" xmlns:xlink="http://www.w3.org/1999/xlink" width="23px" height="23px" viewBox="0 0 23 23" version="1.1">
<g id="surface1">
<path style=" stroke:none;fill-rule:nonzero;fill:rgb(96.470588%,96.470588%,96.470588%);fill-opacity:1;" d="M 5.746094 0.929688 C 5.796875 0.929688 5.851562 0.929688 5.902344 0.929688 C 6.074219 0.929688 6.242188 0.929688 6.414062 0.929688 C 6.535156 0.929688 6.65625 0.929688 6.78125 0.929688 C 7.078125 0.929688 7.375 0.929688 7.671875 0.929688 C 7.914062 0.929688 8.15625 0.929688 8.398438 0.929688 C 9.085938 0.925781 9.777344 0.925781 10.464844 0.925781 C 10.519531 0.925781 10.519531 0.925781 10.578125 0.925781 C 10.632812 0.925781 10.632812 0.925781 10.6875 0.925781 C 11.289062 0.925781 11.890625 0.925781 12.488281 0.925781 C 13.105469 0.921875 13.726562 0.921875 14.34375 0.921875 C 14.6875 0.921875 15.035156 0.921875 15.382812 0.921875 C 15.675781 0.921875 15.972656 0.921875 16.265625 0.921875 C 16.414062 0.921875 16.566406 0.921875 16.714844 0.921875 C 17.542969 0.917969 18.375 0.941406 19.140625 1.292969 C 19.175781 1.308594 19.210938 1.324219 19.246094 1.339844 C 19.527344 1.46875 19.785156 1.613281 20.035156 1.796875 C 20.070312 1.824219 20.109375 1.851562 20.148438 1.878906 C 21.175781 2.667969 21.828125 3.769531 22.039062 5.046875 C 22.078125 5.382812 22.070312 5.722656 22.070312 6.066406 C 22.070312 6.148438 22.070312 6.234375 22.070312 6.320312 C 22.070312 6.550781 22.070312 6.78125 22.070312 7.011719 C 22.070312 7.203125 22.070312 7.394531 22.070312 7.589844 C 22.070312 8.042969 22.070312 8.5 22.070312 8.953125 C 22.070312 9.421875 22.070312 9.890625 22.070312 10.359375 C 22.074219 10.761719 22.074219 11.164062 22.074219 11.566406 C 22.074219 11.808594 22.074219 12.046875 22.074219 12.289062 C 22.074219 12.515625 22.074219 12.742188 22.074219 12.96875 C 22.074219 13.050781 22.074219 13.132812 22.074219 13.214844 C 22.078125 13.871094 22.019531 14.5 21.78125 15.117188 C 21.769531 15.15625 21.753906 15.191406 21.742188 15.226562 C 21.269531 16.421875 20.316406 17.355469 19.140625 17.867188 C 19.097656 17.886719 19.050781 17.90625 19.003906 17.925781 C 18.960938 17.941406 18.917969 17.957031 18.875 17.976562 C 18.097656 18.261719 17.3125 18.25 16.496094 18.222656 C 16.3125 18.214844 16.128906 18.210938 15.941406 18.207031 C 15.910156 18.207031 15.878906 18.207031 15.847656 18.207031 C 15.75 18.207031 15.652344 18.203125 15.554688 18.203125 C 15.160156 18.195312 14.761719 18.1875 14.367188 18.171875 C 12.609375 18.105469 11.386719 18.257812 9.980469 19.429688 C 9.746094 19.628906 9.496094 19.792969 9.238281 19.957031 C 9.164062 20.007812 9.089844 20.058594 9.019531 20.105469 C 8.351562 20.558594 7.683594 21.007812 7.011719 21.453125 C 6.9375 21.503906 6.863281 21.554688 6.785156 21.601562 C 6.683594 21.671875 6.582031 21.738281 6.476562 21.808594 C 6.445312 21.828125 6.417969 21.847656 6.386719 21.867188 C 6.089844 22.0625 5.832031 22.089844 5.480469 22.058594 C 5.21875 21.980469 5.050781 21.835938 4.898438 21.609375 C 4.722656 21.261719 4.742188 20.910156 4.738281 20.535156 C 4.738281 20.464844 4.738281 20.398438 4.734375 20.328125 C 4.734375 20.148438 4.734375 19.96875 4.730469 19.785156 C 4.730469 19.601562 4.726562 19.417969 4.726562 19.234375 C 4.722656 18.871094 4.71875 18.511719 4.71875 18.148438 C 4.667969 18.132812 4.617188 18.117188 4.566406 18.101562 C 4.5 18.082031 4.4375 18.0625 4.371094 18.042969 C 4.339844 18.03125 4.304688 18.023438 4.273438 18.011719 C 4.046875 17.941406 3.832031 17.859375 3.625 17.75 C 3.59375 17.734375 3.566406 17.71875 3.535156 17.703125 C 3.449219 17.65625 3.363281 17.613281 3.28125 17.566406 C 3.234375 17.539062 3.191406 17.515625 3.144531 17.492188 C 2.019531 16.820312 1.34375 15.679688 1.023438 14.441406 C 0.960938 14.160156 0.9375 13.890625 0.9375 13.605469 C 0.9375 13.570312 0.9375 13.535156 0.9375 13.5 C 0.9375 13.382812 0.9375 13.261719 0.933594 13.144531 C 0.933594 13.058594 0.933594 12.976562 0.933594 12.890625 C 0.933594 12.613281 0.933594 12.332031 0.933594 12.054688 C 0.933594 11.960938 0.933594 11.863281 0.933594 11.765625 C 0.929688 11.3125 0.929688 10.863281 0.929688 10.410156 C 0.929688 9.890625 0.929688 9.371094 0.925781 8.847656 C 0.925781 8.445312 0.925781 8.042969 0.925781 7.640625 C 0.925781 7.398438 0.925781 7.160156 0.921875 6.917969 C 0.921875 6.691406 0.921875 6.464844 0.921875 6.238281 C 0.921875 6.15625 0.921875 6.074219 0.921875 5.992188 C 0.917969 5.269531 0.988281 4.527344 1.292969 3.859375 C 1.308594 3.824219 1.324219 3.789062 1.339844 3.753906 C 1.46875 3.472656 1.613281 3.214844 1.796875 2.964844 C 1.824219 2.929688 1.851562 2.890625 1.878906 2.851562 C 2.675781 1.8125 3.777344 1.171875 5.0625 0.960938 C 5.292969 0.933594 5.519531 0.929688 5.746094 0.929688 Z M 4.949219 7.152344 C 4.792969 7.386719 4.773438 7.628906 4.824219 7.902344 C 4.902344 8.183594 5.097656 8.386719 5.347656 8.535156 C 5.636719 8.628906 5.929688 8.636719 6.234375 8.636719 C 6.304688 8.636719 6.304688 8.636719 6.375 8.636719 C 6.53125 8.636719 6.6875 8.636719 6.84375 8.636719 C 6.957031 8.636719 7.070312 8.636719 7.183594 8.636719 C 7.457031 8.636719 7.730469 8.636719 8.003906 8.636719 C 8.226562 8.636719 8.449219 8.636719 8.671875 8.636719 C 8.71875 8.636719 8.71875 8.636719 8.769531 8.636719 C 8.832031 8.636719 8.898438 8.636719 8.960938 8.636719 C 9.566406 8.636719 10.171875 8.636719 10.773438 8.636719 C 11.292969 8.636719 11.808594 8.636719 12.328125 8.636719 C 12.929688 8.636719 13.53125 8.636719 14.132812 8.636719 C 14.199219 8.636719 14.261719 8.636719 14.328125 8.636719 C 14.359375 8.636719 14.390625 8.636719 14.421875 8.636719 C 14.644531 8.636719 14.867188 8.636719 15.089844 8.636719 C 15.390625 8.636719 15.6875 8.636719 15.988281 8.636719 C 16.097656 8.636719 16.207031 8.636719 16.316406 8.636719 C 16.46875 8.636719 16.617188 8.636719 16.765625 8.636719 C 16.832031 8.636719 16.832031 8.636719 16.898438 8.636719 C 17.335938 8.632812 17.652344 8.585938 17.972656 8.273438 C 18.136719 8.085938 18.183594 7.90625 18.214844 7.660156 C 18.171875 7.328125 18.042969 7.09375 17.785156 6.882812 C 17.527344 6.71875 17.292969 6.726562 16.996094 6.726562 C 16.949219 6.726562 16.898438 6.726562 16.847656 6.726562 C 16.683594 6.726562 16.523438 6.726562 16.359375 6.726562 C 16.242188 6.726562 16.125 6.726562 16.007812 6.722656 C 15.722656 6.722656 15.433594 6.722656 15.148438 6.722656 C 14.917969 6.722656 14.6875 6.722656 14.453125 6.722656 C 13.796875 6.722656 13.136719 6.722656 12.480469 6.722656 C 12.425781 6.722656 12.425781 6.722656 12.371094 6.722656 C 12.335938 6.722656 12.300781 6.722656 12.265625 6.722656 C 11.6875 6.722656 11.113281 6.722656 10.539062 6.71875 C 9.945312 6.71875 9.355469 6.71875 8.765625 6.71875 C 8.433594 6.71875 8.101562 6.71875 7.769531 6.714844 C 7.457031 6.714844 7.144531 6.714844 6.832031 6.714844 C 6.71875 6.714844 6.605469 6.714844 6.488281 6.714844 C 6.332031 6.714844 6.175781 6.714844 6.019531 6.714844 C 5.953125 6.714844 5.953125 6.714844 5.882812 6.714844 C 5.484375 6.71875 5.199219 6.832031 4.949219 7.152344 Z M 6.941406 10.890625 C 6.742188 11.15625 6.699219 11.394531 6.738281 11.726562 C 6.820312 12 6.992188 12.203125 7.234375 12.355469 C 7.4375 12.4375 7.613281 12.453125 7.835938 12.457031 C 7.867188 12.457031 7.902344 12.457031 7.933594 12.457031 C 8.042969 12.457031 8.152344 12.457031 8.261719 12.457031 C 8.339844 12.457031 8.417969 12.457031 8.496094 12.457031 C 8.707031 12.457031 8.917969 12.457031 9.128906 12.457031 C 9.261719 12.457031 9.394531 12.457031 9.527344 12.457031 C 9.992188 12.460938 10.453125 12.460938 10.917969 12.460938 C 11.347656 12.460938 11.777344 12.460938 12.207031 12.460938 C 12.578125 12.464844 12.949219 12.464844 13.320312 12.464844 C 13.539062 12.464844 13.761719 12.464844 13.984375 12.464844 C 14.191406 12.464844 14.398438 12.464844 14.605469 12.464844 C 14.683594 12.464844 14.757812 12.464844 14.835938 12.464844 C 15.457031 12.480469 15.457031 12.480469 15.984375 12.183594 C 16.214844 11.941406 16.285156 11.722656 16.277344 11.390625 C 16.238281 11.089844 16.082031 10.894531 15.855469 10.703125 C 15.636719 10.566406 15.421875 10.546875 15.164062 10.542969 C 15.132812 10.542969 15.097656 10.542969 15.066406 10.542969 C 14.957031 10.542969 14.847656 10.542969 14.738281 10.542969 C 14.660156 10.542969 14.582031 10.542969 14.503906 10.542969 C 14.292969 10.542969 14.082031 10.542969 13.871094 10.542969 C 13.738281 10.542969 13.605469 10.542969 13.472656 10.542969 C 13.007812 10.539062 12.546875 10.539062 12.082031 10.539062 C 11.652344 10.539062 11.222656 10.539062 10.792969 10.539062 C 10.421875 10.535156 10.050781 10.535156 9.679688 10.535156 C 9.460938 10.535156 9.238281 10.535156 9.015625 10.535156 C 8.808594 10.535156 8.601562 10.535156 8.394531 10.535156 C 8.316406 10.535156 8.242188 10.535156 8.164062 10.535156 C 7.488281 10.527344 7.488281 10.527344 6.941406 10.890625 Z M 6.941406 10.890625 "/>
</g>
</svg>
