<svg width="23" height="21" viewBox="0 0 30 27" fill="none" xmlns="http://www.w3.org/2000/svg">
<path d="M27.6 4.8H3.6C3.28174 4.8 2.97652 4.67357 2.75147 4.44853C2.52643 4.22348 2.4 3.91826 2.4 3.6C2.4 3.28174 2.52643 2.97652 2.75147 2.75147C2.97652 2.52643 3.28174 2.4 3.6 2.4H24C24.3183 2.4 24.6235 2.27357 24.8485 2.04853C25.0736 1.82348 25.2 1.51826 25.2 1.2C25.2 0.88174 25.0736 0.576516 24.8485 0.351472C24.6235 0.126428 24.3183 0 24 0H3.6C2.64522 0 1.72955 0.379285 1.05442 1.05442C0.379285 1.72955 0 2.64522 0 3.6V22.8C0 23.7548 0.379285 24.6705 1.05442 25.3456C1.72955 26.0207 2.64522 26.4 3.6 26.4H27.6C28.2365 26.4 28.847 26.1471 29.2971 25.6971C29.7471 25.247 30 24.6365 30 24V7.2C30 6.56348 29.7471 5.95303 29.2971 5.50294C28.847 5.05286 28.2365 4.8 27.6 4.8ZM22.2 16.8C21.844 16.8 21.496 16.6944 21.2 16.4966C20.904 16.2989 20.6733 16.0177 20.537 15.6888C20.4008 15.3599 20.3651 14.998 20.4346 14.6488C20.504 14.2997 20.6755 13.9789 20.9272 13.7272C21.1789 13.4755 21.4997 13.304 21.8488 13.2346C22.198 13.1651 22.5599 13.2008 22.8888 13.337C23.2177 13.4733 23.4989 13.704 23.6966 14C23.8944 14.296 24 14.644 24 15C24 15.4774 23.8104 15.9352 23.4728 16.2728C23.1352 16.6104 22.6774 16.8 22.2 16.8Z" fill="#F6D935"/>
</svg>
