<svg width="82" height="82" viewBox="0 0 82 82" fill="none" xmlns="http://www.w3.org/2000/svg">
<rect width="82" height="81.9084" rx="40.9542" fill="#DAF9EC"/>
<path d="M48.7726 28.2688C45.3723 28.2688 41.9355 29.4721 41.9355 31.7603V33.1915C46.7671 33.4285 50.1401 35.5617 50.1401 38.4424V44.5502L50.1856 44.6049C53.039 44.3132 55.5642 43.1463 55.5642 41.1863V31.7603C55.6097 29.4721 52.173 28.2688 48.7726 28.2688Z" fill="#1EAE71"/>
<path d="M40.1136 33.1916V31.7604C40.1136 29.4631 36.6769 28.2598 33.2765 28.2598C29.8762 28.2598 26.4395 29.4722 26.4395 31.7604V41.1773C26.4395 43.1464 28.9646 44.3041 31.818 44.605L31.9091 44.5412V38.4334C31.9091 35.5618 35.2821 33.4286 40.1136 33.1916Z" fill="#1EAE71"/>
<path d="M41.0241 34.4407C36.5299 34.4407 33.1387 36.1545 33.1387 38.4335V49.6555C33.1387 51.9345 36.5299 53.6483 41.0241 53.6483C45.5184 53.6483 48.9096 51.9345 48.9096 49.6555V47.6864C46.6309 49.3595 43.8482 50.2024 41.0241 50.0748C39.1606 50.1069 37.3069 49.798 35.5544 49.1632V47.5861C37.2812 48.3263 39.1458 48.6899 41.0241 48.6527C44.862 48.6527 47.998 47.5314 48.8913 45.7082V43.2104C47.2231 44.6052 44.4153 45.5168 41.0241 45.5168C39.1606 45.5489 37.3069 45.2399 35.5544 44.6052V42.9916C37.2812 43.7318 39.1458 44.0954 41.0241 44.0582C44.862 44.0582 47.998 43.0463 48.8913 41.2231V38.4335C48.9096 36.1545 45.5184 34.4407 41.0241 34.4407Z" fill="#1EAE71"/>
</svg>
