<svg width="57.48" height="49.2" viewBox="0 0 121 105" fill="none" xmlns="http://www.w3.org/2000/svg">
<path d="M111.525 65.1154H97.9893C95.5655 65.1127 93.2418 64.1486 91.528 62.4348C89.8141 60.7209 88.8501 58.3972 88.8474 55.9735V31.1301C88.8501 28.7063 89.8141 26.3827 91.528 24.6688C93.2418 22.955 95.5655 21.991 97.9893 21.9883H111.521C113.945 21.991 116.269 22.955 117.983 24.6688C119.696 26.3827 120.66 28.7063 120.663 31.1301V55.9735C120.66 58.3964 119.696 60.7191 117.983 62.4326C116.27 64.1462 113.948 65.1109 111.525 65.1154V65.1154ZM97.9927 29.2983C97.5078 29.2983 97.0427 29.491 96.6998 29.8338C96.357 30.1767 96.1643 30.6418 96.1643 31.1267V55.9701C96.1652 56.4547 96.3581 56.9192 96.7008 57.2619C97.0435 57.6046 97.5081 57.7976 97.9927 57.7985H111.525C112.009 57.7976 112.474 57.6046 112.817 57.2619C113.159 56.9192 113.352 56.4547 113.353 55.9701V31.1267C113.352 30.642 113.159 30.1775 112.817 29.8348C112.474 29.4921 112.009 29.2992 111.525 29.2983H97.9927Z" fill="#10101A"/>
<path d="M85.2372 48.9628V40.0018C85.2335 37.5786 84.2691 35.2558 82.5554 33.5427C80.8416 31.8296 78.5184 30.866 76.0953 30.8633H62.5633C60.1401 30.866 57.8169 31.8296 56.1032 33.5427C54.3894 35.2558 53.425 37.5786 53.4214 40.0018V59.5237V64.8486C53.4209 66.0492 53.6571 67.2382 54.1164 68.3476C54.5756 69.4569 55.249 70.4649 56.098 71.3139C56.947 72.1628 57.9549 72.8362 59.0643 73.2955C60.1736 73.7548 61.3626 73.9909 62.5633 73.9905H76.0953C78.519 73.9878 80.8427 73.0237 82.5566 71.3099C84.2704 69.596 85.2344 67.2723 85.2372 64.8486V57.9103C85.2344 55.4865 84.2704 53.1629 82.5566 51.449C80.8427 49.7352 78.519 48.7712 76.0953 48.7685H62.5633C61.9492 48.7688 61.3367 48.8304 60.7349 48.9526V40.0018C60.7358 39.5171 60.9287 39.0526 61.2714 38.7099C61.6141 38.3672 62.0786 38.1743 62.5633 38.1734H76.0953C76.5799 38.1743 77.0445 38.3672 77.3871 38.7099C77.7298 39.0526 77.9228 39.5171 77.9237 40.0018V45.2311C80.7055 45.6371 83.2759 46.9487 85.2372 48.9628V48.9628ZM60.7349 57.9103C60.7358 57.4256 60.9287 56.9611 61.2714 56.6184C61.6141 56.2758 62.0786 56.0829 62.5633 56.082H76.0953C76.5799 56.0829 77.0445 56.2758 77.3871 56.6184C77.7298 56.9611 77.9228 57.4256 77.9237 57.9103V64.8486C77.9228 65.3332 77.7298 65.7977 77.3871 66.1404C77.0445 66.4831 76.5799 66.6761 76.0953 66.677H62.5633C62.2314 66.6765 61.9059 66.5861 61.6212 66.4155C61.3366 66.2449 61.1034 66.0006 60.9464 65.7082C60.8063 65.4446 60.7336 65.1505 60.7349 64.852V57.9103Z" fill="#10101A"/>
<path d="M49.8128 40.0018C49.8092 37.5786 48.8448 35.2558 47.1311 33.5427C45.4173 31.8296 43.0941 30.866 40.671 30.8633H27.1355C24.7124 30.866 22.3892 31.8296 20.6754 33.5427C18.9617 35.2558 17.9973 37.5786 17.9937 40.0018V45.1185H25.3072V40.0018C25.3081 39.5171 25.501 39.0526 25.8437 38.7099C26.1864 38.3672 26.6509 38.1743 27.1355 38.1734H40.6812C41.1658 38.1743 41.6304 38.3672 41.9731 38.7099C42.3157 39.0526 42.5087 39.5171 42.5096 40.0018V46.9366C42.5087 47.4195 42.3172 47.8825 41.9767 48.2249C41.6362 48.5673 41.1743 48.7615 40.6914 48.7651H25.3072V56.0785H40.6573C41.142 56.0794 41.6065 56.2723 41.9492 56.615C42.2919 56.9577 42.4848 57.4222 42.4857 57.9069V64.8452C42.4848 65.3298 42.2919 65.7943 41.9492 66.137C41.6065 66.4797 41.142 66.6727 40.6573 66.6736H27.1355C26.6509 66.6727 26.1864 66.4797 25.8437 66.137C25.501 65.7943 25.3081 65.3298 25.3072 64.8452V59.7285H17.9937V64.8452C17.9964 67.2689 18.9604 69.5926 20.6742 71.3065C22.3881 73.0203 24.7118 73.9844 27.1355 73.9871H40.6812C43.1049 73.9844 45.4286 73.0203 47.1425 71.3065C48.8563 69.5926 49.8204 67.2689 49.8231 64.8452V57.9069C49.8238 55.9276 49.1796 54.0021 47.9879 52.4218C49.18 50.8417 49.8243 48.916 49.8231 46.9366L49.8128 40.0018Z" fill="#10101A"/>
<path d="M97.9033 68.7345C96.0217 68.727 94.1654 68.3006 92.4693 67.4861C89.3249 76.0299 83.5813 83.3732 76.0464 88.483C68.5115 93.5929 59.5643 96.2123 50.4633 95.9727C41.3623 95.7332 32.5654 92.6469 25.3097 87.1477C18.054 81.6486 12.7046 74.0134 10.014 65.316C7.32327 56.6185 7.42665 47.2964 10.3095 38.6607C13.1924 30.0251 18.7098 22.5104 26.0856 17.1735C33.4615 11.8366 42.3247 8.9461 51.4288 8.90845C60.5328 8.87079 69.4197 11.6879 76.8394 16.9635V16.9635L68.4855 24.932L90.8251 25.4471L91.3539 3.11433L82.826 11.2567C74.1106 4.65578 63.5253 0.990981 52.5942 0.789983C41.6631 0.588985 30.9503 3.86219 21.9981 10.1382C13.046 16.4143 6.31654 25.3694 2.7787 35.7141C-0.759139 46.0588 -0.922809 57.2594 2.31126 67.703C5.54533 78.1467 12.0103 87.2946 20.7752 93.8295C29.5401 100.364 40.1528 103.949 51.0851 104.068C62.0174 104.186 72.7053 100.832 81.6098 94.4889C90.5143 88.1454 97.1759 79.1398 100.636 68.7687L97.9033 68.7345Z" fill="#10101A"/>
</svg>
