<svg width="58" height="50" viewBox="0 0 58 50" fill="none" xmlns="http://www.w3.org/2000/svg">
<path d="M53.123 31.045H46.6755C45.5209 31.0437 44.414 30.5845 43.5977 29.7681C42.7813 28.9517 42.3221 27.8448 42.3208 26.6903V14.8563C42.3221 13.7018 42.7813 12.5949 43.5977 11.7786C44.414 10.9622 45.5209 10.503 46.6755 10.5017H53.1213C54.2759 10.503 55.3827 10.9622 56.1991 11.7786C57.0155 12.5949 57.4747 13.7018 57.476 14.8563V26.6903C57.4743 27.8444 57.0152 28.9508 56.1992 29.7671C55.3833 30.5833 54.2771 31.0428 53.123 31.045ZM46.6771 13.9838C46.4461 13.9838 46.2246 14.0755 46.0612 14.2389C45.8979 14.4022 45.8062 14.6237 45.8062 14.8547V26.6887C45.8066 26.9195 45.8985 27.1408 46.0617 27.304C46.225 27.4673 46.4462 27.5592 46.6771 27.5596H53.123C53.3538 27.5592 53.5751 27.4673 53.7383 27.304C53.9016 27.1408 53.9935 26.9195 53.9939 26.6887V14.8547C53.9935 14.6239 53.9016 14.4026 53.7383 14.2394C53.5751 14.0761 53.3538 13.9842 53.123 13.9838H46.6771Z" fill="#FEFEFF"/>
<path d="M40.602 23.3494V19.0808C40.6003 17.9266 40.1409 16.8201 39.3245 16.0041C38.5082 15.1881 37.4016 14.7291 36.2473 14.7278H29.8014C28.6472 14.7291 27.5406 15.1881 26.7242 16.0041C25.9079 16.8201 25.4485 17.9266 25.4468 19.0808V28.38V30.9164C25.4466 31.4883 25.5591 32.0547 25.7778 32.5831C25.9966 33.1116 26.3173 33.5917 26.7217 33.9961C27.1262 34.4005 27.6063 34.7213 28.1347 34.9401C28.6632 35.1588 29.2295 35.2713 29.8014 35.2711H36.2473C37.4018 35.2698 38.5087 34.8106 39.3251 33.9942C40.1415 33.1778 40.6007 32.071 40.602 30.9164V27.6114C40.6007 26.4569 40.1415 25.35 39.3251 24.5336C38.5087 23.7173 37.4018 23.2581 36.2473 23.2568H29.8014C29.5089 23.2569 29.2172 23.2863 28.9305 23.3445V19.0808C28.9309 18.85 29.0228 18.6287 29.1861 18.4655C29.3493 18.3022 29.5706 18.2103 29.8014 18.2099H36.2473C36.4782 18.2103 36.6994 18.3022 36.8627 18.4655C37.0259 18.6287 37.1178 18.85 37.1182 19.0808V21.5718C38.4433 21.7652 39.6678 22.3899 40.602 23.3494ZM28.9305 27.6114C28.9309 27.3806 29.0228 27.1593 29.1861 26.9961C29.3493 26.8328 29.5706 26.7409 29.8014 26.7405H36.2473C36.4782 26.7409 36.6994 26.8328 36.8627 26.9961C37.0259 27.1593 37.1178 27.3806 37.1182 27.6114V30.9164C37.1178 31.1473 37.0259 31.3685 36.8627 31.5318C36.6994 31.695 36.4782 31.7869 36.2473 31.7874H29.8014C29.6434 31.7871 29.4883 31.7441 29.3527 31.6628C29.2171 31.5816 29.106 31.4652 29.0312 31.3259C28.9645 31.2003 28.9299 31.0602 28.9305 30.9181V27.6114Z" fill="#FEFEFF"/>
<path d="M23.7271 19.0808C23.7254 17.9266 23.266 16.8201 22.4497 16.0041C21.6334 15.1881 20.5267 14.7291 19.3725 14.7278H12.925C11.7707 14.7291 10.6641 15.1881 9.84776 16.0041C9.03143 16.8201 8.57203 17.9266 8.57031 19.0808V21.5181H12.054V19.0808C12.0545 18.85 12.1464 18.6287 12.3096 18.4655C12.4728 18.3022 12.6941 18.2103 12.925 18.2099H19.3774C19.6082 18.2103 19.8295 18.3022 19.9927 18.4655C20.156 18.6287 20.2479 18.85 20.2483 19.0808V22.3842C20.2479 22.6142 20.1566 22.8348 19.9944 22.9979C19.8323 23.161 19.6122 23.2534 19.3822 23.2552H12.054V26.7389H19.366C19.5968 26.7393 19.8181 26.8312 19.9813 26.9944C20.1446 27.1577 20.2365 27.3789 20.2369 27.6098V30.9148C20.2365 31.1457 20.1446 31.3669 19.9813 31.5302C19.8181 31.6934 19.5968 31.7853 19.366 31.7857H12.925C12.6941 31.7853 12.4728 31.6934 12.3096 31.5302C12.1464 31.3669 12.0545 31.1457 12.054 30.9148V28.4775H8.57031V30.9148C8.5716 32.0693 9.03081 33.1762 9.84719 33.9926C10.6636 34.809 11.7704 35.2682 12.925 35.2695H19.3774C20.5319 35.2682 21.6388 34.809 22.4551 33.9926C23.2715 33.1762 23.7307 32.0693 23.732 30.9148V27.6098C23.7324 26.667 23.4255 25.7498 22.8578 24.997C23.4257 24.2444 23.7326 23.327 23.732 22.3842L23.7271 19.0808Z" fill="#FEFEFF"/>
<path d="M46.6355 32.7684C45.7392 32.7649 44.855 32.5617 44.0471 32.1738C42.5492 36.2436 39.8133 39.7415 36.2241 42.1755C32.6349 44.6095 28.373 45.8573 24.0378 45.7432C19.7026 45.6291 15.5123 44.1589 12.0561 41.5394C8.59989 38.92 6.05176 35.283 4.77007 31.14C3.48839 26.9971 3.53763 22.5565 4.91087 18.443C6.28411 14.3295 8.91227 10.7499 12.4257 8.20773C15.9391 5.66555 20.1611 4.28868 24.4977 4.27074C28.8344 4.25281 33.0675 5.59469 36.6019 8.10772L32.6226 11.9034L43.2639 12.1488L43.5157 1.51076L39.4535 5.38931C35.302 2.24502 30.2598 0.499318 25.0529 0.403574C19.8459 0.30783 14.7429 1.867 10.4786 4.85655C6.21437 7.8461 3.00883 12.1118 1.32361 17.0394C-0.36161 21.967 -0.439573 27.3023 1.10095 32.2771C2.64147 37.2519 5.721 41.6094 9.8961 44.7223C14.0712 47.8351 19.1265 49.5427 24.334 49.5992C29.5415 49.6556 34.6326 48.058 38.8742 45.0363C43.1158 42.0147 46.289 37.7249 47.937 32.7847L46.6355 32.7684Z" fill="#FEFEFF"/>
</svg>
