<svg width="43.96" height="12.93" viewBox="0 0 225 67" fill="none" xmlns="http://www.w3.org/2000/svg">
<path d="M33.5638 45.0327H51.5862L38.9622 18.2898L16.538 66.8008H0.342773L30.9892 4.83525L46.3539 0.682617L78.08 66.8008H61.8848L57.8152 58.1634H27.9163L33.5638 45.0327Z" fill="black"/>
<path d="M98.4282 21.4458V53.0972H122.596C131.068 53.0972 135.47 43.5462 135.47 34.1529C135.47 25.0172 131.317 16.0474 122.596 16.0474H83.0635L87.2161 2.34375H124.424C142.363 2.34375 151.665 18.8712 151.665 35.1495C151.665 51.0956 142.778 66.8009 124.424 66.8009H83.0635V25.5985L98.4282 21.4458Z" fill="black"/>
<path d="M156.672 21.9441C156.672 12.0609 164.479 2.34375 179.761 2.34375H223.613L219.46 16.0474H179.927C175.193 16.0474 172.868 19.0373 172.868 21.9441C172.868 24.851 175.276 27.7578 179.927 27.7578H202.16C217.193 27.7578 225 37.4751 225 47.3583C225 57.0007 217.608 66.8009 202.16 66.8009H156.647L160.8 53.0972H201.994C206.645 53.0972 209.054 50.3565 209.054 47.3583C209.054 44.3601 206.728 41.3785 201.994 41.3785H179.736C164.23 41.3785 156.672 31.6613 156.672 21.9441Z" fill="black"/>
</svg>
