<svg width="44" height="14" viewBox="0 0 44 14" fill="none" xmlns="http://www.w3.org/2000/svg">
<path d="M6.53386 9.20981H10.0615L7.59815 3.97772L3.21099 13.467H0.0424805L6.03827 1.3454L9.04429 0.532959L15.2529 13.467H12.0844L11.2882 11.7771H5.43869L6.53386 9.20981Z" fill="#FEFEFF"/>
<path d="M19.234 4.59374V10.7862H23.9624C25.6198 10.7862 26.4826 8.91754 26.4826 7.08143C26.4826 5.29407 25.6702 3.5392 23.9624 3.5392H16.228L17.0405 0.858154H24.3199C27.8296 0.858154 29.6511 4.09165 29.6511 7.27641C29.6511 10.3962 27.9109 13.4672 24.3199 13.4672H16.228V5.4078L19.234 4.59374Z" fill="#FEFEFF"/>
<path d="M30.626 4.69287C30.626 2.75927 32.1534 0.858154 35.1431 0.858154H43.7241L42.9116 3.5392H35.1756C34.2494 3.5392 33.7945 4.12417 33.7945 4.69287C33.7945 5.26158 34.2657 5.83028 35.1756 5.83028H39.5303C42.4729 5.83028 44.0003 7.7314 44.0003 9.665C44.0003 11.5499 42.5542 13.4672 39.5303 13.4672H30.626L31.4384 10.7862H39.4978C40.4077 10.7862 40.8789 10.25 40.8789 9.665C40.8789 9.08005 40.424 8.49506 39.4978 8.49506H35.1431C32.1046 8.49506 30.626 6.59398 30.626 4.69287Z" fill="#FEFEFF"/>
</svg>
