<svg width="119" height="122" viewBox="0 0 119 122" fill="none" xmlns="http://www.w3.org/2000/svg">
<path d="M64.7096 112.633C64.3017 114.516 64.6243 116.484 65.6121 118.139C66.6 119.794 68.1793 121.011 70.0307 121.546C71.8822 122.08 73.8675 121.892 75.5852 121.018C77.3029 120.145 78.6248 118.651 79.2835 116.84L96.764 70.5375L73.0433 71.2082L64.7096 112.633Z" fill="white"/>
<path d="M96.7434 70.07L73.0228 70.7407C72.918 70.7428 72.817 70.78 72.7359 70.8463C72.6548 70.9127 72.5984 71.0043 72.5756 71.1066L64.2419 112.552C63.9475 114.502 64.3718 116.492 65.4359 118.152C66.5 119.813 68.1313 121.03 70.026 121.577C71.9207 122.124 73.9496 121.964 75.7349 121.126C77.5202 120.288 78.9402 118.83 79.7304 117.023L97.2109 70.7407C97.2351 70.6574 97.2345 70.5688 97.2093 70.4858C97.184 70.4028 97.1351 70.3289 97.0686 70.2732C97.0329 70.2173 96.9852 70.1701 96.9289 70.135C96.8727 70.0998 96.8093 70.0776 96.7434 70.07ZM78.7751 116.657C78.1317 118.319 76.8901 119.679 75.2946 120.471C73.6991 121.263 71.865 121.429 70.1529 120.938C68.4408 120.446 66.9746 119.332 66.0425 117.814C65.1104 116.296 64.7799 114.484 65.1159 112.735L73.3683 71.6757L96.0117 71.0456L78.7751 116.657Z" fill="#000502"/>
<path d="M70.9903 94.6646L68.6122 107.45C69.2797 107.294 69.9601 107.198 70.6448 107.165C71.4059 107.163 72.1642 107.259 72.901 107.45L75.2182 94.6646C74.5231 94.3696 73.7779 94.2109 73.023 94.1971C72.3208 94.2141 71.6294 94.3731 70.9903 94.6646Z" fill="#002D3A"/>
<path d="M75.4216 94.2784C74.6611 93.9599 73.8474 93.7875 73.0231 93.7702C72.251 93.7856 71.4902 93.9585 70.7872 94.2784C70.7204 94.3128 70.662 94.3617 70.6163 94.4215C70.5706 94.4812 70.5387 94.5504 70.523 94.6239L68.0839 107.348C68.0698 107.425 68.0754 107.505 68.1003 107.58C68.1252 107.654 68.1684 107.722 68.2262 107.775C68.2661 107.822 68.3161 107.859 68.3724 107.883C68.4288 107.908 68.4899 107.92 68.5514 107.917C69.1667 107.779 69.792 107.691 70.4214 107.653C71.1072 107.658 71.7898 107.747 72.454 107.917C72.5777 107.968 72.7165 107.968 72.8402 107.917C72.9431 107.831 73.0204 107.719 73.0638 107.592L75.5029 94.8475C75.5547 94.7571 75.5748 94.6521 75.5601 94.549C75.5454 94.4459 75.4966 94.3506 75.4216 94.2784ZM72.393 106.86C71.7767 106.742 71.1507 106.68 70.523 106.677C70.0652 106.691 69.6094 106.746 69.1612 106.84L71.4174 95.0508C71.927 94.8383 72.4712 94.7212 73.0231 94.7052C73.5846 94.7187 74.1404 94.8217 74.6695 95.0101L72.393 106.86Z" fill="#000502"/>
<path d="M69.7705 101.149L65.9899 105.844C67.4692 106.386 68.9836 106.828 70.5226 107.165C71.2837 107.163 72.042 107.259 72.7788 107.45L73.9984 101.149C73.2979 100.882 72.5528 100.75 71.8031 100.762C71.1066 100.754 70.4154 100.885 69.7705 101.149Z" fill="#D4D9D7"/>
<path d="M74.1815 100.762C73.4295 100.44 72.6216 100.267 71.8033 100.254C71.0312 100.27 70.2704 100.443 69.5675 100.762C69.5008 100.793 69.4444 100.843 69.4049 100.905L65.6242 105.58C65.5903 105.646 65.5726 105.719 65.5726 105.793C65.5726 105.867 65.5903 105.941 65.6242 106.007C65.6455 106.081 65.6843 106.15 65.7373 106.206C65.7903 106.263 65.8561 106.306 65.9291 106.332C67.4492 106.903 69.0125 107.351 70.6041 107.673C71.2899 107.678 71.9725 107.767 72.6367 107.938H72.779C72.8593 107.956 72.9426 107.956 73.0229 107.938C73.1258 107.852 73.2032 107.739 73.2465 107.612L74.4457 101.332C74.4852 101.221 74.4796 101.099 74.4302 100.993C74.3808 100.886 74.2914 100.804 74.1815 100.762ZM72.3928 106.86C71.7765 106.742 71.1504 106.68 70.5228 106.677C69.2503 106.415 67.9999 106.055 66.7828 105.6L70.0756 101.535C70.6239 101.307 71.2098 101.183 71.8033 101.169C72.3637 101.177 72.9193 101.273 73.4498 101.454L72.3928 106.86Z" fill="#000502"/>
<path d="M68.0225 105.58C67.3203 105.597 66.6289 105.756 65.9899 106.047L68.551 107.45C69.2185 107.294 69.8988 107.199 70.5836 107.165C71.3447 107.163 72.103 107.259 72.8398 107.45L70.2584 106.047C69.5521 105.742 68.7916 105.583 68.0225 105.58Z" fill="#002D3A"/>
<path d="M70.4007 105.62C69.6487 105.298 68.8408 105.125 68.0225 105.112C67.244 105.129 66.4768 105.302 65.7663 105.62C65.6951 105.665 65.6344 105.724 65.5888 105.794C65.5431 105.864 65.5135 105.944 65.5021 106.027C65.501 106.116 65.5253 106.203 65.5721 106.279C65.6189 106.354 65.6863 106.415 65.7663 106.454L68.3274 107.856C68.4005 107.877 68.478 107.877 68.551 107.856C69.1663 107.718 69.7916 107.63 70.421 107.592C71.1068 107.597 71.7894 107.686 72.4536 107.856C72.5669 107.885 72.6866 107.872 72.791 107.82C72.8954 107.767 72.9777 107.679 73.0228 107.572C73.0674 107.466 73.0713 107.347 73.0338 107.238C72.9963 107.129 72.92 107.038 72.8195 106.982L70.4007 105.62ZM68.612 106.86L67.1689 106.068C67.4486 106.001 67.735 105.967 68.0225 105.966C68.72 105.969 69.4102 106.107 70.0552 106.372L70.4617 106.596C69.8387 106.631 69.2199 106.72 68.612 106.86Z" fill="#000502"/>
<path d="M111.846 49.5405L41.5176 2.79042L21.4963 78.6679L105.87 72.9156C109.509 73.8506 113.797 69.3789 115.444 62.9151C117.09 56.4514 115.484 50.4755 111.846 49.5405Z" fill="#F7BC48"/>
<path d="M112.049 49.0934L41.7816 2.46522C41.7187 2.42401 41.6468 2.39858 41.572 2.39109C41.4972 2.3836 41.4216 2.39427 41.3518 2.4222C41.282 2.45013 41.2199 2.49449 41.1709 2.55152C41.1219 2.60855 41.0873 2.67656 41.0702 2.74979L21.049 78.546C21.0133 78.6078 20.9945 78.6779 20.9945 78.7492C20.9945 78.8206 21.0133 78.8907 21.049 78.9525C21.0921 79.0087 21.1475 79.0544 21.2108 79.0861C21.2742 79.1178 21.344 79.1347 21.4148 79.1354L105.707 73.4035C106.047 73.4841 106.395 73.525 106.744 73.5254C110.423 73.5254 114.244 69.1146 115.789 63.0371C116.6 60.0978 116.662 57.0025 115.972 54.0326C115.804 52.9394 115.354 51.9088 114.666 51.0426C113.978 50.1765 113.076 49.5046 112.049 49.0934ZM114.996 62.7932C113.574 68.3626 110.077 72.5701 106.866 72.5701C106.572 72.5679 106.279 72.5338 105.992 72.4684H105.85L22.1263 78.1598L41.802 3.64413L111.582 49.9471H111.724C112.631 50.2814 113.431 50.8545 114.039 51.6058C114.647 52.3571 115.041 53.2588 115.179 54.2156C115.836 57.0451 115.773 59.9942 114.996 62.7932Z" fill="#000502"/>
<path d="M113.919 48.5039C113.816 48.4847 113.719 48.443 113.634 48.382L105.768 43.5037C105.553 43.3614 105.302 43.285 105.044 43.2838C104.787 43.2827 104.534 43.3569 104.318 43.4973C104.102 43.6377 103.932 43.8381 103.829 44.074C103.725 44.3099 103.693 44.5709 103.736 44.8249C104.625 49.6969 104.526 54.698 103.443 59.5308C102.361 64.3635 100.317 68.9292 97.4344 72.9563C97.2923 73.1516 97.2083 73.3831 97.1921 73.6241C97.1759 73.8651 97.2282 74.1058 97.343 74.3183C97.4578 74.5308 97.6303 74.7066 97.8407 74.8253C98.0511 74.9439 98.2908 75.0006 98.532 74.9889L106.886 74.6433C106.98 74.6223 107.077 74.6223 107.171 74.6433C111.236 75.5377 115.931 70.5781 117.761 63.403C119.59 56.2279 117.883 49.6828 113.919 48.5039Z" fill="white"/>
<path d="M114.041 48.0568H113.878L106.012 43.1785C105.642 42.9606 105.207 42.8799 104.783 42.9505C104.359 43.0211 103.974 43.2385 103.695 43.5647C103.529 43.7625 103.408 43.9942 103.342 44.2435C103.275 44.4928 103.264 44.7537 103.309 45.0078C104.182 49.8049 104.08 54.7288 103.007 59.4853C101.935 64.2419 99.9154 68.7336 97.0684 72.692C96.8844 72.9585 96.7761 73.2699 96.7552 73.593C96.7343 73.9162 96.8015 74.239 96.9496 74.5269C97.0978 74.8148 97.3213 75.0572 97.5964 75.228C97.8715 75.3989 98.1878 75.4919 98.5115 75.497L106.906 75.1312H107.028C107.375 75.2053 107.73 75.2394 108.085 75.2328C112.15 75.2328 116.439 70.3139 118.248 63.5453C120.159 56.0449 118.309 49.2967 114.041 48.0568ZM117.395 63.3217C115.789 69.5821 111.866 74.3181 108.227 74.3181C107.947 74.3156 107.667 74.2815 107.394 74.2165H106.967L98.6132 74.5824V75.0499V74.5417C98.4641 74.5438 98.3176 74.5027 98.1913 74.4233C98.0651 74.344 97.9645 74.2298 97.9018 74.0945C97.8226 73.9662 97.7807 73.8184 97.7807 73.6677C97.7807 73.5169 97.8226 73.3692 97.9018 73.2408C100.822 69.1695 102.893 64.5514 103.99 59.6622C105.086 54.773 105.186 49.713 104.284 44.7843C104.258 44.6692 104.262 44.5495 104.293 44.4359C104.325 44.3224 104.385 44.2186 104.467 44.1338C104.544 44.0354 104.643 43.9564 104.756 43.9035C104.869 43.8505 104.993 43.8249 105.118 43.8289C105.268 43.8312 105.415 43.8733 105.544 43.9509L113.431 48.8292C113.549 48.9104 113.679 48.9721 113.817 49.0121C117.395 50.0487 119.082 56.4921 117.395 63.3217Z" fill="#16162B"/>
<path d="M37.2284 1.00176C34.8635 0.399643 32.3993 0.295815 29.9923 0.696864C18.1624 2.60752 6.80013 16.0431 2.3487 33.422C-3.20033 55.1506 3.38533 74.9889 17.3494 78.546C19.6869 79.1462 22.1241 79.2501 24.5042 78.8509C36.334 76.9605 47.7167 63.5046 52.1478 46.1461C57.7781 24.3971 51.1924 4.57916 37.2284 1.00176Z" fill="white"/>
<path d="M37.3504 0.55459C34.9451 -0.0515458 32.4417 -0.162194 29.9923 0.229372C17.9795 2.16035 6.45462 15.7585 1.98287 33.3C-3.64747 55.2929 3.10081 75.3751 17.3088 79.0135C18.7435 79.3795 20.2185 79.5639 21.6992 79.5623C22.6934 79.561 23.6858 79.4795 24.6668 79.3184C36.6796 77.4077 48.2045 63.8095 52.6966 46.2681C58.3066 24.2549 51.5787 4.17264 37.3504 0.55459ZM51.7616 46.0242C47.3711 63.2201 36.0901 76.5337 24.5042 78.4037C23.5774 78.5591 22.6389 78.6339 21.6992 78.6273C20.3284 78.6257 18.963 78.455 17.634 78.1191C3.85287 74.5824 -2.52954 55.0286 2.89754 33.5439C7.28799 16.348 18.4877 3.0547 30.1549 1.1847C31.0811 1.02245 32.0196 0.940835 32.9599 0.940783C34.3654 0.943735 35.7651 1.12125 37.1268 1.46926C50.8266 4.96536 57.2496 24.5394 51.7616 46.0242Z" fill="#000502"/>
<path d="M36.4764 3.94905C24.2808 0.839155 10.276 14.356 5.23516 34.1334C0.19428 53.9107 5.9669 72.4888 18.1829 75.619C30.3989 78.7493 44.3833 65.212 49.4445 45.4347C54.5057 25.6574 48.6924 7.07928 36.4764 3.94905Z" fill="#D4D9D7"/>
<path d="M36.5981 3.50185C35.3911 3.18277 34.1471 3.02556 32.8987 3.03435C21.1909 3.03435 9.36107 16.0634 4.76736 34.0114C2.29125 42.9285 2.29125 52.3516 4.76736 61.2687C7.24715 69.2569 11.9831 74.5214 18.0403 76.0662C19.2492 76.3752 20.4919 76.5323 21.7397 76.5337C33.4475 76.5337 45.2977 63.5046 49.8711 45.5363C52.3363 36.6246 52.3363 27.2109 49.8711 18.2993C47.3913 10.3111 42.6756 5.04663 36.5981 3.50185ZM48.9767 45.3127C44.5659 62.5696 32.8581 75.5783 21.8616 75.5783C20.6965 75.5806 19.5357 75.4372 18.4062 75.1515C12.6539 73.688 8.24313 68.6471 5.78367 60.9232C3.35924 52.1785 3.35924 42.939 5.78367 34.1943C10.0928 16.9984 21.8616 3.98967 32.8987 3.98967C34.0705 3.98829 35.2379 4.13166 36.3745 4.41652C42.1065 5.88001 46.5376 10.9006 48.9767 18.6448C51.3899 27.3703 51.3899 36.5872 48.9767 45.3127Z" fill="#000502"/>
<g style="mix-blend-mode:multiply" opacity="0.8">
<path d="M36.4767 3.94901C32.6693 3.06781 28.6718 3.58733 25.216 5.41249C28.1402 4.07643 31.4662 3.91631 34.5051 4.96532C43.4079 8.27848 46.2536 22.6897 40.8672 37.1416C35.4807 51.5935 23.8948 60.6183 14.9513 57.2848C6.00783 53.9513 3.1825 39.5401 8.58926 25.0882C9.18374 23.548 9.8623 22.0416 10.6219 20.5758C8.27193 24.8475 6.48204 29.4042 5.29642 34.1333C0.235206 53.931 6.02816 72.4888 18.2442 75.619C30.4602 78.7492 44.4446 65.212 49.5058 45.4347C54.567 25.6573 48.6927 7.07924 36.4767 3.94901Z" fill="#647794"/>
</g>
<path d="M34.9523 33.9098L32.2693 46.9185L45.7049 55.862C48.9765 48.8389 50.841 41.243 51.1929 33.5032L35.6231 33.6862L34.9523 33.9098Z" fill="#002D3A"/>
<path d="M51.1924 33.0764L35.5006 33.2797L34.8502 33.4423C34.761 33.4628 34.6794 33.508 34.6147 33.5727C34.55 33.6374 34.5048 33.719 34.4843 33.8082L31.8012 46.8169C31.7789 46.9093 31.7865 47.0063 31.8231 47.0941C31.8596 47.1818 31.9232 47.2556 32.0045 47.3047L45.4401 56.2482C45.5257 56.2777 45.6187 56.2777 45.7043 56.2482H45.8263C45.893 56.2285 45.9547 56.1947 46.0073 56.1491C46.0599 56.1035 46.1021 56.0472 46.1312 55.984C47.7223 52.6113 48.9817 49.0919 49.8915 45.4754C50.911 41.5532 51.5039 37.5324 51.6599 33.483C51.6651 33.42 51.6569 33.3567 51.6359 33.2971C51.6149 33.2376 51.5815 33.1831 51.5379 33.1374C51.433 33.0783 51.3111 33.0568 51.1924 33.0764ZM48.9768 45.2721C48.1189 48.6566 46.9555 51.9562 45.5011 55.1303L32.7972 46.695L35.3583 34.296H35.6226L50.7046 34.1131C50.497 37.8939 49.9183 41.6452 48.9768 45.3128V45.2721Z" fill="#000502"/>
<path d="M35.623 33.6861C33.5904 33.1577 31.1715 35.7188 30.2365 39.3165C29.3015 42.9142 30.2365 46.329 32.2692 46.8575C34.3018 47.386 36.7206 44.8249 37.6556 41.2271C38.5906 37.6294 37.6759 34.2756 35.623 33.6861Z" fill="white"/>
<path d="M35.7448 33.2796C33.4479 32.6902 30.7648 35.3123 29.7689 39.3775C29.3446 41.0723 29.3446 42.8455 29.7689 44.5403C29.8149 45.3496 30.1652 46.1114 30.7496 46.6731C31.3339 47.2349 32.109 47.5548 32.9194 47.5689C35.0943 47.5689 37.3302 45.0078 38.2245 41.4711C39.1189 37.4465 38.1229 33.8894 35.7448 33.2796ZM37.1879 41.1662C36.3545 44.4794 34.1593 46.9185 32.3909 46.451C31.9167 46.2717 31.5 45.9672 31.185 45.5699C30.8701 45.1726 30.6687 44.6974 30.6022 44.1948C30.2414 42.646 30.2764 41.0312 30.7039 39.4994C31.4763 36.4505 33.3666 34.1537 35.074 34.1537C35.2223 34.1325 35.3729 34.1325 35.5212 34.1537C37.2692 34.6618 38.1229 37.7514 37.1879 41.1662Z" fill="#000502"/>
</svg>
